<svg xmlns="http://www.w3.org/2000/svg" viewBox="0 0 708.66 238.11"><path d="M402.7 107.03v95.52c0 3.09-2.51 5.6-5.6 5.6h-5.14c-3.09 0-5.6-2.51-5.6-5.6v-51.26c0 1.7-4.52 5.34-6.27 6.46-8.58 5.49-19.63 9.01-30.06 9.01-9.04 0-18.1-3.04-25.64-7.7-6.99-4.31-11.26-11.31-14.8-18.19-4.06-7.88-6.08-17.08-6.08-27.59 0-10.52 2.06-19.81 6.19-27.9 6.71-13.13 15.44-22.73 34.42-25.81 6.06-.99 12.28-.95 18.35-.09 25.09 3.55 40.23 17.84 40.23 47.55Zm-16.62 5.83c0-12.31-2.85-21.79-8.56-28.44-5.7-6.64-13.8-9.97-24.29-9.97-10.35 0-18.44 3.43-24.29 10.29-5.86 6.87-8.78 16.38-8.78 28.55 0 12.03 2.92 21.37 8.78 28.02 5.85 6.65 14.02 9.97 24.51 9.97 10.34 0 18.36-3.36 24.06-10.08 5.71-6.71 8.56-16.16 8.57-28.34Zm89.14-75.12c3.03 1.61 3.94 5.61 1.88 8.35-5.93 7.87-12.88 11.59-18.78 11.91-4.56.24-8.54-.89-16.79-5.36l-5.38-2.84c-6.22-3.24-10.55-4.8-14.13-4.61-3.24.17-6.25 1.77-9.05 4.41-1.73 1.63-4.3 2.01-6.41.91l-1.34-.7c-3.07-1.6-3.99-5.66-1.87-8.4 5.89-7.61 12.54-11.09 18.5-11.41 4.56-.25 8.7.87 16.77 5.13l5.22 2.85c6.22 3.47 10.71 4.79 14.29 4.6 3.33-.17 6.37-1.85 9.23-4.62 1.73-1.68 4.36-2.07 6.49-.94ZM512 34.9h5.45c3.09 0 5.6 2.51 5.6 5.6v77.1c0 29.45-25.85 52.98-56.05 49.1-24.96-3.21-43-25.67-43-50.84V74.74c0-3.09 2.51-5.6 5.6-5.6h5.45c3.09 0 5.6 2.51 5.6 5.6l-.01 42.85c0 19.22 16.56 34.65 36.17 32.74 17.09-1.66 29.61-17.02 29.61-34.19l-.01-75.65c0-3.09 2.51-5.6 5.59-5.59Zm-344.98 72.47v54.14c0 3.09-2.51 5.6-5.6 5.6h-5.14c-3.09 0-5.6-2.51-5.6-5.6v-9.88c0 1.7-4.52 5.34-6.27 6.46-8.58 5.49-19.63 9.01-30.06 9.01-9.04 0-18.1-3.04-25.64-7.7-6.99-4.31-11.26-11.31-14.8-18.19-4.06-7.88-6.08-17.08-6.08-27.59 0-10.52 2.06-19.81 6.19-27.9 6.71-13.13 15.44-22.73 34.42-25.81 6.05-.98 12.28-.94 18.35-.08 25.08 3.55 40.22 17.84 40.23 47.54Zm-16.63 5.85c0-12.31-2.86-21.79-8.56-28.44-5.7-6.64-13.8-9.97-24.29-9.97-10.34 0-18.44 3.43-24.29 10.29-5.86 6.87-8.78 16.38-8.78 28.55 0 12.03 2.92 21.37 8.78 28.02 5.85 6.65 14.02 9.97 24.51 9.97 10.34 0 18.36-3.36 24.06-10.08 5.71-6.72 8.56-16.17 8.57-28.34Zm134.48-5.85v54.14c0 3.09-2.51 5.6-5.6 5.6h-5.14c-3.09 0-5.6-2.51-5.6-5.6v-9.88c0 1.7-4.52 5.34-6.27 6.46-8.58 5.49-19.63 9.01-30.06 9.01-9.04 0-18.1-3.04-25.64-7.7-6.99-4.31-11.26-11.31-14.8-18.19-4.06-7.88-6.08-17.08-6.08-27.59 0-10.52 2.06-19.81 6.19-27.9 6.71-13.13 15.44-22.73 34.42-25.81 6.05-.98 12.28-.94 18.35-.08 25.08 3.55 40.22 17.84 40.23 47.54Zm-16.63 5.85c0-12.31-2.86-21.79-8.56-28.44-5.7-6.64-13.8-9.97-24.29-9.97-10.34 0-18.44 3.43-24.29 10.29-5.86 6.87-8.78 16.38-8.78 28.55 0 12.03 2.92 21.37 8.78 28.02 5.85 6.65 14.02 9.97 24.51 9.97 10.34 0 18.36-3.36 24.06-10.08 5.7-6.72 8.56-16.17 8.57-28.34Zm372.6-5.85v54.14c0 3.09-2.51 5.6-5.6 5.6h-5.14c-3.09 0-5.6-2.51-5.6-5.6v-9.88c0 1.7-4.52 5.34-6.27 6.46-8.58 5.49-19.63 9.01-30.06 9.01-9.04 0-18.1-3.04-25.64-7.7-6.99-4.31-11.26-11.31-14.8-18.19-4.06-7.88-6.08-17.08-6.08-27.59 0-10.52 2.06-19.81 6.19-27.9 6.71-13.13 15.44-22.73 34.42-25.81 6.05-.98 12.28-.94 18.35-.08 25.08 3.55 40.22 17.84 40.23 47.54Zm-16.63 5.85c0-12.31-2.86-21.79-8.56-28.44-5.7-6.64-13.8-9.97-24.29-9.97-10.34 0-18.44 3.43-24.29 10.29-5.86 6.87-8.78 16.38-8.78 28.55 0 12.03 2.92 21.37 8.78 28.02 5.85 6.65 14.02 9.97 24.51 9.97 10.34 0 18.36-3.36 24.06-10.08 5.7-6.72 8.56-16.17 8.57-28.34Z"/></svg>