<svg xmlns="http://www.w3.org/2000/svg" fill="#fff" viewBox="0 0 500 200">
  <path d="M79.1 116.7H38l-7.7 22.9H0L39.7 29.7H79l39.7 109.9H86.5l-7.4-22.9zm-7.2-22.6l-5.2-16.3c-2.8-9.1-3-20.3-2.8-33H54c.1 12.7-.3 23.8-3.2 33l-5.5 16.3h26.6zm52.3 25.1c0-20.4 21.7-28.3 49.9-30.5v-2.8c0-6.1-3.5-9.7-11.2-9.7-8.6 0-12.9 4.2-14.4 11.1L123 83.1c1.7-13.9 16.3-24.8 40.5-24.8 23.4 0 37.1 10.4 37.1 31.1v25.9c0 3.8.6 4.7 4.4 4.7h6.1v19.6h-12.4c-13.9 0-16.7-5.7-17-16.3h-8.1c-3.1 10.4-10.4 19-25 19-14.5 0-24.4-8.8-24.4-23.1zm50-11.4v-4.9c-13 1.6-23.1 4.6-23.1 13.5 0 4.7 3.2 7.5 8.8 7.5 7.7 0 14.3-5.1 14.3-16.1zM276 153.3c0-15.9 4-23.4 7.8-29.8h-10.7c-3.5 9-9.9 18.7-24.8 18.7-18.4 0-31.1-17-31.1-42.1s12.3-41.8 30.9-41.8c14.9 0 21.3 9.6 25.1 18.4H284c-3-4.7-5.8-9.6-6-15.9h25.1v109.5H276v-17zm.8-53.1c0-15.5-6.3-22.8-15.5-22.8-8.8 0-15.4 6.1-15.4 22.8s6.6 22.9 15.4 22.9c9.1.1 15.4-7.5 15.5-22.9zm43.9 13.7V60.8h27.6v47.7c0 8.8 4.2 12.6 10.2 12.6 8.8 0 12.6-7.9 12.6-18.5V60.8h27.5v78.8h-25.1c0-4.9 2.4-11 6.6-17.6h-10.5c-4 11.8-11.9 20.1-24.7 20.1-14.7.1-24.2-10.2-24.2-28.2zm92.3 5.3c0-20.4 21.7-28.3 49.9-30.5v-2.8c0-6.1-3.5-9.7-11.1-9.7-8.6 0-12.9 4.2-14.5 11.1l-25.4-4.2c1.7-13.9 16.3-24.8 40.5-24.8 23.4 0 37.1 10.4 37.1 31.1v25.9c0 3.8.6 4.7 4.4 4.7h6.1v19.6h-12.4c-13.9 0-16.6-5.7-17-16.3h-8.2c-3.2 10.4-10.4 19-25 19-14.2 0-24.4-8.8-24.4-23.1zm49.9-11.4v-4.9c-13 1.6-23.1 4.6-23.1 13.5 0 4.7 3.1 7.5 8.8 7.5 7.7 0 14.3-5.1 14.3-16.1z"/>
</svg>
