<svg xmlns="http://www.w3.org/2000/svg" viewBox="0 0 708.66 238.11" style="enable-background:new 0 0 708.66 238.11" xml:space="preserve">
    <path fill="#9206d3" d="M362.47 59.48c-6.07-.86-12.29-.9-18.35.09-18.98 3.08-27.71 12.68-34.42 25.81-4.13 8.09-6.19 17.38-6.19 27.9 0 10.51 2.02 19.71 6.08 27.59 3.54 6.88 7.81 13.88 14.8 18.19 7.54 4.66 16.6 7.7 25.64 7.7 10.43 0 21.48-3.52 30.06-9.01 1.75-1.12 6.27-4.76 6.27-6.46v51.26c0 3.09 2.51 5.6 5.6 5.6h5.14c3.09 0 5.6-2.51 5.6-5.6V107.03c0-29.71-15.14-44-40.23-47.55zm15.04 81.72c-5.7 6.72-13.72 10.08-24.06 10.08-10.49 0-18.66-3.32-24.51-9.97-5.86-6.65-8.78-15.99-8.78-28.02 0-12.17 2.92-21.68 8.78-28.55 5.85-6.86 13.94-10.29 24.29-10.29 10.49 0 18.59 3.33 24.29 9.97 5.71 6.65 8.56 16.13 8.56 28.44-.01 12.18-2.86 21.63-8.57 28.34zM473.85 37.02c-2.13-1.13-4.76-.74-6.49.94-2.86 2.77-5.9 4.45-9.23 4.62-3.58.19-8.07-1.13-14.29-4.6l-5.22-2.85c-8.07-4.26-12.21-5.38-16.77-5.13-5.96.32-12.61 3.8-18.5 11.41-2.12 2.74-1.2 6.8 1.87 8.4l1.34.7c2.11 1.1 4.68.72 6.41-.91 2.8-2.64 5.81-4.24 9.05-4.41 3.58-.19 7.91 1.37 14.13 4.61l5.38 2.84c8.25 4.47 12.23 5.6 16.79 5.36 5.9-.32 12.85-4.04 18.78-11.91 2.06-2.74 1.15-6.74-1.88-8.35l-1.37-.72z"/>
    <path d="m506.41 40.49.01 75.65c0 17.17-12.52 32.53-29.61 34.19-19.61 1.91-36.17-13.52-36.17-32.74l.01-42.85c0-3.09-2.51-5.6-5.6-5.6h-5.45c-3.09 0-5.6 2.51-5.6 5.6v41.12c0 25.17 18.04 47.63 43 50.84 30.2 3.88 56.05-19.65 56.05-49.1V40.5c0-3.09-2.51-5.6-5.6-5.6H512c-3.08-.01-5.59 2.5-5.59 5.59zM126.79 59.83c-6.07-.86-12.3-.9-18.35.08-18.98 3.08-27.71 12.68-34.42 25.81-4.13 8.09-6.19 17.38-6.19 27.9 0 10.51 2.02 19.71 6.08 27.59 3.54 6.88 7.81 13.88 14.8 18.19 7.54 4.66 16.6 7.7 25.64 7.7 10.43 0 21.48-3.52 30.06-9.01 1.75-1.12 6.27-4.76 6.27-6.46v9.88c0 3.09 2.51 5.6 5.6 5.6h5.14c3.09 0 5.6-2.51 5.6-5.6v-54.14c-.01-29.7-15.15-43.99-40.23-47.54zm15.03 81.73c-5.7 6.72-13.72 10.08-24.06 10.08-10.49 0-18.66-3.32-24.51-9.97-5.86-6.65-8.78-15.99-8.78-28.02 0-12.17 2.92-21.68 8.78-28.55 5.85-6.86 13.95-10.29 24.29-10.29 10.49 0 18.59 3.33 24.29 9.97 5.7 6.65 8.56 16.13 8.56 28.44-.01 12.17-2.86 21.62-8.57 28.34zM244.64 59.83c-6.07-.86-12.3-.9-18.35.08-18.98 3.08-27.71 12.68-34.42 25.81-4.13 8.09-6.19 17.38-6.19 27.9 0 10.51 2.02 19.71 6.08 27.59 3.54 6.88 7.81 13.88 14.8 18.19 7.54 4.66 16.6 7.7 25.64 7.7 10.43 0 21.48-3.52 30.06-9.01 1.75-1.12 6.27-4.76 6.27-6.46v9.88c0 3.09 2.51 5.6 5.6 5.6h5.14c3.09 0 5.6-2.51 5.6-5.6v-54.14c-.01-29.7-15.15-43.99-40.23-47.54zm15.03 81.73c-5.7 6.72-13.72 10.08-24.06 10.08-10.49 0-18.66-3.32-24.51-9.97-5.86-6.65-8.78-15.99-8.78-28.02 0-12.17 2.92-21.68 8.78-28.55 5.85-6.86 13.95-10.29 24.29-10.29 10.49 0 18.59 3.33 24.29 9.97 5.7 6.65 8.56 16.13 8.56 28.44-.01 12.17-2.87 21.62-8.57 28.34zM600.61 59.83c-6.07-.86-12.3-.9-18.35.08-18.98 3.08-27.71 12.68-34.42 25.81-4.13 8.09-6.19 17.38-6.19 27.9 0 10.51 2.02 19.71 6.08 27.59 3.54 6.88 7.81 13.88 14.8 18.19 7.54 4.66 16.6 7.7 25.64 7.7 10.43 0 21.48-3.52 30.06-9.01 1.75-1.12 6.27-4.76 6.27-6.46v9.88c0 3.09 2.51 5.6 5.6 5.6h5.14c3.09 0 5.6-2.51 5.6-5.6v-54.14c-.01-29.7-15.15-43.99-40.23-47.54zm15.03 81.73c-5.7 6.72-13.72 10.08-24.06 10.08-10.49 0-18.66-3.32-24.51-9.97-5.86-6.65-8.78-15.99-8.78-28.02 0-12.17 2.92-21.68 8.78-28.55 5.85-6.86 13.95-10.29 24.29-10.29 10.49 0 18.59 3.33 24.29 9.97 5.7 6.65 8.56 16.13 8.56 28.44-.01 12.17-2.87 21.62-8.57 28.34z"/>
</svg>