<svg xmlns="http://www.w3.org/2000/svg" viewBox="0 0 255 59"><path fill="#212121" d="M21.07 16.494 29.634 29.5 21.07 42.507h-5.092L24.542 29.5l-8.564-13.006h5.092ZM34.727 29.5l8.564 13.007h-5.092L29.635 29.5l8.564-13.006h5.092L34.727 29.5Z"/><path fill="#00E7C4" d="M52.369 59H0V0h59.269v52.285h-6.9V59ZM15.978 16.494 24.542 29.5l-8.564 13.007h5.092L29.634 29.5 21.07 16.494h-5.092Zm27.313 0h-5.092L29.635 29.5l8.564 13.007h5.092L34.727 29.5l8.564-13.006Z"/><path fill="#212121" d="M81.773 39.045c0 2.24 1.687 3.445 4.283 3.445 4.197 0 6.879-2.756 6.879-6.89v-1.206h-6.447c-2.985 0-4.715 1.335-4.715 3.273v1.378Zm4.37-7.365h6.792v-1.723c0-3.23-1.687-4.823-5.106-4.823-3.331 0-5.148 1.593-5.278 4.178h-3.677c.216-4.48 3.677-7.15 9.172-7.15 2.985 0 5.322.99 6.49 2.197a7.135 7.135 0 0 1 1.384 2.11c.692 1.593.735 2.541.735 3.575v12.274h3.332v2.757h-3.85c-2.077 0-2.813-.862-2.943-2.541l-.043-1.163h-.26c-.995 2.54-4.023 4.134-7.7 4.134-4.544 0-7.27-2.713-7.27-6.89 0-4.437 3.073-6.935 8.221-6.935h.001Zm32.893 2.16 7.398 11.235h-4.399l-7.397-11.235 7.397-11.234h4.399l-7.398 11.234ZM107.24 22.606l7.398 11.234-7.398 11.235h-4.398l7.397-11.235-7.397-11.234h4.398Zm39.822 13.08c0 4.263-3.028 6.718-7.009 6.718-4.023 0-7.009-2.54-7.009-6.718v-3.49c0-4.134 2.899-6.89 7.009-6.89 2.034 0 3.721.646 5.062 1.938 1.298 1.25 1.947 2.929 1.947 4.953v3.489Zm.866-10.38c-1.991-2.11-4.63-3.144-7.875-3.144s-5.884 1.034-7.83 3.101c-1.991 2.067-2.986 4.91-2.986 8.57 0 7.107 4.024 11.672 10.816 11.672 3.375 0 6.014-1.033 7.961-3.144 1.947-2.11 2.899-4.953 2.899-8.527 0-3.618-.995-6.46-2.985-8.528m23.208.192h-11.668v-3.329h5.477c5.424 0 9.822 4.377 9.822 9.778v13.122h-3.631V25.498Zm-11.669 19.571h-3.63V25.498h3.63v19.571Z"/></svg>