<svg xmlns="http://www.w3.org/2000/svg" viewBox="0 0 1185 320"><path fill="#FFF" d="M304.216 131.608 0 246.617V0h304.216v131.608ZM8.5 8.5v225.827l287.226-108.609V8.5H8.5Z"/><path fill="#1B478B" d="M8.5 8.5v225.827l287.226-108.609V8.5H8.5Z"/><path fill="#FFF" d="M343.955 83.739v225.807H56.729V193.057L343.955 83.739Zm8.49-12.34L48.229 187.227v130.809h304.216V71.399Z"/><path fill="#8C9396" d="M56.729 193.057v116.489h287.226V83.739L56.729 193.057Z"/><path fill="#FFF" d="M1184.414 317.526c-3.49 1.82-7.4 2.66-11.33 2.44-3.54.18-7.01-1.04-9.66-3.4-2.68-3.07-3.99-7.1-3.6-11.16a37.68 37.68 0 0 1-15.01 11.16 51.857 51.857 0 0 1-30.749 1.92c-3.61-.86-7.02-2.43-10.03-4.61a22.265 22.265 0 0 1-6.57-8.24c-3.41-8.18-3.31-17.4.29-25.49 1.73-3.36 4.22-6.27 7.27-8.5 3.13-2.21 6.62-3.86 10.31-4.87 7.91-2.21 15.98-3.8 24.129-4.76 3.45-.35 6.87-.97 10.23-1.84 2.57-.6 4.97-1.8 6.99-3.51a8.437 8.437 0 0 0 2.58-6.709c.12-2.89-.54-5.76-1.93-8.3-1.21-2-2.93-3.65-4.98-4.79a20.192 20.192 0 0 0-6.8-2.21c-2.48-.36-4.98-.54-7.48-.53a33.004 33.004 0 0 0-16.559 3.76c-4.42 2.53-6.82 7.25-7.2 14.16h-15.66c.07-5.19 1.34-10.3 3.71-14.92a28.01 28.01 0 0 1 8.84-9.86c3.82-2.58 8.1-4.43 12.6-5.44a67.622 67.622 0 0 1 15.209-1.64c4.28.01 8.56.31 12.8.91 4.03.55 7.92 1.83 11.5 3.77a22.08 22.08 0 0 1 8.3 8.01 25.55 25.55 0 0 1 3.14 13.4v48.909c-.09 2.7.12 5.41.62 8.07.43 1.72 1.87 2.57 4.34 2.57 1.63-.05 3.24-.36 4.78-.9l-.08 12.6Zm-25.49-48.97a19.696 19.696 0 0 1-7.73 3.23c-3.2.68-6.55 1.25-10.06 1.67-3.54.43-7.069.92-10.589 1.48-3.29.47-6.51 1.36-9.57 2.66a17.238 17.238 0 0 0-6.91 5.24c-1.91 2.71-2.85 6-2.66 9.31-.08 2.29.46 4.55 1.55 6.55 1.01 1.73 2.39 3.21 4.05 4.33a16.98 16.98 0 0 0 5.67 2.38c2.3.5 4.64.74 6.99.74 4.51.11 9.009-.61 13.259-2.13a27.31 27.31 0 0 0 9.03-5.32c2.18-1.95 3.94-4.34 5.16-7 1.04-2.23 1.61-4.65 1.67-7.11l.14-16.03Zm-95.239 49.37v-12.89h-.37a22.888 22.888 0 0 1-12.149 11.33 46.002 46.002 0 0 1-18.24 3.51c-6.65.16-13.24-1.23-19.26-4.05a39.67 39.67 0 0 1-13.62-10.87 47.261 47.261 0 0 1-8.21-15.83 64.937 64.937 0 0 1-2.829-19.18 66.65 66.65 0 0 1 2.659-19.139 44.885 44.885 0 0 1 8.1-15.75 39.08 39.08 0 0 1 13.65-10.67 43.36 43.36 0 0 1 19.06-3.97c2.65.02 5.29.27 7.9.74 2.91.51 5.76 1.35 8.49 2.49 2.9 1.2 5.62 2.77 8.1 4.67 2.55 1.95 4.72 4.36 6.379 7.11h.36v-48.99h15.67v131.489h-15.69Zm-56.279-33.79c1.08 4.07 2.9 7.91 5.36 11.33 2.4 3.33 5.55 6.05 9.2 7.93 4.09 2 8.61 2.97 13.17 2.83 8.94.37 17.44-3.91 22.46-11.32 2.39-3.5 4.1-7.41 5.07-11.53a56.272 56.272 0 0 0 0-26.62 33.909 33.909 0 0 0-5.24-11.499 27.27 27.27 0 0 0-9.32-8.02 28.88 28.88 0 0 0-13.82-3.03c-4.67-.13-9.29.94-13.42 3.12-3.6 1.99-6.64 4.84-8.87 8.3a36.012 36.012 0 0 0-4.87 11.859 62.46 62.46 0 0 0-1.47 13.63c0 4.4.59 8.78 1.75 13.02Zm-43.099 27.73a43.262 43.262 0 0 1-26.91 8.1c-6.79.17-13.54-1.09-19.82-3.68a39.235 39.235 0 0 1-14.159-10.31 43.852 43.852 0 0 1-8.5-15.86 75.55 75.55 0 0 1-3.22-20.08 57.467 57.467 0 0 1 3.31-19.829 47.556 47.556 0 0 1 9.32-15.66c3.94-4.39 8.76-7.9 14.159-10.31a43.3 43.3 0 0 1 17.95-3.68c7.39-.28 14.7 1.54 21.1 5.24a41.797 41.797 0 0 1 13.45 13.37 53.448 53.448 0 0 1 7 17.669c1.25 6 1.77 12.12 1.56 18.24h-71.259c-.14 4.01.36 8.01 1.47 11.87 1.06 3.66 2.88 7.06 5.36 9.97a26.537 26.537 0 0 0 9.399 6.91c4.24 1.79 8.82 2.67 13.42 2.57 5.79.25 11.51-1.37 16.32-4.61 4.51-3.41 7.54-8.42 8.49-13.99h15.46a38.111 38.111 0 0 1-13.9 24.07Zm-3.8-61.169a27.025 27.025 0 0 0-5.66-8.5 27.018 27.018 0 0 0-19.26-7.76c-3.76-.05-7.49.66-10.96 2.1a25.26 25.26 0 0 0-8.489 5.8 27.338 27.338 0 0 0-5.53 8.5 32.9 32.9 0 0 0-2.4 10.389h54.709a32.354 32.354 0 0 0-2.41-10.529Zm-107.129-27.99v20.08h.37a42.296 42.296 0 0 1 13.99-17.13 35.142 35.142 0 0 1 21.01-5.16v16.57a44.62 44.62 0 0 0-16.03 2.58 25.363 25.363 0 0 0-10.68 7.56 31.364 31.364 0 0 0-5.92 12.059 65.676 65.676 0 0 0-1.84 16.29v42.48h-15.629v-95.329h14.729Zm-78.279-36.27c3.26 0 6.46.25 9.66.54 3 .29 5.99.75 8.95 1.38 2.5.55 4.89 1.5 7.08 2.83 4.41 2.69 8.16 6.34 10.96 10.68 3.13 5.02 4.7 10.86 4.5 16.77a32 32 0 0 1-5.04 18.12c-3.51 5.2-8.58 9.17-14.47 11.33v.37a30.247 30.247 0 0 1 18.6 11.069c4.45 5.94 6.76 13.2 6.57 20.62a38.86 38.86 0 0 1-2.83 14.16 34.15 34.15 0 0 1-7.64 12.07 37.95 37.95 0 0 1-12.52 8.49 42.873 42.873 0 0 1-17.22 3.2H718.26V186.437h56.839Zm-4.33 56.64c9.94 0 16.99-1.73 21.46-5.24 4.55-3.92 6.97-9.76 6.55-15.75.17-3.81-.59-7.59-2.21-11.04a15.74 15.74 0 0 0-6.09-6.26 23.802 23.802 0 0 0-8.95-2.83 85.97 85.97 0 0 0-10.76-.65H735.76v41.8l35.009-.03Zm8.83 60.239a25.33 25.33 0 0 0 18.16-6.26 22.56 22.56 0 0 0 5.11-7.96c1.13-2.98 1.62-6.16 1.43-9.35.13-3.71-.7-7.4-2.41-10.7a18.71 18.71 0 0 0-6.34-6.71c-2.8-1.72-5.89-2.91-9.12-3.52-3.52-.66-7.1-.99-10.68-.99H735.76v45.49h43.839Zm-158.957-80.609v15.1h.37c6.509-11.52 16.829-17.29 30.949-17.3 5.34-.17 10.66.7 15.66 2.57 3.91 1.54 7.38 4.01 10.11 7.2 2.65 3.17 4.52 6.93 5.44 10.96 1.1 4.63 1.64 9.39 1.59 14.16v62.609h-15.78v-64.539c.28-5.17-1.59-10.23-5.15-13.99a19.145 19.145 0 0 0-14.16-5.15c-4.25-.1-8.48.65-12.44 2.2a23.036 23.036 0 0 0-8.75 6.26 27.106 27.106 0 0 0-5.239 9.49 37.892 37.892 0 0 0-1.75 11.869v53.81h-15.66v-95.249h14.81Zm-26.91 94.819a22.03 22.03 0 0 1-11.32 2.44c-3.55.18-7.03-1.04-9.69-3.4a14.858 14.858 0 0 1-3.57-11.16c-4 4.92-9.17 8.76-15.04 11.16a51.857 51.857 0 0 1-30.749 1.92c-3.61-.87-7.02-2.44-10.03-4.61a21.814 21.814 0 0 1-6.63-8.24 27.602 27.602 0 0 1-2.49-12.27c-.15-4.58.82-9.13 2.83-13.25 1.74-3.36 4.23-6.27 7.28-8.5 3.13-2.2 6.62-3.85 10.31-4.87 3.88-1.1 7.85-2.04 11.9-2.83 4.05-.79 8.49-1.5 12.23-1.93 3.449-.35 6.869-.96 10.219-1.84 2.59-.6 4.99-1.81 7.03-3.509a8.44 8.44 0 0 0 2.58-6.71c.13-2.9-.55-5.77-1.96-8.3-1.2-2-2.91-3.65-4.95-4.79a20.334 20.334 0 0 0-6.83-2.2c-2.47-.36-4.959-.54-7.449-.54a33.013 33.013 0 0 0-16.59 3.76c-4.42 2.53-6.81 7.25-7.17 14.16h-15.66c.06-5.19 1.32-10.3 3.68-14.92 2.12-3.94 5.15-7.32 8.84-9.86 3.84-2.58 8.12-4.42 12.63-5.43a66.801 66.801 0 0 1 15.18-1.65c4.279.01 8.559.31 12.799.91 4.04.55 7.94 1.83 11.53 3.77 3.41 1.89 6.27 4.65 8.26 8.01 2.26 4.09 3.35 8.73 3.15 13.4v48.909c-.1 2.7.12 5.41.65 8.07.42 1.73 1.87 2.58 4.3 2.58 1.65-.06 3.27-.36 4.82-.91l-.09 12.63Zm-25.48-48.97a19.388 19.388 0 0 1-7.74 3.23c-3.2.68-6.54 1.25-10.05 1.67-3.539.43-7.069.92-10.589 1.48-3.29.47-6.51 1.37-9.57 2.66a17.238 17.238 0 0 0-6.91 5.24c-1.92 2.72-2.85 6-2.67 9.32-.07 2.28.46 4.54 1.56 6.54 1.01 1.73 2.39 3.21 4.05 4.33 1.77 1.15 3.74 1.95 5.81 2.38 2.3.49 4.64.74 6.99.74 4.52.1 9.02-.62 13.279-2.13 3.32-1.17 6.38-2.98 9.01-5.32 2.19-1.95 3.95-4.33 5.15-7 1.06-2.22 1.63-4.65 1.68-7.11v-16.03Zm-125.828 49.37-46.219-131.489h18.769l37.58 114.019h.37l37.949-114.019h18.24l-46.869 131.489h-19.82ZM734.46.77v77.909l43.469-41.64h20.99l-37.749 34.64 40.489 60.609h-19.82L749.24 82.559l-14.72 13.62v36.109h-15.67V.77h15.61ZM634.121 37.039v15.1h.37c6.51-11.54 16.83-17.309 30.95-17.309 5.33-.16 10.64.71 15.63 2.579 3.93 1.53 7.41 4 10.14 7.19 2.64 3.19 4.5 6.94 5.439 10.97 1.1 4.63 1.62 9.39 1.56 14.16v62.639h-15.629V67.739c.26-5.18-1.62-10.23-5.19-13.99a19.16 19.16 0 0 0-14.16-5.15c-4.25-.1-8.48.65-12.43 2.21a23.036 23.036 0 0 0-8.75 6.26 26.582 26.582 0 0 0-5.27 9.48c-1.2 3.85-1.79 7.87-1.75 11.9v53.809h-15.639V37.039h14.729Zm-26.929 94.849c-3.5 1.81-7.41 2.64-11.33 2.41-3.54.18-7.01-1.04-9.66-3.4-2.68-3.07-3.99-7.1-3.6-11.16a37.427 37.427 0 0 1-15.01 11.16 51.938 51.938 0 0 1-30.749 1.93c-3.62-.88-7.03-2.43-10.06-4.59a22.876 22.876 0 0 1-6.71-8.22c-1.75-3.84-2.6-8.02-2.49-12.229-.16-4.59.82-9.15 2.83-13.28 1.72-3.37 4.22-6.28 7.28-8.5 3.13-2.2 6.62-3.84 10.31-4.87 7.91-2.22 15.979-3.82 24.129-4.79 3.45-.35 6.87-.96 10.22-1.84 2.57-.6 4.97-1.79 7-3.48a8.461 8.461 0 0 0 2.57-6.74c.14-2.88-.53-5.74-1.92-8.27a13.343 13.343 0 0 0-4.99-4.82 20.05 20.05 0 0 0-6.79-2.2 52.07 52.07 0 0 0-7.48-.54 33.12 33.12 0 0 0-16.569 3.76c-4.42 2.52-6.81 7.24-7.19 14.16h-15.66c.07-5.19 1.33-10.29 3.68-14.92a27.97 27.97 0 0 1 8.86-9.86 37.75 37.75 0 0 1 12.61-5.409 67.613 67.613 0 0 1 15.199-1.67c4.29 0 8.57.32 12.81.94 4.05.6 7.96 1.939 11.52 3.959a22.03 22.03 0 0 1 8.3 7.99c2.25 4.1 3.33 8.75 3.12 13.42v48.89a36.12 36.12 0 0 0 .65 8.099c.43 1.69 1.88 2.54 4.33 2.54 1.63-.04 3.25-.34 4.79-.9v12.43Zm-25.49-48.969a19.138 19.138 0 0 1-7.76 3.2c-3.17.68-6.52 1.25-10.03 1.67-3.54.43-7.07.92-10.59 1.48-3.29.48-6.499 1.38-9.569 2.66a17.4 17.4 0 0 0-6.91 5.27c-1.92 2.7-2.86 5.98-2.67 9.29a12.84 12.84 0 0 0 5.75 10.899 16.98 16.98 0 0 0 5.67 2.38c2.29.51 4.639.76 6.989.74 4.51.1 9-.61 13.26-2.1 3.35-1.19 6.45-3 9.12-5.35a21.164 21.164 0 0 0 5.15-6.999c1.05-2.23 1.61-4.65 1.67-7.11l-.08-16.03ZM459.614.77c3.25 0 6.45.25 9.65.56 3.01.28 6 .74 8.949 1.36 2.51.54 4.9 1.5 7.08 2.83 4.41 2.69 8.16 6.34 10.96 10.68 3.14 5.02 4.7 10.85 4.51 16.77a32.044 32.044 0 0 1-5.07 18.149c-3.51 5.2-8.56 9.16-14.45 11.33v.37a30.252 30.252 0 0 1 18.61 11.04 33.104 33.104 0 0 1 6.43 20.62c0 4.79-.87 9.54-2.58 14.02a34.815 34.815 0 0 1-7.64 12.059 38.235 38.235 0 0 1-12.52 8.5 42.895 42.895 0 0 1-17.219 3.23h-63.549V.77h56.839Zm-4.34 56.639c9.94 0 17-1.76 21.439-5.27 4.56-3.92 6.99-9.76 6.55-15.749.18-3.8-.58-7.6-2.21-11.04a15.67 15.67 0 0 0-6.059-6.26 23.802 23.802 0 0 0-8.95-2.83c-3.57-.44-7.17-.66-10.77-.65h-35v41.829l35-.03Zm8.84 60.209c6.64.4 13.169-1.85 18.149-6.26a22.867 22.867 0 0 0 6.55-17.309c.13-3.7-.7-7.38-2.41-10.67-1.51-2.75-3.7-5.07-6.35-6.74-2.8-1.7-5.889-2.88-9.109-3.49a55.05 55.05 0 0 0-10.71-1.02h-39.96v45.489h43.84Z"/></svg>