<svg xmlns="http://www.w3.org/2000/svg" viewBox="0 0 486 96"><path fill="#214091" d="M151.572 36.289h13.357c4.596 0 7.514-2.816 7.514-7.178 0-5.23-4.204-6.69-8.712-6.69h-12.159V36.29Zm0-18.36h10.656c6.06 0 8.523-2.175 8.523-6.385 0-5.556-3.934-6.348-8.523-6.348h-10.656v12.733ZM146.233.693h14.551c3.516 0 8.176 0 10.607 1.465 2.614 1.579 4.698 4.443 4.698 8.377 0 4.264-2.246 7.47-5.946 8.973v.114c4.942 1.015 7.642 4.715 7.642 9.652 0 5.88-4.213 11.507-12.205 11.507h-19.347V.693m54.566 25.092c-1.855 1.362-5.457 1.4-8.669 1.986-3.136.548-5.816 1.655-5.816 5.214 0 3.136 2.68 4.242 5.609 4.242 6.272 0 8.876-3.906 8.876-6.564v-4.878Zm7.727 14.866c-.847.504-1.911.792-3.43.792-2.441 0-4.014-1.34-4.014-4.492-2.659 3.092-6.196 4.492-10.222 4.492-5.273 0-9.57-2.355-9.57-8.122 0-6.586 4.861-7.986 9.798-8.935 5.263-1.005 9.744-.69 9.744-4.27 0-4.156-3.418-4.813-6.445-4.813-4.037 0-7.021 1.232-7.239 5.49h-4.773c.304-7.188 5.848-9.7 12.293-9.7 5.208 0 10.884 1.173 10.884 7.954v14.925c0 2.235 0 3.255 1.519 3.255.401 0 .857-.053 1.455-.276v3.7m3.753-28.89h4.481v4.606h.108c2.019-3.608 5.285-5.274 9.419-5.274 7.628 0 9.994 4.378 9.994 10.585v19.103h-4.764V21.13c0-3.543-2.257-5.828-5.902-5.828-5.763 0-8.572 3.864-8.572 9.082V40.78h-4.764V11.76M242.596.693h4.775V24.44l13.237-12.679h6.391l-11.512 10.541 12.337 18.479h-6.054l-9.907-15.159-4.492 4.156v11.003h-4.775V.693ZM131.52 85.062c0 5.458-2.887 10.938-11.821 10.938-7.488 0-11.708-4.15-11.708-11.665v-2.473h5.36v1.676c0 4.666 1.242 7.959 6.424 7.959 4.888 0 6.406-2.8 6.406-7.227V54.984h5.339v30.078m7.135 3.749h6.222v6.229h-6.222v-6.23Zm25.753 6.229h-6.06l-14.149-40.056h5.794l11.436 34.739h.131l11.545-34.739h5.559L164.408 95.04Zm32.463-14.985c-1.844 1.367-5.426 1.394-8.648 1.974-3.136.565-5.827 1.693-5.827 5.215 0 3.14 2.691 4.253 5.609 4.253 6.294 0 8.866-3.912 8.866-6.56v-4.882Zm7.737 14.887c-.825.488-1.888.765-3.419.765-2.474 0-4.036-1.346-4.036-4.476-2.614 3.077-6.164 4.476-10.221 4.476-5.273 0-9.581-2.349-9.581-8.122 0-6.57 4.882-7.975 9.809-8.914 5.284-1.025 9.755-.688 9.755-4.28 0-4.145-3.408-4.807-6.435-4.807-4.036 0-6.999 1.226-7.237 5.48h-4.754c.272-7.173 5.816-9.712 12.272-9.712 5.22 0 10.884 1.172 10.884 7.965v14.941c0 2.262 0 3.239 1.519 3.239.391 0 .825-.038 1.444-.266v3.711m3.732-28.9h4.502v4.605h.099c2.028-3.591 5.274-5.295 9.44-5.295 7.628 0 9.983 4.395 9.983 10.623V95.04h-4.775V75.395c0-3.533-2.224-5.81-5.892-5.81-5.75 0-8.572 3.857-8.572 9.086V95.04h-4.785V66.042m39.117 24.505h13.358c4.589 0 7.518-2.788 7.518-7.188 0-5.209-4.221-6.667-8.713-6.667h-12.163v13.855Zm0-18.348h10.655c6.067 0 8.529-2.17 8.529-6.38 0-5.545-3.928-6.343-8.529-6.343h-10.655V72.2Zm-5.338-17.215h14.529c3.525 0 8.18 0 10.623 1.438 2.625 1.595 4.686 4.46 4.686 8.366 0 4.275-2.234 7.487-5.934 8.984v.12c4.925 1.02 7.638 4.714 7.638 9.646 0 5.892-4.221 11.502-12.196 11.502h-19.346V54.984m36.653 11.058h4.503v6.103h.109c2.277-4.66 5.512-6.94 10.665-6.793v5.051c-7.704 0-10.481 4.39-10.481 11.746v12.89h-4.796V66.043Zm37.902 11.712c-.218-4.535-3.646-8.17-8.355-8.17-5.003 0-7.976 3.733-8.302 8.17h16.657Zm4.589 8.08c-1.28 6.39-5.869 9.873-12.391 9.873-9.256 0-13.629-6.375-13.9-15.25 0-8.687 5.729-15.105 13.617-15.105 10.276 0 13.423 9.608 13.14 16.623h-21.712c-.173 5.057 2.691 9.522 9.039 9.522 3.928 0 6.663-1.91 7.499-5.664h4.708Zm18.305 5.663c6.392 0 8.855-5.496 8.855-10.943 0-5.713-2.572-10.97-9.126-10.97-6.542 0-8.702 5.534-8.702 11.198 0 5.452 2.8 10.715 8.973 10.715Zm13.444 3.542h-4.731v-3.917h-.108c-1.573 3.186-5.294 4.585-9.266 4.585-8.919 0-13.347-7.058-13.347-15.25 0-8.182 4.373-15.105 13.227-15.105 2.984 0 7.226 1.14 9.386 4.557h.108V54.984h4.731V95.04m24.349-14.985c-1.833 1.367-5.436 1.394-8.637 1.974-3.147.565-5.837 1.693-5.837 5.215 0 3.14 2.69 4.253 5.62 4.253 6.272 0 8.854-3.912 8.854-6.56v-4.882Zm7.738 14.887c-.847.488-1.911.765-3.408.765-2.486 0-4.047-1.346-4.047-4.476-2.659 3.077-6.164 4.476-10.2 4.476-5.296 0-9.613-2.349-9.613-8.122 0-6.57 4.904-7.975 9.83-8.914 5.274-1.025 9.766-.688 9.766-4.28 0-4.145-3.408-4.807-6.456-4.807-4.026 0-7.022 1.226-7.25 5.48h-4.762c.282-7.173 5.86-9.712 12.282-9.712 5.231 0 10.895 1.172 10.895 7.965v14.941c0 2.262 0 3.239 1.508 3.239a3.84 3.84 0 0 0 1.455-.266v3.711m26.204-31.494c0-2.29-1.726-4.264-4.612-4.264-2.246 0-4.568 1.361-4.568 4.264 0 2.436 2.105 4.78 3.841 6.955 2.311-1.449 5.339-3.58 5.339-6.955Zm-6.902 12.228c-3.765 2.133-6.944 4.27-6.944 9.045 0 4.053 3.764 6.776 7.618 6.776 3.645 0 6.564-1.85 8.528-4.753l-9.202-11.068Zm11.85 14.383c-2.431 3.754-6.967 5.648-11.33 5.648-10.86 0-12.521-7.66-12.521-10.932 0-6.288 4.255-9.44 9.375-12.12-2.267-3.19-4.448-5.334-4.448-9.413 0-4.39 3.254-8.258 9.038-8.258 4.98 0 9.711 2.75 9.711 8.192 0 4.753-3.656 8.203-7.508 10.363l7.237 8.838a21.334 21.334 0 0 0 1.27-6.244h4.546c-.39 4.725-1.009 6.33-2.701 9.868l7.823 9.038h-6.239l-4.253-4.98m43.63-23.003c-1.118-5.686-5.676-8.54-11.23-8.54-9.539 0-13.586 7.862-13.586 16.222 0 9.153 4.047 16.759 13.65 16.759 7 0 11.046-4.931 11.546-11.55h5.338C464.601 89.933 458.372 96 448.271 96c-12.468 0-18.523-9.217-18.523-20.882 0-11.589 6.62-21.083 18.967-21.083 8.333 0 15.257 4.482 16.493 13.02h-5.327m17.904 1.575c3.298 0 5.283-2.67 5.283-5.28 0-2.636-1.985-5.279-5.283-5.279-3.321 0-5.306 2.643-5.306 5.28 0 2.609 1.985 5.278 5.306 5.278Zm0-13.369c4.48 0 8.062 3.592 8.062 8.09a8.03 8.03 0 0 1-8.062 8.078c-4.504 0-8.106-3.581-8.106-8.078a8.061 8.061 0 0 1 8.106-8.09Z"/><path fill="#FFF" d="M96.391.562H1.897v94.499h94.494V.562ZM.954 96V-.381h96.38V96H.954Z"/><path fill="#233C76" d="M96.391 47.806V.562H1.897V76.15l94.494-28.343v-.001Z"/><path fill="#797F80" d="M96.391 47.806v47.255H1.897V76.15l94.494-28.343v-.001Z"/></svg>