<svg xmlns="http://www.w3.org/2000/svg" fill="none" viewBox="0 0 172 40"><path fill="#212121" d="M55.089 23.983c0 1.372.466 2.51 1.37 3.415.933.904 2.129 1.342 3.557 1.342 2.712 0 4.432-1.634 4.432-4.173v-3.152c0-2.597-1.72-4.26-4.432-4.26-1.428 0-2.624.466-3.557 1.371-.904.905-1.37 2.043-1.37 3.473v1.984Zm-2.536 6.566V9.158h2.536v9.077h.175c.816-1.956 2.886-3.21 5.306-3.21 4.228 0 6.443 2.976 6.443 7.966 0 5.019-2.361 7.85-6.589 7.85-2.245 0-4.256-1.109-5.16-2.947h-.175l-.233 2.655h-2.303Zm20.598-21.39h-2.507V30.55h2.507V9.159Zm6.077 19.425h7.867v2.257h-3.693a6.625 6.625 0 0 1-6.622-6.628v-8.897h2.448v13.268Zm10.316 0h-2.448V15.316h2.448v13.268Zm6.224-6.993h8.804v-.584c0-2.364-1.72-3.94-4.256-3.94-2.682 0-4.548 1.664-4.548 4.115v.409Zm11.311.291c0 .584-.029 1.109-.087 1.576H95.768v.876c0 2.685 1.836 4.464 4.635 4.464 2.128 0 3.761-1.108 4.257-2.83h2.507c-.321 1.488-1.079 2.655-2.332 3.56-1.254.876-2.741 1.314-4.49 1.314-4.432 0-7.172-3.065-7.172-7.968 0-4.902 2.74-7.85 7.143-7.85 4.169 0 6.763 2.627 6.763 6.858m17.712 3.473c-.496 3.385-3.061 5.486-6.764 5.486-2.244 0-4.023-.7-5.306-2.13-1.282-1.43-1.924-3.327-1.924-5.749 0-2.48.671-4.436 2.012-5.837 1.341-1.401 3.119-2.101 5.306-2.101 3.527 0 6.093 2.072 6.589 5.253h-2.508c-.495-2.072-2.099-3.122-4.198-3.122-2.711 0-4.606 1.955-4.606 4.756v2.306c0 2.714 1.837 4.523 4.606 4.523 2.245 0 3.907-1.313 4.286-3.385h2.507Zm11.21-10.039v2.101h-5.044v13.132h-2.536V17.563c0-1.488.758-2.247 2.303-2.247h5.277Zm6.077 13.268h7.867v2.257h-3.693a6.625 6.625 0 0 1-6.622-6.628v-8.897h2.448Zm10.315 0h-2.448V15.316h2.448Zm14.549-5.651 4.988 7.616h-2.966l-4.987-7.616 4.987-7.617h2.966Zm-7.953-7.617 4.988 7.617-4.988 7.616h-2.966l4.988-7.616-4.988-7.617ZM35.309 40H0V0h39.961v35.448h-4.652V40ZM10.773 11.182 16.547 20l-5.774 8.818h3.433L19.98 20l-5.774-8.818h-3.433Zm18.415 0h-3.433L19.981 20l5.774 8.818h3.433L23.414 20l5.774-8.818Z"/><path fill="#fff" d="M14.206 11.182 19.98 20l-5.774 8.818h-3.433L16.547 20l-5.774-8.818h3.433ZM23.414 20l5.774 8.818h-3.433L19.981 20l5.774-8.818h3.433L23.414 20Z"/></svg>