<svg xmlns="http://www.w3.org/2000/svg" viewBox="0 0 560 400"><path d="M206.806 191.955v-7.789a6.84 6.84 0 0 0-1.988-4.806 6.835 6.835 0 0 0-4.806-1.988 6.836 6.836 0 0 0-4.806 1.988 6.836 6.836 0 0 0-1.988 4.806v9.943c-3.895.911-8.452 1.823-13.01 2.734V161.63c0-.912-.248-1.74-.58-2.569-.332-.829-.91-1.574-1.49-2.154-.664-.58-1.41-1.077-2.238-1.409a7.055 7.055 0 0 0-2.568-.497c-1.74 0-3.398.746-4.64 1.989-1.242 1.243-1.99 2.9-1.99 4.64v38.529c-.413 0-.828.083-1.242.331-4.226.912-8.12 1.823-12.097 2.734v-29.746c-.083-1.74-.746-3.397-1.989-4.557-1.243-1.16-2.9-1.906-4.64-1.906-1.74 0-3.397.663-4.64 1.906-1.243 1.243-1.988 2.817-1.988 4.557v32.73c-4.806.91-9.032 1.822-13.258 2.402v-15.33c0-.911-.165-1.74-.497-2.568-.332-.828-.828-1.574-1.408-2.237s-1.326-1.16-2.155-1.492a6.741 6.741 0 0 0-2.568-.497c-.911 0-1.74.166-2.569.497-.829.331-1.574.829-2.154 1.492-.58.663-1.077 1.408-1.409 2.237a7.06 7.06 0 0 0-.497 2.568v17.152c-15.08 1.823-23.863 1.243-24.775-1.491-2.154-4.475 11.766-10.855 15.743-12.926v-.332h-.58c-3.894 1.492-20.88 8.452-18.725 14.418 2.154 6.628 28.088 8.451 82.195-4.806 45.323-11.103 66.203-13.257 68.358-9.032 1.491 3.563-9.695 10.523-20.55 15.33-.082.082-.165.248-.248.413-.083.165-.083.332-.083.497.332.332.58.58.912.332 3.894-1.492 24.526-10.192 23.531-17.4-.828-4.972-11.683-6.463-32.563-3.48Zm-93.38 31.651v5.055c0 1.74.745 3.397 1.988 4.557a6.517 6.517 0 0 0 4.64 1.906c1.74 0 3.397-.663 4.64-1.906 1.243-1.243 1.906-2.817 1.989-4.557v-6.546a118.022 118.022 0 0 1-13.258 1.491h.001Zm26.597-3.728v18.311c0 .83.165 1.74.414 2.57.249.83.746 1.573 1.409 2.153.58.663 1.325 1.16 2.071 1.492.829.331 1.657.497 2.486.58.829.083 1.74-.166 2.568-.414.829-.332 1.575-.746 2.155-1.409.663-.58 1.16-1.326 1.491-2.072.332-.828.497-1.657.58-2.485v-21.295c-4.309 1.077-8.7 1.989-13.174 2.569"/><path d="M167.532 214.244h-.912v12.925a7.056 7.056 0 0 0 2.072 4.64c1.243 1.242 2.982 1.906 4.722 1.906 1.74 0 3.48-.663 4.723-1.906a7.058 7.058 0 0 0 2.072-4.64v-15.908c-3.895.911-8.12 1.822-12.677 2.983Zm25.686-5.966v7.788c0 .912.248 1.74.58 2.569.332.829.91 1.574 1.491 2.154.663.58 1.409 1.077 2.237 1.409.828.332 1.74.497 2.569.414 1.74 0 3.397-.663 4.64-1.906 1.243-1.243 1.988-2.9 1.988-4.64v-10.44c-3.811.912-8.368 1.74-13.505 2.652m95.949-14.915c-.58-.745-1.326-1.325-2.237-1.657a7.648 7.648 0 0 0-2.983-.58c-1.077 0-2.154.166-3.149.663-.994.414-1.822 1.077-2.568 1.906a8.148 8.148 0 0 0-1.657 2.817 10.52 10.52 0 0 0 0 7.126c.414.994.911 1.988 1.657 2.817.663.746 1.491 1.408 2.486 1.823.995.415 1.988.663 3.065.663 1.16 0 2.32-.249 3.315-.746.995-.497 1.74-1.243 2.403-2.154l5.054 3.811c-1.077 1.574-2.652 2.817-4.474 3.646a14.177 14.177 0 0 1-5.552 1.16c-1.989 0-4.06-.332-5.966-.994-1.74-.663-3.314-1.658-4.723-2.9-1.325-1.326-2.403-2.818-3.065-4.558a16.693 16.693 0 0 1 0-12.014 12.304 12.304 0 0 1 3.065-4.557c1.325-1.243 2.983-2.237 4.723-2.9a18.023 18.023 0 0 1 5.966-.995c.829 0 1.657.083 2.403.249.828.166 1.657.414 2.486.663.828.331 1.657.746 2.32 1.243.745.497 1.408 1.16 1.988 1.905l-4.557 3.563Zm12.097 6.629c0-2.072.332-4.06 1.077-5.966a12.306 12.306 0 0 1 3.066-4.557c1.326-1.243 2.983-2.237 4.723-2.9a18.392 18.392 0 0 1 11.932 0c1.74.663 3.314 1.657 4.723 2.9 1.325 1.326 2.402 2.817 3.065 4.557a16.686 16.686 0 0 1 0 12.015 12.316 12.316 0 0 1-3.065 4.557c-1.325 1.243-2.983 2.237-4.723 2.9a18.392 18.392 0 0 1-11.932 0c-1.74-.663-3.314-1.657-4.723-2.9-1.325-1.326-2.403-2.817-3.066-4.557-.745-1.989-1.16-4.06-1.077-6.05v.001Zm6.298 0c0 1.243.165 2.403.58 3.563a8.93 8.93 0 0 0 1.74 2.817c.746.829 1.657 1.409 2.734 1.823a9.417 9.417 0 0 0 7.043 0c.994-.414 1.906-1.077 2.734-1.823a8.933 8.933 0 0 0 1.74-2.817 10.52 10.52 0 0 0 0-7.126 8.918 8.918 0 0 0-1.74-2.817c-.746-.828-1.657-1.409-2.734-1.823a9.417 9.417 0 0 0-7.043 0c-.994.414-1.906 1.077-2.734 1.823a8.933 8.933 0 0 0-1.74 2.817c-.415 1.16-.58 2.32-.58 3.563ZM364.9 211.84c-1.74.912-3.646 1.575-5.635 1.99-1.989.415-3.977.662-5.966.58-1.988 0-4.06-.332-5.966-.995-1.74-.663-3.314-1.657-4.723-2.9-1.325-1.326-2.402-2.817-3.065-4.557a16.686 16.686 0 0 1 0-12.015 12.316 12.316 0 0 1 3.065-4.557c1.325-1.243 2.983-2.237 4.723-2.9a18.03 18.03 0 0 1 5.966-.994c2.071 0 4.143.248 6.049.828 1.823.498 3.48 1.492 4.888 2.735l-4.308 4.64c-.829-.829-1.74-1.492-2.817-1.906-1.077-.414-2.32-.663-3.895-.663-1.243 0-2.403.249-3.563.663-.994.414-1.905 1.077-2.734 1.823a8.933 8.933 0 0 0-1.74 2.817 10.52 10.52 0 0 0 0 7.126 8.93 8.93 0 0 0 1.74 2.817c.746.829 1.657 1.409 2.734 1.823 1.077.414 2.32.663 3.563.663 1.16 0 2.32-.166 3.397-.415.83-.248 1.575-.497 2.32-.911v-4.557h-4.971v-5.635h10.772v14.5h.166Zm10.19-25.685h8.287l11.683 19.14h.082v-19.14h6.05v27.591h-7.955l-12.015-19.637h-.083v19.637h-6.048l-.001-27.591Zm36.541 0h6.049v27.591h-6.049v-27.591Zm21.792 5.385h-7.872v-5.385h21.792v5.385h-7.872v22.206h-6.048V191.54Zm22.04-5.385h18.726v5.634h-12.677v5.137h12.014v5.635h-11.931v5.634h13.34v5.634h-19.39v-27.674h-.082Z"/></svg>