<svg xmlns="http://www.w3.org/2000/svg" viewBox="0 0 424 298"><path fill="#576065" d="M50.7 98.59H22.47l-8.97 50.97h44.1l2.2-12.55H43.94zM95.29 98.61h-28.7l-6.31 35.64h28.69zM179.37 98.59l-4.06 22.84-8.68-22.86h-26.14l-9 50.96h26.13l3.99-22.66 8.75 22.66h27.46l9.01-50.94zM97.22 133.22c-.52 2.92-1.64 3.86-3.81 3.86l-4.94-.02-2.21 12.57 20.11.01c10.84 0 16.95-5.75 19.25-18.8l5.67-32.15H103.3l-6.08 34.53zM96.71 90.14l.59-3.34h-4.15l.32-1.93h2.31l.44-2.5h-2.31l.34-1.73h4.16l.54-3.21H88.59l-2.25 12.71zM81.19 89.97c2.1-.45 4.25-1.9 5.04-6.3.62-3.46-.96-5.29-2.23-5.81-1.03-.42-2.73-.43-3.69-.43l-9.98-.01-2.23 12.71h10c.76.01 2.06.06 3.09-.16zm-5.34-3.23h-.89L76 80.69h.89s.99-.05 1.71.15c.62.18 1.39 1.19 1.1 2.82-.37 2.07-1.41 2.79-2.4 3-.47.1-1.45.08-1.45.08z"/><path fill="#004494" d="M208.28 90.16l2.24-12.72h-38.59l-2.24 12.72h38.59zm-40.31 0l2.24-12.72h-63.17l-2.24 12.72h63.17zm65.01 0l2.25-12.72h-22.88l-2.24 12.72h22.87zm15.54 0l2.24-12.72h-13.49l-2.24 12.72h13.49zm10.69 0l2.24-12.72h-8.29l-2.24 12.72h8.29zm7.85 0l2.24-12.72h-5.13l-2.24 12.72h5.13zm6.11 0l2.24-12.72h-2.95l-2.24 12.72h2.95zm6.08 0l2.24-12.72h-2.28l-2.24 12.72h2.28zm5.31 0l2.24-12.72h-1.41l-2.24 12.72h1.41zm5.93 0l2.24-12.72h-1.08l-2.24 12.72h1.08zm6.27 0L299 77.44h-1l-2.24 12.72h1zm6.91 0l2.24-12.72h-.77l-2.24 12.72h.77zm8.09 0L314 77.44h-.6l-2.24 12.72h.6z"/><path fill="#ffd800" d="M120.58.66l-12.02 68.13 206.95-.01L327.53.66zM68.15 297.94h206.96l24.68-139.96H92.82z"/></svg>