<svg xmlns="http://www.w3.org/2000/svg" viewBox="0 0 1000 1000"><linearGradient id="a" x1="0" x2="995.84" y1="500" y2="500" gradientUnits="userSpaceOnUse"><stop offset="0" style="stop-color:#d05720"/><stop offset=".175" style="stop-color:#ef9933"/><stop offset=".35" style="stop-color:#f7d845"/><stop offset=".5" style="stop-color:#73c952"/><stop offset=".75" style="stop-color:#4cbce1"/><stop offset="1" style="stop-color:#2057b2"/></linearGradient><path d="M186.19 471.51c0 20.32.24 40.64-.05 60.95-.66 46.98-38.23 84.68-87.69 88.27-42.23 3.07-85.7-32.12-92.87-75.17-11.78-70.76 51.5-125.89 119.59-103.92 8.05 2.6 10.99 1.44 10.56-7.32-.45-8.97-.28-17.99-.02-26.97.48-16.4 11.08-28.19 25.13-28.27 14.93-.09 25.28 11.43 25.36 28.48.09 21.32.02 42.63-.01 63.95zM55.74 528.87c.12 23.1 17.48 40.13 40.63 39.85 22.47-.27 39.33-17.61 39.24-40.36-.09-22.73-17.92-40.77-40.39-40.88-22.37-.12-39.6 17.95-39.48 41.39zm874.44 21.95c-16.93-.58-33.26.8-49.52-1.34-2.81-.37-6.83-1.47-8.3 1.47-1.89 3.78 2.29 5.85 4.58 7.84 13.45 11.7 28.7 12.97 44.8 6.62 9.17-3.62 18.11-4.82 26.67 1.04 16.83 11.51 15.12 34.32-3.18 44.12-40.62 21.76-91.28 7.77-117.37-32.39-21.14-32.55-19.45-74.05 4.3-105.81 21.93-29.31 62.94-42.56 98.35-31.76 36.45 11.11 63.08 44.78 65.27 82.54.82 14.16-7.12 24.37-21.36 26.6-14.88 2.34-29.92.34-44.24 1.07zM872.8 505.2c4.23 1.04 55.94 1.94 59.37 1.3 4.24-.79 3.71-2.75 1.86-5.54-12.92-19.52-49.75-16.99-61.23 4.24zm-492.85 23.61c-.04 49.51-42.41 92.37-90.69 91.73-50.54-.67-91.48-41.84-91.56-92.09-.08-50.31 41.28-91.82 91.41-91.73 50.53.09 90.88 41 90.84 92.09zm-91.58 40.08c23.33.24 41.05-16.65 41.35-39.42.31-22.86-18.29-42.35-40.3-42.23-22.54.12-41.21 19-41.16 41.62.06 21.84 18.05 39.8 40.11 40.03zm269.51-24.79c5.88 34.77 26.47 58.72 59.26 70.72 33.12 12.12 63.64 4.85 90.53-17.47 11.1-9.21 12.59-23.79 4.43-34.93-8.07-11.02-22.4-13.23-34.75-5.29-2.51 1.62-4.75 3.67-7.26 5.29-16.05 10.35-37.23 8.26-50.58-4.91-13.42-13.24-16.03-34.43-6.24-50.6 12.58-20.76 38.15-25.56 59.05-10.81 6.91 4.88 13.57 9.97 22.66 8.38 10.34-1.8 17.67-7.53 21.05-17.65 3.46-10.38.03-19.23-7.49-26.27-17.02-15.94-37.47-23.68-51.57-23.87-65.82-.23-108.7 50.59-99.09 107.41zm-134.03 54.12c33.14 30.11 90.86 28.83 120.89-2.86 8.11-8.56 9.95-20.82 4.54-30.36-5.68-10.01-16.46-14.53-28.24-12.01-5.48 1.17-9.36 4.88-13.69 7.95-14.13 10.02-29.21 11-44.28 3.06-20.78-10.93-27.27-38.07-14.51-57.86 13.15-20.39 40.73-24.56 60.29-9.11 14.09 11.13 28.67 10.16 38.52-2.55 8.81-11.37 5.74-27.6-7.5-37.64-30.03-22.79-62.58-27.22-96.63-10.75-34.17 16.53-49.7 45.56-51.73 79.25.63 31.36 11.8 54.21 32.34 72.88zm305.67-44.39c.09 35.62 21.79 60.54 56.98 65.55 17.59 2.5 30.83-5.7 33.15-20.53 2.33-14.9-6.88-26.14-24.16-29.5-13.83-2.69-15.81-4.98-15.83-19.34-.06-44.63-.02-89.26-.05-133.89 0-3.99.12-8.03-.39-11.97-1.88-14.69-13.83-25.63-26.67-24.69-13.78 1.01-22.96 11.83-23.02 27.49-.09 25.31-.02 50.63-.02 75.94 0 23.64-.05 47.29.01 70.94z" style="fill:url(#a)"/></svg>