<svg xmlns="http://www.w3.org/2000/svg" viewBox="0 0 199 48"><style>.st0{fill:#fff}</style><path d="M71.1 16.6c1.6 0 2.8 1.3 2.8 2.8 0 1.6-1.3 2.8-2.8 2.8s-2.8-1.3-2.8-2.8c0-1.5 1.2-2.8 2.8-2.8zM68.8 42V25h4.6v17h-4.6zm8.7 0V25h4.4v2.1c.9-1.7 3.1-2.5 5-2.5 2.3 0 4.2 1 5 2.8 1.1-1.9 3.2-3 5.4-2.8 3.2 0 6.1 1.9 6.1 6.5v11H99V31.9c0-1.8-.9-3.2-3-3.2-2 0-3.2 1.5-3.2 3.3v10h-4.6V31.9c0-1.8-.9-3.2-3-3.2S82 30.2 82 32v10h-4.5zm30 5.7V25h4.4v2.1c.8-1.3 2.7-2.5 5.2-2.5 5 0 7.8 3.8 7.8 8.8 0 5.1-3.2 8.9-8 8.9-2.3 0-4.1-.9-4.9-2.1v7.4l-4.5.1c-.1-.1 0 0 0 0zm8.7-19c-2.3 0-4.2 1.8-4.2 4.8s1.9 4.8 4.2 4.8 4.2-1.8 4.2-4.8-1.8-4.8-4.2-4.8zm22.2.9c-.5-.1-.9-.1-1.4-.1-2.3 0-4.4 1.1-4.4 4.8V42H128V25h4.4v2.5c1-2.3 3.4-2.7 4.8-2.7.4 0 .7 0 1.1.1l.1 4.7zm6.7 2.6 4.2-.6c1-.1 1.3-.6 1.3-1.2 0-1.2-.9-2.2-2.9-2.2-1.7-.1-3.1 1.1-3.2 2.8l-4.1-.9c.3-2.7 2.7-5.6 7.3-5.6 5.4 0 7.4 3 7.4 6.5v8.4c0 .9.1 1.8.2 2.7H151c-.1-.7-.2-1.3-.2-2-1.1 1.7-3 2.6-5 2.5-3.6 0-5.8-2.4-5.8-5.1 0-3.2 2.3-4.9 5.1-5.3zm5.4 2.9v-.8l-3.8.6c-1.2.2-2.1.8-2.1 2.1 0 1.1.9 2 2 2h.2c2 .1 3.7-.9 3.7-3.9zm10.8-18.5c1.6 0 2.8 1.3 2.8 2.8 0 1.6-1.3 2.8-2.8 2.8s-2.8-1.3-2.8-2.8c-.1-1.5 1.2-2.8 2.8-2.8zM159 42V25h4.6v17H159zm11.4-5.6c.1 1.3 1.1 2.6 3.1 2.6 1.5 0 2.3-.8 2.3-1.7 0-.8-.5-1.4-1.8-1.7l-2.3-.5c-3.3-.7-4.8-2.7-4.8-5.1 0-3 2.7-5.6 6.3-5.6 4.8 0 6.5 3.1 6.6 4.9l-3.8.9c-.2-1.4-1.4-2.4-2.8-2.3-1.2 0-2.2.7-2.2 1.7 0 .8.6 1.3 1.6 1.5l2.4.5c3.3.7 5 2.7 5 5.2 0 2.8-2.1 5.6-6.6 5.6-5.1 0-6.9-3.3-7.1-5.2l4.1-.8zm28.1.7c-.9 2.9-3.6 5.4-7.7 5.4-4.7 0-8.8-3.3-8.8-9.1 0-5.4 4-8.9 8.3-8.9 5.2 0 8.4 3.3 8.4 8.8 0 .6-.1 1.3-.1 1.4h-12.2c.2 2.2 2 3.9 4.3 3.9 1.7.1 3.3-.9 3.9-2.6l3.9 1.1zm-4.3-5.5c-.1-1.7-1.2-3.3-3.8-3.3-2-.1-3.6 1.4-3.8 3.3h7.6z" class="st0"/><path d="m27.5 42.6-1.8-.3C12.8 40.2 9.5 31.2 8.7 25c-.2-1.5-.2-3.1-.1-4.6l-.1.1C2.5 25.6-1.6 35 .6 40.9c3.6 9.5 23.9 8.5 29.7 2.8.3-.3.5-.6.8-.9h-.2c-1.2 0-2.3-.1-3.4-.2z" style="opacity:.55;fill:#fff;enable-background:new"/><path d="M34.3.5 32.5.2S12.3-3 9.1 17.1l-.3 1.8s-.1.6-.1 1.5c2.9-2.5 6.3-3.9 9.8-3.5 8.8 1.2 16.5 15.9 13.7 23.9-.3.7-.6 1.3-1 1.9 6-.1 17.4-2.3 19.8-17.1l.3-1.8c-.1.1 3.1-20.1-17-23.3z" class="st0"/><path d="M18.4 16.9c-3.4-.4-6.8 1-9.8 3.5-.1 1.5-.1 3.1.1 4.6.7 6.2 4 15.2 16.9 17.3l1.8.3c1.1.2 2.3.2 3.4.2h.2c.4-.6.8-1.3 1-1.9 2.9-8-4.8-22.8-13.6-24z" style="opacity:.85;fill:#fff;enable-background:new"/></svg>