<svg xmlns="http://www.w3.org/2000/svg" xmlns:xlink="http://www.w3.org/1999/xlink" id="Laag_1" x="0" y="0" version="1.1" viewBox="0 0 199 48" xml:space="preserve" style="enable-background:new 0 0 199 48"><style type="text/css">.st0{fill:#fff}.st1,.st2{opacity:.55;fill:#fff;enable-background:new}.st2{opacity:.85}</style><path d="M71.1,16.6c1.6,0,2.8,1.3,2.8,2.8c0,1.6-1.3,2.8-2.8,2.8s-2.8-1.3-2.8-2.8C68.3,17.9,69.5,16.6,71.1,16.6	C71.1,16.6,71.1,16.6,71.1,16.6z M68.8,42V25h4.6v17C73.4,42,68.8,42,68.8,42z M77.5,42V25h4.4v2.1c0.9-1.7,3.1-2.5,5-2.5	c2.3,0,4.2,1,5,2.8c1.1-1.9,3.2-3,5.4-2.8c3.2,0,6.1,1.9,6.1,6.5v11H99V31.9c0-1.8-0.9-3.2-3-3.2c-2,0-3.2,1.5-3.2,3.3V42h-4.6V31.9	c0-1.8-0.9-3.2-3-3.2c-2.1,0-3.2,1.5-3.2,3.3V42C82.1,42,77.5,42,77.5,42z M107.5,47.7V25h4.4v2.1c0.8-1.3,2.7-2.5,5.2-2.5	c5,0,7.8,3.8,7.8,8.8c0,5.1-3.2,8.9-8,8.9c-2.3,0-4.1-0.9-4.9-2.1v7.4L107.5,47.7C107.4,47.6,107.5,47.7,107.5,47.7z M116.2,28.7	c-2.3,0-4.2,1.8-4.2,4.8s1.9,4.8,4.2,4.8s4.2-1.8,4.2-4.8C120.4,30.5,118.6,28.7,116.2,28.7z M138.4,29.6c-0.5-0.1-0.9-0.1-1.4-0.1	c-2.3,0-4.4,1.1-4.4,4.8V42H128V25h4.4v2.5c1-2.3,3.4-2.7,4.8-2.7c0.4,0,0.7,0,1.1,0.1L138.4,29.6C138.4,29.6,138.4,29.6,138.4,29.6	z M145.1,32.2l4.2-0.6c1-0.1,1.3-0.6,1.3-1.2c0-1.2-0.9-2.2-2.9-2.2c-1.7-0.1-3.1,1.1-3.2,2.8l-4.1-0.9c0.3-2.7,2.7-5.6,7.3-5.6	c5.4,0,7.4,3,7.4,6.5v8.4c0,0.9,0.1,1.8,0.2,2.7H151c-0.1-0.7-0.2-1.3-0.2-2c-1.1,1.7-3,2.6-5,2.5c-3.6,0-5.8-2.4-5.8-5.1	C140,34.3,142.3,32.6,145.1,32.2L145.1,32.2z M150.5,35.1v-0.8l-3.8,0.6c-1.2,0.2-2.1,0.8-2.1,2.1c0,1.1,0.9,2,2,2	c0.1,0,0.1,0,0.2,0C148.8,39.1,150.5,38.1,150.5,35.1z M161.3,16.6c1.6,0,2.8,1.3,2.8,2.8c0,1.6-1.3,2.8-2.8,2.8s-2.8-1.3-2.8-2.8	C158.4,17.9,159.7,16.6,161.3,16.6L161.3,16.6z M159,42V25h4.6v17L159,42L159,42z M170.4,36.4c0.1,1.3,1.1,2.6,3.1,2.6	c1.5,0,2.3-0.8,2.3-1.7c0-0.8-0.5-1.4-1.8-1.7l-2.3-0.5c-3.3-0.7-4.8-2.7-4.8-5.1c0-3,2.7-5.6,6.3-5.6c4.8,0,6.5,3.1,6.6,4.9	l-3.8,0.9c-0.2-1.4-1.4-2.4-2.8-2.3c-1.2,0-2.2,0.7-2.2,1.7c0,0.8,0.6,1.3,1.6,1.5l2.4,0.5c3.3,0.7,5,2.7,5,5.2	c0,2.8-2.1,5.6-6.6,5.6c-5.1,0-6.9-3.3-7.1-5.2L170.4,36.4z M198.5,37.1c-0.9,2.9-3.6,5.4-7.7,5.4c-4.7,0-8.8-3.3-8.8-9.1	c0-5.4,4-8.9,8.3-8.9c5.2,0,8.4,3.3,8.4,8.8c0,0.6-0.1,1.3-0.1,1.4h-12.2c0.2,2.2,2,3.9,4.3,3.9c1.7,0.1,3.3-0.9,3.9-2.6L198.5,37.1	z M194.2,31.6c-0.1-1.7-1.2-3.3-3.8-3.3c-2-0.1-3.6,1.4-3.8,3.3H194.2z" class="st0"/><path d="M27.5,42.6l-1.8-0.3C12.8,40.2,9.5,31.2,8.7,25c-0.2-1.5-0.2-3.1-0.1-4.6l-0.1,0.1C2.5,25.6-1.6,35,0.6,40.9	c3.6,9.5,23.9,8.5,29.7,2.8c0.3-0.3,0.5-0.6,0.8-0.9h-0.2C29.7,42.8,28.6,42.7,27.5,42.6z" class="st1"/><path d="M34.3,0.5l-1.8-0.3c0,0-20.2-3.2-23.4,16.9l-0.3,1.8c0,0-0.1,0.6-0.1,1.5c2.9-2.5,6.3-3.9,9.8-3.5	c8.8,1.2,16.5,15.9,13.7,23.9c-0.3,0.7-0.6,1.3-1,1.9c6-0.1,17.4-2.3,19.8-17.1l0.3-1.8C51.2,23.9,54.4,3.7,34.3,0.5z" class="st0"/><path d="M18.4,16.9c-3.4-0.4-6.8,1-9.8,3.5c-0.1,1.5-0.1,3.1,0.1,4.6c0.7,6.2,4,15.2,16.9,17.3l1.8,0.3	c1.1,0.2,2.3,0.2,3.4,0.2h0.2c0.4-0.6,0.8-1.3,1-1.9C34.9,32.9,27.2,18.1,18.4,16.9z" class="st2"/></svg>