<svg xmlns="http://www.w3.org/2000/svg" width="618" height="231" fill="none">
    <path fill="url(#a)" d="M79 158c43.63 0 79-35.37 79-79S122.63 0 79 0 0 35.37 0 79s35.37 79 79 79Z"/>
    <path fill="#1F1F1F"
          d="M227.272 33.014c-1.772 1.656-3.874 2.483-6.308 2.483-2.434 0-4.538-.827-6.307-2.483-1.772-1.767-2.657-3.867-2.657-6.297 0-2.43.885-4.474 2.657-6.133 1.769-1.767 3.873-2.653 6.307-2.653s4.536.886 6.308 2.652c1.77 1.66 2.656 3.704 2.656 6.134s-.886 4.53-2.656 6.297Zm2.486 27.175v69.759c0 2.43-.857 4.53-2.571 6.297-1.715 1.767-3.789 2.652-6.223 2.652-2.434 0-4.511-.885-6.229-2.652-1.714-1.767-2.571-3.867-2.571-6.297V60.189c0-2.43.857-4.529 2.571-6.297 1.718-1.767 3.795-2.652 6.229-2.652s4.508.885 6.223 2.652c1.714 1.768 2.571 3.867 2.571 6.297Zm56.602-39.437c13.388 0 23.788 4.86 31.205 14.58 2.542 3.201 3.814 5.963 3.814 8.283 0 1.991-.691 3.676-2.074 5.056-1.384 1.382-3.18 2.071-5.391 2.071-3.102 0-5.647-1.269-7.636-3.808-2.766-3.649-5.618-6.3-8.552-7.957-2.932-1.659-6.501-2.488-10.705-2.488-5.863 0-10.511 1.383-13.943 4.148-3.429 2.761-5.143 6.46-5.143 11.098 0 7.182 5.202 12.76 15.605 16.736l8.133 3.148c12.611 4.86 21.573 9.778 26.886 14.75 5.644 4.97 8.467 11.432 8.467 19.388 0 10.274-4.205 18.394-12.615 24.359-8.302 5.968-17.763 8.95-28.384 8.95-7.417 0-14.361-1.545-20.834-4.638-6.474-3.097-11.536-7.405-15.187-12.928-2.321-3.204-3.481-6.023-3.481-8.453 0-2.208.691-4.056 2.075-5.546 1.382-1.492 3.18-2.24 5.391-2.24 3.432 0 6.309 1.767 8.631 5.298 5.421 8.397 13.223 12.594 23.405 12.594 6.53 0 11.923-1.49 16.181-4.468 4.261-2.982 6.393-7.292 6.393-12.928 0-4.641-1.496-8.26-4.482-10.857-2.989-2.594-8.356-5.438-16.103-8.53l-8.958-3.482c-9.741-3.868-17.019-8.231-21.834-13.091-4.813-4.86-7.218-10.935-7.218-18.225 0-9.172 3.488-16.573 10.463-22.204 6.857-5.743 15.488-8.616 25.891-8.616Zm93.776 102.073c2.102-.33 3.816.083 5.143 1.241 1.33 1.16 1.995 2.788 1.995 4.886 0 3.093-1.55 5.497-4.652 7.212-3.098 1.711-7.247 2.567-12.445 2.567-6.422 0-11.32-1.711-14.696-5.134-3.373-3.426-5.058-9.227-5.058-17.402V65.817h-6.308c-2.103 0-3.819-.633-5.149-1.9-1.327-1.271-1.989-3.012-1.989-5.22 0-2.098.662-3.784 1.989-5.056 1.33-1.27 3.046-1.907 5.149-1.907h6.308V38.813c0-2.32.857-4.338 2.572-6.05 1.714-1.714 3.732-2.573 6.059-2.573 2.434 0 4.508.86 6.222 2.574 1.718 1.711 2.578 3.728 2.578 6.049v12.92h12.112c2.987-.33 5.118.749 6.392 3.234 1.273 2.487 1.273 4.975 0 7.46-1.274 2.482-3.405 3.613-6.392 3.39h-12.112v50.541c0 4.86 1.934 7.29 5.804 7.29.553 0 1.742-.137 3.566-.411 1.827-.275 2.797-.412 2.912-.412Zm60.263-71.08c6.086 0 11.59 1.437 16.515 4.312 4.924 2.87 8.493 6.734 10.705 11.594v-6.623c0-2.434.857-4.508 2.571-6.22 1.718-1.71 3.796-2.566 6.23-2.566 2.434 0 4.536.855 6.307 2.567 1.77 1.711 2.657 3.785 2.657 6.219v70.091c0 2.43-.887 4.501-2.657 6.213-1.771 1.711-3.873 2.567-6.307 2.567s-4.512-.856-6.23-2.567c-1.714-1.712-2.571-3.783-2.571-6.213v-8.949c-.664 4.308-3.54 8.34-8.63 12.098-5.201 3.867-11.397 5.801-18.59 5.801-6.639 0-12.89-1.548-18.752-4.645-6.308-3.201-11.51-8.309-15.606-15.325-4.093-7.015-6.137-15.106-6.137-24.274 0-7.071 1.243-13.48 3.729-19.224 2.49-5.744 5.727-10.383 9.71-13.92 3.987-3.536 8.331-6.242 13.034-8.12 4.702-1.877 9.377-2.816 14.022-2.816Zm2.82 73.241c6.531 0 12.341-2.484 17.432-7.454 5.198-4.973 7.799-12.209 7.799-21.707 0-9.501-2.601-16.683-7.799-21.543-5.091-4.973-10.901-7.46-17.432-7.46-6.857 0-12.831 2.54-17.921 7.623-5.201 5.192-7.8 12.318-7.8 21.38 0 9.168 2.599 16.347 7.8 21.537 5.09 5.083 11.064 7.624 17.921 7.624Zm106.21-74.079c2.657 0 4.813.776 6.472 2.325 1.662 1.547 2.493 3.479 2.493 5.794 0 5.527-3.763 8.29-11.287 8.29-6.64 0-12.393 2.154-17.261 6.46-4.651 4.09-7.307 8.62-7.97 13.588v42.584c0 2.43-.857 4.504-2.571 6.219-1.715 1.711-3.792 2.567-6.229 2.567-2.435 0-4.509-.856-6.223-2.567-1.714-1.715-2.572-3.789-2.572-6.219V60.189c0-2.43.858-4.528 2.572-6.297 1.714-1.767 3.788-2.652 6.223-2.652 2.437 0 4.514.885 6.229 2.652 1.714 1.769 2.571 3.867 2.571 6.297v10.935c.44-3.752 3.372-8.06 8.794-12.92 5.421-4.864 11.675-7.297 18.759-7.297Zm60.415 71.918c2.102-.33 3.817.083 5.143 1.241 1.33 1.16 1.996 2.788 1.996 4.886 0 3.093-1.551 5.497-4.652 7.212-3.098 1.711-7.247 2.567-12.445 2.567-6.422 0-11.32-1.711-14.696-5.134-3.373-3.426-5.058-9.227-5.058-17.402V65.817h-6.308c-2.103 0-3.819-.633-5.149-1.9-1.327-1.271-1.989-3.012-1.989-5.22 0-2.098.662-3.784 1.989-5.056 1.33-1.27 3.046-1.907 5.149-1.907h6.308V38.813c0-2.32.857-4.338 2.571-6.05 1.715-1.714 3.733-2.573 6.059-2.573 2.434 0 4.509.86 6.223 2.574 1.717 1.711 2.578 3.728 2.578 6.049v12.92h12.111c2.987-.33 5.119.749 6.393 3.234 1.273 2.487 1.273 4.975 0 7.46-1.274 2.482-3.406 3.613-6.393 3.39h-12.111v50.541c0 4.86 1.933 7.29 5.804 7.29.553 0 1.742-.137 3.566-.411 1.827-.275 2.797-.412 2.911-.412Z"/>
    <path fill="#fff"
          d="M113.842 69.113c8.32 5.06 8.182 17.465-.248 22.328l-44.88 25.887C60.343 122.158 50 115.948 50 106.091v-53.18c0-9.989 10.59-16.182 18.963-11.09l44.879 27.292Z"/>
    <defs>
        <linearGradient id="a" x1="47.279" x2="136.28" y1="22.023" y2="112.843" gradientUnits="userSpaceOnUse">
            <stop stop-color="#5754F6"/>
            <stop offset=".726" stop-color="#5481F6"/>
        </linearGradient>
    </defs>
</svg>