<svg xmlns="http://www.w3.org/2000/svg" viewBox="0 0 957 321"><path d="M591.602 0a160.18 160.18 0 0 1 80.101 21.458c106.798 61.662 106.798 215.805.01 277.468-106.798 61.653-240.293-15.419-240.293-138.734C431.41 71.722 503.132 0 591.602 0Zm-.3 81.701c-61.253 0-110.917 35.146-110.917 78.491s49.664 78.491 110.917 78.491 110.927-35.146 110.927-78.491-49.674-78.491-110.927-78.491ZM957 7.859v92.07c-34.436 0-60.683 5.329-78.731 15.998a50.8 50.8 0 0 0-21.627 22.137v173.77H784.54V7.869h72.102V89.31a159.457 159.457 0 0 1 36.055-55.624A90.626 90.626 0 0 1 957 7.859ZM0 7.869h72.102v303.965H0V7.869Zm350.22 303.965-51.874-70.312 42.715-61.183 90.429 131.495h-81.27ZM215.175 7.869l84.531 117.807c13.778 19.207 13.828 45.044.12 64.302l-86.361 121.436-.299.42h-89.32l77.391-111.987c19.118-27.667 19.188-64.253.18-91.989L132.885 7.869h82.29Zm210.156 0-84.28 122.536-42.705-61.183 45.265-61.353h81.72Z"/></svg>