<svg xmlns="http://www.w3.org/2000/svg" viewBox="0 0 1000 1000"><path fill="#279ed9" d="M900 1000c-265.813 0-531.624 0-798.301-.48-14.528-1.818-27.155-6.327-39.147-12.868-32.707-17.842-52.751-44.978-59.875-81.566C1.576 899.432.883 893.697 0 888c0-257.813 0-515.624.499-774.331.89-30.397 12.186-55.648 31.792-77.034C47.331 20.227 66.375 9.701 87.943 4.061 94.532 2.339 101.309 1.333 108 0c261.368 0 522.736 0 784.984.491 6.503 1.28 12.248 1.57 17.724 2.942 24.069 6.027 44.671 17.774 61.053 36.826 8.652 10.061 15.955 20.78 20.27 33.31 2.994 8.694 5.336 17.614 7.969 26.431 0 266.701 0 533.403-.477 800.96-2.443 15.706-7.58 29.392-15.202 42.262-13.524 22.835-32.533 39.25-57.282 48.694-8.764 3.346-18.012 5.426-27.039 8.084Z"/><path fill="#FFF" d="M601.209 901.266c-19.876-1.222-39.396-.817-58.273-4.102-42.727-7.44-69.005-33.519-78.335-75.884-6.67-30.296-7-60.892-.093-91.191 9.797-42.984 36.691-69.537 79.683-79.006 31.24-6.88 62.684-6.483 93.702 1.593 39.791 10.359 63.514 36.631 72.214 76.333 6.84 31.196 6.77 62.707-.288 93.851-9.966 43.966-36.863 68.564-81.496 75.537-8.755 1.368-17.64 1.903-27.114 2.869Zm33.651-148.585c-3.715-23.826-15.105-35.436-38.496-37.596-8.717-.804-17.783-.184-26.44 1.27-13.529 2.27-23.123 10.521-27.089 23.697-6.803 22.601-6.867 45.533-.043 68.155 3.899 12.925 13.208 21.457 26.481 23.426a128.115 128.115 0 0 0 32.342.635c17.348-1.887 27.733-12.687 31.806-29.519 3.915-16.177 3.71-32.52 1.439-50.066v-.002Zm-226.129-26.598c-8.854 13.36-17.256 26.445-26.079 39.242-2.544 3.691-2.56 6.155-.08 9.936 25.327 38.624 50.431 77.395 75.581 116.133 1.168 1.798 2.196 3.686 3.8 6.396-3.036.178-5.15.407-7.266.408-22.222.027-44.446-.144-66.664.142-4.92.062-7.558-1.778-10.064-5.722-11.908-18.74-24.086-37.309-36.182-55.929-.944-1.453-1.994-2.836-3.472-4.924-7.973 11.823-15.626 23.125-23.23 34.46-6.187 9.22-12.16 18.587-18.591 27.632-1.428 2.007-4.367 4.137-6.635 4.165-23.329.287-46.664.156-69.996.112-.602 0-1.205-.341-2.752-.81l82.895-124.364-79.94-122.656h7.833c22 0 44.003.161 65.999-.119 5.244-.066 8.393 1.44 11.256 5.998 11.547 18.378 23.544 36.474 35.943 55.546 4.1-6.176 7.761-11.649 11.378-17.152 8.538-12.988 17.184-25.908 25.494-39.04 2.402-3.796 5.016-5.394 9.621-5.342 21.331.246 42.665.101 63.999.122 1.936.002 3.872.187 7.032.352a87725.151 87725.151 0 0 1-49.88 75.414Zm334.342 173.763V652.587h77.38v26.098l1.26 1.06c21.96-26.642 50.636-34.154 83.586-30.686v67.305c-9.65 0-18.916-.147-28.176.031-18.787.356-35.774 5.696-50.267 18.168-4.163 3.581-6.135 7.338-6.107 13.076.235 47.76.134 95.522.134 143.283v8.924h-77.81Zm-550.182-1.726h-81.134V649.88h81.134v248.24Zm-74.975-274.28c-5.173-2.211-6.813-6.027-6.809-10.869.02-19.523-.071-39.048.044-58.571.048-8.136 3.669-11.536 12.013-11.564 19.303-.064 38.604-.072 57.907.004 8.164.032 11.714 3.507 11.773 11.833.131 19.3.123 38.604 0 57.904-.049 7.595-3.22 11.61-9.872 11.65-21.509.132-43.021-.144-65.056-.387Z"/></svg>