<svg xmlns="http://www.w3.org/2000/svg" viewBox="0 0 1200 630"><path fill="#FFF" d="M85.789 419.508C36.416 406.517.088 361.529 0 307.973c-.088-63.81 51.404-115.514 115.062-115.603 23.543 0 45.498 7.073 63.747 19.181a116.194 116.194 0 0 0-29.538-3.803c-63.57.091-115.147 51.793-115.059 115.602.085 40.213 20.543 75.566 51.577 96.158ZM263.38 322.03c.091 63.81-51.401 115.512-115.062 115.6-23.539 0-45.494-7.07-63.746-19.178a115.999 115.999 0 0 0 29.537 3.8c63.57-.088 115.151-51.789 115.063-115.599-.088-40.125-20.544-75.478-51.581-96.158 49.377 12.991 85.701 57.976 85.789 111.535Zm221.732 76.568v36.075l-150.218.237-.237-240.111h44.83l.237 204.154 105.388-.355Zm169.97-127.153.236 162.873h-42.82l-.118-57.484h-.589c0 37.966-18.807 60.677-50.861 60.796-35.013 0-55.83-24.957-55.948-66.83l-.119-99.355h42.818l.118 97.345c0 22.119 11.355 34.655 30.518 34.655 21.408 0 34.063-16.321 34.063-44.235l-.119-88.001 42.821.236Zm192.561 63.397.116 99.358h-42.817l-.119-97.345c0-22.119-11.707-35.013-31.817-35.013-22.71 0-35.957 16.561-35.957 44.237l.119 88.239H694.35l-.236-162.873h42.817l.118 57.129h.592c0-37.966 19.751-60.44 52.87-60.44 35.958-.119 57.014 24.483 57.132 66.708Zm195.637-63.87.234 162.872h-42.817l-.119-56.181h-.592c0 37.374-21.645 59.375-58.073 59.493-40.926 0-64.939-31.343-65.057-84.687-.118-53.229 23.895-84.69 64.821-84.809 36.312 0 58.076 22.001 58.194 59.023h.589l-.118-55.83 42.938.119Zm-40.453 81.497c0-30.163-15.258-50.979-41.281-50.861-26.022 0-41.163 19.159-41.163 50.976 0 31.82 15.259 50.627 41.282 50.627 25.904 0 41.162-20.819 41.162-50.742ZM1200 272.747l-12.299 38.322c-6.505-3.548-14.667-5.794-22.711-5.794-24.957 0-39.861 20.461-39.861 54.879l.119 73.69h-42.818l-.236-162.872h42.817l.118 67.182h.592c0-44.471 18.452-70.494 49.204-70.494 9.464-.118 18.57 1.891 25.075 5.087Z"/></svg>