<svg xmlns="http://www.w3.org/2000/svg" viewBox="0 0 566.9 141.7"><path d="M272.3 56.1c-2-4-4.8-7.2-8.5-9.4s-8-3.3-13.1-3.3-9.7 1.2-13.7 3.5c-4.1 2.4-7.2 5.6-9.5 9.8-2.3 4.1-3.4 8.8-3.4 14.1 0 5.3 1.2 10 3.6 14.1 2.4 4.1 5.7 7.4 10 9.7 4.3 2.3 9.1 3.5 14.5 3.5 3 0 6.2-.6 9.5-1.7s6.1-2.5 8.3-4.3c1.1-.8 1.6-1.8 1.6-3s-.6-2.3-1.8-3.3c-.8-.7-1.8-1-3-1-1.3 0-2.4.4-3.3 1.1-1.4 1.1-3.2 2-5.3 2.7-2.2.7-4.2 1.1-6.2 1.1-5 0-9.3-1.4-12.7-4.2-3.5-2.8-5.6-6.5-6.3-11.1h37.4c1.4 0 2.4-.4 3.3-1.2.8-.8 1.3-1.9 1.6-3.3 0-5.2-1-9.8-3-13.8zm-39.2 10.4c.8-4.4 2.7-7.9 5.7-10.5 2.9-2.6 6.8-4 11.7-3.9 4.3 0 7.8 1.3 10.5 3.9 2.7 2.6 4.3 6.1 4.9 10.5h-32.8zM52.6 54.7c.13 0 .27-.01.4-.02.07 0 .13.02.2.02.08 0 .16-.02.25-.03.09 0 .17.03.25.03.07 0 .13-.02.2-.02s.13.02.2.02h.1c.05 0 .1-.01.15-.02.05 0 .1.02.15.02h.2c.06 0 .13-.01.19-.01.07 0 .14.01.21.01h.2c.03 0 .06-.01.09-.01.04 0 .08.01.11.01h.3c.02 0 .05-.01.07-.01.04 0 .09.01.13.01h.3c.06 0 .11-.01.17-.01.04 0 .09.01.13.01h66V44.2H80.7c-.12 0-.25.01-.4.03-.07-.01-.14-.03-.2-.03h-3.2c-.15 0-.31.01-.48.03-.11-.02-.21-.03-.32-.03h-2.9c-.2 0-.42.02-.64.06-.15-.03-.3-.06-.46-.06h-2.6c-.26 0-.53.03-.81.08-.19-.05-.39-.08-.59-.08h-2.3c-.31 0-.62.04-.94.1h-.1c-.25-.06-.5-.1-.76-.1h-1.9c-.31 0-.63.04-.95.1h-.21c-.27-.06-.55-.1-.84-.1h-.6c-.11 0-.22.01-.33.02-.09-.01-.18-.02-.27-.02h-1.5c-.24 0-.48.02-.72.06-.22-.03-.45-.06-.68-.06h-.3c-.19 0-.38.01-.56.04-.11-.01-.22-.04-.34-.04h-.2c-.36 0-.72.04-1.07.12-.03 0-.05.01-.08.01-.08 0-.16-.03-.25-.03-.1 0-.2.02-.3.03-.1-.01-.2-.03-.3-.03-2.8 0-5.2 2.3-5.2 5.2 0 2.8 2.3 5.2 5.2 5.2zm147.7-8.2c-3.6-1.9-7.7-3-12.2-3-3.3 0-6.4.6-9.3 1.7-2.9 1.1-5.4 2.8-7.5 4.9V49c0-1.5-.5-2.7-1.4-3.6-.9-.9-2.1-1.4-3.6-1.4-1.4 0-2.6.5-3.6 1.4-1 .9-1.4 2.1-1.4 3.6v49.2h10.1v-33c0-2.4.6-4.5 1.9-6.4 1.3-1.9 3.1-3.4 5.3-4.5 2.3-1.1 4.8-1.7 7.5-1.7 4.7 0 8.5 1.4 11.4 4.1 2.9 2.7 4.3 6.7 4.3 12.1v29.5h10.1V68.7c0-5.3-1-9.9-3.1-13.6-2-3.8-4.9-6.7-8.5-8.6zm319.2 47.2c0-1.3-.4-2.4-1.4-3.5l-15.7-18.7 14.9-19.4c.9-1.1 1.4-2.5 1.4-3.9 0-1.2-.3-2.2-1.1-3s-1.8-1.2-3.1-1.2c-1.5 0-2.7.6-3.6 1.7L496.4 65l-16.3-19.3c-.9-1.1-2.1-1.7-3.7-1.7-1.4 0-2.5.4-3.2 1.2s-1.1 1.8-1.1 2.9c0 1.3.5 2.5 1.5 3.7L489.9 71l-15.2 19.1c-.9 1.1-1.4 2.3-1.4 3.6 0 1.2.3 2.2 1.1 3 .8.8 1.8 1.2 3.1 1.2s2.5-.5 3.5-1.6l14.9-18.7 15.7 18.7c.7 1.1 1.9 1.6 3.5 1.6 1.3 0 2.4-.4 3.2-1.2s1.2-1.8 1.2-3zm-195-46.5c-4.1-2.4-8.7-3.6-13.7-3.6-5.1 0-9.7 1.2-13.8 3.6-4.2 2.4-7.4 5.7-9.8 9.9-2.4 4.2-3.5 8.8-3.5 13.9s1.1 9.8 3.3 13.9c2.2 4.2 5.2 7.4 9.1 9.8 3.8 2.4 8.1 3.5 12.9 3.5 3.8 0 7.4-.8 10.6-2.4 3.3-1.6 6.1-3.8 8.4-6.6v9h9.9V71c0-5.1-1.2-9.8-3.6-13.9-2.4-4.2-5.7-7.5-9.8-9.9zm1.4 33.2c-1.5 2.8-3.6 5-6.3 6.6-2.7 1.6-5.6 2.4-8.9 2.4s-6.3-.8-8.9-2.4c-2.7-1.6-4.8-3.8-6.3-6.6s-2.3-5.9-2.3-9.4.8-6.6 2.3-9.5c1.5-2.8 3.6-5 6.3-6.7 2.7-1.6 5.6-2.4 8.9-2.4s6.3.8 8.9 2.4c2.7 1.6 4.7 3.8 6.3 6.7 1.5 2.8 2.3 6 2.3 9.5 0 3.4-.8 6.6-2.3 9.4zm129.8-33.7c-3.7-2.2-8-3.3-13.1-3.3s-9.7 1.2-13.7 3.5c-4.1 2.4-7.2 5.6-9.5 9.8-2.3 4.1-3.4 8.8-3.4 14.1 0 5.3 1.2 10 3.6 14.1 2.4 4.1 5.7 7.4 10 9.7 4.3 2.3 9.1 3.5 14.5 3.5 3 0 6.2-.6 9.5-1.7s6.1-2.5 8.3-4.3c1.1-.8 1.6-1.8 1.6-3s-.6-2.3-1.8-3.3c-.8-.7-1.8-1-3-1-1.3 0-2.4.4-3.3 1.1-1.4 1.1-3.2 2-5.3 2.7-2.2.7-4.2 1.1-6.2 1.1-5 0-9.3-1.4-12.7-4.2-3.5-2.8-5.6-6.5-6.3-11.1h37.4c1.4 0 2.4-.4 3.3-1.2.9-.8 1.3-1.9 1.6-3.3 0-5.2-1-9.8-3-13.8s-4.8-7.2-8.5-9.4zM425 66.5c.8-4.4 2.7-7.9 5.7-10.5 3-2.6 6.9-4 11.7-3.9 4.3 0 7.8 1.3 10.5 3.9 2.7 2.6 4.3 6.1 4.9 10.5H425zm-32.7-20c-3.6-2-7.7-3-12.2-3-3.3 0-6.4.6-9.3 1.7-2.9 1.1-5.4 2.8-7.5 4.9V49c0-1.5-.5-2.7-1.4-3.6-.9-.9-2.1-1.4-3.6-1.4-1.4 0-2.6.5-3.6 1.4-1 .9-1.4 2.1-1.4 3.6v49.2h10.1v-33c0-2.4.6-4.5 1.9-6.4 1.3-1.9 3.1-3.4 5.3-4.5 2.3-1.1 4.8-1.7 7.5-1.7 4.7 0 8.5 1.4 11.4 4.1 2.9 2.7 4.3 6.7 4.3 12.1v29.5h10.1V68.7c0-5.3-1-9.9-3.1-13.6-2-3.8-4.9-6.7-8.5-8.6zM121.8 86.7H96.7c-.08 0-.19.01-.31.02a.292.292 0 0 0-.09-.02H76.8c-.27 0-.58.04-.9.1h-.52c-.19-.06-.38-.1-.58-.1h-1.7c-.27 0-.58.04-.9.1h-.67a2.3 2.3 0 0 0-.63-.1h-1.4c-.29 0-.59.04-.91.1h-.97c-.23-.06-.47-.1-.72-.1h-1.1c-.1 0-.2.01-.3.02-.07 0-.13-.02-.2-.02h-1c-.23 0-.46.02-.7.06-.2-.04-.39-.06-.6-.06h-.8c-.16 0-.32.01-.49.03-.14-.02-.28-.03-.41-.03h-.7c-.28 0-.56.03-.84.08-.25-.05-.5-.08-.76-.08h-.6c-.19 0-.37.01-.56.04-.18-.02-.36-.04-.54-.04h-.4c-.32 0-.64.03-.96.1-.3-.06-.62-.1-.94-.1h-.3c-.23 0-.46.02-.68.05-.17-.02-.34-.05-.52-.05h-.1c-.37 0-.74.05-1.09.13-2.67.16-4.91 2.37-4.91 5.17s2.3 5.2 5.2 5.2c.18 0 .36-.01.54-.03.09 0 .17.03.26.03.1 0 .2-.03.3-.03.1.01.2.03.3.03h.1c.06 0 .13-.02.19-.02.1.01.21.02.31.02h.2c.1 0 .19-.01.29-.02.1.01.2.02.31.02h.2c.05 0 .1-.01.15-.01.08 0 .16.01.25.01h.3c.04 0 .08-.01.12-.01.06 0 .12.01.18.01h.4c.08 0 .16-.01.23-.01.06 0 .11.01.17.01h.4c.04 0 .08 0 .11-.01.03 0 .06.01.09.01h.5c.04 0 .08 0 .11-.01.03 0 .06.01.09.01h.5c.04 0 .08 0 .12-.01.03 0 .05.01.08.01h55c.1 0 5 .1 5.1 0h3.1V86.8h-.8v-.1zm5.6-21.2c-.14 0-.26.03-.4.04-.13-.01-.27-.04-.4-.04h-.1c-.33 0-.66.04-.97.1h-.03c-.13 0-.26.03-.39.04-.14-.01-.27-.04-.41-.04h-.2c-.08 0-.15.02-.22.02-.08-.01-.15-.01-.23-.01-.34-.07-.69-.11-1.05-.11h-.4c-.31 0-.62.04-.91.1h-.09c-.08 0-.15.01-.22.01h-.04c-.34-.07-.69-.11-1.04-.11h-.6c-.05 0-.09.01-.14.01-.05 0-.11-.01-.16-.01h-.7c-.28 0-.55.04-.81.1h-.23c-.32-.07-.65-.1-.96-.1h-.9c-.26 0-.51.04-.76.1h-1c-.32-.06-.64-.1-.94-.1h-1.2c-.22 0-.43.03-.64.09-.3-.06-.59-.09-.86-.09H108c-.17 0-.33.03-.49.06-.25-.04-.49-.06-.71-.06h-1.7c-.2 0-.4.04-.59.1h-.41c-.32-.06-.63-.1-.9-.1h-2c-.09 0-.17.01-.26.03-.16-.02-.31-.03-.44-.03h-3.2c-.03 0-.07.01-.1.01-.11-.01-.21-.01-.3-.01h-2.5c-.12 0-.24.03-.36.07a5.67 5.67 0 0 0-.74-.07h-9.6c-.02 0-.04.01-.06.01-.1-.01-.18-.01-.24-.01h-26V76h61.7c.03 0 .06-.01.09-.01.04 0 .08.01.11.01h.7c.03 0 .06 0 .09-.01.04 0 .08.01.11.01h.6c.05 0 .09-.01.13-.01.06 0 .11.01.17.01h.5c.06 0 .12-.01.18-.01.07 0 .14.01.22.01h.4c.08 0 .15-.01.22-.01.09.01.18.01.28.01h.4c.08 0 .16-.01.23-.01.09 0 .18.01.27.01h.3c.13 0 .26-.01.38-.02.07 0 .14.02.22.02h.2c.11 0 .22-.03.34-.04.12.01.24.04.36.04h.1c.13 0 .26-.03.39-.04.14.01.27.04.41.04.38 0 .74-.04 1.09-.12 2.72-.1 5.01-2.35 5.01-5.18 0-2.8-2.3-5.2-5.2-5.2z"/></svg>