<svg xmlns="http://www.w3.org/2000/svg" xmlns:xlink="http://www.w3.org/1999/xlink" id="Laag_1" x="0" y="0" version="1.1" viewBox="0 0 566.9 141.7" xml:space="preserve" style="enable-background:new 0 0 566.9 141.7"><g><path d="M272.3,56.1c-2-4-4.8-7.2-8.5-9.4s-8-3.3-13.1-3.3c-5.1,0-9.7,1.2-13.7,3.5c-4.1,2.4-7.2,5.6-9.5,9.8 c-2.3,4.1-3.4,8.8-3.4,14.1c0,5.3,1.2,10,3.6,14.1c2.4,4.1,5.7,7.4,10,9.7c4.3,2.3,9.1,3.5,14.5,3.5c3,0,6.2-0.6,9.5-1.7 c3.3-1.1,6.1-2.5,8.3-4.3c1.1-0.8,1.6-1.8,1.6-3c0-1.2-0.6-2.3-1.8-3.3c-0.8-0.7-1.8-1-3-1c-1.3,0-2.4,0.4-3.3,1.1 c-1.4,1.1-3.2,2-5.3,2.7c-2.2,0.7-4.2,1.1-6.2,1.1c-5,0-9.3-1.4-12.7-4.2c-3.5-2.8-5.6-6.5-6.3-11.1h37.4c1.4,0,2.4-0.4,3.3-1.2h0 c0.8-0.8,1.3-1.9,1.6-3.3C275.3,64.7,274.3,60.1,272.3,56.1z M233.1,66.5c0.8-4.4,2.7-7.9,5.7-10.5c2.9-2.6,6.8-4,11.7-3.9 c4.3,0,7.8,1.3,10.5,3.9c2.7,2.6,4.3,6.1,4.9,10.5H233.1z"/><path d="M52.6,54.7c0.13,0,0.27-0.01,0.4-0.02c0.07,0,0.13,0.02,0.2,0.02c0.08,0,0.16-0.02,0.25-0.03c0.09,0,0.17,0.03,0.25,0.03 c0.07,0,0.13-0.02,0.2-0.02c0.07,0,0.13,0.02,0.2,0.02h0.1c0.05,0,0.1-0.01,0.15-0.02c0.05,0,0.1,0.02,0.15,0.02h0.2 c0.06,0,0.13-0.01,0.19-0.01c0.07,0,0.14,0.01,0.21,0.01h0.2c0.03,0,0.06-0.01,0.09-0.01c0.04,0,0.08,0.01,0.11,0.01h0.3 c0.02,0,0.05-0.01,0.07-0.01c0.04,0,0.09,0.01,0.13,0.01h0.3c0.06,0,0.11-0.01,0.17-0.01c0.04,0,0.09,0.01,0.13,0.01h0.3 c0.02,0,0.04,0,0.05,0c0.02,0,0.03,0,0.05,0h0.4c0.02,0,0.04,0,0.05,0c0.02,0,0.03,0,0.05,0h0.4c0.02,0,0.04,0,0.05,0 c0.02,0,0.03,0,0.05,0h0.5H59h0.5H60h0.1h0.3h0.2h0.3h0.2h0.3h0.2h0.3h0.3h0.1h0.4h0.2h0.3h0.2h0.4h0.5h0.1h0.4h0.5h0.1h0.4h0.1 h0.4h0.1h0.4H67h0.3h0.2h0.3H68h0.2h0.4h0.1h0.4h0.1h0.4h0.1h0.4h0.1h0.5h0.5h0.4h0.1h0.5h0.1h0.3h0.2h0.3h0.2h0.4h0.2h0.2h0.3h0.2 h0.3H75h0.5h0.1H76h0.5H77h0.5h0.1H78h0.1h0.4h0.1H79h0.2h0.2h0.3H80h0.2h0.3h0.3h0.1h0.4h0.1h0.4h0.1h0.5h0.4h0.1h0.5h0.5h0.4h0.2 h0.4H85h0.3h0.2h0.3h0.3h0.2h0.3h0.2h0.3h0.2h0.4h0.5h0.1h0.4h0.5h0.1h0.4h0.1h0.4h0.1h0.4h0.1h0.4h0.2h0.3h0.2h0.2h0.3h0.3H93h0.1 h0.4h0.1H94h0.1h0.5h0h0.5h0h0.4h0.1h0.5h0.1h0.3h0.2H97h0.2h0.4h0.1H98h0.3h0.2h0.3H99h0.3h0.2h0.4h0.1h0.4h0.5h0.1h0.4h0.1h0.4 h0.1h0.4h0.1h0.4h0.2h0.2h0.3h0.3h0.2h0.3h0.2h0.2h0.4h0.2h0.3h0.1h0.4h0.1h0.4h0.1h0.5h0.5h0.4h0.2h0.4h0.1h0.3h0.2h0.3h0.3h0.2 h0.3h0.2h0.3c0.01,0,0.04,0,0.09,0h0.11h0.3h0.2h0.4h0.1h0.4h0.5h0.6h0.5h0.5h0.6h0.5c0,0,0.41,0,0.5,0c0.1,0,0.4,0,0.6,0 c1.37,0,4.1,0,4.1,0c0.09,0,0.5,0,0.5,0c0.12,0,0.6,0,0.6,0h0.5v-5.3v-5.2h-2.3h-1.2h-2.9h-1h-0.1h-1h-1.9h-0.5h-0.3h-0.3h-0.7 h-2.1h-0.6h-0.4h-0.2h-0.4h-2.5h-0.1H103h-2.7h-0.1h-1H99h-0.5H98h-1.4h-0.4h-0.7h-0.4H95h-0.4h-1.7h-0.7h-0.4H91h-1.8h-1.1H87 h-1.6h-0.1h-0.5h-0.4h-0.3H83h-0.1h-0.5h-0.7h-1c-0.12,0-0.25,0.01-0.4,0.03c-0.07-0.01-0.14-0.03-0.2-0.03h-1.2H78h-1.1 c-0.15,0-0.31,0.01-0.48,0.03c-0.11-0.02-0.21-0.03-0.32-0.03H75h-0.7h-1.1c-0.2,0-0.42,0.02-0.64,0.06 c-0.15-0.03-0.3-0.06-0.46-0.06h-0.6H71h-0.4h-0.5h-0.6c-0.26,0-0.53,0.03-0.81,0.08c-0.19-0.05-0.39-0.08-0.59-0.08H67h-0.1h-1.1 c-0.31,0-0.62,0.04-0.94,0.1H64.8h-0.04c-0.25-0.06-0.5-0.1-0.76-0.1h-0.9c-0.02,0-0.04,0-0.06,0c-0.01,0-0.03,0-0.04,0h-0.9 c-0.31,0-0.63,0.04-0.95,0.1H61.1h-0.16c-0.27-0.06-0.55-0.1-0.84-0.1h-0.6c-0.11,0-0.22,0.01-0.33,0.02 c-0.09-0.01-0.18-0.02-0.27-0.02h-0.5c-0.02,0-0.04,0-0.05,0c-0.02,0-0.03,0-0.05,0h-0.4c-0.02,0-0.04,0-0.05,0 c-0.02,0-0.03,0-0.05,0h-0.4c-0.24,0-0.48,0.02-0.72,0.06c-0.22-0.03-0.45-0.06-0.68-0.06h-0.3c-0.19,0-0.38,0.01-0.56,0.04 c-0.11-0.01-0.22-0.04-0.34-0.04h-0.2c-0.36,0-0.72,0.04-1.07,0.12c-0.03,0-0.05,0.01-0.08,0.01c-0.08,0-0.16-0.03-0.25-0.03 c-0.1,0-0.2,0.02-0.3,0.03c-0.1-0.01-0.2-0.03-0.3-0.03c-2.8,0-5.2,2.3-5.2,5.2C47.4,52.3,49.7,54.7,52.6,54.7z"/><path d="M200.3,46.5c-3.6-1.9-7.7-3-12.2-3c-3.3,0-6.4,0.6-9.3,1.7c-2.9,1.1-5.4,2.8-7.5,4.9V49c0-1.5-0.5-2.7-1.4-3.6 c-0.9-0.9-2.1-1.4-3.6-1.4c-1.4,0-2.6,0.5-3.6,1.4c-1,0.9-1.4,2.1-1.4,3.6v49.2h10.1v-33c0-2.4,0.6-4.5,1.9-6.4 c1.3-1.9,3.1-3.4,5.3-4.5c2.3-1.1,4.8-1.7,7.5-1.7c4.7,0,8.5,1.4,11.4,4.1c2.9,2.7,4.3,6.7,4.3,12.1v29.5h10.1V68.7 c0-5.3-1-9.9-3.1-13.6C206.8,51.3,203.9,48.4,200.3,46.5z"/><path d="M519.5,93.7c0-1.3-0.4-2.4-1.4-3.5l-15.7-18.7l14.9-19.4c0.9-1.1,1.4-2.5,1.4-3.9c0-1.2-0.3-2.2-1.1-3s-1.8-1.2-3.1-1.2 c-1.5,0-2.7,0.6-3.6,1.7L496.4,65l-16.3-19.3c-0.9-1.1-2.1-1.7-3.7-1.7c-1.4,0-2.5,0.4-3.2,1.2s-1.1,1.8-1.1,2.9 c0,1.3,0.5,2.5,1.5,3.7L489.9,71l-15.2,19.1c-0.9,1.1-1.4,2.3-1.4,3.6c0,1.2,0.3,2.2,1.1,3c0.8,0.8,1.8,1.2,3.1,1.2 s2.5-0.5,3.5-1.6l14.9-18.7l15.7,18.7c0.7,1.1,1.9,1.6,3.5,1.6c1.3,0,2.4-0.4,3.2-1.2S519.5,94.9,519.5,93.7L519.5,93.7z"/><path d="M324.5,47.2c-4.1-2.4-8.7-3.6-13.7-3.6c-5.1,0-9.7,1.2-13.8,3.6c-4.2,2.4-7.4,5.7-9.8,9.9c-2.4,4.2-3.5,8.8-3.5,13.9 c0,5.1,1.1,9.8,3.3,13.9c2.2,4.2,5.2,7.4,9.1,9.8c3.8,2.4,8.1,3.5,12.9,3.5c3.8,0,7.4-0.8,10.6-2.4c3.3-1.6,6.1-3.8,8.4-6.6v9h9.9 V71c0-5.1-1.2-9.8-3.6-13.9C331.9,52.9,328.6,49.6,324.5,47.2z M325.9,80.4c-1.5,2.8-3.6,5-6.3,6.6c-2.7,1.6-5.6,2.4-8.9,2.4 s-6.3-0.8-8.9-2.4c-2.7-1.6-4.8-3.8-6.3-6.6s-2.3-5.9-2.3-9.4s0.8-6.6,2.3-9.5c1.5-2.8,3.6-5,6.3-6.7c2.7-1.6,5.6-2.4,8.9-2.4 s6.3,0.8,8.9,2.4c2.7,1.6,4.7,3.8,6.3,6.7c1.5,2.8,2.3,6,2.3,9.5C328.2,74.4,327.4,77.6,325.9,80.4z"/><path d="M455.7,46.7c-3.7-2.2-8-3.3-13.1-3.3c-5.1,0-9.7,1.2-13.7,3.5c-4.1,2.4-7.2,5.6-9.5,9.8c-2.3,4.1-3.4,8.8-3.4,14.1 c0,5.3,1.2,10,3.6,14.1c2.4,4.1,5.7,7.4,10,9.7c4.3,2.3,9.1,3.5,14.5,3.5c3,0,6.2-0.6,9.5-1.7c3.3-1.1,6.1-2.5,8.3-4.3 c1.1-0.8,1.6-1.8,1.6-3c0-1.2-0.6-2.3-1.8-3.3c-0.8-0.7-1.8-1-3-1c-1.3,0-2.4,0.4-3.3,1.1c-1.4,1.1-3.2,2-5.3,2.7 c-2.2,0.7-4.2,1.1-6.2,1.1c-5,0-9.3-1.4-12.7-4.2c-3.5-2.8-5.6-6.5-6.3-11.1h37.4c1.4,0,2.4-0.4,3.3-1.2c0.9-0.8,1.3-1.9,1.6-3.3 c0-5.2-1-9.8-3-13.8S459.4,48.9,455.7,46.7z M425,66.5c0.8-4.4,2.7-7.9,5.7-10.5c3-2.6,6.9-4,11.7-3.9c4.3,0,7.8,1.3,10.5,3.9 c2.7,2.6,4.3,6.1,4.9,10.5H425z"/><path d="M392.3,46.5c-3.6-2-7.7-3-12.2-3c-3.3,0-6.4,0.6-9.3,1.7c-2.9,1.1-5.4,2.8-7.5,4.9V49c0-1.5-0.5-2.7-1.4-3.6 c-0.9-0.9-2.1-1.4-3.6-1.4c-1.4,0-2.6,0.5-3.6,1.4c-1,0.9-1.4,2.1-1.4,3.6v49.2h10.1v-33h0c0-2.4,0.6-4.5,1.9-6.4 c1.3-1.9,3.1-3.4,5.3-4.5c2.3-1.1,4.8-1.7,7.5-1.7c4.7,0,8.5,1.4,11.4,4.1c2.9,2.7,4.3,6.7,4.3,12.1v29.5h10.1V68.7 c0-5.3-1-9.9-3.1-13.6C398.8,51.3,395.9,48.4,392.3,46.5z"/><path d="M121.8,86.7h-1.6h-2.4h-1.2h-0.4h-1.1h-1.3h-0.9h-0.7h-0.8h-1.6h-0.6h-0.9h-0.6h-2.2h-1.2h-0.2h-3.7c-0.02,0-0.06,0-0.09,0 c0,0-0.01,0-0.01,0h-3.6c-0.08,0-0.19,0.01-0.31,0.02c-0.03-0.01-0.06-0.02-0.09-0.02h-1.6H93h-0.7h-0.8h-0.8h-1.4h-1h-0.5h-1h-1.2 h-1.2h-0.2h-1.4H82h-1.5c-0.02,0-0.05,0-0.07,0c-0.01,0-0.02,0-0.03,0h-1.6h-0.5h-1.5c-0.27,0-0.58,0.04-0.9,0.1h-0.2h-0.3h-0.02 c-0.19-0.06-0.38-0.1-0.58-0.1h-1.7c-0.27,0-0.58,0.04-0.9,0.1h-0.4h-0.1h-0.17c-0.21-0.06-0.42-0.1-0.63-0.1h-1.4 c-0.29,0-0.59,0.04-0.91,0.1H68.5h-0.4h-0.4h-0.08c-0.23-0.06-0.47-0.1-0.72-0.1h-1.1c-0.1,0-0.2,0.01-0.3,0.02 c-0.07,0-0.13-0.02-0.2-0.02h-1c-0.23,0-0.46,0.02-0.7,0.06c-0.2-0.04-0.39-0.06-0.6-0.06h-0.8c-0.16,0-0.32,0.01-0.49,0.03 c-0.14-0.02-0.28-0.03-0.41-0.03h-0.7c-0.28,0-0.56,0.03-0.84,0.08c-0.25-0.05-0.5-0.08-0.76-0.08h-0.6 c-0.19,0-0.37,0.01-0.56,0.04c-0.18-0.02-0.36-0.04-0.54-0.04h-0.4c-0.32,0-0.64,0.03-0.96,0.1c-0.3-0.06-0.62-0.1-0.94-0.1h-0.3 c-0.23,0-0.46,0.02-0.68,0.05c-0.17-0.02-0.34-0.05-0.52-0.05h-0.1c-0.37,0-0.74,0.05-1.09,0.13C49.64,86.99,47.4,89.2,47.4,92 c0,2.8,2.3,5.2,5.2,5.2c0.18,0,0.36-0.01,0.54-0.03c0.09,0,0.17,0.03,0.26,0.03c0.1,0,0.2-0.03,0.3-0.03 c0.1,0.01,0.2,0.03,0.3,0.03h0.1c0.06,0,0.13-0.02,0.19-0.02c0.1,0.01,0.21,0.02,0.31,0.02h0.2c0.1,0,0.19-0.01,0.29-0.02 c0.1,0.01,0.2,0.02,0.31,0.02h0.2c0.05,0,0.1-0.01,0.15-0.01c0.08,0,0.16,0.01,0.25,0.01h0.3c0.04,0,0.08-0.01,0.12-0.01 c0.06,0,0.12,0.01,0.18,0.01H57c0.08,0,0.16-0.01,0.23-0.01c0.06,0,0.11,0.01,0.17,0.01h0.4c0.04,0,0.08,0,0.11-0.01 c0.03,0,0.06,0.01,0.09,0.01h0.5c0.04,0,0.08,0,0.11-0.01c0.03,0,0.06,0.01,0.09,0.01h0.5c0.04,0,0.08,0,0.12-0.01 c0.03,0,0.05,0.01,0.08,0.01H60h0.7c0.02,0,0.04,0,0.06,0c0.02,0,0.03,0,0.04,0h0.6h0.1h0.6h0.1h0.6h0.1h0.5h0.3h0.4h0.3h0.4h0.3 h0.4h0.4h0.2h0.5h0.3h0.4h0.2h0.6h0.1h0.6h0.1h0.6h0.1h0.7h0.6H71h0.5h0.3h0.5h0.2h0.4h0.3h0.4H74h0.3h0.4h0.2h0.5h0.2h0.6h0.1h0.6 H77h0.6h0.1h0.6h0.1H79h0.1h0.6h0.2h0.5h0.2H81h0.3h0.4h0.4h0.3h0.4H83h0.5h0.3h0.5h0.1H85h0.7h0.1h0.6h0.1h0.7h0.6h0.1h0.5h0.3 h0.5h0.2h0.4h0.4h0.3h0.4h0.3h0.4h0.3h0.5h0.1h0.6h0.1h0.6h0.1h0.7h0h0.7h0.6H96h0.6h0.2h0.5h0.2h0.4h0.4h0.4H99h0.3h0.4h0.3h0.5 h0.2h0.5h0.1h0.6h0.1h0.7h0.6h0.1h0.6h0.1h0.6h0.2h0.5h0.2h0.5h0.2h0.4h0.4h0.3h0.4h0.3h0.5h0.2h0.5h0.1h0.6c0.01,0,0.04,0,0.09,0 h0.01h0.7c0.01,0,0.03,0,0.07,0h0.63h0.7c0.01,0,0.03,0,0.07,0H113h0.7c0.01,0,0.03,0,0.07,0h0.63c0.1,0,5,0.1,5.1,0h1.6h1.5V92 v-5.2h-0.8L121.8,86.7z"/><path d="M127.4,65.5c-0.14,0-0.26,0.03-0.4,0.04c-0.13-0.01-0.27-0.04-0.4-0.04h-0.1c-0.33,0-0.66,0.04-0.97,0.1h-0.03 c-0.13,0-0.26,0.03-0.39,0.04c-0.14-0.01-0.27-0.04-0.41-0.04h-0.2c-0.08,0-0.15,0.02-0.22,0.02c-0.08-0.01-0.15-0.01-0.23-0.01 c-0.34-0.07-0.69-0.11-1.05-0.11h-0.4c-0.31,0-0.62,0.04-0.91,0.1h-0.09c-0.08,0-0.15,0.01-0.22,0.01c-0.01,0-0.03,0-0.04,0 c-0.34-0.07-0.69-0.11-1.04-0.11h-0.6c-0.05,0-0.09,0.01-0.14,0.01c-0.05,0-0.11-0.01-0.16-0.01h-0.7c-0.28,0-0.55,0.04-0.81,0.1 h-0.19c-0.01,0-0.02,0-0.04,0c-0.32-0.07-0.65-0.1-0.96-0.1h-0.9c-0.26,0-0.51,0.04-0.76,0.1h-0.24h-0.76 c-0.32-0.06-0.64-0.1-0.94-0.1h-1.2c-0.22,0-0.43,0.03-0.64,0.09c-0.3-0.06-0.59-0.09-0.86-0.09h-0.9H109h-1 c-0.17,0-0.33,0.03-0.49,0.06c-0.25-0.04-0.49-0.06-0.71-0.06h-1.7c-0.2,0-0.4,0.04-0.59,0.1h-0.41h0c-0.32-0.06-0.63-0.1-0.9-0.1 h-2c-0.09,0-0.17,0.01-0.26,0.03c-0.16-0.02-0.31-0.03-0.44-0.03h-0.9h-1.3h-1c-0.03,0-0.07,0.01-0.1,0.01 c-0.11-0.01-0.21-0.01-0.3-0.01h-2.5c-0.12,0-0.24,0.03-0.36,0.07c-0.28-0.04-0.54-0.07-0.74-0.07h-2.7h-0.1h-0.8h-2.1H87h-0.4 h-2.9c-0.02,0-0.04,0.01-0.06,0.01c-0.1-0.01-0.18-0.01-0.24-0.01h-2.7h-0.9H77h-0.1h-1h-2.4H73h-2.2h-0.9h-0.8h-1.2h-0.7h-1h-1 h-1.54H63.6h-1.3h-3.9h-1v5.3V76h6.04c0.04,0,0.06,0,0.06,0s0.64,0,0.9,0h0.9h0.9c0,0,0.63,0,0.9,0c0,0,0.58,0,0.8,0 c0.03,0,0.07,0,0.1,0h0.7h0.2c0,0,0.47,0,0.6,0c0.07,0,0.21,0,0.3,0h0.5h0.4h0.4h0.5H72h0.5h0.3h0.6h0.2h0.7h0.2h0.7h0.1h0.8h0.8 H77h0.8h0.1h0.7h0.2h0.6h0.3h0.5h0.4H81h0.5h0.4h0.5h0.3h0.6h0.3h0.6h0.2h0.7h0.1H86h0.9c0,0,0.51,0,0.8,0c0.04,0,0.06,0,0.1,0h0.7 h0.2h0.6h0.3h0.6h0.3H91h0.4h0.4h0.5h0.4h0.5h0.3h0.6h0.2H95h0.1h0.8H96h0.8h0.8h0.1h0.7h0.2h0.7h0.2h0.6h0.3h0.5h0.4h0.5h0.4h0.4 h0.5h0.3h0.6h0.2h0.7h0.2h0.7h0.1h0.8h0.8h0.1h0.8h0.1h0.7h0.2h0.6h0.3h0.6h0.3h0.5h0.4h0.4h0.5h0.3h0.6h0.3h0.6h0.2h0.7h0.1h0.8 h0.9h0.8c0.01,0,0.03,0,0.04,0c0.02,0,0.04,0,0.06,0h0.7c0.03,0,0.06-0.01,0.09-0.01c0.04,0,0.08,0.01,0.11,0.01h0.7 c0.03,0,0.06,0,0.09-0.01c0.04,0,0.08,0.01,0.11,0.01h0.6c0.05,0,0.09-0.01,0.13-0.01c0.06,0,0.11,0.01,0.17,0.01h0.5 c0.06,0,0.12-0.01,0.18-0.01c0.07,0,0.14,0.01,0.22,0.01h0.4c0.08,0,0.15-0.01,0.22-0.01c0.09,0.01,0.18,0.01,0.28,0.01h0.4 c0.08,0,0.16-0.01,0.23-0.01c0.09,0,0.18,0.01,0.27,0.01h0.3c0.13,0,0.26-0.01,0.38-0.02c0.07,0,0.14,0.02,0.22,0.02h0.2 c0.11,0,0.22-0.03,0.34-0.04c0.12,0.01,0.24,0.04,0.36,0.04c0,0,0.1,0,0.1,0c0.13,0,0.26-0.03,0.39-0.04 c0.14,0.01,0.27,0.04,0.41,0.04c0.38,0,0.74-0.04,1.09-0.12c2.72-0.1,5.01-2.35,5.01-5.18C132.6,67.9,130.3,65.5,127.4,65.5z"/></g></svg>