<svg xmlns="http://www.w3.org/2000/svg" viewBox="0 0 1000 1000"><path d="M1000 499.834c.042 124-46 243.598-129.167 335.556a500.042 500.042 0 0 1-320.931 162.112c-123.376 12.375-246.959-21.528-346.737-95.14C103.387 828.737 34.512 720.681 9.928 599.14A499.996 499.996 0 0 1 711.305 46.846 500.002 500.002 0 0 1 960.75 305.805 497.643 497.643 0 0 1 1000 499.834ZM885.014 658.709a412.33 412.33 0 0 0 31.319-158.875 414.829 414.829 0 0 0-94.264-263.126A414.925 414.925 0 0 0 582.277 93.11a414.905 414.905 0 0 0-276.459 41.112 414.873 414.873 0 0 0-187.64 207.167 414.848 414.848 0 0 0-13.611 279.167 414.791 414.791 0 0 0 166.57 224.445 414.901 414.901 0 0 0 271.154 67.834 414.792 414.792 0 0 0 252.625-119.584 412.377 412.377 0 0 0 90.098-134.542ZM710.652 313.458h83.653V644.64a41.796 41.796 0 0 1-5.625 20.889 41.846 41.846 0 0 1-36.222 20.861 41.734 41.734 0 0 1-20.903-5.611l-104.57-60.403v65.986h-83.667V572.195l-83.666-48.347v162.514h-83.667V475.667l-83.667-48.347v259.042h-83.487V355.014a41.818 41.818 0 0 1 5.639-20.889 41.843 41.843 0 0 1 15.306-15.278 41.84 41.84 0 0 1 20.903-5.583c7.347 0 14.555 1.93 20.903 5.597l104.583 60.417v-65.986h83.487v114.167l83.666 48.347V313.292h83.667v210.722l83.667 48.32Z"/></svg>