<svg xmlns="http://www.w3.org/2000/svg" viewBox="0 0 845 244">
    <linearGradient id="a" x1="116.908" x2="117.908" y1="518.786" y2="518.786"
                    gradientTransform="matrix(1273.11 0 0 -1273.11 -148836.8594 660591.3125)"
                    gradientUnits="userSpaceOnUse">
        <stop offset="0" stop-color="#2d65dd"/>
        <stop offset="1" stop-color="#14bbfc"/>
    </linearGradient>
    <path fill="url(#a)"
          d="M130 0c-9.1 0-14.62 4.88-14.62 16.58 0 12.67 6.18 16.25 14.62 16.25 9.75 0 14.95-4.55 14.95-16.58C144.95 3.58 139.43 0 130 0zM49.72 52.65C16.25 52.65 2.92 67.6 2.92 91c0 21.12 10.4 31.2 29.25 36.72l17.88 5.2c14.3 4.23 16.58 7.15 16.58 13.32 0 7.15-2.6 14.62-21.12 14.62-10.72 0-21.12-1.3-30.55-4.23-1.3-.65-4.88-1.3-6.18-1.3-2.28 0-4.22 1.62-5.2 4.55C1.63 165.4.33 169.95.33 172.56c0 2.93 1.3 4.88 3.9 5.85 9.1 4.23 26.98 6.18 40.62 6.18 34.45 0 47.77-15.6 47.77-38.68 0-21.78-8.78-29.9-30.22-36.72l-16.25-4.88c-15.27-4.55-16.9-8.12-16.9-14.3 0-7.47 2.6-13.97 19.5-13.97 6.83 0 16.9.65 26.32 3.25 1.3.32 3.9.65 5.85.65s3.9-1.3 4.22-3.57c1.62-5.85 2.93-11.38 2.93-13.33 0-2.92-1.3-4.88-4.55-5.85-9.42-3.56-24.37-4.54-33.8-4.54zm177.45 0c-38.02 0-55.9 14.62-55.9 68.57 0 49.08 16.57 63.38 50.7 63.38 11.38 0 21.77-1.3 27.95-5.52v3.9c0 7.15-.98 13.32-3.9 18.2-4.88 8.45-15.93 13.65-53.3 15.27-3.9.32-6.18 2.93-6.18 7.48 0 2.27.32 7.15.65 10.4.65 3.9 2.93 5.85 7.48 5.85 44.85 0 72.15-10.07 78.98-35.43 2.27-9.43 2.92-21.12 2.92-32.82V69.88c0-6.5-2.6-10.4-7.15-11.7-12.02-4.23-26.65-5.53-42.25-5.53zm363.36 0c-12.35 0-27.3 1.95-39.33 5.85-2.92.97-4.55 2.92-4.55 6.5 0 2.28.97 8.45 1.95 12.35.65 2.6 2.28 3.9 4.55 3.9 1.62 0 6.17-.97 9.42-1.3 8.12-1.62 17.22-2.93 24.7-2.93 15.6 0 19.83 3.25 21.78 8.45.97 3.25 1.3 8.78 1.3 13.32v8.45c-6.17-.65-15.6-.97-22.75-.97-15.6 0-29.58 2.6-37.05 7.47-9.1 6.18-13 15.6-13 30.55 0 21.45 7.15 40.3 43.22 40.3 16.25 0 36.4-3.25 45.5-7.15 3.9-1.3 5.85-3.57 7.47-5.85 1.95-2.93 2.6-6.82 2.6-11.38V95.55c0-16.9-1.95-26.65-8.12-33.15-6.82-7.15-17.55-9.75-37.69-9.75zm-84.5 0c-17.23 0-38.02 6.17-45.17 11.7-4.88 3.9-6.5 7.15-6.5 15.6v94.9c0 4.23 1.62 6.5 5.52 6.5h15.27c3.58 0 5.52-2.6 5.52-6.5v-83.2c0-3.57.65-5.85.98-7.15.65-1.62 2.27-2.93 3.9-3.57 4.23-2.6 11.38-3.9 19.17-3.9 2.92 0 9.75.65 12.68.65 2.6 0 4.55-1.3 5.2-3.57.65-3.57 1.3-11.05 1.3-14.3 0-2.92-1.62-4.88-3.9-5.53-2.92-.98-7.15-1.63-13.97-1.63zm-383.5 2.93c-4.23 0-5.53 2.92-5.53 6.83v112.45c0 4.55 1.95 6.5 5.53 6.5h15.28c3.57 0 5.52-2.27 5.52-6.5V62.08c0-3.9-.98-6.5-5.52-6.5h-15.28zm199.22.32c-4.23 0-5.52 2.92-5.52 6.5v77.35c0 11.05.65 21.12 2.92 27.95 3.58 10.07 13.33 16.57 39.98 16.57 15.6 0 37.05-1.3 51.35-7.8 4.88-2.6 8.12-7.15 8.12-15.6V62.4c0-4.22-1.95-6.5-5.52-6.5H397.8c-3.9 0-5.52 2.92-5.52 6.5v85.15c0 3.25-.65 5.85-1.62 7.15-.98 1.3-2.92 2.6-4.55 2.93-4.23 1.3-11.05 2.6-22.42 2.6s-17.55-2.6-19.5-8.12c-1.3-3.25-1.62-9.75-1.62-16.25V62.4c0-3.9-1.62-6.5-5.52-6.5h-15.3zm-92.62 20.8c6.18 0 14.3.65 18.2 2.28 2.27.97 3.57 2.93 3.57 7.47v61.43c0 1.95-.32 4.23-.65 5.2-.65 1.62-2.27 2.93-3.9 3.9-5.85 2.93-14.3 3.57-22.43 3.57-20.15 0-25.68-12.02-25.68-40.3-.31-31.53 4.24-43.55 30.89-43.55zm361.07 49.4c6.5 0 14.62.65 19.83.97v19.5c0 3.25-.33 6.18-.97 8.45-.33 1.62-1.95 3.25-3.9 4.23-4.22 1.62-11.38 3.25-21.45 3.25-17.55 0-21.45-7.8-21.45-19.18 0-7.15 1.62-10.73 5.2-13 3.89-2.92 11.04-4.22 22.74-4.22z"/>
    <linearGradient id="b" x1="115.337" x2="116.337" y1="515.118" y2="515.118"
                    gradientTransform="matrix(70.3349 0 0 -70.3349 -7351.6123 36339.7188)"
                    gradientUnits="userSpaceOnUse">
        <stop offset="0" stop-color="#2a98ec"/>
        <stop offset="1" stop-color="#299fee"/>
    </linearGradient>
    <path fill="url(#b)"
          d="M761.15 121.04c8.78-1.3 33.47-7.15 68.25-27.3.97-.32 1.3.32 1.3.97-5.2 8.78-26.65 37.05-69.55 27.62-.65.01-.65-1.29 0-1.29z"/>
    <linearGradient id="c" x1="116.048" x2="117.048" y1="516.778" y2="516.778"
                    gradientTransform="matrix(122.77 0 0 -122.77 -13532.4082 63516.7852)"
                    gradientUnits="userSpaceOnUse">
        <stop offset="0" stop-color="#2a98ec"/>
        <stop offset="1" stop-color="#299fee"/>
    </linearGradient>
    <path fill="url(#c)"
          d="M716.62 74.89c11.05-1.62 58.5-11.7 115.38-46.8.97-.33 1.62 0 1.62.33l3.58 7.47c.33 1.3.33 2.6-.33 3.9-6.17 8.12-33.15 39.33-87.1 75.4-1.62.97-3.58 1.3-5.2 0-6.83-4.55-23.08-16.9-29.58-38.35-.64 0 .34-1.3 1.63-1.95z"/>
    <linearGradient id="d" x1="115.806" x2="116.806" y1="516.215" y2="516.215"
                    gradientTransform="matrix(97.9745 0 0 -97.9745 -10634.792 50610.6211)"
                    gradientUnits="userSpaceOnUse">
        <stop offset="0" stop-color="#2a98ec"/>
        <stop offset="1" stop-color="#299fee"/>
    </linearGradient>
    <path fill="url(#d)"
          d="M801.45.47c-33.15 20.48-64.67 32.17-85.8 38.35-.33 0-.97.97-1.3 1.3-1.62 5.85-3.25 12.35-3.25 19.17 0 3.25.33 5.85.33 8.45 0 1.3 1.3 2.28 2.6 1.62 33.8-13.97 68.25-39 94.25-63.38.97-.97.97-2.28-.33-3.25-1.62-.98-3.58-1.62-5.2-2.6 0-.31-.97-.31-1.3.34z"/>
</svg>