<svg xmlns="http://www.w3.org/2000/svg" fill="#21201f" viewBox="0 0 676 109"><path d="M236.61 27.71h-7.4a8.35 8.35 0 0 0-8.4 8.3v17h32.39v-9.88c-4.69-5.02-11.49-9.73-16.59-15.42zm48.1.001h-7.35c-5.11 5.7-11.92 10.41-16.61 15.44v9.83h32.34v-17a8.34 8.34 0 0 0-8.38-8.27zM278.3 9.86A11.08 11.08 0 0 0 267.23 0a11.57 11.57 0 0 0-10.25 6.72v.05-.05A11.59 11.59 0 0 0 246.73 0a11.08 11.08 0 0 0-11.13 9.86c0 .37-.05.74-.05 1.12 0 13.34 16.58 19.65 21.38 28.54 4.82-8.86 21.37-15.2 21.37-28.54zm-57.49 50.591v17.07a8.35 8.35 0 0 0 8.4 8.3h24v-25.37h-32.4zm39.94 0v25.37h24a8.34 8.34 0 0 0 8.38-8.3V60.45h-32.38zm85.96-20.14-5.47 8.41a28 28 0 0 0-13.41-3.52c-3.32 0-6.06 1.07-6.06 3.42 0 2.84 3.52 4.21 8.51 5.77 8.51 2.64 17.41 6 17.41 16 0 9.78-7.92 15.75-21.32 15.75-7.93 0-15.36-1.57-21-6.07l4-9.49c5.19 3.62 11.84 4.8 16.34 4.8s7.24-1.18 7.24-3.92-4.3-4.1-9.49-5.57C316 63.661 307 60.161 307 50.381s7.82-15.72 20.3-15.72a34.341 34.341 0 0 1 19.41 5.65zm56.44 1.35v42.37a20.61 20.61 0 0 1-8.12 2.06c-3.91 0-6.26-3.23-6.55-7.83a17.27 17.27 0 0 1-15.06 7.83c-11 0-17.32-6.85-17.32-18.59v-30.84a20.65 20.65 0 0 1 8.12-2c4.5 0 7 2.94 7 7.05v23.05c0 5.77 2.45 9.3 7.05 9.3 6.06 0 9.68-3.53 9.68-13.7v-23.7a20.65 20.65 0 0 1 8.16-2c4.5 0 7.04 2.91 7.04 7zm47.25-5.37-4.4 13.37a11.41 11.41 0 0 0-6.17-1.76c-6.26 0-10.17 4.2-10.17 16.43v20.78H414.5v-48.45a20.61 20.61 0 0 1 8.12-2c4.1 0 6.55 3.52 6.55 8.61 3.62-6.36 8.61-8.61 13.7-8.61a19.41 19.41 0 0 1 7.53 1.63zm55.36 22.5c0 17.22-10.17 27.3-27.29 27.3-1.86 0-4.5-.1-7.34-.2v21.77h-15.16v-71a20.65 20.65 0 0 1 8.12-2c3.91 0 6.26 3.13 6.55 7.83 4.21-5.87 10.18-7.83 16.14-7.83 11.45 0 18.98 9 18.98 24.13zm-15.36 0c0-7.63-3.22-12.22-9.19-12.22s-10.08 3.52-10.08 13.89v14.28c2.25.1 4.21.1 5.87.1 8.3 0 13.4-5.87 13.4-16.05zm60.65-22.5-4.4 13.37a11.38 11.38 0 0 0-6.16-1.76c-6.27 0-10.18 4.2-10.18 16.43v20.78h-15.16v-48.45a20.649 20.649 0 0 1 8.15-2c4.11 0 6.55 3.52 6.55 8.61 3.62-6.36 8.61-8.61 13.7-8.61a19.41 19.41 0 0 1 7.5 1.63zm4.59-16.43c0-5.09 3.23-7.92 8.42-7.92s8.41 2.83 8.41 7.92-3.23 8.12-8.41 8.12-8.42-2.93-8.42-8.12zm1 65.25h15.17v-49.45h-15.19zm65.03-44.8-5.47 8.41a28 28 0 0 0-13.41-3.52c-3.32 0-6.06 1.07-6.06 3.42 0 2.84 3.52 4.21 8.51 5.77 8.51 2.64 17.41 6 17.41 16 0 9.78-7.92 15.75-21.32 15.75-7.93 0-15.36-1.57-21-6.07l4-9.49c5.19 3.62 11.84 4.8 16.34 4.8s7.24-1.18 7.24-3.92-4.3-4.1-9.49-5.57c-7.43-2.15-16.43-5.68-16.43-15.46s7.79-15.77 20.31-15.77a34.34 34.34 0 0 1 19.37 5.65zm47.35 30.52 6 9.49a38.081 38.081 0 0 1-21 5.77c-15.55 0-24.75-9.1-24.75-24.56 0-16.82 9.69-26.9 26.22-26.9 12.42 0 19.66 6.26 19.66 16.53 0 9.88-9.1 15.75-24.26 15.75-2.15 0-4.3-.19-6.45-.39 1.07 5.19 4.3 8.22 10.66 8.22a24.83 24.83 0 0 0 13.92-3.91zm-25-12.82c2.25.2 4.5.3 6.56.3 6.26 0 9.78-2.35 9.78-6.46 0-3.33-2.35-5.48-6.46-5.48-5.43 0-9.05 4.29-9.83 11.64zM50.94 36.881l-19.18 53.51c-3.62 10.17-10.76 17.27-17.8 18.19l-6.16-9.68c4.3-.68 9.68-5.18 11.64-11.45l1-3c-2.44-.88-4.1-2.74-5.18-5.57L0 36.881a20.49 20.49 0 0 1 8.68-2.22c3.71 0 7.33 1.47 9.09 7l5.09 16.14 3.62 15.46 3.62-15.45 6.55-23.15 14.29 2.22zm2.93 23.48c0-16.14 9.68-25.7 26.31-25.7s26.41 9.59 26.41 25.73-9.78 25.73-26.41 25.73-26.31-9.62-26.31-25.76zm37.36 0c0-8.61-4.1-13.8-11-13.8s-10.93 5.19-10.93 13.8 4.11 13.69 11 13.69 10.93-5.08 10.93-13.69zm71.21-18.7v42.37a20.78 20.78 0 0 1-8.14 2.06c-3.91 0-6.26-3.23-6.55-7.83a17.27 17.27 0 0 1-15.06 7.83c-11 0-17.32-6.85-17.32-18.59v-30.84a20.81 20.81 0 0 1 8.14-2c4.5 0 7 2.93 7 7v23.1c0 5.77 2.45 9.29 7.05 9.29 6.06 0 9.68-3.52 9.68-13.69v-23.7a20.81 20.81 0 0 1 8.16-2c4.5 0 7.04 2.9 7.04 7zm47.25-5.37-4.39 13.37a11.42 11.42 0 0 0-6.17-1.77c-6.26 0-10.17 4.21-10.17 16.44v20.78h-15.17v-48.45a20.808 20.808 0 0 1 8.12-2c4.11 0 6.55 3.52 6.55 8.61 3.62-6.36 8.61-8.61 13.7-8.61a19.23 19.23 0 0 1 7.53 1.63z"/></svg>