<svg fill="currentColor" viewBox="0 0 2700 640" xmlns="http://www.w3.org/2000/svg" xmlns:bx="https://boxy-svg.com">
    <defs>
        <bx:guide x="1540.16" y="457.5" angle="90"></bx:guide>
        <bx:guide x="1454.677" y="255" angle="90"></bx:guide>
    </defs>
    <rect width="2700" height="640" style="stroke-width: 0px; fill: rgb(186, 218, 85); pointer-events: none;"></rect>
    <path d="M 695.441 335.539 L 695.441 533.91 C 695.441 540.33 690.229 545.54 683.81 545.54 L 673.139 545.54 C 666.722 545.54 661.507 540.33 661.507 533.91 L 661.507 427.455 C 661.507 430.988 652.122 438.547 648.486 440.874 C 630.668 452.275 607.72 459.584 586.06 459.584 C 567.285 459.584 548.469 453.271 532.813 443.594 C 518.295 434.643 509.426 420.105 502.075 405.819 C 493.643 389.454 489.447 370.349 489.447 348.52 C 489.447 326.673 493.726 307.379 502.301 290.579 C 516.239 263.311 534.368 243.372 573.785 236.978 C 586.371 234.922 599.289 235.003 611.894 236.791 C 663.998 244.163 695.441 273.841 695.441 335.539 Z M 660.926 347.648 C 660.926 322.083 655.007 302.395 643.15 288.584 C 631.31 274.796 614.489 267.88 592.706 267.88 C 571.21 267.88 554.409 275.005 542.261 289.248 C 530.091 303.515 524.027 323.267 524.027 348.541 C 524.027 373.524 530.091 392.921 542.261 406.731 C 554.409 420.54 571.377 427.434 593.16 427.434 C 614.635 427.434 631.289 420.458 643.128 406.504 C 654.987 392.568 660.906 372.942 660.926 347.648 Z M 846.048 191.643 C 852.34 194.986 854.231 203.294 849.953 208.983 C 837.636 225.327 823.203 233.051 810.95 233.717 C 801.482 234.216 793.216 231.869 776.081 222.586 L 764.91 216.686 C 751.993 209.957 742.999 206.718 735.565 207.113 C 728.835 207.467 722.585 210.79 716.769 216.274 C 713.179 219.658 707.841 220.448 703.458 218.162 L 700.676 216.708 C 694.3 213.387 692.388 204.954 696.792 199.264 C 709.024 183.46 722.834 176.234 735.212 175.568 C 744.68 175.049 753.281 177.374 770.04 186.221 L 780.879 192.14 C 793.797 199.347 803.121 202.087 810.557 201.694 C 817.471 201.341 823.785 197.849 829.727 192.098 C 833.316 188.608 838.779 187.801 843.202 190.146 L 846.048 191.643 Z M 922.43 185.745 L 933.748 185.745 C 940.166 185.745 945.38 190.955 945.38 197.374 L 945.38 357.491 C 945.38 418.65 891.695 467.518 828.978 459.459 C 777.14 452.793 739.675 406.15 739.675 353.878 L 739.675 268.48 C 739.675 262.064 744.889 256.852 751.306 256.852 L 762.622 256.852 C 769.042 256.852 774.255 262.064 774.255 268.48 L 774.234 357.472 C 774.234 397.387 808.623 429.431 849.349 425.463 C 884.842 422.017 910.843 390.116 910.843 354.46 L 910.821 197.352 C 910.821 190.937 916.032 185.723 922.43 185.745 Z M 205.992 336.246 L 205.992 448.682 C 205.992 455.098 200.778 460.311 194.365 460.311 L 183.689 460.311 C 177.272 460.311 172.058 455.098 172.058 448.682 L 172.058 428.161 C 172.058 431.693 162.672 439.255 159.038 441.579 C 141.22 452.98 118.27 460.291 96.611 460.291 C 77.837 460.291 59.021 453.977 43.363 444.299 C 28.846 435.349 19.979 420.812 12.627 406.524 C 4.194 390.16 0 371.053 0 349.226 C 0 327.38 4.278 308.085 12.856 291.285 C 26.791 264.018 44.921 244.08 84.337 237.684 C 96.902 235.648 109.84 235.732 122.445 237.518 C 174.532 244.891 205.971 274.567 205.992 336.246 Z M 171.458 348.395 C 171.458 322.831 165.517 303.142 153.677 289.334 C 141.842 275.544 125.021 268.626 103.235 268.626 C 81.762 268.626 64.939 275.751 52.791 289.998 C 40.622 304.265 34.557 324.015 34.557 349.288 C 34.557 374.273 40.622 393.668 52.791 407.478 C 64.939 421.289 81.908 428.182 103.691 428.182 C 125.167 428.182 141.823 421.206 153.66 407.249 C 165.517 393.295 171.435 373.671 171.458 348.395 Z M 450.738 336.246 L 450.738 448.682 C 450.738 455.098 445.524 460.311 439.109 460.311 L 428.435 460.311 C 422.016 460.311 416.805 455.098 416.805 448.682 L 416.805 428.161 C 416.805 431.693 407.418 439.255 403.783 441.579 C 385.965 452.98 363.016 460.291 341.355 460.291 C 322.582 460.291 303.766 453.977 288.106 444.299 C 273.593 435.349 264.723 420.812 257.372 406.524 C 248.942 390.16 244.745 371.053 244.745 349.226 C 244.745 327.38 249.023 308.085 257.6 291.285 C 271.535 264.018 289.663 244.08 329.082 237.684 C 341.647 235.648 354.586 235.732 367.191 237.518 C 419.273 244.891 450.717 274.567 450.738 336.246 Z M 416.204 348.395 C 416.204 322.831 410.262 303.142 398.426 289.334 C 386.587 275.544 369.766 268.626 347.98 268.626 C 326.506 268.626 309.686 275.751 297.535 289.998 C 285.367 304.265 279.302 324.015 279.302 349.288 C 279.302 374.273 285.367 393.668 297.535 407.478 C 309.686 421.289 326.653 428.182 348.438 428.182 C 369.911 428.182 386.566 421.206 398.404 407.249 C 410.241 393.295 416.182 373.671 416.204 348.395 Z M 1190 336.246 L 1190 448.682 C 1190 455.098 1184.786 460.311 1178.37 460.311 L 1167.694 460.311 C 1161.277 460.311 1156.064 455.098 1156.064 448.682 L 1156.064 428.161 C 1156.064 431.693 1146.676 439.255 1143.042 441.579 C 1125.225 452.98 1102.278 460.291 1080.617 460.291 C 1061.843 460.291 1043.029 453.977 1027.369 444.299 C 1012.851 435.349 1003.984 420.812 996.632 406.524 C 988.2 390.16 984.006 371.053 984.006 349.226 C 984.006 327.38 988.283 308.085 996.861 291.285 C 1010.795 264.018 1028.926 244.08 1068.343 237.684 C 1080.907 235.648 1093.845 235.732 1106.451 237.518 C 1158.537 244.891 1189.977 274.567 1190 336.246 Z M 1155.461 348.395 C 1155.461 322.831 1149.526 303.142 1137.685 289.334 C 1125.847 275.544 1109.025 268.626 1087.242 268.626 C 1065.769 268.626 1048.946 275.751 1036.795 289.998 C 1024.628 304.265 1018.562 324.015 1018.562 349.288 C 1018.562 374.273 1024.628 393.668 1036.795 407.478 C 1048.946 421.289 1065.913 428.182 1087.699 428.182 C 1109.171 428.182 1125.828 421.206 1137.663 407.249 C 1149.505 393.295 1155.44 373.671 1155.461 348.395 Z" style="fill: rgb(180, 85, 218); pointer-events: none; visibility: hidden;">
        <title>Aaqua</title>
    </path>
    <path d="M 474.76 109.451 L 451.23 68.5 L 261.17 177.96 L 261.17 68.5 L 213.851 68.5 L 213.851 205.26 L 0 328.499 L 213.72 451.611 L 213.72 588.5 L 261.04 588.5 L 261.04 479.04 L 451.23 588.5 L 475.02 547.55 L 261.17 424.31 L 261.17 232.56 L 474.76 109.451 Z M 213.72 397.14 L 94.64 328.499 L 213.72 259.99 L 213.72 397.14 Z M 888.811 314.851 C 880.36 293.791 872.04 273.64 863.851 254.66 C 855.531 235.55 847.08 216.831 838.239 198.24 L 793.001 198.24 C 784.291 216.831 775.711 235.68 767.391 254.66 C 759.07 273.64 750.751 293.791 742.431 314.72 C 734.111 335.65 725.4 358.011 716.692 381.671 C 707.98 405.33 698.62 430.94 688.871 458.631 L 738.14 458.631 L 748.8 428.34 C 752.44 418.2 756.08 407.931 759.59 397.4 L 869.7 397.4 C 873.339 407.931 876.851 418.2 880.62 428.21 C 884.391 438.22 888.032 448.36 891.54 458.631 L 942.76 458.631 C 933.011 430.81 923.649 405.071 914.679 381.539 C 905.84 358.14 897.26 335.911 888.811 314.851 Z M 771.68 359.18 C 779.739 336.82 787.411 316.15 794.82 297.17 C 802.23 278.06 808.86 261.939 814.711 248.68 C 820.3 261.42 826.8 277.54 834.339 296.78 C 841.88 316.02 849.68 336.82 857.61 359.18 L 771.68 359.18 Z M 1024.14 415.731 C 1021.93 413.13 1020.37 409.88 1019.46 406.24 C 1018.551 402.472 1018.16 397.791 1018.16 392.331 L 1018.16 167.04 L 972.531 174.45 L 972.531 400.78 C 972.531 410.531 973.571 419.239 975.78 426.911 C 977.991 434.58 981.631 440.952 986.96 446.02 C 992.29 451.091 999.309 455.12 1008.151 457.851 C 1016.991 460.58 1028.299 462.139 1041.82 462.399 L 1048.191 424.83 C 1042.08 424.051 1037.27 423.012 1033.37 421.711 C 1029.469 420.412 1026.479 418.331 1024.14 415.731 Z M 1235.651 285.6 C 1226.94 276.76 1216.54 269.871 1204.191 265.191 C 1191.84 260.38 1177.931 258.04 1162.331 258.04 C 1147.251 258.04 1132.95 259.08 1119.431 261.42 C 1105.91 263.631 1094.34 266.1 1085.239 268.571 L 1085.239 528.31 L 1130.87 528.31 L 1130.87 452 C 1135.811 454.731 1142.31 457.331 1149.979 459.54 C 1157.779 461.75 1166.361 462.919 1175.59 462.919 C 1189.371 462.919 1201.851 460.452 1212.64 455.38 C 1223.559 450.44 1232.66 443.419 1239.94 434.319 C 1247.22 425.35 1252.812 414.431 1256.711 402.079 C 1260.61 389.471 1262.559 375.82 1262.559 360.74 C 1262.559 344.88 1260.351 330.71 1255.67 318.1 C 1250.86 305.36 1244.36 294.57 1235.651 285.6 Z M 1204.319 406.891 C 1196.652 418.2 1184.43 423.79 1167.92 423.79 C 1160.379 423.79 1153.36 422.62 1146.731 420.151 C 1139.971 417.811 1134.64 415.21 1130.74 412.48 L 1130.74 300.16 C 1135.29 298.99 1139.841 298.08 1144.519 297.82 C 1149.2 297.431 1153.62 297.3 1157.91 297.3 C 1178.32 297.3 1193.01 302.891 1202.11 314.2 C 1211.34 325.511 1215.892 341.24 1215.892 361.52 C 1215.76 380.372 1211.99 395.58 1204.319 406.891 Z M 1456.911 283 C 1450.67 275.07 1442.22 268.96 1431.951 264.54 C 1421.55 260.251 1408.42 257.911 1392.559 257.911 C 1386.061 257.911 1379.431 258.56 1372.799 259.86 C 1366.17 261.16 1360.32 262.591 1355.25 264.28 L 1355.25 167.04 L 1309.62 174.45 L 1309.62 458.631 L 1355.25 458.631 L 1355.25 302.371 C 1358.239 301.331 1362.92 300.291 1369.291 298.99 C 1375.531 297.69 1381.77 297.04 1387.75 297.04 C 1395.551 297.04 1402.051 298.08 1407.38 300.291 C 1412.71 302.371 1416.739 305.88 1419.991 310.431 C 1423.111 315.11 1425.451 321.219 1426.88 328.499 C 1428.311 335.78 1428.958 344.88 1428.958 355.411 L 1428.958 458.76 L 1474.59 458.76 L 1474.59 348.26 C 1474.59 334.74 1473.29 322.52 1470.69 311.471 C 1467.571 300.42 1463.151 290.93 1456.911 283 Z M 1657.111 278.71 C 1650.87 271.95 1642.679 266.62 1632.409 262.851 C 1622.139 259.08 1609.399 257.26 1594.45 257.26 C 1581.84 257.26 1570.011 258.3 1559.091 260.251 C 1548.039 262.331 1539.721 264.28 1533.87 266.36 L 1539.46 303.151 C 1544.919 301.071 1552.071 299.38 1560.91 297.82 C 1569.619 296.26 1579.37 295.61 1589.899 295.61 C 1597.7 295.61 1604.071 296.65 1609.271 298.599 C 1614.34 300.68 1618.631 303.54 1621.751 307.051 C 1624.869 310.69 1627.079 314.851 1628.379 319.66 C 1629.68 324.471 1630.2 329.411 1630.2 334.74 L 1630.2 342.28 C 1623.959 340.72 1618.11 339.68 1612.52 339.031 C 1607.059 338.38 1601.731 338.12 1596.66 338.12 C 1585.87 338.12 1575.6 339.16 1565.591 341.24 C 1555.58 343.451 1546.999 346.831 1539.33 351.77 C 1531.919 356.71 1525.939 363.08 1521.52 370.75 C 1517.1 378.551 1514.89 388.04 1514.89 399.22 C 1514.89 411.051 1516.84 420.932 1520.74 428.86 C 1524.639 436.92 1530.099 443.419 1536.991 448.36 C 1543.879 453.3 1552.33 457.072 1562.08 459.28 C 1571.83 461.492 1582.619 462.659 1594.45 462.659 C 1612.26 462.659 1628.251 461.62 1642.419 459.54 C 1656.591 457.331 1667.251 455.64 1674.271 454.08 L 1674.271 334.871 C 1674.271 323.431 1672.97 312.771 1670.369 303.151 C 1667.51 293.791 1663.218 285.471 1657.111 278.71 Z M 1630.071 424.571 C 1622.791 426.13 1612.131 426.779 1598.091 426.779 C 1586.519 426.779 1577.42 424.699 1570.531 420.671 C 1563.639 416.512 1560.39 409.1 1560.39 398.311 C 1560.39 392.72 1561.692 388.17 1564.159 384.532 C 1566.631 380.892 1570.011 378.031 1574.171 376.08 C 1578.33 373.999 1582.879 372.7 1588.079 371.92 C 1593.281 371.14 1598.22 370.88 1603.419 370.88 C 1609.139 370.88 1614.47 371.14 1619.281 371.92 C 1624.091 372.7 1627.731 373.48 1630.2 374.13 L 1630.071 424.571 Z M 1819.871 198.24 L 1867.32 198.24 L 1867.32 458.76 L 1819.871 458.76 L 1819.871 198.24 Z M 1903.46 198.24 L 1903.46 239.191 L 1983.67 239.191 L 1983.67 458.631 L 2031.511 458.631 L 2031.511 239.191 L 2111.72 239.191 L 2111.72 198.24 L 1903.46 198.24 Z" style="fill: rgb(85, 107, 218); pointer-events: none; visibility: hidden;">
        <title>Alpha-IT</title>
    </path>
    <path d="M 720.703 404.625 C 720.703 424.369 735.581 434.997 758.451 434.997 C 795.441 434.997 819.088 410.699 819.088 374.263 L 819.088 363.634 L 762.267 363.634 C 735.96 363.634 720.703 375.4 720.703 392.48 L 720.703 404.625 Z M 759.219 339.714 L 819.088 339.714 L 819.088 324.528 C 819.088 296.069 804.221 282.02 774.087 282.02 C 744.729 282.02 728.714 296.069 727.568 318.844 L 695.152 318.844 C 697.065 279.358 727.568 255.827 775.999 255.827 C 802.308 255.827 822.897 264.56 833.191 275.19 C 838.143 280.504 842.348 286.577 845.398 293.786 C 851.497 307.826 851.876 316.181 851.876 325.295 L 851.876 433.472 L 881.242 433.472 L 881.242 457.771 L 847.301 457.771 C 828.995 457.771 822.518 450.174 821.372 435.376 L 820.992 425.127 L 818.701 425.127 C 809.931 447.521 783.244 461.561 750.828 461.561 C 710.788 461.561 686.771 437.65 686.771 400.828 C 686.771 361.731 713.845 339.714 759.219 339.714 Z M 1296.141 344.27 C 1296.141 326.432 1290.421 311.625 1278.981 300.617 C 1267.162 289.229 1252.293 283.536 1234.365 283.536 C 1198.143 283.536 1172.591 307.826 1172.591 344.27 L 1172.591 375.021 C 1172.591 411.835 1198.91 434.231 1234.365 434.231 C 1269.453 434.231 1296.141 412.593 1296.141 375.021 L 1296.141 344.27 Z M 1330.082 358.698 C 1330.082 390.198 1321.69 415.256 1304.531 433.852 C 1287.371 452.457 1264.111 461.561 1234.365 461.561 C 1174.505 461.561 1139.038 421.327 1139.038 358.698 C 1139.038 326.432 1147.807 301.375 1165.356 283.157 C 1182.507 264.939 1205.765 255.827 1234.365 255.827 C 1262.966 255.827 1286.225 264.939 1303.773 283.536 C 1321.311 301.754 1330.082 326.811 1330.082 358.698 Z M 1405.473 457.718 L 1373.48 457.718 L 1373.48 285.228 L 1405.473 285.228 L 1405.473 457.718 Z M 1508.318 285.228 L 1405.482 285.228 L 1405.482 255.889 L 1453.754 255.889 C 1501.558 255.889 1540.32 294.466 1540.32 342.067 L 1540.32 457.718 L 1508.318 457.718 L 1508.318 285.228 Z M 945.166 259.739 L 1010.37 358.751 L 945.166 457.771 L 906.404 457.771 L 971.599 358.751 L 906.404 259.739 L 945.166 259.739 Z M 1049.132 358.751 L 1114.334 457.771 L 1075.563 457.771 L 1010.37 358.751 L 1075.563 259.739 L 1114.334 259.739 L 1049.132 358.751 Z M 461.557 580.5 L 0 580.5 L 0 60.5 L 522.371 60.5 L 522.371 521.318 L 461.557 521.318 L 461.557 580.5 Z M 140.814 205.871 L 216.302 320.5 L 140.814 435.138 L 185.703 435.138 L 261.181 320.5 L 185.703 205.871 L 140.814 205.871 Z M 381.548 205.871 L 336.66 205.871 L 261.19 320.5 L 336.66 435.138 L 381.548 435.138 L 306.069 320.5 L 381.548 205.871 Z" style="fill: rgb(0, 231, 196); pointer-events: none; visibility: hidden;">
        <title>Axon</title>
    </path>
    <g style="pointer-events: none; visibility: hidden;">
        <title>Bank Van Breda</title>
        <path d="M 0 461.231 L 0 60.479 L 494.35 60.479 L 494.35 206.342 L 480.554 211.594 L 480.554 74.292 L 13.812 74.292 L 13.812 441.26 L 78.372 416.848 L 78.372 431.602 L 0 461.231 Z" style="fill: none;"></path>
        <path d="M 78.372 416.848 L 13.812 441.26 L 13.812 74.292 L 480.554 74.292 L 480.554 211.594 L 78.372 364.723 L 78.372 416.848 Z M 558.926 196.555 L 558.926 563.491 L 92.184 563.491 L 92.184 374.196 L 558.926 196.555 Z M 1924.67 576.458 C 1918.999 579.416 1912.645 580.781 1906.259 580.423 C 1900.507 580.716 1894.868 578.733 1890.562 574.898 C 1886.207 569.91 1884.078 563.361 1884.712 556.763 C 1878.235 564.762 1869.846 570.999 1860.32 574.898 C 1844.365 580.976 1826.94 582.064 1810.353 578.018 C 1804.487 576.621 1798.946 574.07 1794.055 570.527 C 1789.476 566.982 1785.814 562.39 1783.378 557.137 C 1777.837 543.845 1778 528.862 1783.85 515.716 C 1786.661 510.256 1790.707 505.527 1795.663 501.903 C 1800.75 498.312 1806.421 495.631 1812.417 493.99 C 1825.271 490.398 1838.385 487.815 1851.627 486.255 C 1857.233 485.686 1862.79 484.678 1868.25 483.265 C 1872.427 482.29 1876.327 480.34 1879.609 477.561 C 1882.562 474.734 1884.099 470.736 1883.802 466.659 C 1883.997 461.963 1882.924 457.299 1880.665 453.171 C 1878.699 449.921 1875.904 447.24 1872.573 445.388 C 1869.132 443.543 1865.391 442.327 1861.523 441.796 C 1857.493 441.211 1853.43 440.919 1849.368 440.935 C 1840.019 440.59 1830.743 442.696 1822.46 447.045 C 1815.277 451.156 1811.377 458.826 1810.76 470.055 L 1785.312 470.055 C 1785.426 461.621 1787.49 453.318 1791.341 445.81 C 1794.78 439.398 1799.706 433.903 1805.706 429.788 C 1811.913 425.595 1818.868 422.589 1826.181 420.948 C 1834.292 419.127 1842.583 418.233 1850.895 418.283 C 1857.85 418.299 1864.805 418.786 1871.695 419.761 C 1878.244 420.655 1884.565 422.735 1890.383 425.888 C 1895.953 428.955 1900.607 433.447 1903.87 438.904 C 1907.531 445.559 1909.296 453.09 1908.973 460.679 L 1908.973 540.156 C 1908.827 544.543 1909.168 548.947 1909.98 553.27 C 1910.679 556.065 1913.019 557.446 1917.033 557.446 C 1919.682 557.365 1922.298 556.861 1924.8 555.983 L 1924.67 576.458 Z M 1883.249 496.882 C 1879.487 499.512 1875.203 501.302 1870.688 502.131 C 1865.488 503.236 1860.044 504.162 1854.34 504.845 C 1848.588 505.543 1842.853 506.34 1837.133 507.25 C 1831.787 508.013 1826.555 509.46 1821.582 511.572 C 1817.175 513.407 1813.309 516.338 1810.353 520.087 C 1807.25 524.491 1805.722 529.837 1806.031 535.216 C 1805.901 538.937 1806.778 542.61 1808.55 545.86 C 1810.191 548.671 1812.433 551.076 1815.131 552.896 C 1817.941 554.735 1821.064 556.046 1824.345 556.763 C 1828.082 557.576 1831.885 557.966 1835.703 557.966 C 1843.032 558.145 1850.343 556.975 1857.249 554.505 C 1862.653 552.597 1867.636 549.662 1871.923 545.86 C 1875.465 542.691 1878.325 538.807 1880.308 534.485 C 1881.998 530.861 1882.924 526.928 1883.022 522.931 L 1883.249 496.882 Z M 1728.486 577.108 L 1728.486 556.162 L 1727.885 556.162 C 1723.842 564.555 1716.797 571.125 1708.143 574.573 C 1698.753 578.47 1688.668 580.411 1678.503 580.277 C 1667.696 580.537 1656.988 578.278 1647.205 573.696 C 1638.61 569.521 1631.05 563.488 1625.073 556.032 C 1619.034 548.382 1614.506 539.652 1611.731 530.308 C 1608.648 520.208 1607.098 509.702 1607.134 499.141 C 1607.056 488.619 1608.512 478.142 1611.455 468.04 C 1614.099 458.719 1618.574 450.019 1624.618 442.446 C 1630.621 435.08 1638.201 429.155 1646.799 425.108 C 1656.501 420.637 1667.092 418.431 1677.771 418.656 C 1682.078 418.689 1686.368 419.095 1690.609 419.859 C 1695.338 420.688 1699.969 422.053 1704.405 423.905 C 1709.118 425.855 1713.538 428.406 1717.568 431.494 C 1721.711 434.663 1725.238 438.579 1727.933 443.048 L 1728.518 443.048 L 1728.518 363.439 L 1753.982 363.439 L 1753.982 577.108 L 1728.486 577.108 Z M 1637.033 522.2 C 1638.788 528.813 1641.745 535.053 1645.743 540.611 C 1649.643 546.022 1654.761 550.442 1660.693 553.497 C 1667.339 556.747 1674.684 558.323 1682.094 558.096 C 1696.621 558.697 1710.434 551.742 1718.591 539.701 C 1722.475 534.013 1725.254 527.66 1726.83 520.965 C 1730.29 506.753 1730.29 491.919 1726.83 477.707 C 1725.188 471 1722.299 464.661 1718.315 459.021 C 1714.325 453.581 1709.145 449.123 1703.17 445.989 C 1696.208 442.511 1688.491 440.819 1680.713 441.065 C 1673.124 440.854 1665.616 442.593 1658.905 446.135 C 1653.055 449.369 1648.115 454 1644.491 459.623 C 1640.722 465.521 1638.042 472.048 1636.578 478.893 C 1634.971 486.166 1634.17 493.594 1634.189 501.042 C 1634.189 508.192 1635.148 515.31 1637.033 522.2 Z M 1566.997 567.261 C 1554.291 576.392 1538.903 581.024 1523.268 580.423 C 1512.234 580.7 1501.266 578.652 1491.061 574.443 C 1482.227 570.664 1474.361 564.936 1468.052 557.69 C 1461.716 550.146 1457.013 541.37 1454.24 531.917 C 1451.033 521.326 1449.273 510.35 1449.007 499.287 C 1448.893 488.314 1450.714 477.406 1454.386 467.065 C 1457.747 457.686 1462.89 449.044 1469.531 441.618 C 1475.934 434.484 1483.766 428.78 1492.539 424.864 C 1501.724 420.813 1511.67 418.774 1521.708 418.884 C 1533.717 418.429 1545.596 421.386 1555.996 427.399 C 1564.849 432.871 1572.327 440.304 1577.852 449.125 C 1583.328 457.939 1587.181 467.664 1589.227 477.837 C 1591.258 487.587 1592.103 497.532 1591.762 507.477 L 1475.966 507.477 C 1475.739 513.993 1476.551 520.493 1478.355 526.766 C 1480.077 532.713 1483.035 538.238 1487.065 542.967 C 1491.26 547.797 1496.477 551.632 1502.338 554.196 C 1509.228 557.105 1516.671 558.535 1524.146 558.372 C 1533.554 558.778 1542.849 556.146 1550.666 550.881 C 1557.994 545.34 1562.918 537.198 1564.462 528.147 L 1589.584 528.147 C 1587.248 543.564 1579.181 557.531 1566.997 567.261 Z M 1560.822 467.861 C 1558.662 462.714 1555.54 458.027 1551.624 454.049 C 1543.288 445.844 1532.023 441.305 1520.327 441.439 C 1514.217 441.358 1508.156 442.511 1502.517 444.851 C 1497.321 447.014 1492.626 450.222 1488.722 454.276 C 1484.892 458.28 1481.844 462.964 1479.736 468.089 C 1477.527 473.467 1476.209 479.169 1475.836 484.971 L 1564.738 484.971 C 1564.401 479.089 1563.077 473.305 1560.822 467.861 Z M 1386.737 422.378 L 1386.737 455.008 L 1387.339 455.008 C 1392.314 443.877 1400.16 434.269 1410.072 427.171 C 1420.288 420.856 1432.235 417.922 1444.214 418.786 L 1444.214 445.713 C 1435.347 445.505 1426.518 446.926 1418.165 449.905 C 1411.405 452.412 1405.421 456.648 1400.81 462.19 C 1396.226 467.951 1392.944 474.636 1391.19 481.786 C 1389.092 490.45 1388.087 499.343 1388.2 508.257 L 1388.2 577.287 L 1362.803 577.287 L 1362.803 422.378 L 1386.737 422.378 Z M 1259.534 363.439 C 1264.832 363.439 1270.032 363.845 1275.232 364.316 C 1280.107 364.788 1284.965 365.535 1289.775 366.559 C 1293.838 367.453 1297.722 368.996 1301.28 371.158 C 1308.447 375.529 1314.54 381.46 1319.09 388.513 C 1324.177 396.67 1326.728 406.16 1326.403 415.764 C 1326.684 426.178 1323.831 436.436 1318.213 445.209 C 1312.509 453.659 1304.27 460.11 1294.699 463.62 L 1294.699 464.221 C 1306.648 466.284 1317.413 472.69 1324.924 482.208 C 1332.155 491.861 1335.909 503.658 1335.6 515.716 C 1335.518 523.606 1333.959 531.41 1331.002 538.726 C 1328.292 546.066 1324.061 552.75 1318.587 558.34 C 1312.8 564.257 1305.88 568.949 1298.242 572.136 C 1289.371 575.776 1279.845 577.546 1270.259 577.336 L 1167.171 577.336 L 1167.171 363.439 L 1259.534 363.439 Z M 1252.498 455.479 C 1268.65 455.479 1280.107 452.668 1287.37 446.964 C 1294.764 440.594 1298.697 431.104 1298.014 421.37 C 1298.29 415.179 1297.055 409.036 1294.423 403.43 C 1292.15 399.174 1288.719 395.647 1284.527 393.258 C 1280.032 390.774 1275.088 389.211 1269.983 388.659 C 1264.182 387.941 1258.343 387.589 1252.498 387.603 L 1195.608 387.603 L 1195.608 455.528 L 1252.498 455.479 Z M 1266.847 553.367 C 1277.637 553.982 1288.237 550.328 1296.357 543.195 C 1300.008 539.518 1302.838 535.11 1304.66 530.26 C 1306.497 525.417 1307.293 520.25 1306.984 515.066 C 1307.195 509.037 1305.847 503.041 1303.068 497.678 C 1300.598 493.24 1297.056 489.492 1292.765 486.775 C 1288.215 483.98 1283.194 482.046 1277.945 481.055 C 1272.225 479.982 1266.408 479.446 1260.59 479.446 L 1195.608 479.446 L 1195.608 553.367 L 1266.847 553.367 Z M 1008.542 422.378 L 1008.542 446.915 L 1009.143 446.915 C 1019.72 428.195 1036.49 418.819 1059.435 418.803 C 1068.113 418.526 1076.758 419.94 1084.883 422.979 C 1091.236 425.481 1096.875 429.495 1101.311 434.679 C 1105.618 439.83 1108.656 445.94 1110.151 452.489 C 1111.939 460.013 1112.816 467.748 1112.735 475.499 L 1112.735 577.238 L 1087.093 577.238 L 1087.093 472.363 C 1087.548 463.961 1084.509 455.739 1078.724 449.629 C 1072.52 443.811 1064.205 440.787 1055.714 441.26 C 1048.808 441.098 1041.934 442.316 1035.499 444.835 C 1030.023 447.056 1025.15 450.542 1021.28 455.008 C 1017.433 459.522 1014.537 464.768 1012.767 470.429 C 1010.801 476.666 1009.841 483.177 1009.923 489.716 L 1009.923 577.157 L 984.476 577.157 L 984.476 422.378 L 1008.542 422.378 Z M 964.813 576.458 C 959.145 579.397 952.794 580.766 946.418 580.423 C 940.649 580.716 934.994 578.733 930.672 574.898 C 926.336 569.903 924.239 563.348 924.871 556.763 C 918.371 564.758 909.969 570.998 900.431 574.898 C 884.476 580.976 867.051 582.064 850.464 578.018 C 844.597 576.605 839.056 574.053 834.165 570.527 C 829.53 567.015 825.83 562.417 823.391 557.137 C 820.533 550.888 819.149 544.067 819.345 537.198 C 819.101 529.756 820.677 522.362 823.944 515.667 C 826.771 510.207 830.817 505.478 835.774 501.855 C 840.86 498.28 846.531 495.598 852.527 493.941 C 858.832 492.153 865.284 490.626 871.865 489.342 C 878.446 488.058 885.661 486.905 891.739 486.206 C 897.343 485.637 902.901 484.646 908.344 483.216 C 912.553 482.241 916.453 480.275 919.768 477.514 C 922.721 474.686 924.258 470.688 923.961 466.61 C 924.172 461.898 923.067 457.234 920.776 453.123 C 918.826 449.873 916.047 447.191 912.732 445.339 C 909.274 443.499 905.515 442.288 901.633 441.764 C 897.62 441.179 893.575 440.886 889.529 440.886 C 880.163 440.533 870.868 442.64 862.57 446.996 C 855.387 451.108 851.504 458.778 850.919 470.006 L 825.471 470.006 C 825.569 461.573 827.616 453.269 831.451 445.761 C 834.896 439.359 839.82 433.866 845.816 429.739 C 852.056 425.546 859.011 422.556 866.34 420.915 C 874.433 419.081 882.709 418.182 891.007 418.234 C 897.961 418.25 904.916 418.738 911.806 419.713 C 918.371 420.606 924.708 422.686 930.542 425.839 C 936.083 428.91 940.731 433.395 943.964 438.855 C 947.637 445.501 949.408 453.041 949.083 460.63 L 949.083 540.107 C 948.921 544.495 949.278 548.898 950.139 553.221 C 950.822 556.032 953.178 557.413 957.127 557.413 C 959.808 557.316 962.441 556.828 964.959 555.935 L 964.813 576.458 Z M 923.408 496.882 C 919.649 499.528 915.356 501.32 910.831 502.131 C 905.631 503.236 900.203 504.162 894.5 504.845 C 888.749 505.543 883.012 506.34 877.292 507.25 C 871.946 508.013 866.714 509.476 861.741 511.572 C 857.334 513.407 853.469 516.338 850.512 520.087 C 847.392 524.507 845.881 529.837 846.174 535.232 C 846.06 538.937 846.921 542.61 848.709 545.86 C 850.35 548.671 852.592 551.076 855.29 552.896 C 858.166 554.765 861.367 556.065 864.731 556.763 C 868.469 557.56 872.271 557.966 876.09 557.966 C 883.435 558.128 890.747 556.958 897.668 554.505 C 903.063 552.603 908.036 549.662 912.309 545.86 C 915.868 542.691 918.728 538.823 920.678 534.485 C 922.401 530.877 923.327 526.928 923.408 522.931 L 923.408 496.882 Z M 718.938 577.108 L 643.832 363.439 L 674.332 363.439 L 735.399 548.72 L 736 548.72 L 797.667 363.439 L 827.307 363.439 L 751.145 577.108 L 718.938 577.108 Z M 1193.496 61.73 L 1193.496 188.332 L 1264.133 120.667 L 1298.242 120.667 L 1236.9 176.957 L 1302.694 275.447 L 1270.487 275.447 L 1217.513 194.637 L 1193.593 216.77 L 1193.593 275.447 L 1168.13 275.447 L 1168.13 61.73 L 1193.496 61.73 Z M 1030.445 120.667 L 1030.445 145.205 L 1031.046 145.205 C 1041.625 126.452 1058.395 117.078 1081.34 117.078 C 1090.001 116.818 1098.63 118.232 1106.739 121.269 C 1113.125 123.755 1118.78 127.769 1123.216 132.952 C 1127.506 138.136 1130.529 144.23 1132.055 150.779 C 1133.842 158.302 1134.687 166.037 1134.59 173.789 L 1134.59 275.577 L 1109.193 275.577 L 1109.193 170.555 C 1109.615 162.137 1106.56 153.931 1100.759 147.821 C 1094.554 142.006 1086.24 138.983 1077.749 139.452 C 1070.843 139.29 1063.969 140.509 1057.55 143.044 C 1052.074 145.265 1047.202 148.751 1043.331 153.216 C 1039.448 157.708 1036.533 162.952 1034.768 168.621 C 1032.818 174.877 1031.859 181.41 1031.924 187.959 L 1031.924 275.398 L 1006.511 275.398 L 1006.511 120.667 L 1030.445 120.667 Z M 986.686 274.797 C 980.998 277.738 974.644 279.087 968.274 278.713 C 962.522 279.006 956.883 277.023 952.577 273.188 C 948.222 268.199 946.093 261.651 946.727 255.053 C 940.262 263.065 931.87 269.305 922.336 273.188 C 906.381 279.263 888.958 280.357 872.369 276.324 C 866.486 274.894 860.945 272.376 856.021 268.866 C 851.39 265.329 847.655 260.754 845.117 255.508 C 842.274 249.268 840.892 242.476 841.071 235.636 C 840.811 228.177 842.404 220.767 845.67 214.056 C 848.465 208.58 852.527 203.851 857.5 200.244 C 862.586 196.669 868.257 194.004 874.254 192.33 C 887.107 188.722 900.219 186.122 913.463 184.546 C 919.069 183.977 924.627 182.986 930.071 181.556 C 934.247 180.581 938.147 178.647 941.446 175.901 C 944.402 173.056 945.934 169.04 945.622 164.949 C 945.849 160.269 944.761 155.621 942.502 151.51 C 940.537 148.23 937.739 145.528 934.393 143.677 C 930.959 141.835 927.222 140.625 923.359 140.102 C 919.334 139.518 915.272 139.225 911.204 139.225 C 901.851 138.886 892.571 140.992 884.28 145.335 C 877.097 149.43 873.214 157.1 872.596 168.345 L 847.149 168.345 C 847.262 159.911 849.31 151.624 853.129 144.1 C 856.575 137.683 861.512 132.187 867.526 128.077 C 873.762 123.92 880.707 120.941 888.017 119.288 C 896.121 117.452 904.407 116.542 912.716 116.574 C 919.687 116.574 926.642 117.094 933.532 118.102 C 940.113 119.077 946.467 121.252 952.252 124.535 C 957.82 127.59 962.475 132.071 965.739 137.519 C 969.396 144.181 971.151 151.737 970.809 159.326 L 970.809 238.772 C 970.665 243.185 971.02 247.6 971.866 251.933 C 972.564 254.679 974.921 256.061 978.902 256.061 C 981.551 255.996 984.183 255.508 986.686 254.598 L 986.686 274.797 Z M 945.264 195.222 C 941.498 197.867 937.191 199.643 932.654 200.422 C 927.503 201.527 922.059 202.454 916.356 203.136 C 910.603 203.835 904.867 204.631 899.147 205.541 C 893.801 206.321 888.586 207.784 883.597 209.864 C 879.19 211.722 875.327 214.669 872.369 218.427 C 869.249 222.815 867.721 228.145 868.03 233.524 C 867.923 240.634 871.445 247.309 877.374 251.234 C 880.184 253.074 883.306 254.384 886.587 255.102 C 890.309 255.931 894.126 256.337 897.945 256.304 C 905.273 256.467 912.569 255.313 919.492 252.892 C 924.936 250.958 929.973 248.017 934.312 244.198 C 937.858 241.027 940.708 237.154 942.681 232.825 C 944.387 229.201 945.297 225.269 945.394 221.271 L 945.264 195.222 Z M 746.872 61.73 C 752.153 61.73 757.353 62.137 762.553 62.64 C 767.444 63.095 772.303 63.843 777.095 64.85 C 781.174 65.728 785.058 67.288 788.6 69.449 C 795.766 73.82 801.86 79.752 806.41 86.804 C 811.512 94.962 814.047 104.435 813.739 114.055 C 814.01 124.49 811.14 134.765 805.5 143.547 C 799.796 151.997 791.59 158.432 782.019 161.959 L 782.019 162.56 C 793.966 164.607 804.736 170.996 812.26 180.5 C 819.391 190.187 823.07 201.984 822.709 214.007 C 822.709 221.791 821.295 229.51 818.516 236.79 C 815.776 244.109 811.549 250.781 806.101 256.386 C 800.308 262.299 793.39 266.995 785.756 270.198 C 776.89 273.854 767.364 275.641 757.775 275.447 L 654.508 275.447 L 654.508 61.73 L 746.872 61.73 Z M 739.819 153.769 C 755.972 153.769 767.444 150.909 774.658 145.205 C 782.068 138.835 786.016 129.345 785.301 119.613 C 785.594 113.438 784.359 107.263 781.71 101.673 C 779.456 97.419 776.042 93.892 771.864 91.5 C 767.37 89.017 762.426 87.454 757.32 86.902 C 751.519 86.187 745.669 85.829 739.819 85.845 L 682.944 85.845 L 682.944 153.817 L 739.819 153.769 Z M 754.184 251.608 C 764.974 252.258 775.584 248.602 783.676 241.436 C 791.029 233.979 794.894 223.765 794.32 213.309 C 794.531 207.296 793.182 201.316 790.404 195.97 C 787.95 191.501 784.391 187.731 780.085 185.017 C 775.535 182.255 770.515 180.337 765.283 179.346 C 759.55 178.227 753.721 177.672 747.879 177.689 L 682.944 177.689 L 682.944 251.608 L 754.184 251.608 Z" style="fill: rgb(27, 71, 139);"></path>
        <path d="M 558.926 196.555 L 558.926 563.491 L 92.184 563.491 L 92.184 374.196 L 558.926 196.555 Z M 572.722 176.502 L 78.372 364.723 L 78.372 577.287 L 572.722 577.287 L 572.722 176.502 Z" style="fill: none;"></path>
    </g>
    <path d="M 458.999 580.479 L 0 580.479 L 0 60.5 L 519.472 60.5 L 519.472 521.305 L 458.999 521.305 L 458.999 580.479 Z M 140.043 205.873 L 215.102 320.503 L 140.043 435.132 L 184.671 435.132 L 259.73 320.503 L 184.671 205.873 L 140.043 205.873 Z M 379.429 205.873 L 334.802 205.873 L 259.743 320.503 L 334.802 435.132 L 379.429 435.132 L 304.37 320.503 L 379.429 205.873 Z M 2170.159 358.617 L 2235 457.634 L 2196.443 457.634 L 2131.615 358.617 L 2196.443 259.613 L 2235 259.613 L 2170.159 358.617 Z M 716.128 372.279 C 716.128 390.102 722.199 404.908 733.937 416.66 C 746.079 428.424 761.613 434.118 780.177 434.118 C 815.431 434.118 837.79 412.864 837.79 379.858 L 837.79 338.897 C 837.79 305.124 815.431 283.506 780.177 283.506 C 761.613 283.506 746.079 289.577 733.937 301.328 C 722.199 313.093 716.128 327.899 716.128 346.475 L 716.128 372.279 Z M 683.161 457.634 L 683.161 179.562 L 716.128 179.562 L 716.128 297.545 L 718.403 297.545 C 729.011 272.131 755.933 255.817 787.378 255.817 C 842.34 255.817 871.134 294.504 871.134 359.384 C 871.134 424.628 840.442 461.43 785.48 461.43 C 756.297 461.43 730.155 447.013 718.403 423.107 L 716.128 423.107 L 713.099 457.634 L 683.161 457.634 Z M 950.925 457.634 L 918.335 457.634 L 918.335 179.562 L 950.925 179.562 L 950.925 457.634 Z M 1244.934 341.172 L 1359.381 341.172 L 1359.381 333.58 C 1359.381 302.862 1337.022 282.375 1304.055 282.375 C 1269.191 282.375 1244.934 303.993 1244.934 335.868 L 1244.934 341.172 Z M 1391.971 344.968 C 1391.971 352.546 1391.594 359.384 1390.84 365.455 L 1244.934 365.455 L 1244.934 376.829 C 1244.934 411.733 1268.801 434.872 1305.186 434.872 C 1332.849 434.872 1354.077 420.455 1360.525 398.07 L 1393.115 398.07 C 1388.942 417.414 1379.088 432.597 1362.8 444.362 C 1346.499 455.736 1327.169 461.43 1304.432 461.43 C 1246.832 461.43 1211.2 421.599 1211.2 357.863 C 1211.2 294.127 1246.832 255.817 1304.055 255.817 C 1358.25 255.817 1391.971 289.954 1391.971 344.968 Z M 1622.218 390.102 C 1615.77 434.118 1582.426 461.43 1534.289 461.43 C 1505.118 461.43 1481.992 452.317 1465.314 433.728 C 1448.649 415.139 1440.303 390.492 1440.303 359.007 C 1440.303 326.755 1449.026 301.341 1466.458 283.129 C 1483.89 264.917 1507.003 255.817 1535.433 255.817 C 1581.282 255.817 1614.639 282.752 1621.087 324.103 L 1588.484 324.103 C 1582.049 297.168 1561.198 283.506 1533.912 283.506 C 1498.671 283.506 1474.037 308.92 1474.037 345.345 L 1474.037 375.308 C 1474.037 410.589 1497.917 434.118 1533.912 434.118 C 1563.096 434.118 1584.701 417.037 1589.628 390.102 L 1622.218 390.102 Z M 1767.942 259.613 L 1767.942 286.925 L 1702.372 286.925 L 1702.372 457.634 L 1669.406 457.634 L 1669.406 288.823 C 1669.406 269.467 1679.259 259.613 1699.344 259.613 L 1767.942 259.613 Z M 1981.029 432.09 L 1949.206 432.09 L 1949.206 259.613 L 1981.029 259.613 L 1981.029 432.09 Z M 1846.94 432.09 L 1949.206 432.09 L 1949.206 461.43 L 1901.199 461.43 C 1853.66 461.43 1815.117 422.847 1815.117 375.256 L 1815.117 259.613 L 1846.94 259.613 L 1846.94 432.09 Z M 1164.025 432.09 L 1132.202 432.09 L 1132.202 259.613 L 1164.025 259.613 L 1164.025 432.09 Z M 1029.922 432.09 L 1132.189 432.09 L 1132.189 461.43 L 1084.195 461.43 C 1036.643 461.43 998.1 422.847 998.1 375.256 L 998.1 259.613 L 1029.922 259.613 L 1029.922 432.09 Z M 2066.774 259.613 L 2131.615 358.617 L 2066.774 457.634 L 2028.217 457.634 L 2093.059 358.617 L 2028.217 259.613 L 2066.774 259.613 Z" style="pointer-events: none;" fill="#212121">
        <title>Bluecrux</title>
    </path>
    <path d="M 891.537 351.119 C 897.285 392.766 778.076 443.033 755.578 451.654 C 753.659 453.087 752.227 451.654 750.307 449.736 C 750.307 448.783 750.307 447.819 750.785 446.865 C 751.27 445.91 751.748 444.954 752.222 444.478 C 814.941 416.705 879.571 376.492 870.955 355.905 C 858.503 331.492 737.863 343.938 475.996 408.088 C 163.375 484.688 13.532 474.154 1.087 435.859 C -11.365 401.387 86.777 361.174 109.276 352.553 L 112.628 352.553 L 112.628 354.471 C 89.649 366.438 9.223 403.3 21.668 429.155 C 26.937 444.954 77.684 448.302 164.814 437.771 L 164.814 338.671 C 164.836 333.584 165.812 328.552 167.685 323.831 C 169.603 319.041 172.473 314.738 175.826 310.906 C 179.177 307.077 183.482 304.196 188.27 302.286 C 193.062 300.373 197.851 299.415 203.113 299.415 C 208.2 299.392 213.242 300.367 217.951 302.286 C 222.741 304.205 227.052 307.077 230.402 310.906 C 233.756 314.738 236.62 319.048 238.54 323.831 C 240.457 328.616 241.411 333.405 241.411 338.671 L 241.411 427.244 C 265.827 423.894 290.243 418.622 318.012 413.363 L 318.012 224.257 C 318.012 214.202 322.317 205.109 329.498 197.927 C 336.681 190.745 346.253 186.915 356.309 186.915 C 366.362 186.915 375.934 191.225 383.116 197.927 C 390.298 204.627 394.129 214.202 394.61 224.257 L 394.61 396.124 C 417.589 390.859 440.087 385.598 464.503 380.328 C 466.896 378.893 469.293 378.415 471.68 378.415 L 471.68 155.801 C 471.68 145.748 476.002 136.174 483.179 128.993 C 490.353 121.809 499.933 117.5 509.985 117.5 C 515.071 117.523 520.104 118.499 524.824 120.372 C 529.607 122.289 533.918 125.161 537.756 128.514 C 541.104 131.863 544.444 136.167 546.363 140.958 C 548.283 145.748 549.716 150.531 549.716 155.801 L 549.716 359.254 C 576.049 353.993 602.379 348.723 624.884 343.458 L 624.884 286.01 C 624.907 275.597 629.033 265.62 636.371 258.242 C 643.754 250.903 653.733 246.772 664.14 246.754 C 674.552 246.772 684.527 250.903 691.908 258.242 C 699.245 265.626 703.368 275.604 703.392 286.01 L 703.392 331.014 C 824.033 313.779 886.752 322.393 891.537 351.119 Z M 163.855 513.887 C 189.531 512.463 215.102 509.582 240.457 505.274 L 240.457 543.094 C 239.977 553.147 236.148 562.243 228.965 569.422 C 221.783 576.604 212.209 580.436 202.156 580.436 C 192.11 580.487 182.457 576.525 175.347 569.422 C 168.165 562.723 163.86 553.147 163.86 543.094 L 163.86 513.887 L 163.855 513.887 Z M 393.648 477.505 L 393.648 600.544 C 393.169 605.327 392.219 610.116 390.298 614.901 C 388.386 619.211 385.515 623.521 381.684 626.873 C 378.331 630.704 374.023 633.095 369.23 635.014 C 364.449 636.447 359.185 637.886 354.396 637.406 C 349.606 636.924 344.821 635.968 340.032 634.056 C 335.721 632.138 331.418 629.264 328.065 625.434 C 324.235 622.081 321.363 617.789 319.927 612.994 C 318.486 608.198 317.533 602.942 317.533 598.146 L 317.533 492.349 C 343.382 488.996 368.753 483.727 393.648 477.505 Z M 549.72 442.562 L 549.72 534.474 C 549.201 544.585 544.929 554.143 537.749 561.283 C 530.566 568.466 520.514 572.294 510.46 572.294 C 500.407 572.294 490.359 568.46 483.179 561.283 C 475.996 554.143 471.732 544.585 471.204 534.474 L 471.204 459.796 L 476.475 459.796 C 502.804 453.087 527.215 447.825 549.72 442.562 Z M 702.914 410.001 L 702.914 470.324 C 702.914 480.377 698.609 489.95 691.428 497.131 C 684.245 504.313 674.673 508.147 664.618 508.147 C 659.826 508.623 654.56 507.671 649.775 505.753 C 644.99 503.835 640.681 500.962 636.851 497.612 C 633.493 494.261 630.153 489.957 628.235 485.166 C 626.317 480.377 624.884 475.59 624.884 470.324 L 624.884 425.325 C 654.566 420.056 680.894 415.27 702.914 410.001 Z M 1179.261 339.151 C 1175.909 334.845 1171.601 331.492 1166.335 329.575 C 1160.874 327.315 1155.012 326.179 1149.101 326.224 C 1142.875 326.224 1136.653 327.184 1130.905 330.055 C 1125.162 332.446 1120.378 336.278 1116.069 341.066 C 1111.81 345.787 1108.556 351.328 1106.494 357.345 C 1101.705 370.648 1101.705 385.209 1106.494 398.516 C 1108.887 404.259 1111.756 410.001 1116.069 414.793 C 1119.9 419.102 1124.682 422.927 1130.431 425.325 C 1136.181 427.723 1141.917 429.155 1148.141 429.155 C 1154.843 429.155 1161.545 427.718 1167.295 424.846 C 1173.042 421.974 1177.348 417.663 1181.178 412.401 L 1210.38 434.42 C 1204.157 443.513 1195.058 450.695 1184.53 455.486 C 1174.401 459.859 1163.486 462.136 1152.452 462.186 C 1140.959 462.186 1128.995 460.268 1117.979 456.444 C 1107.928 452.615 1098.833 446.865 1090.691 439.689 C 1083.036 432.027 1076.808 423.406 1072.984 413.352 C 1064.368 391.016 1064.368 366.274 1072.984 343.938 C 1076.825 333.938 1082.879 324.935 1090.691 317.61 C 1098.348 310.427 1107.928 304.685 1117.979 300.853 C 1129.069 297.004 1140.721 295.064 1152.452 295.104 C 1157.241 295.104 1162.026 295.584 1166.335 296.544 C 1171.118 297.502 1175.909 298.936 1180.699 300.373 C 1185.482 302.286 1190.273 304.685 1194.104 307.556 C 1198.408 310.427 1202.239 314.259 1205.59 318.562 L 1179.261 339.151 Z M 1249.155 377.45 C 1249.155 365.478 1251.072 353.993 1255.378 342.979 C 1259.226 332.98 1265.281 323.976 1273.093 316.649 C 1280.752 309.467 1290.327 303.726 1300.381 299.894 C 1322.723 292.231 1346.978 292.231 1369.322 299.894 C 1379.374 303.726 1388.47 309.467 1396.61 316.649 C 1404.264 324.311 1410.487 332.927 1414.318 342.979 C 1422.94 365.315 1422.94 390.063 1414.318 412.401 C 1410.476 422.396 1404.422 431.398 1396.61 438.731 C 1388.955 445.91 1379.374 451.654 1369.322 455.486 C 1346.978 463.148 1322.723 463.148 1300.381 455.486 C 1290.327 451.654 1281.232 445.91 1273.093 438.731 C 1265.436 431.067 1259.206 422.453 1255.378 412.401 C 1251.072 400.908 1248.674 388.941 1249.155 377.443 L 1249.155 377.45 Z M 1285.544 377.45 C 1285.544 384.633 1286.495 391.333 1288.895 398.036 C 1291.201 404.041 1294.615 409.557 1298.946 414.312 C 1303.258 419.102 1308.521 422.453 1314.743 424.846 C 1327.797 430.11 1342.384 430.11 1355.439 424.846 C 1361.181 422.453 1366.451 418.622 1371.234 414.312 C 1375.572 409.557 1378.981 404.041 1381.288 398.036 C 1386.076 384.731 1386.076 370.17 1381.288 356.863 C 1378.981 350.855 1375.572 345.338 1371.234 340.586 C 1366.924 335.802 1361.661 332.446 1355.439 330.055 C 1342.384 324.789 1327.797 324.789 1314.743 330.055 C 1309.001 332.446 1303.732 336.278 1298.946 340.586 C 1294.615 345.338 1291.206 350.861 1288.895 356.863 C 1286.495 363.566 1285.544 370.266 1285.544 377.45 Z M 1616.832 445.905 C 1606.776 451.174 1595.765 455.006 1584.274 457.403 C 1572.782 459.801 1561.295 461.227 1549.802 460.755 C 1538.316 460.755 1526.345 458.835 1515.332 455.006 C 1505.278 451.174 1496.186 445.43 1488.045 438.25 C 1480.387 430.588 1474.166 421.974 1470.335 411.92 C 1461.714 389.585 1461.714 364.838 1470.335 342.499 C 1474.182 332.498 1480.24 323.502 1488.045 316.171 C 1495.698 308.99 1505.278 303.245 1515.332 299.415 C 1526.419 295.574 1538.073 293.63 1549.802 293.671 C 1561.77 293.671 1573.74 295.104 1584.755 298.456 C 1595.286 301.334 1604.861 307.077 1612.995 314.259 L 1588.103 341.066 C 1583.314 336.278 1578.05 332.446 1571.829 330.055 C 1565.606 327.661 1558.423 326.224 1549.325 326.224 C 1542.142 326.224 1535.44 327.661 1528.735 330.055 C 1522.992 332.446 1517.73 336.278 1512.94 340.586 C 1508.608 345.338 1505.199 350.861 1502.887 356.863 C 1498.097 370.17 1498.097 384.731 1502.887 398.036 C 1505.194 404.041 1508.608 409.557 1512.94 414.312 C 1517.251 419.102 1522.512 422.453 1528.735 424.846 C 1534.959 427.238 1542.142 428.677 1549.325 428.677 C 1556.025 428.677 1562.728 427.718 1568.951 426.278 C 1573.746 424.846 1578.05 423.406 1582.355 421.015 L 1582.355 394.684 L 1553.633 394.684 L 1553.633 362.128 L 1615.871 362.128 L 1615.871 445.905 L 1616.832 445.905 Z M 1675.708 297.502 L 1723.588 297.502 L 1791.091 408.088 L 1791.565 408.088 L 1791.565 297.502 L 1826.521 297.502 L 1826.521 456.919 L 1780.559 456.919 L 1711.138 343.458 L 1710.659 343.458 L 1710.659 456.919 L 1675.716 456.919 L 1675.708 297.502 Z M 1886.835 297.502 L 1921.787 297.502 L 1921.787 456.919 L 1886.835 456.919 L 1886.835 297.502 Z M 2012.748 328.616 L 1967.263 328.616 L 1967.263 297.502 L 2093.174 297.502 L 2093.174 328.616 L 2047.689 328.616 L 2047.689 456.919 L 2012.748 456.919 L 2012.748 328.616 Z M 2248.284 297.502 L 2248.284 330.055 L 2175.039 330.055 L 2175.039 359.736 L 2244.453 359.736 L 2244.453 392.294 L 2175.52 392.294 L 2175.52 424.846 L 2252.592 424.846 L 2252.592 457.398 L 2140.563 457.398 L 2140.563 297.502 L 2248.284 297.502 Z" style="pointer-events: none; visibility: hidden;">
        <title>Cognite</title>
    </path>
    <path d="M 65.537 293.558 L 99.683 293.558 L 94.947 320.579 L 0 320.579 L 19.312 210.84 L 80.091 210.84 L 65.537 293.558 Z M 162.486 287.617 L 100.716 287.617 L 114.302 210.884 L 176.092 210.884 L 162.486 287.617 Z M 416.237 210.84 L 396.838 320.514 L 337.717 320.514 L 318.879 271.727 L 310.287 320.514 L 254.03 320.514 L 273.407 210.798 L 329.687 210.798 L 348.374 260.015 L 357.115 210.84 L 416.237 210.84 Z M 193.338 211.056 L 253.6 211.056 L 241.393 280.275 C 236.441 308.372 223.286 320.751 199.948 320.751 L 156.651 320.729 L 161.409 293.666 L 172.045 293.709 C 176.717 293.709 179.127 291.685 180.248 285.399 L 193.338 211.056 Z M 156.823 192.648 L 161.668 165.284 L 183.973 165.284 L 182.81 172.195 L 173.854 172.195 L 173.122 175.919 L 178.094 175.919 L 177.147 181.303 L 172.174 181.303 L 171.485 185.458 L 180.42 185.458 L 179.149 192.648 L 156.823 192.648 Z M 139.084 192.627 L 117.553 192.627 L 122.354 165.262 L 143.84 165.284 C 145.908 165.284 149.568 165.305 151.785 166.21 C 154.519 167.33 157.921 171.27 156.586 178.718 C 154.885 188.191 150.257 191.313 145.736 192.282 C 143.517 192.757 140.719 192.648 139.084 192.627 Z M 137.36 185.156 C 139.493 184.704 141.731 183.154 142.527 178.697 C 143.151 175.188 141.493 173.015 140.16 172.627 C 138.61 172.195 136.477 172.302 136.477 172.302 L 134.562 172.302 L 132.323 185.328 L 134.238 185.328 C 134.238 185.328 136.348 185.372 137.36 185.156 Z M 336.274 192.692 L 341.096 165.305 L 424.181 165.305 L 419.357 192.692 L 336.274 192.692 Z M 196.568 192.692 L 201.39 165.305 L 337.393 165.305 L 332.57 192.692 L 196.568 192.692 Z M 423.298 192.692 L 428.12 165.305 L 477.381 165.305 L 472.536 192.692 L 423.298 192.692 Z M 476.951 192.692 L 481.772 165.305 L 510.817 165.305 L 505.994 192.692 L 476.951 192.692 Z M 511.162 192.692 L 515.983 165.305 L 533.832 165.305 L 529.009 192.692 L 511.162 192.692 Z M 534.866 192.692 L 539.688 165.305 L 550.732 165.305 L 545.91 192.692 L 534.866 192.692 Z M 552.714 192.692 L 557.536 165.305 L 563.887 165.305 L 559.064 192.692 L 552.714 192.692 Z M 567.246 192.692 L 572.069 165.305 L 576.977 165.305 L 572.155 192.692 L 567.246 192.692 Z M 580.55 192.692 L 585.375 165.305 L 588.41 165.305 L 583.586 192.692 L 580.55 192.692 Z M 594.029 192.692 L 598.852 165.305 L 601.177 165.305 L 596.354 192.692 L 594.029 192.692 Z M 607.7 192.692 L 612.524 165.305 L 614.676 165.305 L 609.853 192.692 L 607.7 192.692 Z M 623.073 192.692 L 627.895 165.305 L 629.553 165.305 L 624.73 192.692 L 623.073 192.692 Z M 640.857 192.692 L 645.68 165.305 L 646.971 165.305 L 642.148 192.692 L 640.857 192.692 Z M 676.1 0 L 650.221 146.661 L 204.663 146.683 L 230.542 0 L 676.1 0 Z M 170.774 338.707 L 616.376 338.707 L 563.241 640.038 L 117.66 640.038 L 170.774 338.707 Z" style="fill: rgb(255, 216, 0); pointer-events: none; visibility: hidden;">
        <title>De Lijn</title>
    </path>
    <path d="M 189.164 271.356 C 189.164 292.47 189.414 313.589 189.112 334.694 C 188.427 383.515 149.387 422.692 97.988 426.422 C 54.102 429.614 8.93 393.043 1.478 348.306 C -10.762 274.774 54.996 217.485 125.754 240.316 C 134.12 243.017 137.175 241.813 136.727 232.709 C 136.262 223.388 136.438 214.014 136.708 204.682 C 137.207 187.64 148.221 175.388 162.822 175.305 C 178.337 175.211 189.093 187.183 189.175 204.9 C 189.269 227.055 189.196 249.201 189.164 271.356 Z M 53.604 330.964 C 53.728 354.97 71.768 372.665 95.826 372.375 C 119.177 372.093 136.698 354.074 136.603 330.434 C 136.51 306.814 117.98 288.067 94.63 287.952 C 71.383 287.827 53.479 306.606 53.604 330.964 Z M 962.305 353.773 C 944.712 353.171 927.742 354.605 910.846 352.381 C 907.926 351.997 903.748 350.854 902.22 353.909 C 900.256 357.836 904.6 359.989 906.979 362.057 C 920.958 374.215 936.804 375.533 953.536 368.935 C 963.064 365.173 972.355 363.926 981.25 370.018 C 998.74 381.977 996.961 405.681 977.946 415.864 C 935.735 438.477 883.088 423.938 855.978 382.205 C 834.009 348.38 835.767 305.255 860.445 272.249 C 883.234 241.793 925.851 228.022 962.649 239.246 C 1000.527 250.79 1028.201 285.779 1030.476 325.018 C 1031.328 339.734 1023.078 350.344 1008.279 352.66 C 992.818 355.094 977.187 353.015 962.305 353.773 Z M 902.678 306.366 C 907.074 307.446 960.81 308.382 964.374 307.716 C 968.779 306.896 968.23 304.859 966.308 301.961 C 952.88 281.675 914.609 284.304 902.678 306.366 Z M 390.516 330.901 C 390.474 382.351 346.444 426.891 296.273 426.226 C 243.753 425.53 201.21 382.744 201.127 330.528 C 201.043 278.245 244.024 235.109 296.118 235.203 C 348.627 235.296 390.559 277.809 390.516 330.901 Z M 295.351 372.552 C 319.593 372.8 338.007 355.249 338.318 331.587 C 338.64 307.831 319.313 287.577 296.44 287.703 C 273.017 287.827 253.615 307.446 253.667 330.954 C 253.73 353.649 272.425 372.313 295.351 372.552 Z M 575.419 346.791 C 581.53 382.922 602.926 407.811 637.001 420.282 C 671.417 432.876 703.134 425.323 731.076 402.126 C 742.613 392.557 744.162 377.405 735.681 365.827 C 727.295 354.377 712.406 352.08 699.571 360.33 C 696.963 362.014 694.634 364.144 692.026 365.827 C 675.347 376.583 653.338 374.411 639.464 360.725 C 625.518 346.966 622.804 324.947 632.978 308.143 C 646.053 286.57 672.623 281.582 694.343 296.91 C 701.523 301.983 708.445 307.271 717.892 305.617 C 728.636 303.747 736.251 297.792 739.766 287.276 C 743.36 276.491 739.796 267.293 731.983 259.976 C 714.296 243.412 693.044 235.369 678.39 235.171 C 609.992 234.932 565.432 287.745 575.419 346.791 Z M 436.138 403.031 C 470.577 434.319 530.557 432.989 561.765 400.059 C 570.191 391.163 572.103 378.422 566.483 368.51 C 560.579 358.106 549.376 353.41 537.135 356.028 C 531.441 357.245 527.408 361.1 522.909 364.29 C 508.224 374.703 492.554 375.721 476.894 367.471 C 455.299 356.111 448.556 327.907 461.815 307.344 C 475.48 286.154 504.141 281.822 524.467 297.875 C 539.111 309.442 554.261 308.434 564.496 295.226 C 573.653 283.412 570.462 266.545 556.703 256.11 C 525.496 232.428 491.672 227.825 456.285 244.94 C 420.778 262.117 404.64 292.284 402.531 327.295 C 403.185 359.885 414.793 383.63 436.138 403.031 Z M 753.784 356.901 C 753.879 393.917 776.429 419.813 812.997 425.02 C 831.276 427.618 845.034 419.097 847.447 403.684 C 849.867 388.203 840.296 376.521 822.339 373.029 C 807.965 370.234 805.909 367.855 805.888 352.931 C 805.825 306.554 805.866 260.175 805.836 213.796 C 805.836 209.649 805.961 205.451 805.432 201.358 C 803.476 186.092 791.059 174.722 777.716 175.7 C 763.396 176.748 753.857 187.993 753.794 204.264 C 753.701 230.568 753.773 256.882 753.773 283.183 C 753.773 307.748 753.721 332.326 753.784 356.901 Z" style="fill: rgb(218, 151, 85); pointer-events: none; visibility: hidden;">
        <title>Doccle</title>
    </path>
    <g style="pointer-events: none; visibility: hidden;">
        <title>Impraise</title>
        <path d="M 770.163 182.163 C 787.495 182.163 800.493 196.243 800.493 212.492 C 800.493 229.823 786.411 242.821 770.163 242.821 C 753.915 242.821 739.836 228.74 739.836 212.492 C 739.836 196.243 752.832 182.163 770.163 182.163 Z M 745.25 457.291 L 745.25 273.15 L 795.077 273.15 L 795.077 457.291 L 745.25 457.291 Z M 839.487 457.291 L 839.487 273.15 L 887.148 273.15 L 887.148 295.897 C 896.896 277.485 920.727 268.818 941.307 268.818 C 966.22 268.818 986.8 279.649 995.466 299.147 C 1007.38 278.565 1030.128 266.651 1053.958 268.818 C 1088.62 268.818 1120.032 289.398 1120.032 339.225 L 1120.032 458.375 L 1072.372 458.375 L 1072.372 347.89 C 1072.372 328.393 1062.624 313.228 1039.876 313.228 C 1018.213 313.228 1005.215 329.477 1005.215 348.972 L 1005.215 457.291 L 955.389 457.291 L 955.389 347.89 C 955.389 328.393 945.64 313.228 922.892 313.228 C 900.146 313.228 888.231 329.477 888.231 348.972 L 888.231 457.291 L 839.487 457.291 Z M 1164.442 519.032 L 1164.442 273.15 L 1212.103 273.15 L 1212.103 295.897 C 1220.767 281.815 1241.348 268.818 1268.427 268.818 C 1322.586 268.818 1352.916 309.979 1352.916 364.138 C 1352.916 419.379 1318.254 460.541 1266.262 460.541 C 1241.348 460.541 1221.85 450.792 1213.184 437.795 L 1213.184 517.95 L 1164.442 519.032 C 1163.359 517.95 1164.442 519.032 1164.442 519.032 Z M 1258.68 313.228 C 1233.766 313.228 1213.184 332.724 1213.184 365.221 C 1213.184 397.717 1233.766 417.213 1258.68 417.213 C 1283.591 417.213 1304.173 397.717 1304.173 365.221 C 1304.173 332.724 1284.675 313.228 1258.68 313.228 Z M 1499.145 322.976 C 1493.729 321.893 1489.396 321.893 1483.98 321.893 C 1459.066 321.893 1436.32 333.807 1436.32 373.886 L 1436.32 457.291 L 1386.495 457.291 L 1386.495 273.15 L 1434.154 273.15 L 1434.154 300.23 C 1444.985 275.317 1470.982 270.984 1486.147 270.984 C 1490.48 270.984 1493.729 270.984 1498.062 272.067 L 1499.145 322.976 Z M 1571.719 351.139 L 1617.213 344.641 C 1628.044 343.557 1631.293 338.142 1631.293 331.641 C 1631.293 318.644 1621.544 307.812 1599.881 307.812 C 1581.467 306.729 1566.302 319.727 1565.219 338.142 L 1520.808 328.393 C 1524.059 299.147 1550.056 267.734 1599.881 267.734 C 1658.372 267.734 1680.037 300.23 1680.037 338.142 L 1680.037 429.129 C 1680.037 438.878 1681.119 448.626 1682.203 458.375 L 1635.626 458.375 C 1634.543 450.792 1633.46 444.293 1633.46 436.711 C 1621.544 455.124 1600.965 464.874 1579.3 463.79 C 1540.306 463.79 1516.477 437.795 1516.477 408.547 C 1516.477 373.886 1541.39 355.472 1571.719 351.139 Z M 1630.21 382.553 L 1630.21 373.886 L 1589.049 380.385 C 1576.051 382.553 1566.302 389.051 1566.302 403.132 C 1566.302 415.048 1576.051 424.796 1587.966 424.796 L 1590.133 424.796 C 1611.796 425.878 1630.21 415.048 1630.21 382.553 Z M 1747.194 182.163 C 1764.525 182.163 1777.523 196.243 1777.523 212.492 C 1777.523 229.823 1763.442 242.821 1747.194 242.821 C 1730.945 242.821 1716.864 228.74 1716.864 212.492 C 1715.781 196.243 1729.863 182.163 1747.194 182.163 Z M 1722.28 457.291 L 1722.28 273.15 L 1772.107 273.15 L 1772.107 457.291 L 1722.28 457.291 Z M 1845.763 396.634 C 1846.847 410.714 1857.677 424.796 1879.342 424.796 C 1895.59 424.796 1904.254 416.13 1904.254 406.383 C 1904.254 397.717 1898.84 391.217 1884.758 387.967 L 1859.844 382.553 C 1824.099 374.969 1807.851 353.307 1807.851 327.31 C 1807.851 294.814 1837.097 266.651 1876.092 266.651 C 1928.085 266.651 1946.499 300.23 1947.582 319.727 L 1906.422 329.477 C 1904.254 314.312 1891.257 303.48 1876.092 304.562 C 1863.094 304.562 1852.262 312.145 1852.262 322.976 C 1852.262 331.641 1858.761 337.058 1869.593 339.225 L 1895.59 344.641 C 1931.335 352.223 1949.749 373.886 1949.749 400.965 C 1949.749 431.295 1927.002 461.625 1878.258 461.625 C 1823.017 461.625 1803.52 425.878 1801.353 405.299 L 1845.763 396.634 Z M 2150.136 404.215 C 2140.389 435.628 2111.143 462.706 2066.732 462.706 C 2015.823 462.706 1971.412 426.962 1971.412 364.138 C 1971.412 305.646 2014.74 267.734 2061.318 267.734 C 2117.642 267.734 2152.304 303.48 2152.304 363.054 C 2152.304 369.554 2151.22 377.136 2151.22 378.218 L 2019.072 378.218 C 2021.238 402.048 2040.736 420.463 2065.648 420.463 C 2084.063 421.546 2101.395 410.714 2107.893 392.3 L 2150.136 404.215 Z M 2103.561 344.641 C 2102.479 326.226 2090.563 308.895 2062.399 308.895 C 2040.736 307.812 2023.406 324.059 2021.238 344.641 L 2103.561 344.641 Z" class="st0" style="fill: rgb(255, 102, 0);"></path>
        <path d="M 297.897 463.79 L 278.399 460.541 C 138.669 437.795 102.924 340.307 94.258 273.15 C 92.093 256.902 92.093 239.571 93.175 223.325 L 92.093 224.406 C 27.101 279.649 -17.308 381.469 6.521 445.376 C 45.517 548.278 265.402 537.447 328.226 475.706 C 331.475 472.456 333.642 469.206 336.891 465.957 L 334.726 465.957 C 321.728 465.957 309.811 464.874 297.897 463.79 Z" style="opacity: 0.55; fill: rgb(255, 102, 0);"></path>
        <path d="M 371.554 7.772 L 352.055 4.522 C 352.055 4.522 133.253 -30.14 98.592 187.578 L 95.342 207.077 C 95.342 207.077 94.258 213.574 94.258 223.325 C 125.671 196.243 162.499 181.08 200.409 185.413 C 295.73 198.411 379.135 357.638 348.806 444.293 C 345.557 451.875 342.308 458.375 337.975 464.874 C 402.965 463.79 526.448 439.96 552.445 279.649 L 555.695 260.153 C 554.611 261.236 589.274 42.432 371.554 7.772 Z" class="st0" style="fill: rgb(255, 102, 0);"></path>
        <path d="M 199.328 185.413 C 162.499 181.08 125.671 196.243 93.175 223.325 C 92.093 239.571 92.093 256.902 94.258 273.15 C 101.842 340.307 137.586 437.795 277.316 460.541 L 296.814 463.79 C 308.728 465.957 321.728 465.957 333.642 465.957 L 335.808 465.957 C 340.141 459.457 344.474 451.875 346.64 445.376 C 378.051 358.721 294.647 198.411 199.328 185.413 Z" style="opacity: 0.85; fill: rgb(255, 102, 0);"></path>
    </g>
    <path fill="#FFF" d="M 106.685 439.964 C 45.286 423.808 0.11 367.862 0 301.262 C -0.11 221.909 63.925 157.611 143.088 157.5 C 172.366 157.5 199.669 166.297 222.363 181.354 C 210.372 178.208 198.027 176.618 185.629 176.624 C 106.575 176.738 42.436 241.032 42.546 320.384 C 42.651 370.392 68.093 414.356 106.685 439.964 Z M 327.533 318.743 C 327.646 398.096 263.613 462.39 184.444 462.5 C 155.172 462.5 127.869 453.708 105.171 438.65 C 117.162 441.799 129.507 443.386 141.904 443.377 C 220.957 443.267 285.102 378.974 284.993 299.619 C 284.883 249.721 259.445 205.758 220.848 180.04 C 282.252 196.196 327.423 252.138 327.533 318.743 Z M 603.272 413.96 L 603.272 458.823 L 416.466 459.118 L 416.171 160.522 L 471.921 160.522 L 472.215 414.403 L 603.272 413.96 Z M 814.643 255.836 L 814.937 458.382 L 761.688 458.382 L 761.541 386.895 L 760.807 386.895 C 760.807 434.109 737.421 462.352 697.558 462.5 C 654.017 462.5 628.129 431.464 627.983 379.392 L 627.835 255.836 L 681.082 255.836 L 681.229 376.893 C 681.229 404.4 695.351 419.988 719.181 419.988 C 745.803 419.988 761.541 399.692 761.541 364.978 L 761.392 255.543 L 814.643 255.836 Z M 1054.107 334.676 L 1054.252 458.235 L 1001.006 458.235 L 1000.857 337.179 C 1000.857 309.672 986.299 293.637 961.29 293.637 C 933.05 293.637 916.574 314.233 916.574 348.65 L 916.723 458.382 L 863.477 458.382 L 863.183 255.836 L 916.428 255.836 L 916.574 326.881 L 917.311 326.881 C 917.311 279.667 941.873 251.719 983.059 251.719 C 1027.776 251.571 1053.96 282.166 1054.107 334.676 Z M 1297.397 255.248 L 1297.687 457.791 L 1244.442 457.791 L 1244.294 387.927 L 1243.557 387.927 C 1243.557 434.404 1216.641 461.763 1171.339 461.911 C 1120.444 461.911 1090.583 422.933 1090.436 356.596 C 1090.289 290.402 1120.152 251.277 1171.045 251.13 C 1216.203 251.13 1243.268 278.49 1243.414 324.529 L 1244.147 324.529 L 1244 255.1 L 1297.397 255.248 Z M 1247.09 356.596 C 1247.09 319.085 1228.116 293.2 1195.755 293.346 C 1163.394 293.346 1144.566 317.173 1144.566 356.739 C 1144.566 396.31 1163.541 419.697 1195.903 419.697 C 1228.116 419.697 1247.09 393.808 1247.09 356.596 Z M 1492.291 257.456 L 1476.994 305.112 C 1468.906 300.699 1458.756 297.906 1448.752 297.906 C 1417.716 297.906 1399.182 323.35 1399.182 366.153 L 1399.33 457.791 L 1346.083 457.791 L 1345.789 255.248 L 1399.036 255.248 L 1399.182 338.795 L 1399.918 338.795 C 1399.918 283.491 1422.865 251.13 1461.107 251.13 C 1472.877 250.984 1484.2 253.481 1492.291 257.456 Z" style="pointer-events: none; visibility: hidden;">
        <title>Lunar</title>
    </path>
    <path d="M 839.861 302.926 C 832.393 287.988 821.936 276.04 808.12 267.823 C 794.302 259.608 778.244 255.5 759.198 255.5 C 740.154 255.5 722.975 259.981 708.038 268.571 C 692.725 277.531 681.148 289.484 672.56 305.168 C 663.973 320.479 659.864 338.032 659.864 357.822 C 659.864 377.614 664.345 395.165 673.308 410.476 C 682.269 425.79 694.594 438.113 710.65 446.701 C 726.711 455.286 744.635 459.769 764.799 459.769 C 776.004 459.769 787.952 457.526 800.277 453.421 C 812.601 449.313 823.059 444.085 831.274 437.365 C 835.382 434.376 837.247 430.641 837.247 426.16 C 837.247 421.68 835.008 417.572 830.525 413.837 C 827.537 411.223 823.803 410.103 819.32 410.103 C 814.469 410.103 810.361 411.596 806.999 414.21 C 801.772 418.318 795.048 421.68 787.206 424.291 C 778.992 426.908 771.521 428.401 764.054 428.401 C 745.383 428.401 729.323 423.172 716.624 412.716 C 703.558 402.261 695.713 388.443 693.101 371.269 L 832.766 371.269 C 837.994 371.269 841.73 369.771 845.09 366.786 C 848.079 363.796 849.944 359.688 851.066 354.462 C 851.066 335.042 847.331 317.862 839.861 302.926 Z M 693.473 341.764 C 696.464 325.334 703.558 312.262 714.759 302.552 C 725.59 292.844 740.154 287.617 758.45 287.988 C 774.509 287.988 787.581 292.844 797.663 302.552 C 807.745 312.262 813.722 325.334 815.959 341.764 L 693.473 341.764 Z M 19.419 297.699 C 19.904 297.699 20.428 297.663 20.913 297.624 C 21.172 297.624 21.398 297.699 21.66 297.699 C 21.958 297.699 22.257 297.624 22.593 297.587 C 22.929 297.587 23.225 297.699 23.526 297.699 C 23.788 297.699 24.012 297.624 24.271 297.624 C 24.536 297.624 24.758 297.699 25.021 297.699 L 25.394 297.699 C 25.581 297.699 25.767 297.663 25.955 297.624 C 26.142 297.624 26.326 297.699 26.512 297.699 L 27.261 297.699 C 27.485 297.699 27.744 297.663 27.969 297.663 C 28.233 297.663 28.494 297.699 28.753 297.699 L 29.502 297.699 C 29.613 297.699 29.726 297.663 29.838 297.663 C 29.986 297.663 30.138 297.699 30.249 297.699 L 31.37 297.699 C 31.442 297.699 31.555 297.663 31.629 297.663 C 31.78 297.663 31.967 297.699 32.117 297.699 L 33.237 297.699 C 33.458 297.699 33.646 297.663 33.87 297.663 C 34.02 297.663 34.207 297.699 34.357 297.699 L 280.827 297.699 L 280.827 258.49 L 124.356 258.49 C 123.907 258.49 123.422 258.527 122.86 258.598 C 122.599 258.563 122.338 258.49 122.113 258.49 L 110.164 258.49 C 109.604 258.49 109.008 258.527 108.372 258.598 C 107.962 258.527 107.587 258.49 107.175 258.49 L 96.347 258.49 C 95.599 258.49 94.777 258.563 93.956 258.713 C 93.397 258.598 92.839 258.49 92.238 258.49 L 82.532 258.49 C 81.559 258.49 80.551 258.598 79.505 258.785 C 78.795 258.598 78.051 258.49 77.3 258.49 L 68.712 258.49 C 67.551 258.49 66.398 258.635 65.203 258.861 L 64.829 258.861 C 63.895 258.635 62.961 258.49 61.989 258.49 L 54.894 258.49 C 53.739 258.49 52.542 258.635 51.348 258.861 L 50.565 258.861 C 49.557 258.635 48.513 258.49 47.427 258.49 L 45.186 258.49 C 44.774 258.49 44.365 258.527 43.953 258.563 C 43.619 258.527 43.281 258.49 42.946 258.49 L 37.343 258.49 C 36.446 258.49 35.549 258.563 34.654 258.713 C 33.832 258.598 32.975 258.49 32.117 258.49 L 30.996 258.49 C 30.287 258.49 29.577 258.527 28.904 258.635 C 28.494 258.598 28.083 258.49 27.635 258.49 L 26.887 258.49 C 25.542 258.49 24.198 258.635 22.892 258.937 C 22.779 258.937 22.706 258.973 22.593 258.973 C 22.295 258.973 21.993 258.861 21.66 258.861 C 21.285 258.861 20.913 258.937 20.54 258.973 C 20.165 258.937 19.792 258.861 19.419 258.861 C 8.964 258.861 0 267.448 0 278.28 C 0 288.737 8.59 297.699 19.419 297.699 Z M 570.987 267.076 C 557.542 259.981 542.23 255.874 525.425 255.874 C 513.105 255.874 501.526 258.114 490.696 262.223 C 479.868 266.331 470.531 272.676 462.69 280.521 L 462.69 276.413 C 462.69 270.811 460.823 266.331 457.461 262.97 C 454.101 259.608 449.618 257.74 444.019 257.74 C 438.789 257.74 434.305 259.608 430.573 262.97 C 426.841 266.331 425.345 270.811 425.345 276.413 L 425.345 460.144 L 463.064 460.144 L 463.064 336.91 C 463.064 327.946 465.304 320.104 470.156 313.008 C 475.014 305.914 481.735 300.313 489.95 296.207 C 498.542 292.097 507.876 289.858 517.958 289.858 C 535.509 289.858 549.699 295.084 560.53 305.168 C 571.361 315.247 576.586 330.185 576.586 350.353 L 576.586 460.518 L 614.303 460.518 L 614.303 349.98 C 614.303 330.185 610.57 313.008 602.728 299.191 C 595.259 285.002 584.43 274.173 570.987 267.076 Z M 1763 443.341 C 1763 438.488 1761.507 434.376 1757.772 430.268 L 1699.143 360.437 L 1754.784 287.988 C 1758.146 283.881 1760.012 278.654 1760.012 273.426 C 1760.012 268.946 1758.893 265.21 1755.904 262.223 C 1752.916 259.233 1749.183 257.74 1744.326 257.74 C 1738.727 257.74 1734.246 259.981 1730.885 264.09 L 1676.735 336.162 L 1615.866 264.09 C 1612.505 259.981 1608.023 257.74 1602.047 257.74 C 1596.82 257.74 1592.714 259.233 1590.098 262.223 C 1587.483 265.21 1585.99 268.946 1585.99 273.052 C 1585.99 277.905 1587.858 282.387 1591.593 286.87 L 1652.462 358.572 L 1595.7 429.896 C 1592.339 434.005 1590.471 438.488 1590.471 443.341 C 1590.471 447.818 1591.593 451.554 1594.58 454.543 C 1597.565 457.526 1601.301 459.027 1606.155 459.027 C 1611.01 459.027 1615.492 457.156 1619.227 453.048 L 1674.867 383.216 L 1733.497 453.048 C 1736.112 457.156 1740.591 459.027 1746.568 459.027 C 1751.425 459.027 1755.531 457.526 1758.518 454.543 C 1761.507 451.554 1763 447.818 1763 443.341 Z M 1034.794 269.689 C 1019.486 260.728 1002.306 256.249 983.635 256.249 C 964.589 256.249 947.412 260.728 932.099 269.689 C 916.417 278.654 904.467 290.977 895.503 306.66 C 886.54 322.345 882.433 339.523 882.433 358.572 C 882.433 377.614 886.54 395.165 894.758 410.476 C 902.971 426.16 914.177 438.113 928.74 447.07 C 942.93 456.036 958.99 460.144 976.915 460.144 C 991.103 460.144 1004.546 457.156 1016.499 451.181 C 1028.82 445.204 1039.278 436.991 1047.867 426.533 L 1047.867 460.144 L 1084.835 460.144 L 1084.835 358.572 C 1084.835 339.523 1080.357 321.971 1071.393 306.66 C 1062.429 290.977 1050.107 278.654 1034.794 269.689 Z M 1040.025 393.672 C 1034.421 404.13 1026.578 412.343 1016.499 418.318 C 1006.414 424.291 995.583 427.28 983.26 427.28 C 970.938 427.28 959.734 424.291 950.025 418.318 C 939.943 412.343 932.099 404.13 926.5 393.672 C 920.897 383.216 917.91 371.64 917.91 358.572 C 917.91 345.499 920.897 333.925 926.5 323.093 C 932.099 312.635 939.943 304.421 950.025 298.073 C 960.11 292.097 970.938 289.11 983.26 289.11 C 995.583 289.11 1006.789 292.097 1016.499 298.073 C 1026.578 304.048 1034.051 312.262 1040.025 323.093 C 1045.626 333.551 1048.616 345.499 1048.616 358.572 C 1048.616 371.269 1045.626 383.216 1040.025 393.672 Z M 1524.747 267.823 C 1510.929 259.608 1494.869 255.5 1475.823 255.5 C 1456.781 255.5 1439.602 259.981 1424.666 268.571 C 1409.355 277.531 1397.778 289.484 1389.188 305.168 C 1380.598 320.479 1376.491 338.032 1376.491 357.822 C 1376.491 377.614 1380.971 395.165 1389.934 410.476 C 1398.898 425.79 1411.219 438.113 1427.281 446.701 C 1443.335 455.286 1461.261 459.769 1481.427 459.769 C 1492.631 459.769 1504.58 457.526 1516.903 453.421 C 1529.229 449.313 1539.683 444.085 1547.9 437.365 C 1552.007 434.376 1553.874 430.641 1553.874 426.16 C 1553.874 421.68 1551.634 417.572 1547.154 413.837 C 1544.165 411.223 1540.431 410.103 1535.951 410.103 C 1531.094 410.103 1526.988 411.596 1523.628 414.21 C 1518.397 418.318 1511.675 421.68 1503.833 424.291 C 1495.618 426.908 1488.151 428.401 1480.681 428.401 C 1462.007 428.401 1445.952 423.172 1433.254 412.716 C 1420.186 402.261 1412.34 388.443 1409.729 371.269 L 1549.393 371.269 C 1554.622 371.269 1558.355 369.771 1561.715 366.786 C 1565.076 363.796 1566.571 359.688 1567.692 354.462 C 1567.692 335.042 1563.956 317.862 1556.488 302.926 C 1549.02 287.988 1538.563 276.04 1524.747 267.823 Z M 1410.101 341.764 C 1413.089 325.334 1420.186 312.262 1431.388 302.552 C 1442.589 292.844 1457.153 287.617 1475.078 287.988 C 1491.139 287.988 1504.207 292.844 1514.291 302.552 C 1524.374 312.262 1530.348 325.334 1532.587 341.764 L 1410.101 341.764 Z M 1287.986 267.076 C 1274.544 259.608 1259.232 255.874 1242.426 255.874 C 1230.102 255.874 1218.524 258.114 1207.699 262.223 C 1196.869 266.331 1187.533 272.676 1179.689 280.521 L 1179.689 276.413 C 1179.689 270.811 1177.824 266.331 1174.463 262.97 C 1171.101 259.608 1166.619 257.74 1161.018 257.74 C 1155.788 257.74 1151.31 259.608 1147.573 262.97 C 1143.84 266.331 1142.346 270.811 1142.346 276.413 L 1142.346 460.144 L 1180.064 460.144 L 1180.064 336.91 C 1180.064 327.946 1182.305 320.104 1187.157 313.008 C 1192.012 305.914 1198.737 300.313 1206.953 296.207 C 1215.539 292.097 1224.872 289.858 1234.957 289.858 C 1252.509 289.858 1266.699 295.084 1277.529 305.168 C 1288.36 315.247 1293.589 330.185 1293.589 350.353 L 1293.589 460.518 L 1331.306 460.518 L 1331.306 349.98 C 1331.306 330.185 1327.569 313.008 1319.732 299.191 C 1312.26 285.002 1301.432 274.173 1287.986 267.076 Z M 277.837 417.198 L 184.105 417.198 C 183.808 417.198 183.397 417.236 182.949 417.273 C 182.841 417.231 182.727 417.207 182.613 417.198 L 109.79 417.198 C 108.783 417.198 107.625 417.347 106.428 417.572 L 104.489 417.572 C 103.779 417.347 103.071 417.198 102.321 417.198 L 95.972 417.198 C 94.963 417.198 93.806 417.347 92.612 417.572 L 90.11 417.572 C 89.348 417.338 88.557 417.213 87.757 417.198 L 82.532 417.198 C 81.447 417.198 80.329 417.347 79.132 417.572 L 75.508 417.572 C 74.65 417.347 73.754 417.198 72.819 417.198 L 68.712 417.198 C 68.337 417.198 67.968 417.236 67.592 417.273 C 67.329 417.273 67.106 417.198 66.845 417.198 L 63.11 417.198 C 62.252 417.198 61.391 417.273 60.497 417.424 C 59.748 417.273 59.04 417.198 58.257 417.198 L 55.27 417.198 C 54.671 417.198 54.074 417.236 53.44 417.311 C 52.915 417.236 52.393 417.198 51.907 417.198 L 49.294 417.198 C 48.247 417.198 47.203 417.311 46.156 417.499 C 45.225 417.311 44.289 417.198 43.32 417.198 L 41.079 417.198 C 40.369 417.198 39.697 417.236 38.987 417.347 C 38.316 417.273 37.644 417.198 36.969 417.198 L 35.476 417.198 C 34.282 417.198 33.085 417.311 31.892 417.572 C 30.771 417.347 29.577 417.198 28.381 417.198 L 27.261 417.198 C 26.403 417.198 25.542 417.273 24.723 417.385 C 24.085 417.311 23.45 417.198 22.779 417.198 L 22.405 417.198 C 21.024 417.198 19.642 417.385 18.334 417.685 C 8.366 418.281 0 426.533 0 436.991 C 0 447.446 8.59 456.408 19.419 456.408 C 20.09 456.408 20.761 456.371 21.436 456.294 C 21.772 456.294 22.069 456.408 22.405 456.408 C 22.779 456.408 23.153 456.294 23.526 456.294 C 23.901 456.333 24.271 456.408 24.646 456.408 L 25.021 456.408 C 25.243 456.408 25.503 456.333 25.727 456.333 C 26.103 456.371 26.512 456.408 26.887 456.408 L 27.635 456.408 C 28.01 456.408 28.343 456.371 28.717 456.333 C 29.092 456.371 29.466 456.408 29.877 456.408 L 30.622 456.408 C 30.809 456.408 30.996 456.371 31.183 456.371 C 31.482 456.371 31.78 456.408 32.117 456.408 L 33.237 456.408 C 33.386 456.408 33.535 456.371 33.683 456.371 C 33.907 456.371 34.131 456.408 34.357 456.408 L 35.85 456.408 C 36.147 456.408 36.446 456.371 36.709 456.371 C 36.932 456.371 37.119 456.408 37.343 456.408 L 38.837 456.408 C 38.987 456.408 39.137 456.408 39.246 456.371 C 39.36 456.371 39.474 456.408 39.583 456.408 L 41.452 456.408 C 41.602 456.408 41.752 456.408 41.862 456.371 C 41.976 456.371 42.087 456.408 42.199 456.408 L 44.066 456.408 C 44.216 456.408 44.365 456.408 44.514 456.371 C 44.626 456.371 44.7 456.408 44.813 456.408 L 250.203 456.408 C 250.579 456.408 268.874 456.783 269.246 456.408 L 280.827 456.408 L 280.827 417.572 L 277.837 417.572 L 277.837 417.198 Z M 298.75 338.032 C 298.229 338.032 297.778 338.142 297.254 338.178 C 296.771 338.142 296.248 338.032 295.764 338.032 L 295.387 338.032 C 294.155 338.032 292.923 338.178 291.767 338.404 L 291.656 338.404 C 291.17 338.404 290.683 338.515 290.199 338.553 C 289.676 338.515 289.192 338.404 288.667 338.404 L 287.921 338.404 C 287.623 338.404 287.361 338.479 287.1 338.479 C 286.8 338.442 286.542 338.442 286.241 338.442 C 284.97 338.178 283.663 338.032 282.319 338.032 L 280.827 338.032 C 279.667 338.032 278.51 338.178 277.426 338.404 L 277.093 338.404 C 276.792 338.404 276.532 338.442 276.271 338.442 L 276.121 338.442 C 274.851 338.178 273.542 338.032 272.234 338.032 L 269.996 338.032 C 269.808 338.032 269.658 338.068 269.472 338.068 C 269.283 338.068 269.061 338.032 268.874 338.032 L 266.263 338.032 C 265.215 338.032 264.207 338.178 263.236 338.404 L 262.375 338.404 C 261.182 338.142 259.95 338.032 258.792 338.032 L 255.432 338.032 C 254.46 338.032 253.529 338.178 252.592 338.404 L 248.859 338.404 C 247.663 338.178 246.469 338.032 245.35 338.032 L 240.869 338.032 C 240.046 338.032 239.263 338.142 238.475 338.366 C 237.356 338.142 236.272 338.032 235.267 338.032 L 226.302 338.032 C 225.668 338.032 225.07 338.142 224.473 338.255 C 223.538 338.106 222.644 338.032 221.822 338.032 L 215.474 338.032 C 214.725 338.032 213.981 338.178 213.27 338.404 L 211.738 338.404 C 210.544 338.178 209.386 338.032 208.379 338.032 L 200.908 338.032 C 200.572 338.032 200.275 338.068 199.938 338.142 C 199.34 338.068 198.781 338.032 198.295 338.032 L 186.346 338.032 C 186.233 338.032 186.085 338.068 185.972 338.068 C 185.562 338.032 185.187 338.032 184.851 338.032 L 175.516 338.032 C 175.068 338.032 174.621 338.142 174.173 338.291 C 173.257 338.144 172.337 338.058 171.409 338.032 L 135.559 338.032 C 135.484 338.032 135.408 338.068 135.333 338.068 C 134.959 338.032 134.663 338.032 134.439 338.032 L 37.343 338.032 L 37.343 377.24 L 267.755 377.24 C 267.868 377.24 267.979 377.203 268.092 377.203 C 268.239 377.203 268.389 377.24 268.504 377.24 L 271.115 377.24 C 271.227 377.24 271.337 377.24 271.451 377.203 C 271.602 377.203 271.747 377.24 271.862 377.24 L 274.104 377.24 C 274.29 377.24 274.44 377.203 274.587 377.203 C 274.812 377.203 274.997 377.24 275.224 377.24 L 277.093 377.24 C 277.318 377.24 277.54 377.203 277.764 377.203 C 278.025 377.203 278.285 377.24 278.586 377.24 L 280.079 377.24 C 280.378 377.24 280.639 377.203 280.899 377.203 C 281.237 377.24 281.57 377.24 281.946 377.24 L 283.441 377.24 C 283.737 377.24 284.035 377.203 284.301 377.203 C 284.633 377.203 284.97 377.24 285.308 377.24 L 286.427 377.24 C 286.913 377.24 287.4 377.203 287.846 377.165 C 288.107 377.165 288.37 377.24 288.667 377.24 L 289.415 377.24 C 289.826 377.24 290.237 377.129 290.683 377.091 C 291.133 377.129 291.582 377.24 292.027 377.24 L 292.402 377.24 C 292.887 377.24 293.374 377.129 293.856 377.091 C 294.381 377.129 294.865 377.24 295.387 377.24 C 296.808 377.24 298.152 377.091 299.461 376.793 C 309.618 376.418 318.169 368.018 318.169 357.448 C 318.169 346.992 309.58 338.032 298.75 338.032 Z" style="pointer-events: none; visibility: hidden;">
        <title>Neanex</title>
    </path>
    <path d="M 231.766 191.658 C 231.766 210.937 223.43 218.228 207.806 218.228 C 194.28 218.228 184.377 212.492 184.377 192.188 C 184.377 173.436 193.223 165.616 207.806 165.616 C 222.92 165.616 231.766 171.354 231.766 191.658 Z M 133.321 257.27 C 138.529 258.822 140.612 261.962 140.612 266.641 C 140.612 269.768 138.512 278.629 135.916 288.006 C 135.403 291.642 132.278 293.725 129.151 293.725 C 126.028 293.725 121.86 293.197 119.778 292.683 C 104.681 288.518 88.544 287.476 77.599 287.476 C 50.514 287.476 46.348 297.895 46.348 309.863 C 46.348 319.768 48.959 325.488 73.43 332.781 L 99.471 340.602 C 133.831 351.533 147.902 364.544 147.902 399.449 C 147.902 436.434 126.556 461.435 71.348 461.435 C 49.487 461.435 20.835 458.312 6.252 451.532 C 2.085 449.978 0 446.853 0 442.156 C 0 437.974 2.085 430.684 5.208 421.836 C 6.779 417.142 9.887 414.546 13.543 414.546 C 15.627 414.546 21.362 415.587 23.445 416.63 C 38.558 421.323 55.226 423.406 72.407 423.406 C 102.085 423.406 106.253 411.433 106.253 399.979 C 106.253 390.087 102.598 385.41 79.681 378.632 L 51.026 370.298 C 20.819 361.451 4.151 345.296 4.151 311.451 C 4.151 273.949 25.515 249.991 79.15 249.991 C 94.264 249.991 118.222 251.561 133.321 257.27 Z M 431.239 258.853 C 438.531 260.938 442.697 267.189 442.697 277.604 L 442.697 441.148 C 442.697 459.897 441.657 478.632 438.02 493.745 C 427.072 534.387 383.323 550.524 311.445 550.524 C 304.154 550.524 300.5 547.397 299.459 541.15 C 298.931 535.94 298.416 528.12 298.416 524.481 C 298.416 517.191 302.071 513.009 308.321 512.496 C 368.21 509.898 385.917 501.567 393.74 488.024 C 398.419 480.202 399.987 470.314 399.987 458.856 L 399.987 452.605 C 390.084 459.369 373.433 461.452 355.195 461.452 C 300.5 461.452 273.945 438.535 273.945 359.881 C 273.945 273.422 302.6 249.991 363.529 249.991 C 388.53 249.991 411.976 252.076 431.239 258.853 Z M 1006.245 265.618 C 1016.134 276.033 1019.256 291.66 1019.256 318.741 L 1019.256 422.364 C 1019.256 429.673 1018.216 435.905 1015.091 440.603 C 1012.497 444.257 1009.371 447.895 1003.118 449.978 C 988.535 456.227 956.245 461.435 930.202 461.435 C 872.397 461.435 860.939 431.228 860.939 396.852 C 860.939 372.894 867.19 357.798 881.772 347.894 C 893.744 340.089 916.147 335.923 941.149 335.923 C 952.608 335.923 967.718 336.435 977.608 337.476 L 977.608 323.935 C 977.608 316.658 977.077 307.796 975.524 302.589 C 972.398 294.254 965.621 289.047 940.619 289.047 C 928.633 289.047 914.048 291.146 901.035 293.741 C 895.828 294.27 888.534 295.824 885.941 295.824 C 882.302 295.824 879.689 293.741 878.647 289.575 C 877.078 283.326 875.522 273.436 875.522 269.783 C 875.522 264.045 878.134 260.919 882.815 259.366 C 902.093 253.118 926.052 249.991 945.844 249.991 C 978.119 249.991 995.315 254.16 1006.245 265.618 Z M 832.813 252.604 C 836.468 253.646 839.064 256.788 839.064 261.467 C 839.064 266.674 838.023 278.66 836.982 284.382 C 835.941 288.021 832.813 290.105 828.646 290.105 C 823.952 290.105 813.006 289.063 808.327 289.063 C 795.842 289.063 784.382 291.146 777.605 295.312 C 774.992 296.339 772.397 298.438 771.354 301.035 C 770.826 303.116 769.783 306.772 769.783 312.492 L 769.783 445.826 C 769.783 452.077 766.675 456.243 760.936 456.243 L 736.467 456.243 C 730.217 456.243 727.619 452.605 727.619 445.826 L 727.619 293.741 C 727.619 280.201 730.217 274.991 738.034 268.741 C 749.496 259.88 782.814 249.991 810.426 249.991 C 821.356 249.991 828.134 251.035 832.813 252.604 Z M 220.323 254.687 C 227.598 254.687 229.169 258.853 229.169 265.104 L 229.169 445.844 C 229.169 452.622 226.044 456.259 220.323 456.259 L 195.837 456.259 C 190.1 456.259 186.974 453.134 186.974 445.844 L 186.974 265.633 C 186.974 259.366 189.058 254.687 195.837 254.687 L 220.323 254.687 Z M 539.621 255.199 C 545.871 255.199 548.467 259.366 548.467 265.618 L 548.467 383.342 C 548.467 393.759 548.98 404.174 551.065 409.382 C 554.19 418.23 564.091 422.397 582.315 422.397 C 600.535 422.397 611.463 420.314 618.243 418.23 C 620.857 417.702 623.965 415.619 625.536 413.534 C 627.089 411.451 628.131 407.286 628.131 402.077 L 628.131 265.618 C 628.131 259.88 630.729 255.199 636.98 255.199 L 661.467 255.199 C 667.187 255.199 670.312 258.853 670.312 265.618 L 670.312 423.424 C 670.312 436.964 665.119 444.257 657.297 448.425 C 634.382 458.84 600.007 460.923 575.007 460.923 C 532.298 460.923 516.672 450.505 510.935 434.366 C 507.298 423.424 506.256 407.286 506.256 389.575 L 506.256 265.618 C 506.256 259.88 508.323 255.199 515.102 255.199 L 539.621 255.199 Z M 317.167 358.325 C 317.167 403.647 326.03 422.911 358.321 422.911 C 371.351 422.911 384.892 421.884 394.267 417.189 C 396.879 415.636 399.476 413.534 400.517 410.939 C 401.048 409.382 401.558 405.731 401.558 402.605 L 401.558 304.16 C 401.558 296.883 399.476 293.741 395.837 292.188 C 389.587 289.575 376.577 288.533 366.671 288.533 C 323.961 288.533 316.671 307.796 317.167 358.325 Z M 908.874 374.462 C 903.135 378.101 900.54 383.842 900.54 395.297 C 900.54 413.534 906.789 426.035 934.915 426.035 C 951.052 426.035 962.526 423.424 969.29 420.825 C 972.414 419.256 975.01 416.645 975.54 414.048 C 976.566 410.41 977.095 405.713 977.095 400.505 L 977.095 369.256 C 968.745 368.745 955.733 367.703 945.313 367.703 C 926.564 367.703 915.106 369.784 908.874 374.462 Z M 1219.275 359.592 C 1233.347 357.507 1272.915 348.133 1328.654 315.84 C 1330.207 315.329 1330.736 316.355 1330.736 317.396 C 1322.402 331.466 1288.026 376.771 1219.275 361.658 C 1218.233 361.675 1218.233 359.592 1219.275 359.592 Z M 1147.912 285.633 C 1165.623 283.037 1241.665 266.883 1332.818 210.634 C 1334.375 210.103 1335.415 210.634 1335.415 211.16 L 1341.153 223.132 C 1341.681 225.217 1341.681 227.299 1340.624 229.384 C 1330.736 242.396 1287.499 292.411 1201.04 350.218 C 1198.441 351.772 1195.302 352.301 1192.705 350.218 C 1181.762 342.925 1155.719 323.133 1145.3 288.758 C 1144.276 288.758 1145.847 286.676 1147.912 285.633 Z M 1285.946 165.823 C 1288.54 167.394 1291.679 168.418 1294.277 169.992 C 1296.36 171.546 1296.36 173.645 1294.806 175.2 C 1253.139 214.271 1197.931 254.383 1143.763 276.77 C 1141.679 277.828 1139.596 276.258 1139.596 274.177 C 1139.596 270.007 1139.069 265.841 1139.069 260.633 C 1139.069 249.704 1141.679 239.286 1144.276 229.91 C 1144.803 229.384 1145.83 227.828 1146.358 227.828 C 1180.222 217.925 1230.734 199.19 1283.861 166.37 C 1284.389 165.326 1285.946 165.326 1285.946 165.823 Z" style="pointer-events: none; visibility: hidden;">
        <title>Sigura</title>
    </path>
    <path d="M 946.229 228.361 L 916.637 228.361 C 898.192 228.252 883.156 243.114 883.045 261.555 L 883.045 329.538 L 1012.575 329.538 L 1012.575 290.028 C 993.819 269.952 966.626 251.116 946.229 228.361 Z M 1138.587 228.365 L 1109.192 228.365 C 1088.758 251.16 1061.525 269.997 1042.769 290.112 L 1042.769 329.422 L 1172.1 329.422 L 1172.1 261.436 C 1171.944 243.065 1156.96 228.278 1138.587 228.365 Z M 1112.953 156.976 C 1110.459 134.446 1091.353 117.429 1068.682 117.544 C 1051.006 117.937 1035.098 128.368 1027.692 144.419 L 1027.692 144.62 L 1027.692 144.419 C 1020.269 128.379 1004.369 117.957 986.701 117.544 C 963.937 117.305 944.693 134.354 942.191 156.976 C 942.191 158.456 941.992 159.935 941.992 161.456 C 941.992 214.804 1008.297 240.039 1027.492 275.59 C 1046.767 240.158 1112.953 214.804 1112.953 161.456 L 1112.953 156.976 Z M 883.045 359.296 L 883.045 427.561 C 883.156 446.003 898.192 460.866 916.637 460.752 L 1012.613 460.752 L 1012.613 359.296 L 883.045 359.296 Z M 1042.769 359.296 L 1042.769 460.752 L 1138.747 460.752 C 1157.166 460.842 1172.173 445.981 1172.259 427.561 L 1172.259 359.291 L 1042.769 359.291 L 1042.769 359.296 Z M 1386.531 278.754 L 1364.656 312.386 C 1348.243 303.273 1329.801 298.434 1311.03 298.309 C 1297.753 298.309 1286.794 302.588 1286.794 311.985 C 1286.794 323.344 1300.871 328.822 1320.828 335.062 C 1354.859 345.62 1390.451 359.056 1390.451 399.046 C 1390.451 438.158 1358.778 462.033 1305.191 462.033 C 1273.477 462.033 1243.764 455.753 1221.209 437.758 L 1237.205 399.806 C 1257.961 414.283 1284.556 419.002 1302.552 419.002 C 1320.547 419.002 1331.504 414.283 1331.504 403.326 C 1331.504 392.368 1314.307 386.93 1293.554 381.05 C 1263.719 372.134 1227.729 358.136 1227.729 319.025 C 1227.729 279.915 1259.001 256.159 1308.909 256.159 C 1336.463 255.733 1363.508 263.605 1386.531 278.754 Z M 1612.24 284.15 L 1612.24 453.595 C 1602.097 458.537 1591.042 461.341 1579.769 461.833 C 1564.132 461.833 1554.735 448.916 1553.575 430.52 C 1540.366 450.784 1517.522 462.664 1493.348 461.833 C 1449.358 461.833 1424.084 434.44 1424.084 387.49 L 1424.084 264.157 C 1434.249 259.306 1445.299 256.582 1456.556 256.159 C 1474.552 256.159 1484.551 267.916 1484.551 284.351 L 1484.551 376.532 C 1484.551 399.608 1494.349 413.723 1512.745 413.723 C 1536.98 413.723 1551.457 399.608 1551.457 358.935 L 1551.457 264.157 C 1561.669 259.286 1572.778 256.563 1584.09 256.159 C 1602.085 256.159 1612.24 267.797 1612.24 284.15 Z M 1801.2 262.677 L 1783.604 316.144 C 1776.221 311.491 1767.661 309.047 1758.93 309.107 C 1733.895 309.107 1718.26 325.903 1718.26 374.812 L 1718.26 457.914 L 1657.633 457.914 L 1657.633 264.157 C 1667.798 259.303 1678.845 256.578 1690.104 256.159 C 1706.502 256.159 1716.3 270.234 1716.3 290.59 C 1730.777 265.157 1750.732 256.159 1771.087 256.159 C 1781.46 256.297 1791.698 258.513 1801.2 262.677 Z M 2022.591 352.657 C 2022.591 421.522 1981.921 461.833 1913.455 461.833 C 1906.018 461.833 1895.459 461.432 1884.102 461.034 L 1884.102 548.094 L 1823.475 548.094 L 1823.475 264.157 C 1833.641 259.306 1844.69 256.582 1855.948 256.159 C 1871.585 256.159 1880.982 268.676 1882.141 287.471 C 1898.978 263.999 1922.855 256.159 1946.689 256.159 C 1992.478 256.159 2022.591 292.15 2022.591 352.657 Z M 1961.163 352.657 C 1961.163 322.145 1948.289 303.788 1924.412 303.788 C 1900.538 303.788 1884.102 317.864 1884.102 359.336 L 1884.102 416.444 C 1893.099 416.843 1900.937 416.843 1907.576 416.843 C 1940.768 416.843 1961.163 393.369 1961.163 352.657 Z M 2203.712 262.677 L 2186.113 316.144 C 2178.749 311.491 2170.199 309.047 2161.48 309.107 C 2136.405 309.107 2120.77 325.903 2120.77 374.812 L 2120.77 457.914 L 2060.142 457.914 L 2060.142 264.157 C 2070.344 259.289 2081.437 256.566 2092.737 256.159 C 2109.172 256.159 2118.93 270.234 2118.93 290.59 C 2133.406 265.157 2153.361 256.159 2173.716 256.159 C 2184.053 256.314 2194.245 258.53 2203.712 262.677 Z M 2222.068 196.972 C 2222.068 176.616 2234.986 165.299 2255.738 165.299 C 2276.494 165.299 2289.371 176.616 2289.371 196.972 C 2289.371 217.329 2276.454 229.445 2255.738 229.445 C 2235.024 229.445 2222.068 217.726 2222.068 196.972 Z M 2226.067 457.914 L 2286.733 457.914 L 2286.733 260.158 L 2225.984 260.158 L 2226.067 457.914 Z M 2486.128 278.754 L 2464.253 312.386 C 2447.841 303.273 2429.396 298.434 2410.625 298.309 C 2397.348 298.309 2386.39 302.588 2386.39 311.985 C 2386.39 323.344 2400.469 328.822 2420.424 335.062 C 2454.455 345.62 2490.048 359.056 2490.048 399.046 C 2490.048 438.158 2458.374 462.033 2404.787 462.033 C 2373.072 462.033 2343.36 455.753 2320.805 437.758 L 2336.8 399.806 C 2357.557 414.283 2384.151 419.002 2402.147 419.002 C 2420.143 419.002 2431.101 414.283 2431.101 403.326 C 2431.101 392.368 2413.903 386.93 2393.149 381.05 C 2363.435 372.452 2327.443 358.337 2327.443 319.226 C 2327.443 280.113 2358.596 256.159 2408.667 256.159 C 2436.166 255.761 2463.153 263.638 2486.128 278.754 Z M 2675.486 400.807 L 2699.482 438.758 C 2674.332 454.462 2645.14 462.48 2615.499 461.833 C 2553.313 461.833 2516.521 425.44 2516.521 363.616 C 2516.521 296.349 2555.271 256.038 2621.378 256.038 C 2671.046 256.038 2700 281.073 2700 322.145 C 2700 361.655 2663.607 385.129 2602.984 385.129 C 2594.386 385.129 2585.786 384.371 2577.187 383.572 C 2581.467 404.325 2594.386 416.444 2619.82 416.444 C 2639.514 416.872 2658.894 411.428 2675.486 400.807 Z M 2575.51 349.539 C 2584.506 350.338 2593.505 350.737 2601.743 350.737 C 2626.777 350.737 2640.853 341.339 2640.853 324.904 C 2640.853 311.587 2631.456 302.988 2615.021 302.988 C 2593.305 302.988 2578.827 320.142 2575.709 349.539 L 2575.51 349.539 Z M 203.714 265.037 L 127.012 479.028 C 112.535 519.699 83.982 548.094 55.828 551.772 L 31.194 513.061 C 48.388 510.342 69.903 492.347 77.744 467.271 L 81.742 455.274 C 71.984 451.755 65.346 444.317 61.027 433 L 0 265.037 C 10.773 259.553 22.627 256.522 34.712 256.159 C 49.549 256.159 64.027 262.035 71.064 284.15 L 91.421 348.698 L 105.896 410.524 L 120.373 348.739 L 146.566 256.159 L 203.714 265.037 Z M 215.431 358.935 C 215.431 294.39 254.142 256.159 320.649 256.159 C 387.153 256.159 426.264 294.51 426.264 359.056 C 426.264 423.6 387.153 461.953 320.649 461.953 C 254.142 461.953 215.431 423.482 215.431 358.935 Z M 364.839 358.935 C 364.839 324.505 348.443 303.747 320.849 303.747 C 293.255 303.747 277.139 324.505 277.139 358.935 C 277.139 393.369 293.575 413.681 321.128 413.681 C 348.683 413.681 364.839 393.369 364.839 358.935 Z M 649.615 284.15 L 649.615 453.595 C 639.44 458.53 628.36 461.333 617.063 461.833 C 601.427 461.833 592.027 448.916 590.868 430.52 C 577.66 450.784 554.817 462.664 530.642 461.833 C 486.651 461.833 461.379 434.44 461.379 387.49 L 461.379 264.157 C 471.576 259.309 482.648 256.59 493.931 256.159 C 511.928 256.159 521.924 267.875 521.924 284.15 L 521.924 376.532 C 521.924 399.608 531.721 413.681 550.119 413.681 C 574.352 413.681 588.831 399.608 588.831 358.935 L 588.831 264.157 C 599.05 259.303 610.154 256.578 621.462 256.159 C 639.457 256.159 649.615 267.755 649.615 284.15 Z M 838.575 262.677 L 821.018 316.144 C 813.639 311.48 805.077 309.021 796.343 309.068 C 771.308 309.068 755.672 325.903 755.672 374.812 L 755.672 457.914 L 695.007 457.914 L 695.007 264.157 C 705.175 259.321 716.224 256.603 727.479 256.159 C 743.915 256.159 753.675 270.234 753.675 290.59 C 768.15 265.157 788.105 256.159 808.461 256.159 C 818.833 256.278 829.08 258.497 838.575 262.677 Z" style="pointer-events: none; visibility: hidden;">
        <title>YourSurprise</title>
    </path>
</svg>