<svg xmlns="http://www.w3.org/2000/svg" fill="currentColor" viewBox="0 0 104.79 56.01">
	<path d="M97.43 23.32c-1.11-.16-2.25-.16-3.36.02-3.47.56-5.07 2.32-6.29 4.72-.75 1.48-1.13 3.18-1.13 5.1 0 1.92.37 3.6 1.11 5.05.65 1.26 1.43 2.54 2.71 3.33 1.38.85 3.04 1.41 4.69 1.41 1.91 0 3.93-.64 5.5-1.65.32-.2 1.15-.87 1.15-1.18v1.81c0 .57.46 1.02 1.02 1.02h.94c.57 0 1.02-.46 1.02-1.02v-9.9c0-5.45-2.77-8.06-7.36-8.71zm2.75 14.94c-1.04 1.23-2.51 1.84-4.4 1.84-1.92 0-3.41-.61-4.48-1.82-1.07-1.22-1.61-2.92-1.61-5.12 0-2.23.53-3.96 1.61-5.22 1.07-1.25 2.55-1.88 4.44-1.88 1.92 0 3.4.61 4.44 1.82 1.04 1.22 1.57 2.95 1.57 5.2-.01 2.23-.53 3.95-1.57 5.18zM74.25 19.14c-.39-.21-.87-.13-1.19.17-.52.51-1.08.81-1.69.85-.66.04-1.47-.21-2.61-.84l-.95-.52c-1.48-.78-2.23-.98-3.07-.94-1.09.06-2.31.69-3.38 2.09-.39.5-.22 1.24.34 1.54l.24.13c.39.2.86.13 1.17-.17.51-.48 1.06-.78 1.65-.81.66-.04 1.45.25 2.58.84l1 .52c1.51.82 2.24 1.02 3.07.98 1.08-.06 2.35-.74 3.43-2.18.38-.5.21-1.23-.34-1.53l-.25-.13z"/>
    <path d="M80.2 19.78v13.83c0 3.14-2.29 5.95-5.41 6.25-3.59.35-6.61-2.47-6.61-5.99v-7.84c0-.57-.46-1.02-1.02-1.02h-1c-.57 0-1.02.46-1.02 1.02v7.52c0 4.6 3.3 8.71 7.86 9.3 5.52.71 10.25-3.59 10.25-8.98v-14.1c0-.57-.46-1.02-1.02-1.02h-1c-.57.01-1.03.46-1.03 1.03zM53.88 23.25c-1.11-.16-2.25-.16-3.35.02-3.47.56-5.07 2.32-6.29 4.72-.75 1.48-1.13 3.18-1.13 5.1 0 1.92.37 3.6 1.11 5.05.65 1.26 1.43 2.54 2.71 3.33 1.38.85 3.04 1.41 4.69 1.41 1.91 0 3.93-.64 5.5-1.65.32-.2 1.15-.87 1.15-1.18v9.37c0 .57.46 1.02 1.02 1.02h.94c.57 0 1.02-.46 1.02-1.02V31.95c-.01-5.44-2.78-8.05-7.37-8.7zm2.75 14.95c-1.04 1.23-2.51 1.84-4.4 1.84-1.92 0-3.41-.61-4.48-1.82-1.07-1.22-1.61-2.92-1.61-5.12 0-2.23.53-3.96 1.61-5.22C48.82 26.63 50.3 26 52.19 26c1.92 0 3.4.61 4.44 1.82 1.04 1.22 1.57 2.95 1.57 5.2 0 2.22-.52 3.95-1.57 5.18zM32.33 23.32c-1.11-.16-2.25-.16-3.36.02-3.47.56-5.07 2.32-6.29 4.72-.75 1.48-1.13 3.18-1.13 5.1 0 1.92.37 3.6 1.11 5.05.65 1.26 1.43 2.54 2.71 3.33 1.38.85 3.04 1.41 4.69 1.41 1.91 0 3.93-.64 5.5-1.65.32-.2 1.15-.87 1.15-1.18v1.81c0 .57.46 1.02 1.02 1.02h.94c.57 0 1.02-.46 1.02-1.02v-9.9c0-5.45-2.77-8.06-7.36-8.71zm2.75 14.94c-1.04 1.23-2.51 1.84-4.4 1.84-1.92 0-3.41-.61-4.48-1.82-1.07-1.22-1.61-2.92-1.61-5.12 0-2.23.53-3.96 1.61-5.22 1.07-1.25 2.55-1.88 4.44-1.88 1.92 0 3.4.61 4.44 1.82 1.04 1.22 1.57 2.95 1.57 5.2 0 2.23-.53 3.95-1.57 5.18zM10.78 23.32c-1.11-.16-2.25-.16-3.36.02-3.47.56-5.07 2.32-6.29 4.72C.38 29.53 0 31.23 0 33.15s.37 3.6 1.11 5.05c.65 1.26 1.43 2.54 2.71 3.33 1.38.85 3.04 1.41 4.69 1.41 1.91 0 3.93-.64 5.5-1.65.32-.2 1.15-.87 1.15-1.18v1.81c0 .57.46 1.02 1.02 1.02h.94c.57 0 1.02-.46 1.02-1.02v-9.9c0-5.44-2.77-8.05-7.36-8.7zm2.75 14.94c-1.04 1.23-2.51 1.84-4.4 1.84-1.92 0-3.41-.61-4.48-1.82-1.07-1.22-1.61-2.92-1.61-5.12 0-2.23.53-3.96 1.61-5.22 1.07-1.25 2.55-1.88 4.44-1.88 1.92 0 3.4.61 4.44 1.82 1.04 1.22 1.57 2.95 1.57 5.2 0 2.23-.53 3.95-1.57 5.18z"/>
</svg>