<svg xmlns="http://www.w3.org/2000/svg" fill="currentColor" viewBox="0 0 104.79 56.01"><path d="M104.79 32.03v9.9c0 .56-.45 1.02-1.02 1.02h-.94c-.56 0-1.02-.45-1.02-1.02v-1.81c0 .31-.83.98-1.15 1.18-1.57 1.01-3.59 1.65-5.5 1.65-1.65 0-3.31-.56-4.69-1.41-1.28-.79-2.06-2.07-2.71-3.33-.74-1.45-1.11-3.13-1.11-5.05s.38-3.62 1.13-5.1c1.22-2.4 2.82-4.16 6.29-4.72 1.11-.18 2.25-.18 3.36-.02 4.59.65 7.36 3.26 7.36 8.71Zm-3.04 1.05c0-2.25-.53-3.98-1.57-5.2-1.04-1.21-2.52-1.82-4.44-1.82-1.89 0-3.37.63-4.44 1.88-1.08 1.26-1.61 2.99-1.61 5.22 0 2.2.54 3.9 1.61 5.12 1.07 1.21 2.56 1.82 4.48 1.82 1.89 0 3.36-.61 4.4-1.84 1.04-1.23 1.56-2.95 1.57-5.18ZM74.5 19.27c.55.3.72 1.03.34 1.53-1.08 1.44-2.35 2.12-3.43 2.18-.83.04-1.56-.16-3.07-.98l-1-.52c-1.13-.59-1.92-.88-2.58-.84-.59.03-1.14.33-1.65.81-.31.3-.78.37-1.17.17l-.24-.13c-.56-.3-.73-1.04-.34-1.54 1.07-1.4 2.29-2.03 3.38-2.09.84-.04 1.59.16 3.07.94l.95.52c1.14.63 1.95.88 2.61.84.61-.04 1.17-.34 1.69-.85.32-.3.8-.38 1.19-.17Zm6.73-.52h1c.56 0 1.02.45 1.02 1.02v14.1c0 5.39-4.73 9.69-10.25 8.98-4.56-.59-7.86-4.7-7.86-9.3v-7.52c0-.56.45-1.02 1.02-1.02h1c.56 0 1.02.45 1.02 1.02v7.84c0 3.52 3.02 6.34 6.61 5.99 3.12-.3 5.41-3.11 5.41-6.25V19.78c0-.57.46-1.02 1.03-1.03Zm-19.98 13.2v17.47c0 .56-.45 1.02-1.02 1.02h-.94c-.56 0-1.02-.45-1.02-1.02v-9.37c0 .31-.83.98-1.15 1.18-1.57 1.01-3.59 1.65-5.5 1.65-1.65 0-3.31-.56-4.69-1.41-1.28-.79-2.06-2.07-2.71-3.33-.74-1.45-1.11-3.13-1.11-5.05s.38-3.62 1.13-5.1c1.22-2.4 2.82-4.16 6.29-4.72 1.1-.18 2.24-.18 3.35-.02 4.59.65 7.36 3.26 7.37 8.7Zm-3.05 1.07c0-2.25-.53-3.98-1.57-5.2-1.04-1.21-2.52-1.82-4.44-1.82-1.89 0-3.37.63-4.44 1.88-1.08 1.26-1.61 2.99-1.61 5.22 0 2.2.54 3.9 1.61 5.12 1.07 1.21 2.56 1.82 4.48 1.82 1.89 0 3.36-.61 4.4-1.84 1.05-1.23 1.57-2.96 1.57-5.18Zm-18.51-.99v9.9c0 .56-.45 1.02-1.02 1.02h-.94c-.56 0-1.02-.45-1.02-1.02v-1.81c0 .31-.83.98-1.15 1.18-1.57 1.01-3.59 1.65-5.5 1.65-1.65 0-3.31-.56-4.69-1.41-1.28-.79-2.06-2.07-2.71-3.33-.74-1.45-1.11-3.13-1.11-5.05s.38-3.62 1.13-5.1c1.22-2.4 2.82-4.16 6.29-4.72 1.11-.18 2.25-.18 3.36-.02 4.59.65 7.36 3.26 7.36 8.71Zm-3.04 1.05c0-2.25-.53-3.98-1.57-5.2-1.04-1.21-2.52-1.82-4.44-1.82-1.89 0-3.37.63-4.44 1.88-1.08 1.26-1.61 2.99-1.61 5.22 0 2.2.54 3.9 1.61 5.12 1.07 1.21 2.56 1.82 4.48 1.82 1.89 0 3.36-.61 4.4-1.84 1.04-1.23 1.57-2.95 1.57-5.18Zm-18.51-1.06v9.9c0 .56-.45 1.02-1.02 1.02h-.94c-.56 0-1.02-.45-1.02-1.02v-1.81c0 .31-.83.98-1.15 1.18-1.57 1.01-3.59 1.65-5.5 1.65-1.65 0-3.31-.56-4.69-1.41-1.28-.79-2.06-2.07-2.71-3.33C.37 36.75 0 35.07 0 33.15s.38-3.62 1.13-5.09c1.22-2.4 2.82-4.16 6.29-4.72 1.11-.18 2.25-.18 3.36-.02 4.59.65 7.36 3.26 7.36 8.7Zm-3.04 1.06c0-2.25-.53-3.98-1.57-5.2-1.04-1.21-2.52-1.82-4.44-1.82-1.89 0-3.37.63-4.44 1.88-1.08 1.26-1.61 2.99-1.61 5.22 0 2.2.54 3.9 1.61 5.12 1.07 1.21 2.56 1.82 4.48 1.82 1.89 0 3.36-.61 4.4-1.84 1.04-1.23 1.57-2.95 1.57-5.18Z"/></svg>