<svg xmlns="http://www.w3.org/2000/svg" fill="currentColor" viewBox="0 0 107 56"><path d="M17.03 38.56H8.27l-1.64 4.89H.16L8.63 20h8.39l8.47 23.45h-6.87l-1.59-4.89zm-1.53-4.82l-1.11-3.48c-.6-1.94-.64-4.33-.6-7.04h-2.11c.02 2.71-.06 5.08-.68 7.04l-1.17 3.48h5.67zm11.16 5.36c0-4.35 4.63-6.04 10.65-6.51v-.6c0-1.3-.75-2.07-2.39-2.07-1.83 0-2.75.9-3.07 2.37l-5.44-.9c.36-2.97 3.48-5.29 8.64-5.29 4.99 0 7.92 2.22 7.92 6.64v5.53c0 .81.13 1 .94 1h1.3v4.18h-2.65c-2.97 0-3.56-1.22-3.63-3.48H37.2c-.66 2.22-2.22 4.05-5.33 4.05-3.1.01-5.21-1.87-5.21-4.92zm10.67-2.44v-1.05c-2.77.34-4.93.98-4.93 2.88 0 1 .68 1.6 1.88 1.6 1.64.01 3.05-1.08 3.05-3.43zm21.72 9.71c0-3.39.85-4.99 1.66-6.36h-2.28c-.75 1.92-2.11 3.99-5.29 3.99-3.93 0-6.64-3.63-6.64-8.98s2.62-8.92 6.59-8.92c3.18 0 4.54 2.05 5.36 3.93h2.3c-.64-1-1.24-2.05-1.28-3.39h5.36V50h-5.78v-3.63zm.17-11.33c0-3.31-1.34-4.86-3.31-4.86-1.88 0-3.29 1.3-3.29 4.86s1.41 4.89 3.29 4.89c1.94.02 3.29-1.6 3.31-4.89zm9.37 2.93V26.64h5.89v10.18c0 1.88.9 2.69 2.18 2.69 1.88 0 2.69-1.69 2.69-3.95v-8.92h5.87v16.81h-5.36c0-1.05.51-2.35 1.41-3.76h-2.24c-.85 2.52-2.54 4.29-5.27 4.29-3.15.02-5.17-2.17-5.17-6.01zm19.69 1.13c0-4.35 4.63-6.04 10.65-6.51v-.6c0-1.3-.75-2.07-2.37-2.07-1.83 0-2.75.9-3.09 2.37l-5.42-.9c.36-2.97 3.48-5.29 8.64-5.29 4.99 0 7.92 2.22 7.92 6.64v5.53c0 .81.13 1 .94 1h1.3v4.18h-2.65c-2.97 0-3.54-1.22-3.63-3.48h-1.75c-.68 2.22-2.22 4.05-5.33 4.05-3.03.01-5.21-1.87-5.21-4.92zm10.65-2.44v-1.05c-2.78.35-4.93.99-4.93 2.89 0 1 .66 1.6 1.88 1.6 1.64 0 3.05-1.09 3.05-3.44z"/></svg>