<svg xmlns="http://www.w3.org/2000/svg" fill="currentColor" viewBox="0 0 1190 640"><path d="M695.441 335.539V533.91c0 6.42-5.212 11.63-11.631 11.63h-10.671c-6.417 0-11.632-5.21-11.632-11.63V427.455c0 3.533-9.385 11.092-13.021 13.419-17.818 11.401-40.766 18.71-62.426 18.71-18.775 0-37.591-6.313-53.247-15.99-14.518-8.951-23.387-23.489-30.738-37.775-8.432-16.365-12.628-35.47-12.628-57.299 0-21.847 4.279-41.141 12.854-57.941 13.938-27.268 32.067-47.207 71.484-53.601 12.586-2.056 25.504-1.975 38.109-.187 52.104 7.372 83.547 37.05 83.547 98.748Zm-34.515 12.109c0-25.565-5.919-45.253-17.776-59.064-11.84-13.788-28.661-20.704-50.444-20.704-21.496 0-38.297 7.125-50.445 21.368-12.17 14.267-18.234 34.019-18.234 59.293 0 24.983 6.064 44.38 18.234 58.19 12.148 13.809 29.116 20.703 50.899 20.703 21.475 0 38.129-6.976 49.968-20.93 11.859-13.936 17.778-33.562 17.798-58.856Zm185.122-156.005c6.292 3.343 8.183 11.651 3.905 17.34-12.317 16.344-26.75 24.068-39.003 24.734-9.468.499-17.734-1.848-34.869-11.131l-11.171-5.9c-12.917-6.729-21.911-9.968-29.345-9.573-6.73.354-12.98 3.677-18.796 9.161-3.59 3.384-8.928 4.174-13.311 1.888l-2.782-1.454c-6.376-3.321-8.288-11.754-3.884-17.444 12.232-15.804 26.042-23.03 38.42-23.696 9.468-.519 18.069 1.806 34.828 10.653l10.839 5.919c12.918 7.207 22.242 9.947 29.678 9.554 6.914-.353 13.228-3.845 19.17-9.596 3.589-3.49 9.052-4.297 13.475-1.952l2.846 1.497Zm76.382-5.898h11.318c6.418 0 11.632 5.21 11.632 11.629v160.117c0 61.159-53.685 110.027-116.402 101.968-51.838-6.666-89.303-53.309-89.303-105.581V268.48c0-6.416 5.214-11.628 11.631-11.628h11.316c6.42 0 11.633 5.212 11.633 11.628l-.021 88.992c0 39.915 34.389 71.959 75.115 67.991 35.493-3.446 61.494-35.347 61.494-71.003l-.022-157.108c0-6.415 5.211-11.629 11.609-11.607ZM205.992 336.246v112.436c0 6.416-5.214 11.629-11.627 11.629h-10.676c-6.417 0-11.631-5.213-11.631-11.629v-20.521c0 3.532-9.386 11.094-13.02 13.418-17.818 11.401-40.768 18.712-62.427 18.712-18.774 0-37.59-6.314-53.248-15.992-14.517-8.95-23.384-23.487-30.736-37.775C4.194 390.16 0 371.053 0 349.226c0-21.846 4.278-41.141 12.856-57.941 13.935-27.267 32.065-47.205 71.481-53.601 12.565-2.036 25.503-1.952 38.108-.166 52.087 7.373 83.526 37.049 83.547 98.728Zm-34.534 12.149c0-25.564-5.941-45.253-17.781-59.061-11.835-13.79-28.656-20.708-50.442-20.708-21.473 0-38.296 7.125-50.444 21.372-12.169 14.267-18.234 34.017-18.234 59.29 0 24.985 6.065 44.38 18.234 58.19 12.148 13.811 29.117 20.704 50.9 20.704 21.476 0 38.132-6.976 49.969-20.933 11.857-13.954 17.775-33.578 17.798-58.854Zm279.28-12.149v112.436c0 6.416-5.214 11.629-11.629 11.629h-10.674c-6.419 0-11.63-5.213-11.63-11.629v-20.521c0 3.532-9.387 11.094-13.022 13.418-17.818 11.401-40.767 18.712-62.428 18.712-18.773 0-37.589-6.314-53.249-15.992-14.513-8.95-23.383-23.487-30.734-37.775-8.43-16.364-12.627-35.471-12.627-57.298 0-21.846 4.278-41.141 12.855-57.941 13.935-27.267 32.063-47.205 71.482-53.601 12.565-2.036 25.504-1.952 38.109-.166 52.082 7.373 83.526 37.049 83.547 98.728Zm-34.534 12.149c0-25.564-5.942-45.253-17.778-59.061-11.839-13.79-28.66-20.708-50.446-20.708-21.474 0-38.294 7.125-50.445 21.372-12.168 14.267-18.233 34.017-18.233 59.29 0 24.985 6.065 44.38 18.233 58.19 12.151 13.811 29.118 20.704 50.903 20.704 21.473 0 38.128-6.976 49.966-20.933 11.837-13.954 17.778-33.578 17.8-58.854ZM1190 336.246v112.436c0 6.416-5.214 11.629-11.63 11.629h-10.676c-6.417 0-11.63-5.213-11.63-11.629v-20.521c0 3.532-9.388 11.094-13.022 13.418-17.817 11.401-40.764 18.712-62.425 18.712-18.774 0-37.588-6.314-53.248-15.992-14.518-8.95-23.385-23.487-30.737-37.775-8.432-16.364-12.626-35.471-12.626-57.298 0-21.846 4.277-41.141 12.855-57.941 13.934-27.267 32.065-47.205 71.482-53.601 12.564-2.036 25.502-1.952 38.108-.166 52.086 7.373 83.526 37.049 83.549 98.728Zm-34.539 12.149c0-25.564-5.935-45.253-17.776-59.061-11.838-13.79-28.66-20.708-50.443-20.708-21.473 0-38.296 7.125-50.447 21.372-12.167 14.267-18.233 34.017-18.233 59.29 0 24.985 6.066 44.38 18.233 58.19 12.151 13.811 29.118 20.704 50.904 20.704 21.472 0 38.129-6.976 49.964-20.933 11.842-13.954 17.777-33.578 17.798-58.854Z"/></svg>