<svg xmlns="http://www.w3.org/2000/svg" fill="currentColor" viewBox="0 0 163 56">
  <path d="M36.8 16.15L34.99 13l-14.62 8.42V13h-3.64v10.52L.28 33l16.44 9.47V53h3.64v-8.42L34.99 53l1.83-3.15-16.45-9.48V25.62l16.43-9.47zM16.72 38.28L7.56 33l9.16-5.27v10.55zm51.93-6.33c-.65-1.62-1.29-3.17-1.92-4.63-.64-1.47-1.29-2.91-1.97-4.34h-3.48c-.67 1.43-1.33 2.88-1.97 4.34s-1.28 3.01-1.92 4.62-1.31 3.33-1.98 5.15c-.67 1.82-1.39 3.79-2.14 5.92h3.79l.82-2.33c.28-.78.56-1.57.83-2.38h8.47c.28.81.55 1.6.84 2.37.29.77.57 1.55.84 2.34h3.94c-.75-2.14-1.47-4.12-2.16-5.93-.68-1.8-1.34-3.51-1.99-5.13zm-9.01 3.41c.62-1.72 1.21-3.31 1.78-4.77.57-1.47 1.08-2.71 1.53-3.73.43.98.93 2.22 1.51 3.7s1.18 3.08 1.79 4.8h-6.61zm19.42 4.35c-.17-.2-.29-.45-.36-.73-.07-.29-.1-.65-.1-1.07V20.58l-3.51.57v17.41c0 .75.08 1.42.25 2.01.17.59.45 1.08.86 1.47.41.39.95.7 1.63.91.68.21 1.55.33 2.59.35l.49-2.89c-.47-.06-.84-.14-1.14-.24-.3-.1-.53-.26-.71-.46zM95.33 29.7c-.67-.68-1.47-1.21-2.42-1.57-.95-.37-2.02-.55-3.22-.55-1.16 0-2.26.08-3.3.26-1.04.17-1.93.36-2.63.55v19.98h3.51V42.5c.38.21.88.41 1.47.58.6.17 1.26.26 1.97.26 1.06 0 2.02-.19 2.85-.58.84-.38 1.54-.92 2.1-1.62.56-.69.99-1.53 1.29-2.48.3-.97.45-2.02.45-3.18 0-1.22-.17-2.31-.53-3.28-.37-.98-.87-1.81-1.54-2.5zm-2.41 9.33c-.59.87-1.53 1.3-2.8 1.3-.58 0-1.12-.09-1.63-.28-.52-.18-.93-.38-1.23-.59v-8.64c.35-.09.7-.16 1.06-.18.36-.03.7-.04 1.03-.04 1.57 0 2.7.43 3.4 1.3.71.87 1.06 2.08 1.06 3.64-.01 1.45-.3 2.62-.89 3.49zm19.43-9.53c-.48-.61-1.13-1.08-1.92-1.42-.8-.33-1.81-.51-3.03-.51-.5 0-1.01.05-1.52.15s-.96.21-1.35.34v-7.48l-3.51.57v21.86h3.51V30.99c.23-.08.59-.16 1.08-.26.48-.1.96-.15 1.42-.15.6 0 1.1.08 1.51.25.41.16.72.43.97.78.24.36.42.83.53 1.39s.16 1.26.16 2.07v7.95h3.51v-8.5c0-1.04-.1-1.98-.3-2.83-.24-.85-.58-1.58-1.06-2.19zm15.4-.33c-.48-.52-1.11-.93-1.9-1.22s-1.77-.43-2.92-.43c-.97 0-1.88.08-2.72.23-.85.16-1.49.31-1.94.47l.43 2.83c.42-.16.97-.29 1.65-.41.67-.12 1.42-.17 2.23-.17.6 0 1.09.08 1.49.23.39.16.72.38.96.65.24.28.41.6.51.97.1.37.14.75.14 1.16v.58c-.48-.12-.93-.2-1.36-.25-.42-.05-.83-.07-1.22-.07-.83 0-1.62.08-2.39.24-.77.17-1.43.43-2.02.81-.57.38-1.03.87-1.37 1.46-.34.6-.51 1.33-.51 2.19 0 .91.15 1.67.45 2.28.3.62.72 1.12 1.25 1.5s1.18.67 1.93.84c.75.17 1.58.26 2.49.26 1.37 0 2.6-.08 3.69-.24 1.09-.17 1.91-.3 2.45-.42v-9.17c0-.88-.1-1.7-.3-2.44-.22-.72-.55-1.36-1.02-1.88zm-2.08 11.22c-.56.12-1.38.17-2.46.17-.89 0-1.59-.16-2.12-.47-.53-.32-.78-.89-.78-1.72 0-.43.1-.78.29-1.06.19-.28.45-.5.77-.65.32-.16.67-.26 1.07-.32s.78-.08 1.18-.08c.44 0 .85.02 1.22.08s.65.12.84.17l-.01 3.88zm14.6-17.41h3.65v20.04h-3.65V22.98zm6.43 0v3.15h6.17v16.88h3.68V26.13h6.17v-3.15H146.7z"/>
</svg>
