<svg xmlns="http://www.w3.org/2000/svg" fill="currentColor" viewBox="0 0 2112 640"><path d="M474.76 109.451 451.23 68.5 261.17 177.96V68.5h-47.319v136.76L0 328.499l213.72 123.112V588.5h47.32V479.04L451.23 588.5l23.79-40.95-213.85-123.24V232.56l213.59-123.109ZM213.72 397.14 94.64 328.499l119.08-68.509v137.15Zm675.091-82.289c-8.451-21.06-16.771-41.211-24.96-60.191-8.32-19.11-16.771-37.829-25.612-56.42h-45.238c-8.71 18.591-17.29 37.44-25.61 56.42-8.321 18.98-16.64 39.131-24.96 60.06-8.32 20.93-17.031 43.291-25.739 66.951-8.712 23.659-18.072 49.269-27.821 76.96h49.269l10.66-30.291c3.64-10.14 7.28-20.409 10.79-30.94H869.7c3.639 10.531 7.151 20.8 10.92 30.81a1037.32 1037.32 0 0 1 10.92 30.421h51.22c-9.749-27.821-19.111-53.56-28.081-77.092-8.839-23.399-17.419-45.628-25.868-66.688ZM771.68 359.18c8.059-22.36 15.731-43.03 23.14-62.01 7.41-19.11 14.04-35.231 19.891-48.49 5.589 12.74 12.089 28.86 19.628 48.1a2034.897 2034.897 0 0 1 23.271 62.4h-85.93Zm252.46 56.551c-2.21-2.601-3.77-5.851-4.68-9.491-.909-3.768-1.3-8.449-1.3-13.909V167.04l-45.629 7.41v226.33c0 9.751 1.04 18.459 3.249 26.131 2.211 7.669 5.851 14.041 11.18 19.109 5.33 5.071 12.349 9.1 21.191 11.831 8.84 2.729 20.148 4.288 33.669 4.548l6.371-37.569c-6.111-.779-10.921-1.818-14.821-3.119-3.901-1.299-6.891-3.38-9.23-5.98ZM1235.651 285.6c-8.711-8.84-19.111-15.729-31.46-20.409-12.351-4.811-26.26-7.151-41.86-7.151-15.08 0-29.381 1.04-42.9 3.38-13.521 2.211-25.091 4.68-34.192 7.151V528.31h45.631V452c4.941 2.731 11.44 5.331 19.109 7.54 7.8 2.21 16.382 3.379 25.611 3.379 13.781 0 26.261-2.467 37.05-7.539 10.919-4.94 20.02-11.961 27.3-21.061 7.28-8.969 12.872-19.888 16.771-32.24 3.899-12.608 5.848-26.259 5.848-41.339 0-15.86-2.208-30.03-6.889-42.64-4.81-12.74-11.31-23.53-20.019-32.5Zm-31.332 121.291c-7.667 11.309-19.889 16.899-36.399 16.899-7.541 0-14.56-1.17-21.189-3.639-6.76-2.34-12.091-4.941-15.991-7.671V300.16c4.55-1.17 9.101-2.08 13.779-2.34 4.681-.389 9.101-.52 13.391-.52 20.41 0 35.1 5.591 44.2 16.9 9.23 11.311 13.782 27.04 13.782 47.32-.132 18.852-3.902 34.06-11.573 45.371ZM1456.911 283c-6.241-7.93-14.691-14.04-24.96-18.46-10.401-4.289-23.531-6.629-39.392-6.629-6.498 0-13.128.649-19.76 1.949-6.629 1.3-12.479 2.731-17.549 4.42v-97.24l-45.63 7.41v284.181h45.63v-156.26c2.989-1.04 7.67-2.08 14.041-3.381 6.24-1.3 12.479-1.95 18.459-1.95 7.801 0 14.301 1.04 19.63 3.251 5.33 2.08 9.359 5.589 12.611 10.14 3.12 4.679 5.46 10.788 6.889 18.068 1.431 7.281 2.078 16.381 2.078 26.912V458.76h45.632v-110.5c0-13.52-1.3-25.74-3.9-36.789-3.119-11.051-7.539-20.541-13.779-28.471Zm200.2-4.29c-6.241-6.76-14.432-12.09-24.702-15.859-10.27-3.771-23.01-5.591-37.959-5.591-12.61 0-24.439 1.04-35.359 2.991-11.052 2.08-19.37 4.029-25.221 6.109l5.59 36.791c5.459-2.08 12.611-3.771 21.45-5.331 8.709-1.56 18.46-2.21 28.989-2.21 7.801 0 14.172 1.04 19.372 2.989 5.069 2.081 9.36 4.941 12.48 8.452 3.118 3.639 5.328 7.8 6.628 12.609 1.301 4.811 1.821 9.751 1.821 15.08v7.54c-6.241-1.56-12.09-2.6-17.68-3.249-5.461-.651-10.789-.911-15.86-.911-10.79 0-21.06 1.04-31.069 3.12-10.011 2.211-18.592 5.591-26.261 10.53-7.411 4.94-13.391 11.31-17.81 18.98-4.42 7.801-6.63 17.29-6.63 28.47 0 11.831 1.95 21.712 5.85 29.64 3.899 8.06 9.359 14.559 16.251 19.5 6.888 4.94 15.339 8.712 25.089 10.92 9.75 2.212 20.539 3.379 32.37 3.379 17.81 0 33.801-1.039 47.969-3.119 14.172-2.209 24.832-3.9 31.852-5.46V334.871c0-11.44-1.301-22.1-3.902-31.72-2.859-9.36-7.151-17.68-13.258-24.441Zm-27.04 145.861c-7.28 1.559-17.94 2.208-31.98 2.208-11.572 0-20.671-2.08-27.56-6.108-6.892-4.159-10.141-11.571-10.141-22.36 0-5.591 1.302-10.141 3.769-13.779 2.472-3.64 5.852-6.501 10.012-8.452 4.159-2.081 8.708-3.38 13.908-4.16 5.202-.78 10.141-1.04 15.34-1.04 5.72 0 11.051.26 15.862 1.04 4.81.78 8.45 1.56 10.919 2.21l-.129 50.441Zm189.8-226.331h47.449v260.52h-47.449V198.24Zm83.589 0v40.951h80.21v219.44h47.841v-219.44h80.209V198.24h-208.26Z"/></svg>