<svg xmlns="http://www.w3.org/2000/svg" fill="currentColor" viewBox="0 0 1925 560"><path d="M480.61 43.8v137.311L78.378 334.251v52.11l-64.577 24.42V43.8H480.61Zm78.378 122.27v366.951H92.2v-189.3L558.988 166.07ZM1924.88 545.981a35.38 35.38 0 0 1-18.412 3.96c-5.76.3-11.391-1.68-15.701-5.521a24.066 24.066 0 0 1-5.861-18.139 61.165 61.165 0 0 1-24.393 18.139 84.233 84.233 0 0 1-49.975 3.121c-5.87-1.39-11.401-3.951-16.292-7.49a36.21 36.21 0 0 1-10.671-13.4 52.241 52.241 0 0 1 .47-41.411 39.444 39.444 0 0 1 11.812-13.819 53.867 53.867 0 0 1 16.751-7.91 258.26 258.26 0 0 1 39.214-7.731 111.689 111.689 0 0 0 16.632-2.989 27.359 27.359 0 0 0 11.361-5.701 13.764 13.764 0 0 0 4.191-10.92c.2-4.679-.88-9.36-3.15-13.479a21.699 21.699 0 0 0-8.081-7.78 32.685 32.685 0 0 0-11.051-3.59 79.834 79.834 0 0 0-12.152-.86 53.612 53.612 0 0 0-26.923 6.099c-7.18 4.121-11.081 11.79-11.701 23.021h-25.442a54.73 54.73 0 0 1 6.03-24.25 45.39 45.39 0 0 1 14.362-16.021 60.124 60.124 0 0 1 20.482-8.84 109.28 109.28 0 0 1 24.713-2.66c6.96 0 13.901.5 20.802 1.47 6.55.9 12.861 2.981 18.693 6.131a35.948 35.948 0 0 1 13.49 13.019 41.573 41.573 0 0 1 5.1 21.761v79.49c-.15 4.379.201 8.79 1.002 13.11.709 2.8 3.049 4.18 7.059 4.18a25.39 25.39 0 0 0 7.761-1.47l-.12 20.48Zm-41.424-79.571a32.315 32.315 0 0 1-12.561 5.251 184.307 184.307 0 0 1-16.362 2.71 454.233 454.233 0 0 0-17.212 2.399 62.769 62.769 0 0 0-15.551 4.321 28.359 28.359 0 0 0-11.232 8.52c-3.09 4.41-4.63 9.74-4.31 15.129-.13 3.711.75 7.391 2.52 10.65a21.46 21.46 0 0 0 6.581 7.031c2.8 1.839 5.93 3.15 9.211 3.86 3.73.82 7.541 1.21 11.361 1.21 7.331.18 14.641-.99 21.552-3.461a44.568 44.568 0 0 0 14.672-8.64 35.17 35.17 0 0 0 8.391-11.38 29.21 29.21 0 0 0 2.71-11.549l.23-26.051Zm-154.786 80.221v-20.94h-.6a37.212 37.212 0 0 1-19.742 18.409 74.425 74.425 0 0 1-29.644 5.691 69.83 69.83 0 0 1-31.303-6.571 64.459 64.459 0 0 1-22.132-17.669 76.514 76.514 0 0 1-13.341-25.72 105.141 105.141 0 0 1-4.6-31.16 109.033 109.033 0 0 1 4.31-31.111 72.973 72.973 0 0 1 13.171-25.589 63.36 63.36 0 0 1 22.192-17.34 70.351 70.351 0 0 1 30.973-6.451c4.301.03 8.591.44 12.832 1.19 4.73.84 9.361 2.211 13.802 4.051a58.965 58.965 0 0 1 13.161 7.59c4.15 3.18 7.67 7.079 10.361 11.56h.6V332.95h25.452v213.681h-25.492Zm-91.46-54.9a56.146 56.146 0 0 0 8.712 18.41 42.063 42.063 0 0 0 14.951 12.87 45.518 45.518 0 0 0 21.402 4.61c14.521.59 28.343-6.35 36.504-18.39a56.083 56.083 0 0 0 8.231-18.74 91.191 91.191 0 0 0 0-43.261 55.179 55.179 0 0 0-8.521-18.69 44.004 44.004 0 0 0-15.142-13.029 46.977 46.977 0 0 0-22.452-4.93 44.133 44.133 0 0 0-21.813 5.08 40.096 40.096 0 0 0-14.411 13.489 58.117 58.117 0 0 0-7.921 19.27c-1.61 7.26-2.4 14.691-2.39 22.151 0 7.14.96 14.259 2.85 21.16Zm-70.047 45.06a70.258 70.258 0 0 1-43.735 13.15c-11.031.29-22.002-1.77-32.203-5.981a63.829 63.829 0 0 1-23.022-16.749 71.214 71.214 0 0 1-13.802-25.78 122.231 122.231 0 0 1-5.24-32.62 93.618 93.618 0 0 1 5.38-32.231 77.366 77.366 0 0 1 15.142-25.439 68.366 68.366 0 0 1 23.012-16.75 70.244 70.244 0 0 1 29.173-5.981 63.759 63.759 0 0 1 34.294 8.5c8.851 5.491 16.341 12.91 21.863 21.73a87.439 87.439 0 0 1 11.38 28.71c2.02 9.76 2.86 19.7 2.52 29.64h-115.802a61.367 61.367 0 0 0 2.401 19.3 43.634 43.634 0 0 0 8.701 16.201 43.135 43.135 0 0 0 15.271 11.229 52.997 52.997 0 0 0 21.812 4.171 44.091 44.091 0 0 0 26.523-7.48c7.332-5.541 12.251-13.69 13.792-22.74h25.132a61.95 61.95 0 0 1-22.592 39.12Zm-6.181-99.411a43.61 43.61 0 0 0-9.191-13.809 43.994 43.994 0 0 0-31.293-12.62 45.134 45.134 0 0 0-17.822 3.42 40.975 40.975 0 0 0-13.791 9.43 44.15 44.15 0 0 0-8.99 13.809 53.35 53.35 0 0 0-3.902 16.891h88.91a52.523 52.523 0 0 0-3.921-17.121Zm-174.098-45.479v32.63h.6a68.684 68.684 0 0 1 22.733-27.841 57.076 57.076 0 0 1 34.153-8.38v26.931a72.444 72.444 0 0 0-26.053 4.179 41.298 41.298 0 0 0-17.361 12.291 50.97 50.97 0 0 0-9.621 19.6 105.749 105.749 0 0 0-2.981 26.46v69.04h-25.411v-154.91h23.941Zm-127.223-58.951c5.301 0 10.501.411 15.702.891 4.88.47 9.731 1.22 14.551 2.23a37.9 37.9 0 0 1 11.501 4.609 55.826 55.826 0 0 1 17.822 17.35 48.445 48.445 0 0 1 7.301 27.261 51.885 51.885 0 0 1-8.191 29.44 48.531 48.531 0 0 1-23.522 18.41v.6a49.169 49.169 0 0 1 30.243 17.99 53.584 53.584 0 0 1 10.671 33.509 63.665 63.665 0 0 1-4.591 23.011 55.786 55.786 0 0 1-12.421 19.62 62.194 62.194 0 0 1-20.342 13.79 69.772 69.772 0 0 1-28.003 5.2h-103.09V332.95h92.369Zm-7.031 92.041c16.162 0 27.613-2.8 34.884-8.501a30.875 30.875 0 0 0 10.631-25.599 37.9 37.9 0 0 0-3.589-17.94c-2.262-4.261-5.712-7.78-9.891-10.17a38.747 38.747 0 0 0-14.553-4.611 141.792 141.792 0 0 0-17.482-1.039h-56.896v67.92l56.896-.06Zm14.352 97.9a41.295 41.295 0 0 0 29.523-10.17 36.776 36.776 0 0 0 8.291-12.93 36.675 36.675 0 0 0 2.33-15.201 35.04 35.04 0 0 0-3.931-17.39c-2.46-4.429-6-8.189-10.301-10.9a43.653 43.653 0 0 0-14.821-5.719 94.45 94.45 0 0 0-17.342-1.61h-64.997v73.92h71.248Zm-258.337-130.99v24.539h.61c10.571-18.72 27.343-28.11 50.295-28.11a66.69 66.69 0 0 1 25.453 4.161 42.092 42.092 0 0 1 16.431 11.7 42.752 42.752 0 0 1 8.841 17.82 95.175 95.175 0 0 1 2.571 23v101.75h-25.633v-104.87c.45-8.41-2.6-16.64-8.381-22.741a31.094 31.094 0 0 0-23.002-8.369 52.207 52.207 0 0 0-20.222 3.58 37.384 37.384 0 0 0-14.222 10.17 43.944 43.944 0 0 0-8.511 15.42 61.578 61.578 0 0 0-2.84 19.29v87.43h-25.443v-154.77h24.053Zm-43.725 154.08c-5.68 2.93-12.011 4.31-18.402 3.96-5.76.3-11.421-1.68-15.751-5.521a24.128 24.128 0 0 1-5.801-18.139 61.39 61.39 0 0 1-24.442 18.139 84.242 84.242 0 0 1-49.976 3.121 46.503 46.503 0 0 1-16.291-7.49 35.318 35.318 0 0 1-10.771-13.4 44.703 44.703 0 0 1-4.051-19.93 45.821 45.821 0 0 1 4.591-21.531 39.992 39.992 0 0 1 11.831-13.809 54.14 54.14 0 0 1 16.762-7.91 233.92 233.92 0 0 1 19.342-4.6c6.58-1.291 13.791-2.441 19.872-3.141 5.61-.58 11.171-1.559 16.611-2.989 4.201-.97 8.101-2.94 11.422-5.711a13.7 13.7 0 0 0 4.2-10.9c.2-4.709-.899-9.38-3.18-13.479a21.916 21.916 0 0 0-8.061-7.8 33.116 33.116 0 0 0-11.101-3.56c-4.011-.6-8.06-.88-12.102-.88a53.684 53.684 0 0 0-26.962 6.109c-7.181 4.111-11.071 11.78-11.652 23.011h-25.441a54.577 54.577 0 0 1 5.979-24.25 45.775 45.775 0 0 1 14.362-16.031 60.794 60.794 0 0 1 20.522-8.81 108.4 108.4 0 0 1 24.673-2.69c6.96.02 13.921.51 20.802 1.49a55.16 55.16 0 0 1 18.732 6.111 35.812 35.812 0 0 1 13.431 13.029 41.413 41.413 0 0 1 5.121 21.771v79.48c-.16 4.389.19 8.79 1.05 13.12.68 2.8 3.04 4.19 6.99 4.19 2.681-.1 5.321-.59 7.831-1.48l-.14 20.52Zm-41.414-79.571a31.79 31.79 0 0 1-12.581 5.251 183.542 183.542 0 0 1-16.332 2.71 451.422 451.422 0 0 0-17.212 2.399 63.644 63.644 0 0 0-15.551 4.321 28.227 28.227 0 0 0-11.232 8.52 23.969 23.969 0 0 0-4.34 15.139c-.11 3.701.75 7.381 2.54 10.64a21.577 21.577 0 0 0 6.581 7.031 27.45 27.45 0 0 0 9.451 3.86 53.52 53.52 0 0 0 11.351 1.21 60.712 60.712 0 0 0 21.582-3.461 44.177 44.177 0 0 0 14.652-8.64 33.986 33.986 0 0 0 8.361-11.38 28.08 28.08 0 0 0 2.73-11.549V466.41Zm-204.491 80.221L643.907 332.95H674.4l61.086 185.301h.591l61.676-185.301h29.643l-76.158 213.681h-32.223ZM1193.614 31.25v126.61l70.647-67.68h34.124l-61.356 56.3 65.796 98.48h-32.203l-52.985-80.8-23.923 22.13v58.67h-25.453V31.25h25.353Zm-163.056 58.93v24.54h.599c10.581-18.74 27.353-28.13 50.305-28.13a66.66 66.66 0 0 1 25.393 4.2 41.326 41.326 0 0 1 16.482 11.691c4.29 5.169 7.301 11.269 8.841 17.829 1.78 7.51 2.62 15.25 2.54 23V245.1h-25.403V140.07a30.791 30.791 0 0 0-8.441-22.73 31.09 31.09 0 0 0-23.012-8.36 51.49 51.49 0 0 0-20.202 3.591 37.345 37.345 0 0 0-14.212 10.16 43.227 43.227 0 0 0-8.56 15.409 62.809 62.809 0 0 0-2.861 19.35v87.43h-25.412V90.18h23.943Zm-43.765 154.14a35.576 35.576 0 0 1-18.412 3.911 21.952 21.952 0 0 1-15.701-5.521c-4.361-4.989-6.492-11.53-5.852-18.14a60.816 60.816 0 0 1-24.382 18.14 84.598 84.598 0 0 1-49.985 3.14c-5.881-1.44-11.422-3.95-16.352-7.469a36.778 36.778 0 0 1-10.891-13.351 44.693 44.693 0 0 1-4.051-19.88 45.667 45.667 0 0 1 4.591-21.58c2.8-5.47 6.861-10.2 11.831-13.799 5.091-3.581 10.771-6.241 16.753-7.92a256.864 256.864 0 0 1 39.224-7.781c5.61-.57 11.16-1.56 16.601-2.999a27.61 27.61 0 0 0 11.381-5.651c2.96-2.84 4.48-6.86 4.17-10.95.24-4.68-.85-9.33-3.119-13.44-1.951-3.29-4.762-5.98-8.112-7.83a32.413 32.413 0 0 0-11.031-3.58c-4.02-.58-8.081-.88-12.151-.88a53.964 53.964 0 0 0-26.933 6.11c-7.171 4.1-11.071 11.77-11.681 23.01h-25.453c.12-8.43 2.16-16.71 5.981-24.24A45.23 45.23 0 0 1 867.62 97.6a61.243 61.243 0 0 1 20.502-8.79 109.116 109.116 0 0 1 24.703-2.71c6.961 0 13.911.52 20.802 1.52a54.108 54.108 0 0 1 18.723 6.43 35.746 35.746 0 0 1 13.49 13c3.671 6.65 5.411 14.21 5.081 21.8v79.451c-.15 4.409.2 8.809 1.051 13.149.699 2.75 3.059 4.13 7.03 4.13 2.651-.06 5.29-.55 7.791-1.46v20.2Zm-41.425-79.58a31.124 31.124 0 0 1-12.61 5.201 180.899 180.899 0 0 1-16.293 2.709c-5.76.7-11.501 1.5-17.222 2.41a64.538 64.538 0 0 0-15.541 4.331 28.279 28.279 0 0 0-11.241 8.549 23.723 23.723 0 0 0-4.341 15.11 20.873 20.873 0 0 0 9.341 17.7 27.553 27.553 0 0 0 9.221 3.87c3.721.84 7.541 1.24 11.361 1.21 7.321.15 14.632-1 21.543-3.42a45.181 45.181 0 0 0 14.821-8.69 34.379 34.379 0 0 0 8.382-11.38 28.848 28.848 0 0 0 2.709-11.549l-.13-26.051ZM746.948 31.25c5.29 0 10.491.4 15.691.92 4.891.44 9.741 1.19 14.532 2.2 4.08.88 7.981 2.44 11.511 4.59 7.161 4.39 13.261 10.3 17.812 17.36a48.423 48.423 0 0 1 7.331 27.251 52.039 52.039 0 0 1-8.241 29.489 48.57 48.57 0 0 1-23.483 18.431v.59a49.075 49.075 0 0 1 30.243 17.939 53.842 53.842 0 0 1 10.452 33.5 64.07 64.07 0 0 1-4.191 22.79 56.363 56.363 0 0 1-12.421 19.59 62.187 62.187 0 0 1-20.342 13.821 69.728 69.728 0 0 1-27.983 5.239H654.578V31.25h92.37Zm-7.041 92.04c16.142 0 27.623-2.86 34.844-8.57a30.774 30.774 0 0 0 10.631-25.59c.29-6.179-.94-12.35-3.591-17.94a25.253 25.253 0 0 0-9.841-10.16 38.748 38.748 0 0 0-14.551-4.61 136.318 136.318 0 0 0-17.492-1.05h-56.886v67.97l56.886-.05Zm14.361 97.84a40.831 40.831 0 0 0 29.493-10.17 37.097 37.097 0 0 0 10.642-28.13 34.72 34.72 0 0 0-3.921-17.34c-2.45-4.469-6-8.24-10.311-10.95a44.377 44.377 0 0 0-14.811-5.67 89.134 89.134 0 0 0-17.392-1.66h-64.947v73.92h71.247Z"/></svg>