<svg xmlns="http://www.w3.org/2000/svg" fill="currentColor" viewBox="0 0 1925 640"><path d="m78.372 416.869-64.56 24.412V74.313h466.742v137.302L78.372 364.744v52.125Zm480.554-220.293v366.936H92.184V374.217l466.742-177.641ZM1924.67 576.479a35.49 35.49 0 0 1-18.411 3.965 21.924 21.924 0 0 1-15.697-5.525 24.07 24.07 0 0 1-5.85-18.135 61.229 61.229 0 0 1-24.392 18.135 84.266 84.266 0 0 1-49.967 3.12 45.942 45.942 0 0 1-16.298-7.491 36.189 36.189 0 0 1-10.677-13.39 52.345 52.345 0 0 1 .472-41.421 39.53 39.53 0 0 1 11.813-13.813 53.595 53.595 0 0 1 16.754-7.913 257.76 257.76 0 0 1 39.21-7.735 111.178 111.178 0 0 0 16.623-2.99 27.12 27.12 0 0 0 11.359-5.704 13.713 13.713 0 0 0 4.193-10.902 25.85 25.85 0 0 0-3.137-13.488 21.872 21.872 0 0 0-8.092-7.783 32.83 32.83 0 0 0-11.05-3.592 82.364 82.364 0 0 0-12.155-.861 53.627 53.627 0 0 0-26.908 6.11c-7.183 4.111-11.083 11.781-11.7 23.01h-25.448a54.762 54.762 0 0 1 6.029-24.245 45.512 45.512 0 0 1 14.365-16.022 60.13 60.13 0 0 1 20.475-8.84 109.804 109.804 0 0 1 24.714-2.665c6.955.016 13.91.503 20.8 1.478a54.746 54.746 0 0 1 18.688 6.127 35.876 35.876 0 0 1 13.487 13.016 41.513 41.513 0 0 1 5.103 21.775v79.477a60.24 60.24 0 0 0 1.007 13.114c.699 2.795 3.039 4.176 7.053 4.176a25.845 25.845 0 0 0 7.767-1.463l-.13 20.475Zm-41.421-79.576a32.013 32.013 0 0 1-12.561 5.249 183.531 183.531 0 0 1-16.348 2.714 469.382 469.382 0 0 0-17.207 2.405 62.306 62.306 0 0 0-15.551 4.322 28.012 28.012 0 0 0-11.229 8.515 23.92 23.92 0 0 0-4.322 15.129 20.721 20.721 0 0 0 2.519 10.644 21.625 21.625 0 0 0 6.581 7.036 27.58 27.58 0 0 0 9.214 3.867 53.376 53.376 0 0 0 11.358 1.203 59.676 59.676 0 0 0 21.546-3.461 44.384 44.384 0 0 0 14.674-8.645 34.693 34.693 0 0 0 8.385-11.375 29.022 29.022 0 0 0 2.714-11.554l.227-26.049Zm-154.763 80.226v-20.946h-.601a37.194 37.194 0 0 1-19.742 18.411 74.753 74.753 0 0 1-29.64 5.704 69.821 69.821 0 0 1-31.298-6.581 64.463 64.463 0 0 1-22.132-17.664 76.806 76.806 0 0 1-13.342-25.724 105.523 105.523 0 0 1-4.597-31.167 108.323 108.323 0 0 1 4.321-31.101 72.939 72.939 0 0 1 13.163-25.594 63.5 63.5 0 0 1 22.181-17.338 70.456 70.456 0 0 1 30.972-6.452c4.307.033 8.597.439 12.838 1.203a64.948 64.948 0 0 1 13.796 4.046 58.238 58.238 0 0 1 13.163 7.589 41.635 41.635 0 0 1 10.365 11.554h.585V363.46h25.464v213.669h-25.496Zm-91.453-54.908a56.25 56.25 0 0 0 8.71 18.411 42.32 42.32 0 0 0 14.95 12.886 45.533 45.533 0 0 0 21.401 4.599 41.987 41.987 0 0 0 36.497-18.395 55.926 55.926 0 0 0 8.239-18.736 91.435 91.435 0 0 0 0-43.258 55.097 55.097 0 0 0-8.515-18.686 44.304 44.304 0 0 0-15.145-13.032 46.93 46.93 0 0 0-22.457-4.924 44.076 44.076 0 0 0-21.808 5.07 40.393 40.393 0 0 0-14.414 13.488 58.514 58.514 0 0 0-7.913 19.27 101.462 101.462 0 0 0-2.389 22.149c0 7.15.959 14.268 2.844 21.158Zm-70.036 45.061a70.305 70.305 0 0 1-43.729 13.162 79.261 79.261 0 0 1-32.207-5.98 63.762 63.762 0 0 1-23.009-16.753 71.266 71.266 0 0 1-13.812-25.773 122.773 122.773 0 0 1-5.233-32.63 93.397 93.397 0 0 1 5.379-32.222 77.288 77.288 0 0 1 15.145-25.447 68.314 68.314 0 0 1 23.008-16.754 70.373 70.373 0 0 1 29.169-5.98 63.673 63.673 0 0 1 34.288 8.515 67.935 67.935 0 0 1 21.856 21.726 86.863 86.863 0 0 1 11.375 28.712 124.39 124.39 0 0 1 2.535 29.64h-115.796a61.946 61.946 0 0 0 2.389 19.289 43.706 43.706 0 0 0 8.71 16.201 43.117 43.117 0 0 0 15.273 11.229 53.139 53.139 0 0 0 21.808 4.176 44.083 44.083 0 0 0 26.52-7.491 36.11 36.11 0 0 0 13.796-22.734h25.122a61.93 61.93 0 0 1-22.587 39.114Zm-6.175-99.4a43.908 43.908 0 0 0-9.198-13.812 43.898 43.898 0 0 0-31.297-12.61 44.905 44.905 0 0 0-17.81 3.412 41.056 41.056 0 0 0-13.795 9.425 44.438 44.438 0 0 0-8.986 13.813 53.46 53.46 0 0 0-3.9 16.882h88.902a52.568 52.568 0 0 0-3.916-17.11Zm-174.085-45.483v32.63h.602a68.736 68.736 0 0 1 22.733-27.837 57.119 57.119 0 0 1 34.142-8.385v26.927a72.485 72.485 0 0 0-26.049 4.192 41.223 41.223 0 0 0-17.355 12.285 50.98 50.98 0 0 0-9.62 19.596 106.728 106.728 0 0 0-2.99 26.471v69.03h-25.397V422.399h23.934Zm-127.203-58.939c5.298 0 10.498.406 15.698.877 4.875.472 9.733 1.219 14.543 2.243a37.748 37.748 0 0 1 11.505 4.599 55.711 55.711 0 0 1 17.81 17.355 48.42 48.42 0 0 1 7.313 27.251 52 52 0 0 1-8.19 29.445 48.564 48.564 0 0 1-23.514 18.411v.601a49.156 49.156 0 0 1 30.225 17.987 53.574 53.574 0 0 1 10.676 33.508 63.152 63.152 0 0 1-4.598 23.01 55.517 55.517 0 0 1-12.415 19.614 61.684 61.684 0 0 1-20.345 13.796 69.693 69.693 0 0 1-27.983 5.2h-103.088V363.46h92.363Zm-7.036 92.04c16.152 0 27.609-2.811 34.872-8.515a30.912 30.912 0 0 0 10.644-25.594 38.172 38.172 0 0 0-3.591-17.94 25.577 25.577 0 0 0-9.896-10.172 38.662 38.662 0 0 0-14.544-4.599 139.613 139.613 0 0 0-17.485-1.056h-56.89v67.925l56.89-.049Zm14.349 97.888a41.166 41.166 0 0 0 29.51-10.172 36.651 36.651 0 0 0 8.303-12.935 36.65 36.65 0 0 0 2.324-15.194 35.143 35.143 0 0 0-3.916-17.388 30.407 30.407 0 0 0-10.303-10.903 43.841 43.841 0 0 0-14.82-5.72 94.183 94.183 0 0 0-17.355-1.609h-64.982v73.921h71.239Zm-258.305-130.989v24.537h.601c10.577-18.72 27.347-28.096 50.292-28.112a66.571 66.571 0 0 1 25.448 4.176 41.748 41.748 0 0 1 16.428 11.7 42.553 42.553 0 0 1 8.84 17.81 95.279 95.279 0 0 1 2.584 23.01v101.739h-25.642V472.384a30.674 30.674 0 0 0-8.369-22.734 31.109 31.109 0 0 0-23.01-8.369 52.117 52.117 0 0 0-20.215 3.575 37.43 37.43 0 0 0-14.219 10.173 44.036 44.036 0 0 0-8.513 15.421 61.588 61.588 0 0 0-2.844 19.287v87.441h-25.447V422.399h24.066Zm-43.729 154.08a35.784 35.784 0 0 1-18.395 3.965 22.04 22.04 0 0 1-15.746-5.525 24.145 24.145 0 0 1-5.801-18.135 61.505 61.505 0 0 1-24.44 18.135 84.266 84.266 0 0 1-49.967 3.12 46.519 46.519 0 0 1-16.299-7.491 35.452 35.452 0 0 1-10.774-13.39 44.86 44.86 0 0 1-4.046-19.939 45.686 45.686 0 0 1 4.599-21.531 39.72 39.72 0 0 1 11.83-13.812 54.3 54.3 0 0 1 16.753-7.914 237.749 237.749 0 0 1 19.338-4.599c6.581-1.284 13.796-2.437 19.874-3.136a108.497 108.497 0 0 0 16.605-2.99 27.582 27.582 0 0 0 11.424-5.702 13.718 13.718 0 0 0 4.193-10.904 25.36 25.36 0 0 0-3.185-13.487 21.742 21.742 0 0 0-8.044-7.784 33.04 33.04 0 0 0-11.099-3.575 83.906 83.906 0 0 0-12.104-.878 53.655 53.655 0 0 0-26.959 6.11c-7.183 4.112-11.066 11.782-11.651 23.01h-25.448a54.715 54.715 0 0 1 5.98-24.245 45.799 45.799 0 0 1 14.365-16.022 60.48 60.48 0 0 1 20.524-8.824 108.529 108.529 0 0 1 24.667-2.681 150.97 150.97 0 0 1 20.799 1.479 54.975 54.975 0 0 1 18.736 6.126 35.701 35.701 0 0 1 13.422 13.016 41.373 41.373 0 0 1 5.119 21.775v79.477a56.487 56.487 0 0 0 1.056 13.114c.683 2.811 3.039 4.192 6.988 4.192a26.216 26.216 0 0 0 7.832-1.478l-.146 20.523Zm-41.405-79.576a31.508 31.508 0 0 1-12.577 5.249 183.194 183.194 0 0 1-16.331 2.714 469.74 469.74 0 0 0-17.208 2.405 62.994 62.994 0 0 0-15.551 4.322 28.019 28.019 0 0 0-11.229 8.515 23.973 23.973 0 0 0-4.338 15.145 20.715 20.715 0 0 0 2.535 10.628 21.625 21.625 0 0 0 6.581 7.036 27.587 27.587 0 0 0 9.441 3.867 54.44 54.44 0 0 0 11.359 1.203 60.59 60.59 0 0 0 21.578-3.461 44.086 44.086 0 0 0 14.641-8.645 33.799 33.799 0 0 0 8.369-11.375 28.159 28.159 0 0 0 2.73-11.554v-26.049Zm-204.47 80.226L643.832 363.46h30.5l61.067 185.281H736l61.667-185.281h29.64l-76.162 213.669h-32.207Zm474.558-515.378v126.602l70.637-67.665h34.109l-61.342 56.29 65.794 98.49h-32.207l-52.974-80.81-23.92 22.133v58.677h-25.463V61.751h25.366Zm-163.051 58.937v24.538h.601c10.579-18.753 27.349-28.127 50.294-28.127a66.705 66.705 0 0 1 25.399 4.191 41.488 41.488 0 0 1 16.477 11.683 43.39 43.39 0 0 1 8.839 17.827 94.483 94.483 0 0 1 2.535 23.01v101.788h-25.397V170.576a30.773 30.773 0 0 0-8.434-22.734 31.138 31.138 0 0 0-23.01-8.369 51.707 51.707 0 0 0-20.199 3.592 37.446 37.446 0 0 0-14.219 10.172 43.188 43.188 0 0 0-8.563 15.405 62.925 62.925 0 0 0-2.844 19.338v87.439h-25.413V120.688h23.934Zm-43.759 154.13a35.534 35.534 0 0 1-18.412 3.916 21.924 21.924 0 0 1-15.697-5.525 24.072 24.072 0 0 1-5.85-18.135 60.82 60.82 0 0 1-24.391 18.135 84.395 84.395 0 0 1-49.967 3.136 47.42 47.42 0 0 1-16.348-7.458 37.186 37.186 0 0 1-10.904-13.358 45.073 45.073 0 0 1-4.046-19.872 45.698 45.698 0 0 1 4.599-21.58 38.95 38.95 0 0 1 11.83-13.812 54.685 54.685 0 0 1 16.754-7.914 257.799 257.799 0 0 1 39.209-7.784 108.513 108.513 0 0 0 16.608-2.99 27.589 27.589 0 0 0 11.375-5.655 13.75 13.75 0 0 0 4.176-10.952 25.357 25.357 0 0 0-3.12-13.439 21.694 21.694 0 0 0-8.109-7.833 32.59 32.59 0 0 0-11.034-3.575 84.649 84.649 0 0 0-12.155-.877 53.823 53.823 0 0 0-26.924 6.11c-7.183 4.095-11.066 11.765-11.684 23.01h-25.447a55.185 55.185 0 0 1 5.98-24.245 45.452 45.452 0 0 1 14.397-16.023 61.33 61.33 0 0 1 20.491-8.789 109.867 109.867 0 0 1 24.699-2.714c6.971 0 13.926.52 20.816 1.528a53.954 53.954 0 0 1 18.72 6.433 35.792 35.792 0 0 1 13.487 12.984 41.472 41.472 0 0 1 5.07 21.807v79.446a58.692 58.692 0 0 0 1.057 13.161c.698 2.746 3.055 4.128 7.036 4.128a24.548 24.548 0 0 0 7.784-1.463v20.199Zm-41.422-79.575a31.095 31.095 0 0 1-12.61 5.2 179.166 179.166 0 0 1-16.298 2.714 471.362 471.362 0 0 0-17.209 2.405 64.661 64.661 0 0 0-15.55 4.323 28.263 28.263 0 0 0-11.228 8.563 23.712 23.712 0 0 0-4.339 15.097 20.863 20.863 0 0 0 9.344 17.71 27.578 27.578 0 0 0 9.213 3.868 50.292 50.292 0 0 0 11.358 1.202 61.143 61.143 0 0 0 21.547-3.412 45.447 45.447 0 0 0 14.82-8.694 34.392 34.392 0 0 0 8.369-11.373 28.733 28.733 0 0 0 2.713-11.554l-.13-26.049ZM746.872 61.751c5.281 0 10.481.407 15.681.91 4.891.455 9.75 1.203 14.542 2.21A37.057 37.057 0 0 1 788.6 69.47a55.732 55.732 0 0 1 17.81 17.355 48.417 48.417 0 0 1 7.329 27.251 52.074 52.074 0 0 1-8.239 29.492 48.583 48.583 0 0 1-23.481 18.412v.601a49.16 49.16 0 0 1 30.241 17.94 53.797 53.797 0 0 1 10.449 33.507 63.866 63.866 0 0 1-4.193 22.783 56.572 56.572 0 0 1-12.415 19.596 62.138 62.138 0 0 1-20.345 13.812 69.701 69.701 0 0 1-27.981 5.249H654.508V61.751h92.364Zm-7.053 92.039c16.153 0 27.625-2.86 34.839-8.564a30.771 30.771 0 0 0 10.643-25.592 37.76 37.76 0 0 0-3.591-17.94 25.455 25.455 0 0 0-9.846-10.173 38.667 38.667 0 0 0-14.544-4.598 140 140 0 0 0-17.501-1.057h-56.875v67.972l56.875-.048Zm14.365 97.839c10.79.65 21.4-3.006 29.492-10.172a37.16 37.16 0 0 0 10.644-28.127 34.966 34.966 0 0 0-3.916-17.339 30.063 30.063 0 0 0-10.319-10.953 44.488 44.488 0 0 0-14.802-5.671 89.489 89.489 0 0 0-17.404-1.657h-64.935v73.919h71.24Z"/></svg>