<svg xmlns="http://www.w3.org/2000/svg" fill="currentColor" viewBox="0 0 261.5 56"><path d="M81.227 22.776h7.203c2.479 0 4.052-1.519 4.052-3.872 0-2.82-2.267-3.607-4.698-3.607h-6.557v7.48-.001Zm0-9.902h5.747c3.268 0 4.597-1.173 4.597-3.443 0-2.996-2.122-3.423-4.597-3.423h-5.747v6.866Zm-2.88-9.295h7.848c1.896 0 4.409 0 5.721.79 1.409.852 2.533 2.396 2.533 4.517 0 2.3-1.211 4.029-3.207 4.839v.062c2.666.547 4.122 2.543 4.122 5.205 0 3.172-2.272 6.206-6.582 6.206H78.347V3.579m29.428 13.532c-1.001.735-2.943.755-4.675 1.07-1.691.296-3.137.893-3.137 2.813 0 1.691 1.446 2.287 3.025 2.287 3.382 0 4.787-2.106 4.787-3.539v-2.631Zm4.167 8.018c-.457.27-1.031.426-1.849.426-1.317 0-2.165-.722-2.165-2.423-1.435 1.669-3.342 2.423-5.513 2.423-2.844 0-5.161-1.27-5.161-4.38 0-3.551 2.621-4.307 5.284-4.819 2.838-.541 5.255-.372 5.255-2.303 0-2.241-1.843-2.595-3.476-2.595-2.177 0-3.786.664-3.904 2.961h-2.574c.164-3.876 3.154-5.232 6.629-5.232 2.809 0 5.871.633 5.871 4.291v8.048c0 1.206 0 1.755.818 1.755.216 0 .462-.028.785-.149v1.997m2.024-15.581h2.417v2.484h.058c1.089-1.946 2.85-2.845 5.08-2.845 4.113 0 5.39 2.361 5.39 5.709v10.302h-2.57V14.6c0-1.91-1.217-3.143-3.183-3.143-3.108 0-4.623 2.084-4.623 4.898v8.842h-2.569V9.547m16.35-5.968h2.575v12.806l7.139-6.837h3.447l-6.209 5.685 6.653 9.965h-3.264l-5.343-8.175-2.423 2.241v5.934h-2.575V3.579ZM70.413 49.078c0 2.944-1.557 5.9-6.374 5.9-4.039 0-6.315-2.238-6.315-6.292v-1.333h2.891v.904c0 2.517.67 4.292 3.465 4.292 2.635 0 3.454-1.51 3.454-3.898V32.858h2.879v16.22m3.848 2.022h3.356v3.36h-3.356V51.1Zm13.888 3.36h-3.267l-7.631-21.602h3.125l6.167 18.734h.071l6.226-18.734h2.998L88.149 54.46Zm17.508-8.082c-.995.738-2.927.752-4.664 1.065-1.692.305-3.143.913-3.143 2.813 0 1.693 1.451 2.293 3.025 2.293 3.394 0 4.782-2.109 4.782-3.538v-2.633Zm4.172 8.029c-.445.263-1.018.413-1.843.413-1.335 0-2.177-.727-2.177-2.414-1.41 1.659-3.325 2.414-5.512 2.414-2.844 0-5.168-1.268-5.168-4.38 0-3.544 2.633-4.301 5.291-4.808 2.849-.553 5.261-.371 5.261-2.308 0-2.235-1.838-2.592-3.471-2.592-2.177 0-3.774.661-3.903 2.955h-2.564c.147-3.869 3.137-5.238 6.618-5.238 2.816 0 5.871.633 5.871 4.296v8.058c0 1.219 0 1.746.818 1.746.211 0 .445-.02.779-.143v2.001m2.013-15.585h2.428v2.483h.053c1.094-1.937 2.845-2.856 5.091-2.856 4.114 0 5.384 2.371 5.384 5.729V54.46h-2.575V43.865c0-1.905-1.2-3.133-3.178-3.133-3.101 0-4.623 2.08-4.623 4.9v8.828h-2.58V38.822m21.095 13.215h7.204c2.475 0 4.054-1.503 4.054-3.876 0-2.81-2.276-3.596-4.698-3.596h-6.56v7.472Zm0-9.896h5.747c3.271 0 4.6-1.169 4.6-3.44 0-2.99-2.119-3.421-4.6-3.421h-5.747v6.862-.001Zm-2.879-9.283h7.836c1.901 0 4.411 0 5.729.775 1.416.861 2.527 2.406 2.527 4.512 0 2.306-1.205 4.038-3.2 4.845v.065c2.656.55 4.119 2.542 4.119 5.202 0 3.177-2.276 6.203-6.577 6.203h-10.434V32.858m19.768 5.964h2.428v3.29h.059c1.227-2.513 2.972-3.742 5.751-3.663v2.725c-4.155 0-5.652 2.367-5.652 6.334v6.951h-2.586V38.822Zm20.44 6.316c-.118-2.446-1.966-4.406-4.506-4.406-2.698 0-4.301 2.013-4.477 4.406h8.983Zm2.475 4.357c-.691 3.446-3.166 5.325-6.683 5.325-4.992 0-7.35-3.439-7.496-8.225 0-4.685 3.09-8.146 7.344-8.146 5.542 0 7.239 5.182 7.086 8.965h-11.709c-.094 2.727 1.451 5.135 4.875 5.135 2.118 0 3.592-1.03 4.043-3.055h2.54v.001Zm9.872 3.054c3.446 0 4.775-2.964 4.775-5.902 0-3.08-1.388-5.915-4.922-5.915-3.528 0-4.693 2.984-4.693 6.038 0 2.941 1.51 5.779 4.84 5.779Zm7.25 1.91h-2.552v-2.112h-.058c-.848 1.718-2.855 2.473-4.997 2.473-4.81 0-7.198-3.807-7.198-8.225 0-4.412 2.358-8.146 7.133-8.146 1.609 0 3.897.615 5.062 2.458h.058v-8.049h2.552V54.46m13.131-8.082c-.989.738-2.932.752-4.658 1.065-1.697.305-3.148.913-3.148 2.813 0 1.693 1.451 2.293 3.031 2.293 3.383 0 4.775-2.109 4.775-3.538v-2.633Zm4.173 8.029c-.457.263-1.03.413-1.838.413-1.34 0-2.182-.727-2.182-2.414-1.434 1.659-3.325 2.414-5.502 2.414-2.855 0-5.183-1.268-5.183-4.38 0-3.544 2.644-4.301 5.3-4.808 2.845-.553 5.267-.371 5.267-2.308 0-2.235-1.837-2.592-3.482-2.592-2.171 0-3.786.661-3.909 2.955h-2.568c.152-3.869 3.16-5.238 6.623-5.238 2.821 0 5.876.633 5.876 4.296v8.058c0 1.219 0 1.746.814 1.746.267.003.534-.045.784-.143v2.001m14.131-16.985c0-1.234-.93-2.299-2.487-2.299-1.211 0-2.463.734-2.463 2.299 0 1.314 1.135 2.578 2.071 3.752 1.247-.782 2.879-1.932 2.879-3.752Zm-3.721 6.594c-2.031 1.151-3.746 2.303-3.746 4.878 0 2.186 2.031 3.655 4.109 3.655 1.966 0 3.54-.998 4.599-2.563l-4.962-5.97Zm6.39 7.757c-1.311 2.025-3.757 3.047-6.11 3.047-5.857 0-6.752-4.131-6.752-5.896 0-3.391 2.294-5.091 5.055-6.536-1.222-1.721-2.399-2.877-2.399-5.077 0-2.368 1.756-4.453 4.874-4.453 2.686 0 5.238 1.483 5.238 4.417 0 2.564-1.972 4.424-4.049 5.589l3.902 4.767a11.52 11.52 0 0 0 .686-3.368h2.451c-.21 2.548-.544 3.414-1.457 5.322l4.22 4.874h-3.365l-2.294-2.686m23.53-12.405c-.604-3.066-3.062-4.606-6.056-4.606-5.145 0-7.327 4.241-7.327 8.749 0 4.937 2.182 9.038 7.361 9.038 3.775 0 5.957-2.659 6.227-6.229h2.879c-.539 5.385-3.899 8.658-9.345 8.658-6.724 0-9.99-4.971-9.99-11.262 0-6.25 3.57-11.37 10.229-11.37 4.494 0 8.228 2.417 8.895 7.021h-2.873m9.655.85c1.779 0 2.849-1.44 2.849-2.848 0-1.421-1.07-2.847-2.849-2.847-1.791 0-2.862 1.426-2.862 2.848 0 1.407 1.071 2.846 2.862 2.846v.001Zm0-7.21a4.336 4.336 0 0 1 4.348 4.363 4.33 4.33 0 0 1-4.348 4.356 4.342 4.342 0 0 1-4.371-4.356 4.347 4.347 0 0 1 4.371-4.363ZM.508 54.471h50.96V28.987L.508 44.272v10.199ZM0 54.978V3h51.977v51.978H0Z"/></svg>