<svg xmlns="http://www.w3.org/2000/svg" fill="currentColor" viewBox="0 0 2235 640"><path d="M458.999 580.479H0V60.5h519.472v460.805h-60.473v59.174ZM140.043 205.873l75.059 114.63-75.059 114.629h44.628l75.059-114.629-75.059-114.63h-44.628Zm239.386 0h-44.627l-75.059 114.63 75.059 114.629h44.627L304.37 320.503l75.059-114.63Zm1790.73 152.744L2235 457.634h-38.557l-64.828-99.017 64.828-99.004H2235l-64.841 99.004ZM716.128 372.279c0 17.823 6.071 32.629 17.809 44.381 12.142 11.764 27.676 17.458 46.24 17.458 35.254 0 57.613-21.254 57.613-54.26v-40.961c0-33.773-22.359-55.391-57.613-55.391-18.564 0-34.098 6.071-46.24 17.822-11.738 11.765-17.809 26.571-17.809 45.147v25.804Zm-32.967 85.355V179.562h32.967v117.983h2.275c10.608-25.414 37.53-41.728 68.975-41.728 54.962 0 83.756 38.687 83.756 103.567 0 65.244-30.692 102.046-85.654 102.046-29.183 0-55.325-14.417-67.077-38.323h-2.275l-3.029 34.527h-29.938Zm267.764 0h-32.59V179.562h32.59v278.072Zm294.009-116.462h114.447v-7.592c0-30.718-22.359-51.205-55.326-51.205-34.864 0-59.121 21.618-59.121 53.493v5.304Zm147.037 3.796c0 7.578-.377 14.416-1.131 20.487h-145.906v11.374c0 34.904 23.867 58.043 60.252 58.043 27.663 0 48.891-14.417 55.339-36.802h32.59c-4.173 19.344-14.027 34.527-30.315 46.292-16.301 11.374-35.631 17.068-58.368 17.068-57.6 0-93.232-39.831-93.232-103.567 0-63.736 35.632-102.046 92.855-102.046 54.195 0 87.916 34.137 87.916 89.151Zm230.247 45.134c-6.448 44.016-39.792 71.328-87.929 71.328-29.171 0-52.297-9.113-68.975-27.702-16.665-18.589-25.011-43.236-25.011-74.721 0-32.252 8.723-57.666 26.155-75.878 17.432-18.212 40.545-27.312 68.975-27.312 45.849 0 79.206 26.935 85.654 68.286h-32.603c-6.435-26.935-27.286-40.597-54.572-40.597-35.241 0-59.875 25.414-59.875 61.839v29.963c0 35.281 23.88 58.81 59.875 58.81 29.184 0 50.789-17.081 55.716-44.016h32.59Zm145.724-130.489v27.312h-65.57v170.709h-32.966V288.823c0-19.356 9.853-29.21 29.938-29.21h68.598Zm213.087 172.477h-31.823V259.613h31.823V432.09Zm-134.089 0h102.266v29.34h-48.007c-47.539 0-86.082-38.583-86.082-86.174V259.613h31.823V432.09Zm-682.915 0h-31.823V259.613h31.823V432.09Zm-134.103 0h102.267v29.34h-47.994c-47.552 0-86.095-38.583-86.095-86.174V259.613h31.822V432.09Zm1036.852-172.477 64.841 99.004-64.841 99.017h-38.557l64.842-99.017-64.842-99.004h38.557Z"/></svg>