<svg xmlns="http://www.w3.org/2000/svg" fill="currentColor" viewBox="0 0 2253 640"><path d="M891.537 353.619c5.748 41.647-113.461 91.914-135.959 100.535-1.919 1.433-3.351 0-5.271-1.918 0-.953 0-1.917.478-2.871.485-.955.963-1.911 1.437-2.387 62.719-27.773 127.349-67.986 118.733-88.573-12.452-24.413-133.092-11.967-394.959 52.183-312.621 76.6-462.464 66.066-474.909 27.771-12.452-34.472 85.69-74.685 108.189-83.306h3.352v1.918C89.649 368.938 9.223 405.8 21.668 431.655c5.269 15.799 56.016 19.147 143.146 8.616v-99.1a40.716 40.716 0 0 1 2.871-14.84c1.918-4.79 4.788-9.093 8.141-12.925 3.351-3.829 7.656-6.71 12.444-8.62 4.792-1.913 9.581-2.871 14.843-2.871a38.854 38.854 0 0 1 14.838 2.871c4.79 1.919 9.101 4.791 12.451 8.62 3.354 3.832 6.218 8.142 8.138 12.925 1.917 4.785 2.871 9.574 2.871 14.84v88.573c24.416-3.35 48.832-8.622 76.601-13.881V226.757c0-10.055 4.305-19.148 11.486-26.33 7.183-7.182 16.755-11.012 26.811-11.012 10.053 0 19.625 4.31 26.807 11.012 7.182 6.7 11.013 16.275 11.494 26.33v171.867c22.979-5.265 45.477-10.526 69.893-15.796 2.393-1.435 4.79-1.913 7.177-1.913V158.301c0-10.053 4.322-19.627 11.499-26.808 7.174-7.184 16.754-11.493 26.806-11.493a40.732 40.732 0 0 1 14.839 2.872c4.783 1.917 9.094 4.789 12.932 8.142 3.348 3.349 6.688 7.653 8.607 12.444 1.92 4.79 3.353 9.573 3.353 14.843v203.453c26.333-5.261 52.663-10.531 75.168-15.796V288.51a39.492 39.492 0 0 1 11.487-27.768 39.49 39.49 0 0 1 27.769-11.488 39.475 39.475 0 0 1 27.768 11.488 39.52 39.52 0 0 1 11.484 27.768v45.004c120.641-17.235 183.36-8.621 188.145 20.105ZM163.855 516.387a683.113 683.113 0 0 0 76.602-8.613v37.82c-.48 10.053-4.309 19.149-11.492 26.328-7.182 7.182-16.756 11.014-26.809 11.014a37.66 37.66 0 0 1-26.809-11.014c-7.182-6.699-11.487-16.275-11.487-26.328v-29.207h-.005Zm229.793-36.382v123.039c-.479 4.783-1.429 9.572-3.35 14.357-1.912 4.31-4.783 8.62-8.614 11.972-3.353 3.831-7.661 6.222-12.454 8.141-4.781 1.433-10.045 2.872-14.834 2.392-4.79-.482-9.575-1.438-14.364-3.35-4.311-1.918-8.614-4.792-11.967-8.622-3.83-3.353-6.702-7.645-8.138-12.44-1.441-4.796-2.394-10.052-2.394-14.848V494.849c25.849-3.353 51.22-8.622 76.115-14.844Zm156.072-34.943v91.912a40.764 40.764 0 0 1-11.971 26.809c-7.183 7.183-17.235 11.011-27.289 11.011-10.053 0-20.101-3.834-27.281-11.011a40.797 40.797 0 0 1-11.975-26.809v-74.678h5.271c26.329-6.709 50.74-11.971 73.245-17.234Zm153.194-32.561v60.323c0 10.053-4.305 19.626-11.486 26.807-7.183 7.182-16.755 11.016-26.81 11.016-4.792.476-10.058-.476-14.843-2.394-4.785-1.918-9.094-4.791-12.924-8.141-3.358-3.351-6.698-7.655-8.616-12.446-1.918-4.789-3.351-9.576-3.351-14.842v-44.999c29.682-5.269 56.01-10.055 78.03-15.324Zm476.347-70.85c-3.352-4.306-7.66-7.659-12.926-9.576a44.19 44.19 0 0 0-17.234-3.351c-6.226 0-12.448.96-18.196 3.831-5.743 2.391-10.527 6.223-14.836 11.011a47.09 47.09 0 0 0-9.575 16.279 60.787 60.787 0 0 0 0 41.171c2.393 5.743 5.262 11.485 9.575 16.277 3.831 4.309 8.613 8.134 14.362 10.532 5.75 2.398 11.486 3.83 17.71 3.83 6.702 0 13.404-1.437 19.154-4.309 5.747-2.872 10.053-7.183 13.883-12.445l29.202 22.019c-6.223 9.093-15.322 16.275-25.85 21.066a81.875 81.875 0 0 1-32.078 6.7c-11.493 0-23.457-1.918-34.473-5.742-10.051-3.829-19.146-9.579-27.288-16.755-7.655-7.662-13.883-16.283-17.707-26.337a96.436 96.436 0 0 1 0-69.414 70.984 70.984 0 0 1 17.707-26.328c7.657-7.183 17.237-12.925 27.288-16.757a104.037 104.037 0 0 1 34.473-5.749c4.789 0 9.574.48 13.883 1.44 4.783.958 9.574 2.392 14.364 3.829 4.783 1.913 9.574 4.312 13.405 7.183 4.304 2.871 8.135 6.703 11.486 11.006l-26.329 20.589Zm69.894 38.299c0-11.972 1.917-23.457 6.223-34.471a71.119 71.119 0 0 1 17.715-26.33c7.659-7.182 17.234-12.923 27.288-16.755a106.246 106.246 0 0 1 68.941 0c10.052 3.832 19.148 9.573 27.288 16.755 7.654 7.662 13.877 16.278 17.708 26.33a96.394 96.394 0 0 1 0 69.422 71.11 71.11 0 0 1-17.708 26.33c-7.655 7.179-17.236 12.923-27.288 16.755a106.26 106.26 0 0 1-68.941 0c-10.054-3.832-19.149-9.576-27.288-16.755-7.657-7.664-13.887-16.278-17.715-26.33-4.306-11.493-6.704-23.46-6.223-34.958v.007Zm36.389 0c0 7.183.951 13.883 3.351 20.586a51.703 51.703 0 0 0 10.051 16.276c4.312 4.79 9.575 8.141 15.797 10.534a54.41 54.41 0 0 0 40.696 0c5.742-2.393 11.012-6.224 15.795-10.534a51.602 51.602 0 0 0 10.054-16.276 60.805 60.805 0 0 0 0-41.173 51.54 51.54 0 0 0-10.054-16.277c-4.31-4.784-9.573-8.14-15.795-10.531a54.392 54.392 0 0 0-40.696 0c-5.742 2.391-11.011 6.223-15.797 10.531a51.798 51.798 0 0 0-10.051 16.277c-2.4 6.703-3.351 13.403-3.351 20.587Zm331.288 68.455c-10.056 5.269-21.067 9.101-32.558 11.498-11.492 2.398-22.979 3.824-34.472 3.352-11.486 0-23.457-1.92-34.47-5.749-10.054-3.832-19.146-9.576-27.287-16.756-7.658-7.662-13.879-16.276-17.71-26.33a96.402 96.402 0 0 1 0-69.421 71.188 71.188 0 0 1 17.71-26.328c7.653-7.181 17.233-12.926 27.287-16.756a104.19 104.19 0 0 1 34.47-5.744c11.968 0 23.938 1.433 34.953 4.785 10.531 2.878 20.106 8.621 28.24 15.803l-24.892 26.807c-4.789-4.788-10.053-8.62-16.274-11.011-6.223-2.394-13.406-3.831-22.504-3.831-7.183 0-13.885 1.437-20.59 3.831-5.743 2.391-11.005 6.223-15.795 10.531a51.804 51.804 0 0 0-10.053 16.277 60.78 60.78 0 0 0 0 41.173 51.708 51.708 0 0 0 10.053 16.276c4.311 4.79 9.572 8.141 15.795 10.534 6.224 2.392 13.407 3.831 20.59 3.831 6.7 0 13.403-.959 19.626-2.399 4.795-1.432 9.099-2.872 13.404-5.263v-26.331h-28.722v-32.556h62.238v83.777h.961Zm58.876-148.403h47.88l67.503 110.586h.474V300.002h34.956v159.417h-45.962l-69.421-113.461h-.479v113.461h-34.943l-.008-159.417Zm211.127 0h34.952v159.417h-34.952V300.002Zm125.913 31.114h-45.485v-31.114h125.911v31.114h-45.485v128.303h-34.941V331.116Zm235.536-31.114v32.553h-73.245v29.681h69.414v32.558h-68.933v32.552h77.072v32.552h-112.029V300.002h107.721Z"/></svg>