<svg xmlns="http://www.w3.org/2000/svg" fill="currentColor" viewBox="0 0 200 56"><path d="M79.156 30.573c.511 3.698-10.073 8.161-12.071 8.927-.17.126-.297 0-.468-.171 0-.084 0-.17.043-.255.043-.085.085-.17.127-.212 5.569-2.466 11.307-6.036 10.542-7.864-1.106-2.168-11.817-1.062-35.067 4.633C14.505 42.432 1.201 41.497.096 38.097c-1.105-3.06 7.608-6.631 9.606-7.397H10v.171c-2.041 1.063-9.181 4.335-8.077 6.631.469 1.402 4.974 1.7 12.71.765v-8.799a3.63 3.63 0 0 1 .255-1.318c.17-.424.425-.807.723-1.147.297-.34.679-.596 1.105-.766.425-.169.85-.254 1.318-.254.451-.003.899.084 1.317.254.425.171.808.426 1.105.766.298.34.553.723.723 1.147.17.426.255.85.255 1.318v7.864c2.167-.298 4.336-.765 6.801-1.232V19.31c0-.893.382-1.7 1.02-2.338a3.343 3.343 0 0 1 2.38-.978c.893 0 1.743.383 2.381.978.637.595.978 1.445 1.02 2.338v15.259c2.04-.467 4.038-.935 6.205-1.403.213-.127.426-.169.638-.169V13.232c0-.893.384-1.743 1.02-2.38.638-.638 1.488-1.021 2.38-1.021a3.61 3.61 0 0 1 1.318.255c.425.17.808.425 1.148.723.298.297.594.679.765 1.105.17.425.297.85.297 1.318v18.063c2.338-.467 4.676-.934 6.674-1.402v-5.101a3.508 3.508 0 0 1 1.02-2.465 3.51 3.51 0 0 1 2.465-1.02 3.506 3.506 0 0 1 2.466 1.02 3.513 3.513 0 0 1 1.02 2.465v3.996c10.711-1.53 16.279-.766 16.704 1.785ZM14.548 45.025c2.28-.127 4.55-.383 6.801-.765v3.358a3.472 3.472 0 0 1-1.02 2.338 3.348 3.348 0 0 1-2.381.978 3.35 3.35 0 0 1-2.38-.978 3.217 3.217 0 0 1-1.02-2.338v-2.593Zm20.403-3.23v10.924a4.6 4.6 0 0 1-.298 1.274c-.17.383-.424.766-.765 1.064-.298.339-.68.552-1.106.722-.424.128-.892.256-1.317.213a4.643 4.643 0 0 1-1.275-.298 3.082 3.082 0 0 1-1.062-.765 2.38 2.38 0 0 1-.723-1.105 4.724 4.724 0 0 1-.212-1.318v-9.394c2.295-.297 4.547-.765 6.758-1.317Zm13.856-3.103v8.161a3.61 3.61 0 0 1-1.063 2.38c-.637.637-1.53.978-2.423.978-.892 0-1.784-.341-2.422-.978a3.62 3.62 0 0 1-1.062-2.38v-6.63h.468c2.337-.597 4.505-1.064 6.502-1.531Zm13.602-2.891v5.356c0 .893-.382 1.743-1.02 2.38a3.34 3.34 0 0 1-2.38.978c-.426.042-.893-.042-1.318-.212a4.048 4.048 0 0 1-1.147-.723c-.299-.298-.595-.68-.765-1.105-.171-.425-.298-.85-.298-1.318v-3.996c2.635-.467 4.973-.892 6.928-1.36Zm42.293-6.29a2.538 2.538 0 0 0-1.147-.85 3.9 3.9 0 0 0-1.531-.298c-.552 0-1.104.085-1.615.34-.51.212-.935.553-1.317.977-.379.42-.668.911-.85 1.446a5.386 5.386 0 0 0 0 3.655c.212.511.467 1.02.85 1.445a3.53 3.53 0 0 0 1.275.935c.511.214 1.02.341 1.572.341.596 0 1.19-.128 1.7-.383.512-.254.893-.638 1.234-1.105l2.592 1.955c-.552.807-1.36 1.446-2.295 1.87-.9.389-1.869.591-2.848.595a9.426 9.426 0 0 1-3.06-.509 7.963 7.963 0 0 1-2.423-1.488c-.68-.68-1.233-1.445-1.573-2.338a8.562 8.562 0 0 1 0-6.163 6.309 6.309 0 0 1 1.573-2.338 7.43 7.43 0 0 1 2.423-1.487 9.18 9.18 0 0 1 3.06-.511c.425 0 .85.042 1.233.128.424.085.85.212 1.275.34.425.169.85.382 1.19.638.382.255.723.594 1.02.977l-2.338 1.828Zm6.206 3.4c0-1.063.17-2.083.552-3.061a6.317 6.317 0 0 1 1.573-2.337 7.444 7.444 0 0 1 2.423-1.488 9.438 9.438 0 0 1 6.121 0c.893.34 1.7.85 2.423 1.488.68.68 1.233 1.445 1.572 2.337a8.554 8.554 0 0 1 0 6.164A6.315 6.315 0 0 1 124 38.352a7.43 7.43 0 0 1-2.423 1.487 9.438 9.438 0 0 1-6.121 0 7.92 7.92 0 0 1-2.423-1.487c-.679-.68-1.232-1.445-1.573-2.338-.382-1.02-.594-2.083-.552-3.103Zm3.231 0c0 .638.085 1.233.297 1.828a4.58 4.58 0 0 0 .893 1.445c.383.425.85.723 1.403.935a4.822 4.822 0 0 0 3.612 0c.511-.212.978-.552 1.403-.935.385-.423.687-.912.893-1.445a5.398 5.398 0 0 0 0-3.655 4.563 4.563 0 0 0-.893-1.446c-.383-.424-.85-.723-1.403-.935a4.831 4.831 0 0 0-3.612 0c-.511.212-.978.553-1.403.935a4.563 4.563 0 0 0-.893 1.446 5.32 5.32 0 0 0-.297 1.827Zm29.414 6.078c-.892.468-1.87.808-2.891 1.021-1.021.213-2.04.34-3.06.297-1.02 0-2.083-.17-3.061-.51-.893-.34-1.7-.85-2.423-1.488-.68-.68-1.232-1.444-1.572-2.337a8.554 8.554 0 0 1 0-6.164 6.315 6.315 0 0 1 1.572-2.338 7.441 7.441 0 0 1 2.423-1.487 9.242 9.242 0 0 1 3.061-.511c1.062 0 2.125.128 3.103.426.935.255 1.785.765 2.507 1.402l-2.209 2.38c-.426-.424-.893-.765-1.446-.977-.552-.212-1.19-.34-1.998-.34-.637 0-1.233.128-1.828.34-.509.212-.977.553-1.402.935a4.581 4.581 0 0 0-.893 1.446 5.386 5.386 0 0 0 0 3.655 4.6 4.6 0 0 0 .893 1.445c.382.425.85.723 1.402.935.552.212 1.191.34 1.828.34.595 0 1.19-.085 1.743-.213.425-.127.808-.254 1.189-.467v-2.337h-2.55V31.55h5.527v7.439h.085Zm5.227-13.176h4.251l5.994 9.818h.042v-9.818h3.103v14.154h-4.081l-6.163-10.074h-.042v10.074h-3.104V25.813Zm18.746 0h3.102v14.154h-3.102V25.813Zm11.178 2.763h-4.038v-2.763h11.18v2.763h-4.039v11.391h-3.103V28.576Zm20.913-2.763v2.89h-6.503v2.635h6.163v2.891h-6.12v2.89H200v2.89h-9.947V25.813h9.564Z"/></svg>