<svg xmlns="http://www.w3.org/2000/svg" fill="currentColor" viewBox="0 0 60 56"><path d="M7.43 18.45H2.11l-1.69 9.6h8.31l.41-2.36H6.16l1.27-7.24zm8.4 0h-5.41l-1.19 6.71h5.4l1.2-6.71zm15.84 0l-.76 4.3-1.64-4.31h-4.92l-1.7 9.6h4.92l.75-4.27 1.65 4.27h5.17l1.7-9.6h-5.17zm-15.48 6.52c-.1.55-.31.73-.72.73h-.93l-.42 2.37h3.79c2.04 0 3.19-1.08 3.63-3.54l1.07-6.06h-5.27l-1.15 6.5zm-.09-8.11l.11-.63h-.78l.06-.36h.44l.07-.48h-.44l.06-.33h.78l.1-.6h-1.95l-.42 2.39h1.97zm-2.93-.04c.4-.08.8-.36.95-1.19.12-.65-.18-1-.42-1.09-.19-.08-.51-.08-.7-.08h-1.88l-.42 2.39h1.88c.15.01.4.02.59-.03zm-1-.6H12l.2-1.14h.17s.19-.01.32.03c.12.03.26.22.21.53-.07.39-.27.53-.45.57-.1.01-.28.01-.28.01z"/><path d="M37.11 16.86l.42-2.4h-7.27l-.42 2.4h7.27zm-7.59 0l.42-2.4h-11.9l-.42 2.4h11.9zm12.25 0l.42-2.4h-4.31l-.42 2.4h4.31zm2.92 0l.42-2.4h-2.54l-.42 2.4h2.54zm2.02 0l.42-2.4h-1.56l-.42 2.4h1.56zm1.48 0l.42-2.4h-.97l-.42 2.4h.97zm1.15 0l.42-2.4h-.56l-.42 2.4h.56zm1.14 0l.42-2.4h-.43l-.42 2.4h.43zm1 0l.42-2.4h-.27l-.42 2.4h.27zm1.12 0l.42-2.4h-.2l-.42 2.4h.2zm1.18 0l.42-2.4h-.19l-.42 2.4h.19zm1.3 0l.42-2.4h-.15l-.42 2.4h.15zm1.53 0l.42-2.4h-.11l-.42 2.4h.11z"/><path d="M20.59 0l-2.26 12.83h38.98L59.58 0H20.59zm-9.87 56H49.7l4.65-26.36H15.36L10.72 56z"/></svg>