<svg xmlns="http://www.w3.org/2000/svg" fill="currentColor" viewBox="0 0 677 640"><path d="M65.537 293.52h34.146l-4.736 27.021H0l19.312-109.739h60.779L65.537 293.52Zm96.949-5.941h-61.77l13.586-76.733h61.79l-13.606 76.733Zm253.751-76.777-19.399 109.674h-59.121l-18.838-48.787-8.592 48.787H254.03l19.377-109.716h56.28l18.687 49.217 8.741-49.175h59.122Zm-222.899.216H253.6l-12.207 69.219c-4.952 28.097-18.107 40.476-41.445 40.476l-43.297-.022 4.758-27.063 10.636.043c4.672 0 7.082-2.024 8.203-8.31l13.09-74.343Zm-36.515-18.408 4.845-27.364h22.305l-1.163 6.911h-8.956l-.732 3.724h4.972l-.947 5.384h-4.973l-.689 4.155h8.935l-1.271 7.19h-22.326Zm-17.739-.021h-21.531l4.801-27.365 21.486.022c2.068 0 5.728.021 7.945.926 2.734 1.12 6.136 5.06 4.801 12.508-1.701 9.473-6.329 12.595-10.85 13.564-2.219.475-5.017.366-6.652.345Zm-1.724-7.471c2.133-.452 4.371-2.002 5.167-6.459.624-3.509-1.034-5.682-2.367-6.07-1.55-.432-3.683-.325-3.683-.325h-1.915l-2.239 13.026h1.915s2.11.044 3.122-.172Zm198.914 7.536 4.822-27.387h83.085l-4.824 27.387h-83.083Zm-139.706 0 4.822-27.387h136.003l-4.823 27.387H196.568Zm226.73 0 4.822-27.387h49.261l-4.845 27.387h-49.238Zm53.653 0 4.821-27.387h29.045l-4.823 27.387h-29.043Zm34.211 0 4.821-27.387h17.849l-4.823 27.387h-17.847Zm23.704 0 4.822-27.387h11.044l-4.822 27.387h-11.044Zm17.848 0 4.822-27.387h6.351l-4.823 27.387h-6.35Zm14.532 0 4.823-27.387h4.908l-4.822 27.387h-4.909Zm13.304 0 4.825-27.387h3.035l-4.824 27.387h-3.036Zm13.479 0 4.823-27.387h2.325l-4.823 27.387h-2.325Zm13.671 0 4.824-27.387h2.152l-4.823 27.387H607.7Zm15.373 0 4.822-27.387h1.658l-4.823 27.387h-1.657Zm17.784 0 4.823-27.387h1.291l-4.823 27.387h-1.291ZM676.1-.038l-25.879 146.661-445.558.022L230.542-.038H676.1ZM170.774 338.669h445.602L563.241 640H117.66l53.114-301.331Z"/></svg>