<svg xmlns="http://www.w3.org/2000/svg" fill="currentColor" viewBox="0 0 1031 640"><path d="M189.164 271.352c0 21.114.25 42.233-.052 63.338-.685 48.821-39.725 87.998-91.124 91.728-43.886 3.192-89.058-33.379-96.51-78.116-12.24-73.532 53.518-130.821 124.276-107.99 8.366 2.701 11.421 1.497 10.973-7.607-.465-9.321-.289-18.695-.019-28.027.499-17.042 11.513-29.294 26.114-29.377 15.515-.094 26.271 11.878 26.353 29.595.094 22.155.021 44.301-.011 66.456ZM53.604 330.96c.124 24.006 18.164 41.701 42.222 41.411 23.351-.282 40.872-18.301 40.777-41.941-.093-23.62-18.623-42.367-41.973-42.482-23.247-.125-41.151 18.654-41.026 43.012Zm908.701 22.809c-17.593-.602-34.563.832-51.459-1.392-2.92-.384-7.098-1.527-8.626 1.528-1.964 3.927 2.38 6.08 4.759 8.148 13.979 12.158 29.825 13.476 46.557 6.878 9.528-3.762 18.819-5.009 27.714 1.083 17.49 11.959 15.711 35.663-3.304 45.846-42.211 22.613-94.858 8.074-121.968-33.659-21.969-33.825-20.211-76.95 4.467-109.956 22.789-30.456 65.406-44.227 102.204-33.003 37.878 11.544 65.552 46.533 67.827 85.772.852 14.716-7.398 25.326-22.197 27.642-15.461 2.434-31.092.355-45.974 1.113Zm-59.627-47.407c4.396 1.08 58.132 2.016 61.696 1.35 4.405-.82 3.856-2.857 1.934-5.755-13.428-20.286-51.699-17.657-63.63 4.405Zm-512.162 24.535c-.042 51.45-44.072 95.99-94.243 95.325-52.52-.696-95.063-43.482-95.146-95.698-.084-52.283 42.897-95.419 94.991-95.325 52.509.093 94.441 42.606 94.398 95.698Zm-95.165 41.651c24.242.248 42.656-17.303 42.967-40.965.322-23.756-19.005-44.01-41.878-43.884-23.423.124-42.825 19.743-42.773 43.251.063 22.695 18.758 41.359 41.684 41.598Zm280.068-25.761c6.111 36.131 27.507 61.02 61.582 73.491 34.416 12.594 66.133 5.041 94.075-18.156 11.537-9.569 13.086-24.721 4.605-36.299-8.386-11.45-23.275-13.747-36.11-5.497-2.608 1.684-4.937 3.814-7.545 5.497-16.679 10.756-38.688 8.584-52.562-5.102-13.946-13.759-16.66-35.778-6.486-52.582 13.075-21.573 39.645-26.561 61.365-11.233 7.18 5.073 14.102 10.361 23.549 8.707 10.744-1.87 18.359-7.825 21.874-18.341 3.594-10.785.03-19.983-7.783-27.3-17.687-16.564-38.939-24.607-53.593-24.805-68.398-.239-112.958 52.574-102.971 111.62Zm-139.281 56.24c34.439 31.288 94.419 29.958 125.627-2.972 8.426-8.896 10.338-21.637 4.718-31.549-5.904-10.404-17.107-15.1-29.348-12.482-5.694 1.217-9.727 5.072-14.226 8.262-14.685 10.413-30.355 11.431-46.015 3.181-21.595-11.36-28.338-39.564-15.079-60.127 13.665-21.19 42.326-25.522 62.652-9.469 14.644 11.567 29.794 10.559 40.029-2.649 9.157-11.814 5.966-28.681-7.793-39.116-31.207-23.682-65.031-28.285-100.418-11.17-35.507 17.177-51.645 47.344-53.754 82.355.654 32.59 12.262 56.335 33.607 75.736Zm317.646-46.13c.095 37.016 22.645 62.912 59.213 68.119 18.279 2.598 32.037-5.923 34.45-21.336 2.42-15.481-7.151-27.163-25.108-30.655-14.374-2.795-16.43-5.174-16.451-20.098-.063-46.377-.022-92.756-.052-139.135 0-4.147.125-8.345-.404-12.438-1.956-15.266-14.373-26.636-27.716-25.658-14.32 1.048-23.859 12.293-23.922 28.564-.093 26.304-.021 52.618-.021 78.919 0 24.565-.052 49.143.011 73.718Z"/></svg>