<svg xmlns="http://www.w3.org/2000/svg" fill="currentColor" viewBox="0 0 98.4 56"><path d="M18.065 27.673c0 2.016.024 4.033-.005 6.048-.065 4.664-3.794 8.404-8.702 8.76-4.191.305-8.504-3.187-9.217-7.46-1.168-7.022 5.112-12.493 11.869-10.312.798.258 1.09.142 1.048-.728a33.632 33.632 0 0 1-.002-2.676c.047-1.628 1.099-2.797 2.494-2.805 1.482-.009 2.508 1.135 2.516 2.826.01 2.117.003 4.231-.001 6.347ZM5.119 33.365c.013 2.293 1.735 3.983 4.032 3.955 2.23-.027 3.903-1.748 3.895-4.006-.009-2.255-1.779-4.046-4.008-4.057-2.221-.011-3.931 1.782-3.919 4.108Zm86.78 2.179c-1.68-.057-3.3.079-4.914-.135-.278-.035-.678-.144-.824.147-.188.375.228.581.454.778 1.335 1.161 2.849 1.287 4.447.657.91-.359 1.797-.478 2.646.104 1.671 1.141 1.501 3.406-.315 4.379-4.032 2.159-9.059.771-11.648-3.215-2.098-3.23-1.931-7.35.427-10.501 2.176-2.909 6.246-4.224 9.76-3.151 3.618 1.101 6.26 4.443 6.478 8.19.081 1.405-.707 2.419-2.12 2.641-1.476.232-2.969.034-4.391.106Zm-5.694-4.528c.421.103 5.552.192 5.893.129.42-.079.367-.273.184-.549-1.282-1.938-4.938-1.687-6.077.42Zm-48.911 2.343c-.003 4.914-4.209 9.168-9 9.104-5.016-.067-9.079-4.153-9.086-9.139-.008-4.993 4.097-9.113 9.071-9.104 5.014.009 9.019 4.069 9.015 9.139Zm-9.088 3.978c2.315.024 4.074-1.652 4.103-3.912.031-2.268-1.814-4.203-3.999-4.192-2.236.013-4.09 1.886-4.085 4.131.006 2.168 1.792 3.95 3.981 3.973Zm26.746-2.461c.584 3.451 2.627 5.828 5.881 7.019 3.287 1.202 6.316.481 8.984-1.734 1.102-.914 1.25-2.361.441-3.466-.801-1.095-2.224-1.314-3.449-.526-.249.162-.471.365-.721.526-1.594 1.027-3.695.819-5.02-.487a4.112 4.112 0 0 1-.619-5.022c1.249-2.061 3.787-2.536 5.86-1.073.687.484 1.347.99 2.249.831 1.026-.178 1.754-.747 2.089-1.751.343-1.03.003-1.908-.743-2.608-1.69-1.58-3.718-2.349-5.118-2.368-6.532-.022-10.787 5.02-9.834 10.659ZM41.65 40.247c3.29 2.988 9.018 2.861 11.998-.283.806-.85.987-2.066.451-3.013-.565-.993-1.633-1.442-2.803-1.193-.544.117-.929.485-1.359.79-1.402.994-2.899 1.091-4.394.304-2.061-1.084-2.706-3.779-1.439-5.742 1.305-2.023 4.041-2.438 5.982-.905 1.399 1.105 2.846 1.008 3.824-.252.874-1.129.569-2.74-.745-3.736-2.981-2.262-6.211-2.702-9.589-1.067-3.392 1.64-4.933 4.521-5.134 7.864.062 3.114 1.17 5.381 3.208 7.233Zm30.336-4.405c.009 3.535 2.163 6.009 5.655 6.505 1.746.248 3.059-.565 3.289-2.037.231-1.479-.682-2.595-2.397-2.927-1.372-.267-1.569-.495-1.571-1.92-.006-4.429-.003-8.858-.004-13.287 0-.396.011-.798-.04-1.188-.187-1.458-1.372-2.543-2.646-2.45-1.368.1-2.279 1.174-2.285 2.728-.009 2.511-.002 5.024-.002 7.536 0 2.345-.005 4.693.001 7.04Z"/></svg>