<svg xmlns="http://www.w3.org/2000/svg" fill="currentColor" viewBox="0 0 2153 640"><path d="M770.163 179.663c17.332 0 30.33 14.08 30.33 30.329 0 17.331-14.082 30.329-30.33 30.329-16.248 0-30.327-14.081-30.327-30.329 0-16.249 12.996-30.329 30.327-30.329ZM745.25 454.791V270.65h49.827v184.141H745.25Zm94.237 0V270.65h47.661v22.747c9.748-18.412 33.579-27.079 54.159-27.079 24.913 0 45.493 10.831 54.159 30.329 11.914-20.582 34.662-32.496 58.492-30.329 34.662 0 66.074 20.58 66.074 70.407v119.15h-47.66V345.39c0-19.497-9.748-34.662-32.496-34.662-21.663 0-34.661 16.249-34.661 35.744v108.319h-49.826V345.39c0-19.497-9.749-34.662-32.497-34.662-22.746 0-34.661 16.249-34.661 35.744v108.319h-48.744Zm324.955 61.741V270.65h47.661v22.747c8.664-14.082 29.245-27.079 56.324-27.079 54.159 0 84.489 41.161 84.489 95.32 0 55.241-34.662 96.403-86.654 96.403-24.914 0-44.412-9.749-53.078-22.746v80.155l-48.742 1.082c-1.083-1.082 0 0 0 0Zm94.238-205.804c-24.914 0-45.496 19.496-45.496 51.993 0 32.496 20.582 51.992 45.496 51.992 24.911 0 45.493-19.496 45.493-51.992 0-32.497-19.498-51.993-45.493-51.993Zm240.465 9.748c-5.416-1.083-9.749-1.083-15.165-1.083-24.914 0-47.66 11.914-47.66 51.993v83.405h-49.825V270.65h47.659v27.08c10.831-24.913 36.828-29.246 51.993-29.246 4.333 0 7.582 0 11.915 1.083l1.083 50.909Zm72.574 28.163 45.494-6.498c10.831-1.084 14.08-6.499 14.08-13 0-12.997-9.749-23.829-31.412-23.829-18.414-1.083-33.579 11.915-34.662 30.33l-44.411-9.749c3.251-29.246 29.248-60.659 79.073-60.659 58.491 0 80.156 32.496 80.156 70.408v90.987c0 9.749 1.082 19.497 2.166 29.246h-46.577c-1.083-7.583-2.166-14.082-2.166-21.664-11.916 18.413-32.495 28.163-54.16 27.079-38.994 0-62.823-25.995-62.823-55.243 0-34.661 24.913-53.075 55.242-57.408Zm58.491 31.414v-8.667l-41.161 6.499c-12.998 2.168-22.747 8.666-22.747 22.747 0 11.916 9.749 21.664 21.664 21.664h2.167c21.663 1.082 40.077-9.748 40.077-42.243Zm116.984-200.39c17.331 0 30.329 14.08 30.329 30.329 0 17.331-14.081 30.329-30.329 30.329-16.249 0-30.33-14.081-30.33-30.329-1.083-16.249 12.999-30.329 30.33-30.329Zm-24.914 275.128V270.65h49.827v184.141h-49.827Zm123.483-60.657c1.084 14.08 11.914 28.162 33.579 28.162 16.248 0 24.912-8.666 24.912-18.413 0-8.666-5.414-15.166-19.496-18.416l-24.914-5.414c-35.745-7.584-51.993-29.246-51.993-55.243 0-32.496 29.246-60.659 68.241-60.659 51.993 0 70.407 33.579 71.49 53.076l-41.16 9.75c-2.168-15.165-15.165-25.997-30.33-24.915-12.998 0-23.83 7.583-23.83 18.414 0 8.665 6.499 14.082 17.331 16.249l25.997 5.416c35.745 7.582 54.159 29.245 54.159 56.324 0 30.33-22.747 60.66-71.491 60.66-55.241 0-74.738-35.747-76.905-56.326l44.41-8.665Zm304.373 7.581c-9.747 31.413-38.993 58.491-83.404 58.491-50.909 0-95.32-35.744-95.32-98.568 0-58.492 43.328-96.404 89.906-96.404 56.324 0 90.986 35.746 90.986 95.32 0 6.5-1.084 14.082-1.084 15.164h-132.148c2.166 23.83 21.664 42.245 46.576 42.245 18.415 1.083 35.747-9.749 42.245-28.163l42.243 11.915Zm-46.575-59.574c-1.082-18.415-12.998-35.746-41.162-35.746-21.663-1.083-38.993 15.164-41.161 35.746h82.323Z"/><path d="m297.897 461.29-19.498-3.249C138.669 435.295 102.924 337.807 94.258 270.65c-2.165-16.248-2.165-33.579-1.083-49.825l-1.082 1.081C27.101 277.149-17.308 378.969 6.521 442.876c38.996 102.902 258.881 92.071 321.705 30.33 3.249-3.25 5.416-6.5 8.665-9.749h-2.165c-12.998 0-24.915-1.083-36.829-2.167Z" opacity=".55"/><path d="m371.554 5.272-19.499-3.25S133.253-32.64 98.592 185.078l-3.25 19.499s-1.084 6.497-1.084 16.248c31.413-27.082 68.241-42.245 106.151-37.912 95.321 12.998 178.726 172.225 148.397 258.88-3.249 7.582-6.498 14.082-10.831 20.581 64.99-1.084 188.473-24.914 214.47-185.225l3.25-19.496c-1.084 1.083 33.579-217.721-184.141-252.381Z"/><path d="M199.328 182.913c-36.829-4.333-73.657 10.83-106.153 37.912-1.082 16.246-1.082 33.577 1.083 49.825 7.584 67.157 43.328 164.645 183.058 187.391l19.498 3.249c11.914 2.167 24.914 2.167 36.828 2.167h2.166c4.333-6.5 8.666-14.082 10.832-20.581 31.411-86.655-51.993-246.965-147.312-259.963Z" opacity=".85"/></svg>