<svg xmlns="http://www.w3.org/2000/svg" fill="#ff6600" viewBox="0 0 199 56"><path d="M71.23 19.11c1.55 0 2.82 1.27 2.82 2.82 0 1.55-1.27 2.82-2.82 2.82s-2.8-1.25-2.82-2.8 1.23-2.84 2.78-2.86c.02.02.04.02.04.02zm-2.27 25.37V27.51h4.59v16.95l-4.59.02zm8.7-.01V27.51h4.38v2.05c.94-1.65 3.11-2.53 4.95-2.53 2.3 0 4.17 1 5.03 2.82 1.13-1.86 3.21-2.96 5.38-2.82 3.15 0 6.14 1.9 6.14 6.45v10.98h-4.43V34.41c0-1.82-.9-3.17-2.99-3.17-1.96 0-3.15 1.52-3.15 3.34v9.89h-4.55V34.41c0-1.82-.94-3.17-2.99-3.17-2.07 0-3.17 1.48-3.17 3.34v9.89h-4.6zm29.93 5.7V27.51h4.43v2.05c.75-1.31 2.65-2.46 5.2-2.46 4.97 0 7.83 3.8 7.83 8.83 0 5.14-3.21 8.93-8.01 8.93-2.34 0-4.07-.94-4.9-2.07v7.35h-4.57l.02.03zm8.75-18.93c-2.34 0-4.24 1.77-4.24 4.76 0 2.99 1.9 4.78 4.24 4.78s4.2-1.77 4.2-4.78c.01-3.03-1.86-4.76-4.2-4.76zm22.16.82c-.46-.1-.92-.13-1.38-.13-2.34 0-4.38 1.13-4.38 4.78v7.76h-4.59V27.51h4.43v2.53c1.04-2.25 3.38-2.65 4.82-2.65.38 0 .73.04 1.08.08v4.59h.02zm6.73 2.65l4.17-.63c.96-.13 1.27-.63 1.27-1.21 0-1.21-.94-2.21-2.86-2.21-1.65-.13-3.11 1.09-3.24 2.76l-4.07-.86c.29-2.65 2.73-5.59 7.28-5.59 5.38 0 7.37 3.03 7.37 6.45v8.35c0 .9.08 1.8.21 2.69h-4.2c-.12-.67-.17-1.34-.17-2.03-1.09 1.67-2.99 2.63-4.99 2.53-3.61 0-5.82-2.44-5.82-5.07-.01-3.07 2.21-4.75 5.05-5.18zm5.44 2.9v-.75l-3.8.58c-1.17.17-2.09.83-2.09 2.13 0 1.09.9 1.98 2.02 1.98.06 0 .13 0 .19-.02 1.89.02 3.68-.92 3.68-3.92zm10.71-18.5c1.55 0 2.84 1.27 2.84 2.82 0 1.55-1.27 2.84-2.82 2.84s-2.82-1.25-2.84-2.8c-.02-1.55 1.23-2.84 2.8-2.86h.02zm-2.29 25.37V27.51h4.59v16.95l-4.59.02zm11.43-5.6c.1 1.34 1.09 2.59 3.11 2.59 1.52 0 2.25-.79 2.25-1.69 0-.75-.52-1.38-1.82-1.65l-2.25-.52c-3.28-.73-4.76-2.69-4.76-5.07 0-3.03 2.69-5.55 6.34-5.55 4.82 0 6.45 3.07 6.64 4.9l-3.8.86c-.15-1.38-1.4-2.4-2.78-2.28-1.21 0-2.17.73-2.17 1.69 0 .83.63 1.34 1.55 1.52l2.42.54c3.34.69 5.03 2.73 5.03 5.2 0 2.75-2.13 5.59-6.58 5.59-5.07 0-6.85-3.3-7.06-5.24l3.88-.89zm28.1.73c-.86 2.94-3.55 5.38-7.72 5.38-4.66 0-8.75-3.34-8.75-9.06 0-5.41 3.99-8.93 8.33-8.93 5.24 0 8.39 3.34 8.39 8.79 0 .63-.08 1.34-.08 1.42h-12.15c.15 2.23 2.03 3.94 4.28 3.86 1.73.13 3.32-.92 3.86-2.57l3.84 1.11zm-4.26-5.55c-.08-1.69-1.17-3.34-3.8-3.34-1.96-.08-3.63 1.38-3.8 3.34h7.6z"/><path d="M27.59 45.08l-1.79-.29C12.9 42.72 9.6 33.71 8.87 27.51c-.17-1.54-.21-3.07-.13-4.61l-.08.06C2.57 28.09-1.5 37.5.75 43.39c3.57 9.46 23.92 8.5 29.7 2.8.29-.29.54-.6.77-.92H31c-1.14.02-2.27-.04-3.41-.19z" opacity=".55"/><path d="M34.39 2.98l-1.8-.29S12.43-.55 9.19 19.62l-.29 1.79s-.1.56-.13 1.52c2.94-2.46 6.34-3.92 9.75-3.46 8.79 1.17 16.49 15.9 13.71 23.88-.25.67-.58 1.32-1 1.92 5.95-.13 17.41-2.32 19.79-17.1l.29-1.79c-.03.02 3.24-20.16-16.92-23.4z"/><path d="M18.52 19.43c-3.42-.44-6.83 1-9.77 3.46-.1 1.54-.06 3.09.13 4.61.71 6.22 4.03 15.22 16.93 17.28l1.79.29c1.13.15 2.27.21 3.4.19h.23c.42-.6.75-1.25 1-1.94 2.75-7.97-4.92-22.7-13.71-23.89z" opacity=".85"/></svg>