<svg xmlns="http://www.w3.org/2000/svg" fill="currentColor" viewBox="0 0 1432 640"><path d="M0 318.319C0 217.076 82.088 135 183.347 135c101.258 0 183.346 82.076 183.346 183.319s-82.088 183.319-183.346 183.319C82.088 501.638 0 419.562 0 318.319Zm160.052-86.274c-19.432-11.816-44.01 2.555-44.01 25.735v123.403c0 22.873 24.005 37.284 43.432 26.076l104.16-60.071c19.564-11.284 19.885-40.07.575-51.812ZM523.71 607.174c-4.596 0-8.657-1.151-12.138-3.453-2.443-1.648-4.302-3.696-5.57-6.143v2.244c0 2.302-.604 4.084-1.787 5.347-1.184 1.188-2.855 1.782-5.013 1.782-2.228 0-3.946-.594-5.129-1.782-1.184-1.263-1.788-3.045-1.788-5.347v-66.161c0-2.302.604-4.047 1.788-5.236 1.183-1.188 2.901-1.782 5.129-1.782 2.228 0 3.945.594 5.129 1.782 1.253 1.189 1.88 2.934 1.88 5.236v25.951c1.3-2.284 3.162-4.214 5.593-5.791 3.411-2.228 7.38-3.342 11.906-3.342 4.827 0 9.028 1.151 12.579 3.453 3.574 2.302 6.359 5.57 8.355 9.802 2.019 4.158 3.017 9.171 3.017 15.037 0 5.792-.998 10.841-3.017 15.148-1.996 4.233-4.828 7.5-8.448 9.802-3.574 2.302-7.729 3.453-12.486 3.453Zm-3.899-10.582c2.738 0 5.175-.668 7.241-2.005 2.088-1.336 3.667-3.304 4.781-5.903 1.206-2.673 1.787-5.978 1.787-9.913 0-5.941-1.254-10.359-3.783-13.255-2.53-2.97-5.872-4.455-10.026-4.455-2.739 0-5.153.668-7.241 2.005-2.066 1.262-3.714 3.23-4.897 5.903-1.114 2.599-1.671 5.866-1.671 9.802 0 5.866 1.253 10.321 3.783 13.366 2.529 2.97 5.871 4.455 10.026 4.455ZM570.707 627c-1.625 0-2.971-.446-4.015-1.337-1.045-.816-1.671-1.93-1.88-3.341-.163-1.411.093-2.896.766-4.455l6.31-13.984-19.005-43.936c-.673-1.634-.882-3.156-.673-4.567.232-1.411.905-2.524 2.019-3.341 1.183-.891 2.785-1.337 4.781-1.337 1.717 0 3.086.409 4.131 1.225 1.021.743 1.949 2.191 2.785 4.344l13.383 33.405 13.678-33.516c.812-2.079 1.787-3.49 2.901-4.233 1.114-.816 2.599-1.225 4.456-1.225 1.624 0 2.924.446 3.899 1.337.951.817 1.555 1.93 1.787 3.341.209 1.337-.046 2.822-.789 4.456l-27.061 61.818c-.975 2.079-2.019 3.49-3.133 4.232-1.114.743-2.553 1.114-4.34 1.114Zm81.74-20.94c-2.437 0-4.34-.631-5.663-1.894-1.277-1.336-1.903-3.23-1.903-5.68v-63.377c0-2.451.626-4.307 1.903-5.57 1.323-1.336 3.226-2.005 5.663-2.005h26.736c5.5 0 10.188.817 14.041 2.451 3.876 1.633 6.8 3.973 8.796 7.017 2.089 3.045 3.133 6.683 3.133 10.916 0 4.752-1.369 8.762-4.131 12.029-2.077 2.477-4.74 4.336-7.981 5.575 3.95 1.063 7.129 2.918 9.536 5.563 3.063 3.342 4.572 7.686 4.572 13.032 0 6.98-2.367 12.401-7.125 16.262-4.688 3.787-11.21 5.681-19.611 5.681Zm6.127-10.804h20.052c5.059 0 8.773-.966 11.14-2.896 2.39-2.005 3.574-4.975 3.574-8.911 0-4.01-1.184-6.98-3.574-8.911-2.367-1.93-6.081-2.896-11.14-2.896h-20.052Zm0-34.418h18.172c4.897 0 8.541-.928 10.908-2.784 2.46-1.931 3.69-4.753 3.69-8.466 0-3.712-1.23-6.497-3.69-8.353-2.367-1.931-6.011-2.896-10.908-2.896h-18.172Zm87.403 46.336c-6.174 0-11.465-1.151-15.921-3.453-4.479-2.302-7.914-5.569-10.374-9.802-2.368-4.233-3.551-9.245-3.551-15.037 0-5.643 1.137-10.581 3.435-14.814 2.39-4.232 5.616-7.537 9.701-9.913 4.154-2.45 8.865-3.676 14.134-3.676 3.875 0 7.333.632 10.374 1.894 3.11 1.262 5.755 3.082 7.914 5.458 2.228 2.376 3.899 5.272 5.013 8.688 1.183 3.341 1.764 7.128 1.764 11.361 0 1.336-.464 2.376-1.439 3.119-.882.668-2.182 1.002-3.899 1.002h-33.682c.462 4.339 1.814 7.717 4.045 10.136 2.901 2.97 7.125 4.455 12.718 4.455 1.926 0 4.084-.223 6.452-.668a25.163 25.163 0 0 0 6.916-2.562c1.555-.891 2.924-1.262 4.108-1.114 1.183.075 2.112.483 2.785 1.226.742.742 1.183 1.67 1.346 2.784.139 1.04-.07 2.116-.673 3.23-.534 1.114-1.462 2.079-2.785 2.896-2.6 1.634-5.617 2.859-9.028 3.676-3.342.742-6.452 1.114-9.353 1.114Zm9.353-40.098c-.952-2.302-2.414-4.047-4.34-5.235-1.857-1.263-4.201-1.894-7.009-1.894-3.133 0-5.802.743-8.03 2.228-2.159 1.411-3.83 3.453-5.013 6.126-.719 1.677-1.206 3.57-1.461 5.68h27.365c-.143-2.688-.643-4.989-1.512-6.905Zm40.986 40.098c-3.922 0-7.45-.743-10.56-2.228-3.064-1.559-5.477-3.638-7.241-6.237-1.718-2.599-2.576-5.532-2.576-8.8 0-4.01 1.044-7.165 3.11-9.467 2.088-2.377 5.477-4.084 10.142-5.124 4.688-1.04 10.954-1.559 18.822-1.559h3.899v-2.339c0-3.713-.812-6.386-2.437-8.02-1.648-1.634-4.386-2.45-8.239-2.45-2.158 0-4.502.259-7.032.779-2.437.52-5.036 1.411-7.798 2.673-1.393.669-2.669.854-3.783.557a4.34 4.34 0 0 1-2.46-1.782 5.913 5.913 0 0 1-.882-3.119c0-1.113.302-2.19.882-3.23.603-1.114 1.601-1.93 3.017-2.45 3.411-1.411 6.684-2.413 9.794-3.007 3.203-.595 6.104-.892 8.703-.892 5.338 0 9.724.817 13.136 2.451 3.504 1.634 6.104 4.121 7.798 7.463 1.717 3.267 2.576 7.499 2.576 12.697v26.732c0 2.302-.557 4.084-1.671 5.347-1.114 1.188-2.715 1.782-4.804 1.782-2.066 0-3.713-.594-4.897-1.782-1.114-1.263-1.671-3.045-1.671-5.347v-2.352a14.93 14.93 0 0 1-2.228 3.8c-1.485 1.857-3.365 3.305-5.686 4.344-2.298 1.04-4.944 1.56-7.914 1.56Zm11.813-25.396c-4.595 0-8.286.223-11.024.669-2.739.445-4.711 1.225-5.895 2.339-1.114 1.039-1.671 2.524-1.671 4.455 0 2.45.859 4.455 2.553 6.015 1.717 1.559 4.085 2.339 7.125 2.339 2.46 0 4.618-.557 6.475-1.671a12.81 12.81 0 0 0 4.549-4.79c1.114-2.004 1.671-4.306 1.671-6.905v-2.451Zm36.971 25.173c-2.228 0-3.922-.594-5.129-1.782-1.184-1.263-1.764-3.045-1.764-5.347v-42.103c0-2.302.58-4.047 1.764-5.235 1.207-1.188 2.878-1.782 5.013-1.782 2.158 0 3.829.594 5.036 1.782 1.184 1.188 1.764 2.933 1.764 5.235v2.326c1.577-2.735 3.7-4.884 6.359-6.447 3.481-2.079 7.427-3.119 11.813-3.119 4.386 0 7.984.817 10.792 2.451 2.831 1.634 4.943 4.121 6.359 7.463 1.416 3.267 2.112 7.425 2.112 12.475v26.954c0 2.302-.603 4.084-1.787 5.347-1.184 1.188-2.901 1.782-5.129 1.782-2.205 0-3.969-.594-5.222-1.782-1.184-1.263-1.787-3.045-1.787-5.347v-26.286c0-4.233-.812-7.314-2.46-9.245-1.555-1.931-3.992-2.896-7.334-2.896-4.085 0-7.357 1.3-9.817 3.898-2.367 2.525-3.551 5.904-3.551 10.136v24.393c0 4.753-2.344 7.129-7.032 7.129Zm95.015.223c-8.146 0-15.178-1.634-21.05-4.901-5.779-3.342-10.235-8.02-13.368-14.035-3.11-6.088-4.665-13.254-4.665-21.497 0-6.163.882-11.695 2.669-16.596 1.787-4.975 4.34-9.207 7.682-12.697 3.342-3.565 7.427-6.275 12.254-8.131 4.897-1.931 10.398-2.896 16.478-2.896 4.085 0 8.1.519 12.045 1.559 3.946 1.04 7.381 2.525 10.351 4.455 1.555.966 2.6 2.154 3.133 3.565.511 1.336.627 2.673.325 4.009a6.177 6.177 0 0 1-1.903 3.231c-.882.891-2.019 1.41-3.435 1.559-1.346.074-2.831-.409-4.456-1.448a24.907 24.907 0 0 0-7.473-3.23 33.475 33.475 0 0 0-8.123-1.003c-5.268 0-9.747 1.077-13.368 3.23-3.643 2.154-6.382 5.273-8.239 9.357-1.88 4.084-2.785 9.096-2.785 15.036 0 5.867.905 10.879 2.785 15.037 1.857 4.159 4.596 7.314 8.239 9.468 3.621 2.153 8.1 3.23 13.368 3.23 2.809 0 5.594-.334 8.355-1.002a30.445 30.445 0 0 0 7.798-3.342c1.625-.965 3.087-1.374 4.34-1.225 1.323.074 2.437.52 3.342 1.336.882.817 1.486 1.857 1.787 3.119.302 1.188.209 2.451-.232 3.787-.441 1.263-1.346 2.376-2.669 3.342-2.97 2.153-6.544 3.824-10.699 5.012a47.199 47.199 0 0 1-12.486 1.671Zm57.673 0c-5.64 0-10.56-1.151-14.714-3.453-4.154-2.302-7.38-5.569-9.701-9.802-2.298-4.307-3.435-9.356-3.435-15.148 0-4.381.627-8.28 1.88-11.695 1.346-3.49 3.226-6.461 5.686-8.911a23.393 23.393 0 0 1 8.796-5.681c3.435-1.336 7.241-2.005 11.488-2.005 5.642 0 10.542 1.151 14.692 3.453 4.18 2.302 7.4 5.57 9.7 9.802 2.3 4.233 3.46 9.245 3.46 15.037 0 4.381-.68 8.317-2.02 11.807-1.25 3.49-3.11 6.497-5.57 9.022-2.44 2.45-5.39 4.344-8.8 5.68-3.41 1.263-7.24 1.894-11.462 1.894Zm0-10.582c2.742 0 5.152-.668 7.242-2.005 2.07-1.336 3.67-3.304 4.78-5.903 1.18-2.673 1.79-5.978 1.79-9.913 0-5.941-1.28-10.359-3.79-13.255-2.53-2.97-5.87-4.455-10.022-4.455-2.762 0-5.175.668-7.241 2.005-2.089 1.262-3.713 3.23-4.897 5.903-1.114 2.599-1.671 5.866-1.671 9.802 0 5.866 1.253 10.321 3.783 13.366 2.53 2.97 5.849 4.455 10.026 4.455Zm57.932 10.582c-4.53 0-8.27-.817-11.24-2.451-2.97-1.708-5.19-4.232-6.68-7.574-1.42-3.341-2.11-7.5-2.11-12.475v-26.955c0-2.376.58-4.121 1.76-5.235 1.21-1.188 2.9-1.782 5.13-1.782s3.95.594 5.13 1.782c1.25 1.114 1.9 2.859 1.9 5.235v27.178c0 3.861.77 6.72 2.32 8.577 1.56 1.856 4.06 2.784 7.48 2.784 3.71 0 6.75-1.262 9.12-3.787 2.39-2.599 3.57-6.015 3.57-10.247v-24.505c0-2.376.6-4.121 1.79-5.235 1.18-1.188 2.9-1.782 5.13-1.782s3.92.594 5.1 1.782c1.28 1.114 1.91 2.859 1.91 5.235v42.103c0 4.753-2.25 7.129-6.8 7.129-2.16 0-3.83-.594-5.02-1.782-1.18-1.263-1.78-3.045-1.78-5.347v-1.859c-1.447 2.46-3.295 4.454-5.55 5.981-3.13 2.153-6.85 3.23-11.16 3.23Zm50.59-.223c-2.23 0-3.92-.594-5.13-1.782-1.18-1.263-1.76-3.045-1.76-5.347v-42.103c0-2.302.58-4.047 1.76-5.235 1.21-1.188 2.88-1.782 5.01-1.782 2.16 0 3.83.594 5.02 1.782 1.2 1.188 1.78 2.933 1.78 5.235v2.318c1.583-2.732 3.705-4.878 6.36-6.439 3.49-2.079 7.43-3.119 11.82-3.119 4.36 0 7.98.817 10.79 2.451 2.83 1.634 4.94 4.121 6.36 7.463 1.41 3.267 2.11 7.425 2.11 12.475v26.954c0 2.302-.6 4.084-1.79 5.347-1.18 1.188-2.9 1.782-5.13 1.782-2.22 0-3.96-.594-5.22-1.782-1.18-1.263-1.78-3.045-1.78-5.347v-26.286c0-4.233-.82-7.314-2.46-9.245-1.56-1.931-4-2.896-7.34-2.896-4.08 0-7.36 1.3-9.82 3.898-2.36 2.525-3.55 5.904-3.55 10.136v24.393c0 4.753-2.34 7.129-7.03 7.129Zm82.11.223c-4.82 0-8.89-.817-12.16-2.451-3.18-1.633-5.57-4.01-7.12-7.128-1.56-3.193-2.35-7.129-2.35-11.807v-23.725h-5.78c-1.78 0-3.15-.445-4.13-1.336-.95-.966-1.44-2.265-1.44-3.899 0-1.708.49-3.007 1.44-3.898.98-.891 2.35-1.337 4.13-1.337h5.78v-10.136c0-2.302.6-4.047 1.79-5.235 1.28-1.188 3.02-1.782 5.24-1.782 2.23 0 3.93.594 5.13 1.782 1.19 1.188 1.77 2.933 1.77 5.235v10.136h11.81c1.79 0 3.16.446 4.13 1.337.95.891 1.44 2.19 1.44 3.898 0 1.634-.49 2.933-1.44 3.899-.97.891-2.34 1.336-4.13 1.336h-11.81v22.945c0 3.565.79 6.238 2.34 8.02 1.56 1.782 4.09 2.673 7.59 2.673 1.25 0 2.37-.111 3.34-.334.95-.223 1.81-.371 2.56-.445.88-.075 1.62.222 2.22.891.61.594.88 1.856.88 3.787 0 1.485-.25 2.821-.76 4.009-.44 1.114-1.3 1.894-2.58 2.339-.95.298-2.22.557-3.78.78a22.33 22.33 0 0 1-4.11.446Zm42.98 0c-6.17 0-11.48-1.151-15.92-3.453-4.45-2.302-7.91-5.569-10.37-9.802-2.37-4.233-3.55-9.245-3.55-15.037 0-5.643 1.13-10.581 3.43-14.814 2.39-4.232 5.62-7.537 9.7-9.913 4.16-2.45 8.87-3.676 14.16-3.676 3.85 0 7.31.632 10.35 1.894 3.11 1.262 5.76 3.082 7.92 5.458 2.22 2.376 3.9 5.272 5.01 8.688 1.18 3.341 1.79 7.128 1.79 11.361 0 1.336-.49 2.376-1.47 3.119-.88.668-2.18 1.002-3.89 1.002h-33.69c.463 4.339 1.818 7.717 4.05 10.136 2.9 2.97 7.15 4.455 12.69 4.455 1.95 0 4.11-.223 6.48-.668a25.137 25.137 0 0 0 6.91-2.562c1.56-.891 2.93-1.262 4.11-1.114 1.19.075 2.11.483 2.79 1.226.74.742 1.18 1.67 1.34 2.784.14 1.04-.07 2.116-.67 3.23-.51 1.114-1.46 2.079-2.78 2.896-2.6 1.634-5.62 2.859-9.03 3.676-3.35.742-6.45 1.114-9.36 1.114Zm9.36-40.098c-.95-2.302-2.42-4.047-4.34-5.235-1.86-1.263-4.2-1.894-7.01-1.894-3.13 0-5.8.743-8.03 2.228-2.16 1.411-3.83 3.453-5.01 6.126-.723 1.677-1.212 3.57-1.469 5.68h27.366c-.143-2.688-.641-4.989-1.507-6.905Zm30.19 39.875c-2.3 0-4.08-.594-5.36-1.782-1.18-1.263-1.76-3.045-1.76-5.347v-42.103c0-2.302.58-4.047 1.76-5.235 1.21-1.188 2.88-1.782 5.04-1.782 2.13 0 3.8.594 4.99 1.782 1.2 1.188 1.78 2.933 1.78 5.235v3.53c1.155-2.774 2.831-4.99 5.02-6.648 3.04-2.302 7.1-3.676 12.16-4.122 1.55-.148 2.78.26 3.66 1.226.98.891 1.54 2.302 1.67 4.232.15 1.857-.3 3.379-1.34 4.567-.95 1.114-2.44 1.782-4.46 2.005l-2.43.223c-4.55.445-7.96 1.856-10.26 4.232-2.3 2.302-3.46 5.569-3.46 9.802v23.056c0 2.302-.58 4.084-1.79 5.347-1.18 1.188-2.92 1.782-5.22 1.782ZM527.469 211.609c-4.107 3.842-9.004 5.761-14.644 5.761-5.64 0-10.537-1.919-14.645-5.761-4.107-4.101-6.15-8.974-6.15-14.612 0-5.639 2.043-10.382 6.15-14.232 4.108-4.1 9.005-6.156 14.645-6.156 5.64 0 10.537 2.056 14.644 6.154 4.108 3.852 6.151 8.595 6.151 14.234 0 5.638-2.043 10.511-6.151 14.612Zm5.756 63.059v161.875c0 5.639-1.973 10.512-5.964 14.612-3.969 4.101-8.796 6.154-14.436 6.154-5.64 0-10.467-2.053-14.459-6.154-3.969-4.1-5.964-8.973-5.964-14.612V274.668c0-5.639 1.995-10.509 5.964-14.612 3.992-4.1 8.819-6.154 14.459-6.154 5.64 0 10.467 2.054 14.436 6.154 3.991 4.103 5.964 8.973 5.964 14.612Zm131.36-91.513c31.076 0 55.213 11.277 72.433 33.833 5.895 7.428 8.843 13.837 8.843 19.22 0 4.62-1.602 8.53-4.804 11.733-3.203 3.207-7.381 4.805-12.51 4.805-7.194 0-13.113-2.944-17.731-8.836-6.406-8.468-13.043-14.619-19.843-18.464-6.8-3.85-15.086-5.774-24.833-5.774-13.624 0-24.392 3.21-32.376 9.626-7.96 6.407-11.929 14.99-11.929 25.753 0 16.665 12.068 29.609 36.228 38.835l18.869 7.305c29.265 11.278 50.06 22.69 62.384 34.228 13.113 11.532 19.657 26.527 19.657 44.989 0 23.841-9.747 42.683-29.265 56.525-19.287 13.849-41.242 20.769-65.889 20.769-17.221 0-33.327-3.586-48.343-10.763-15.039-7.186-26.783-17.183-35.254-29.999-5.384-7.435-8.076-13.977-8.076-19.615 0-5.124 1.601-9.412 4.804-12.87 3.226-3.462 7.403-5.198 12.532-5.198 7.961 0 14.645 4.101 20.029 12.294 12.579 19.485 30.682 29.225 54.308 29.225 15.155 0 27.688-3.458 37.551-10.368 9.887-6.92 14.854-16.921 14.854-30 0-10.769-3.482-19.167-10.421-25.193-6.939-6.02-19.379-12.619-37.366-19.794l-20.794-8.08c-22.605-8.976-39.501-19.1-50.664-30.378-11.164-11.277-16.757-25.374-16.757-42.291 0-21.283 8.1-38.457 24.276-51.524 15.921-13.326 35.95-19.993 60.087-19.993Zm217.648 236.859c4.874-.765 8.866.193 11.929 2.88 3.087 2.692 4.642 6.47 4.642 11.338 0 7.177-3.597 12.756-10.792 16.735-7.194 3.971-16.826 5.957-28.894 5.957-14.9 0-26.272-3.97-34.093-11.913-7.845-7.95-11.744-21.411-11.744-40.381V287.728h-14.644c-4.874 0-8.866-1.469-11.953-4.409-3.086-2.949-4.618-6.989-4.618-12.113 0-4.868 1.532-8.781 4.618-11.732 3.087-2.948 7.079-4.426 11.953-4.426h14.644v-29.983c0-5.383 1.996-10.066 5.965-14.039 3.968-3.977 8.656-5.97 14.064-5.97 5.64 0 10.467 1.995 14.436 5.973 3.991 3.97 5.987 8.65 5.987 14.036v29.981h28.106c6.939-.766 11.883 1.738 14.83 7.504 2.971 5.772 2.971 11.545 0 17.311-2.947 5.76-7.891 8.384-14.83 7.867h-28.106v117.28c0 11.277 4.48 16.916 13.461 16.916 1.3 0 4.039-.318 8.286-.954 4.247-.638 6.498-.956 6.753-.956Zm139.857-164.94c14.13 0 26.9 3.334 38.34 10.006 11.42 6.66 19.7 15.626 24.83 26.904v-15.369c0-5.648 2-10.461 5.99-14.433 3.97-3.969 8.79-5.955 14.43-5.955 5.67 0 10.54 1.984 14.65 5.957 4.11 3.97 6.17 8.783 6.17 14.431v162.646c0 5.638-2.06 10.444-6.17 14.417-4.11 3.97-8.98 5.957-14.65 5.957-5.64 0-10.46-1.987-14.43-5.957-3.99-3.973-5.99-8.779-5.99-14.417v-20.766c-1.53 9.996-8.21 19.352-20.03 28.073-12.07 8.973-26.43 13.461-43.14 13.461-15.39 0-29.918-3.592-43.518-10.779-14.645-7.428-26.713-19.281-36.206-35.561-9.515-16.278-14.25-35.054-14.25-56.328 0-16.408 2.878-31.28 8.657-44.609s13.275-24.094 22.536-32.301c9.236-8.206 19.332-14.485 30.24-18.843 10.911-4.355 21.771-6.534 32.541-6.534Zm6.54 169.955c15.18 0 28.66-5.764 40.48-17.297 12.04-11.54 18.1-28.331 18.1-50.371 0-22.047-6.06-38.713-18.1-49.99-11.82-11.54-25.3-17.311-40.48-17.311-15.9 0-29.774 5.894-41.587 17.689-12.069 12.048-18.103 28.584-18.103 49.612 0 21.274 6.034 37.933 18.103 49.977 11.813 11.795 25.687 17.691 41.587 17.691Zm246.5-171.9c6.17 0 11.19 1.801 15.04 5.395 3.85 3.59 5.78 8.073 5.78 13.445 0 12.826-8.73 19.237-26.21 19.237-15.41 0-28.75 4.999-40.05 14.991-10.8 9.49-16.97 20.002-18.5 31.53v98.816c0 5.639-2 10.452-5.97 14.431-3.99 3.971-8.79 5.957-14.45 5.957-5.64 0-10.47-1.986-14.44-5.957-3.99-3.979-5.96-8.792-5.96-14.431V274.668c0-5.639 1.97-10.507 5.96-14.612 3.97-4.1 8.8-6.154 14.44-6.154 5.66 0 10.46 2.054 14.45 6.154 3.97 4.105 5.97 8.973 5.97 14.612v25.375c1.02-8.707 7.82-18.703 20.4-29.981 12.6-11.287 27.11-16.933 43.54-16.933Zm140.22 166.885c4.88-.765 8.87.193 11.93 2.88 3.09 2.692 4.64 6.47 4.64 11.338 0 7.177-3.59 12.756-10.79 16.735-7.19 3.971-16.82 5.957-28.89 5.957-14.9 0-26.27-3.97-34.1-11.913-7.84-7.95-11.74-21.411-11.74-40.381V287.728h-14.64c-4.88 0-8.87-1.469-11.95-4.409-3.09-2.949-4.62-6.989-4.62-12.113 0-4.868 1.53-8.781 4.62-11.732 3.08-2.948 7.07-4.426 11.95-4.426h14.64v-29.983c0-5.383 1.97-10.066 5.97-14.039 3.97-3.977 8.65-5.97 14.06-5.97 5.64 0 10.47 1.995 14.44 5.973 3.99 3.97 5.98 8.65 5.98 14.036v29.981h28.11c6.94-.766 11.88 1.738 14.83 7.504 2.95 5.772 2.95 11.545 0 17.311-2.95 5.76-7.89 8.384-14.83 7.867h-28.11v117.28c0 11.277 4.48 16.916 13.47 16.916 1.27 0 4.03-.318 8.28-.954 4.25-.638 6.5-.956 6.75-.956Z" style="stroke-width:2.321"/></svg>