<svg xmlns="http://www.w3.org/2000/svg" viewBox="0 0 800 640"><path d="M494.547 197a133.9 133.9 0 0 1 66.959 17.937c89.279 51.534 89.279 180.366.008 231.903-89.276 51.528-200.871-12.887-200.871-115.953C360.634 256.945 420.59 197 494.547 197Zm-.253 68.285c-51.2 0-92.719 29.373-92.719 65.602 0 36.227 41.519 65.603 92.719 65.603 51.206 0 92.732-29.376 92.732-65.603 0-36.229-41.526-65.602-92.732-65.602ZM800 203.569v76.95c-28.786 0-50.727 4.455-65.815 13.371a42.471 42.471 0 0 0-18.079 18.503v145.235h-60.275V203.576h60.275v68.07a133.284 133.284 0 0 1 30.139-46.492A75.759 75.759 0 0 1 800 203.569Zm-800 .007h60.273v254.052H0V203.576Zm292.765 254.052-43.363-58.764 35.706-51.14 75.594 109.904h-67.937Zm-112.89-254.052 70.662 98.464c11.519 16.052 11.559 37.646.1 53.742l-72.193 101.495-.249.351h-74.664l64.693-93.599c15.981-23.123 16.04-53.702.15-76.883l-57.288-83.57h68.789Zm175.679 0-70.453 102.415-35.699-51.135 37.839-51.28h68.313Z"/></svg>