<svg xmlns="http://www.w3.org/2000/svg" fill="currentColor" viewBox="0 0 1000 1000"><path d="M900 1000c-265.813 0-531.624 0-798.301-.48-14.528-1.818-27.155-6.327-39.147-12.868-32.707-17.842-52.751-44.978-59.875-81.566C1.576 899.432.883 893.697 0 888c0-257.813 0-515.624.499-774.331.89-30.397 12.186-55.648 31.792-77.034C47.331 20.227 66.375 9.701 87.943 4.061 94.532 2.339 101.309 1.333 108 0c261.368 0 522.736 0 784.984.491 6.503 1.28 12.248 1.57 17.724 2.942 24.069 6.027 44.671 17.774 61.053 36.826 8.652 10.061 15.955 20.78 20.27 33.31 2.994 8.694 5.336 17.614 7.969 26.431 0 266.701 0 533.403-.477 800.96-2.443 15.706-7.58 29.392-15.202 42.262-13.524 22.835-32.533 39.25-57.282 48.694-8.764 3.346-18.012 5.426-27.039 8.084ZM628.323 898.397c44.633-6.973 71.53-31.571 81.496-75.537 7.058-31.144 7.128-62.655.288-93.851-8.7-39.702-32.423-65.974-72.214-76.333-31.018-8.076-62.462-8.473-93.702-1.593-42.992 9.469-69.886 36.022-79.683 79.006-6.907 30.299-6.577 60.895.093 91.191 9.33 42.365 35.608 68.444 78.335 75.884 18.877 3.285 38.397 2.88 58.273 4.102 9.474-.966 18.359-1.501 27.114-2.869Zm6.537-145.714c2.271 17.546 2.476 33.889-1.439 50.066-4.073 16.832-14.458 27.632-31.806 29.519a128.115 128.115 0 0 1-32.342-.635c-13.273-1.969-22.582-10.501-26.481-23.426-6.824-22.622-6.76-45.554.043-68.155 3.966-13.176 13.56-21.427 27.089-23.697 8.657-1.454 17.723-2.074 26.44-1.27 23.391 2.16 34.781 13.77 38.496 37.596ZM458.611 650.669c-3.16-.165-5.096-.35-7.032-.352-21.334-.021-42.668.124-63.999-.122-4.605-.052-7.219 1.546-9.621 5.342-8.31 13.132-16.956 26.052-25.494 39.04-3.617 5.503-7.278 10.976-11.378 17.152-12.399-19.072-24.396-37.168-35.943-55.546-2.863-4.558-6.012-6.064-11.256-5.998-21.996.28-43.999.119-65.999.119h-7.833l79.94 122.656-82.895 124.364c1.547.469 2.15.81 2.752.81 23.332.044 46.667.175 69.996-.112 2.268-.028 5.207-2.158 6.635-4.165 6.431-9.045 12.404-18.412 18.591-27.632 7.604-11.335 15.257-22.637 23.23-34.46 1.478 2.088 2.528 3.471 3.472 4.924 12.096 18.62 24.274 37.189 36.182 55.929 2.506 3.944 5.144 5.784 10.064 5.722 22.218-.286 44.442-.115 66.664-.142 2.116-.001 4.23-.23 7.266-.408-1.604-2.71-2.632-4.598-3.8-6.396-25.15-38.738-50.254-77.509-75.581-116.133-2.48-3.781-2.464-6.245.08-9.936 8.823-12.797 17.225-25.882 26.079-39.242 16.64-25.13 33.266-50.267 49.88-75.414Zm362.272 249.177v-8.924c0-47.761.101-95.523-.134-143.283-.028-5.738 1.944-9.495 6.107-13.076 14.493-12.472 31.48-17.812 50.267-18.168 9.26-.178 18.526-.031 28.176-.031v-67.305c-32.95-3.468-61.626 4.044-83.586 30.686l-1.26-1.06v-26.098h-77.38v247.259ZM192.891 649.88h-81.134v248.24h81.134Zm-9.919-25.653c6.652-.04 9.823-4.055 9.872-11.65.123-19.3.131-38.604 0-57.904-.059-8.326-3.609-11.801-11.773-11.833a7983.885 7983.885 0 0 0-57.907-.004c-8.344.028-11.965 3.428-12.013 11.564-.115 19.523-.024 39.048-.044 58.571-.004 4.842 1.636 8.658 6.809 10.869 22.035.243 43.547.519 65.056.387Z"/></svg>