<svg xmlns="http://www.w3.org/2000/svg" fill="currentColor" viewBox="0 0 136 56"><path d="M9.726 41.301C4.129 39.758.01 34.42 0 28.068c-.009-7.573 5.827-13.707 13.044-13.717 2.669 0 5.16.839 7.228 2.274a12.702 12.702 0 0 0-3.349-.451c-7.208.011-13.054 6.145-13.044 13.717.009 4.772 2.328 8.965 5.847 11.41Zm20.133-11.566c.01 7.571-5.828 13.705-13.045 13.716a12.62 12.62 0 0 1-7.225-2.277c1.093.302 2.219.453 3.347.452 7.207-.01 13.053-6.145 13.044-13.716-.008-4.761-2.328-8.956-5.847-11.411 5.598 1.543 9.716 6.881 9.726 13.236Zm25.135 9.086v4.28l-17.029.026-.027-28.489h5.082l.026 24.223 11.948-.04Zm19.268-15.089.027 19.326h-4.854l-.011-6.821h-.07c0 4.505-2.129 7.199-5.764 7.214-3.971 0-6.33-2.96-6.343-7.93l-.013-11.789h4.854l.013 11.55c0 2.625 1.287 4.114 3.459 4.114 2.428 0 3.864-1.938 3.864-5.25l-.015-10.442 4.853.028Zm21.829 7.522.015 11.791h-4.854l-.014-11.552c0-2.623-1.326-4.154-3.608-4.154-2.574 0-4.077 1.965-4.077 5.248l.016 10.471h-4.855l-.028-19.326h4.854l.013 6.779h.069c0-4.506 2.237-7.172 5.994-7.172 4.075-.012 6.463 2.906 6.475 7.915Zm22.179-7.578.028 19.326h-4.856l-.012-6.666h-.068c0 4.433-2.453 7.046-6.583 7.059-4.64 0-7.362-3.719-7.375-10.05-.013-6.314 2.709-10.048 7.348-10.063 4.117 0 6.582 2.612 6.597 7.006h.068l-.014-6.626 4.867.014Zm-4.586 9.669c0-3.578-1.729-6.05-4.681-6.034-2.949 0-4.665 2.273-4.665 6.049 0 3.775 1.729 6.008 4.68 6.008 2.937 0 4.666-2.472 4.666-6.023Zm22.353-9.46-1.394 4.549a5.326 5.326 0 0 0-2.575-.688c-2.829 0-4.521 2.427-4.521 6.512l.014 8.744h-4.852l-.028-19.326h4.853l.013 7.971h.069c0-5.277 2.091-8.365 5.577-8.365 1.073-.013 2.106.225 2.844.603Z"/></svg>