<svg xmlns="http://www.w3.org/2000/svg" fill="currentColor" viewBox="0 0 172 56"><path d="M81.94 28.63c-.73-1.46-1.75-2.62-3.1-3.42-1.35-.8-2.91-1.2-4.77-1.2s-3.53.44-4.99 1.28c-1.49.87-2.62 2.04-3.46 3.57-.84 1.49-1.24 3.21-1.24 5.14 0 1.93.44 3.64 1.31 5.14.87 1.49 2.08 2.7 3.64 3.53 1.57.84 3.32 1.28 5.28 1.28 1.09 0 2.26-.22 3.46-.62 1.2-.4 2.22-.91 3.02-1.57.4-.29.58-.66.58-1.09s-.22-.84-.66-1.2c-.29-.26-.66-.36-1.09-.36-.47 0-.87.15-1.2.4-.51.4-1.17.73-1.93.98-.8.26-1.53.4-2.26.4-1.82 0-3.39-.51-4.63-1.53-1.28-1.02-2.04-2.37-2.3-4.04h13.62c.51 0 .87-.15 1.2-.44.29-.29.47-.69.58-1.2.03-1.92-.33-3.6-1.06-5.05zm-14.28 3.79c.29-1.6.98-2.88 2.08-3.83 1.06-.95 2.48-1.46 4.26-1.42 1.57 0 2.84.47 3.83 1.42.98.95 1.57 2.22 1.79 3.83H67.66zM1.9 28.12c.05 0 .1 0 .15-.01.03 0 .05.01.07.01.03 0 .06-.01.09-.01s.06.01.09.01.05-.01.07-.01.05.01.07.01h.04c.02 0 .04 0 .05-.01.02 0 .04.01.05.01H27.5V24.3H12.14c-.04 0-.09 0-.15.01-.03 0-.05-.01-.07-.01h-1.17c-.05 0-.11 0-.17.01-.04-.01-.08-.01-.12-.01H9.41c-.07 0-.15.01-.23.02-.05-.01-.11-.02-.17-.02h-.95c-.09 0-.19.01-.3.03-.07-.02-.14-.03-.21-.03H6.71c-.11 0-.23.01-.34.04h-.04c-.09-.02-.18-.04-.28-.04h-.34H5.36c-.11 0-.23.01-.35.04H4.94c-.1-.02-.2-.04-.31-.04h-.21c-.04 0-.08 0-.12.01-.03 0-.07-.01-.1-.01h-.55c-.09 0-.17.01-.26.02-.08-.01-.16-.02-.25-.02h-.11c-.07 0-.14 0-.2.01-.04 0-.08-.01-.12-.01h-.08c-.13 0-.26.01-.39.04h-.03c-.03 0-.06-.01-.09-.01-.04 0-.07.01-.11.01-.04 0-.07-.01-.11-.01-1.02 0-1.89.84-1.89 1.89 0 1.02.84 1.9 1.89 1.9zM55.71 25.13c-1.31-.69-2.81-1.09-4.44-1.09-1.2 0-2.33.22-3.39.62s-1.97 1.02-2.73 1.79v-.4c0-.55-.18-.98-.51-1.31-.33-.33-.77-.51-1.31-.51-.51 0-.95.18-1.31.51-.36.33-.51.77-.51 1.31v17.92h3.68V31.94c0-.87.22-1.64.69-2.33.47-.69 1.13-1.24 1.93-1.64.84-.4 1.75-.62 2.73-.62 1.71 0 3.1.51 4.15 1.49 1.06.98 1.57 2.44 1.57 4.41V44h3.68V33.22c0-1.93-.36-3.61-1.13-4.95-.73-1.39-1.79-2.45-3.1-3.14zM171.99 42.32c0-.47-.15-.87-.51-1.28l-5.72-6.81 5.43-7.07c.33-.4.51-.91.51-1.42 0-.44-.11-.8-.4-1.09-.29-.29-.66-.44-1.13-.44-.55 0-.98.22-1.31.62l-5.28 7.03-5.94-7.03c-.33-.4-.77-.62-1.35-.62-.51 0-.91.15-1.17.44-.26.29-.4.66-.4 1.06 0 .47.18.91.55 1.35l5.94 6.99-5.54 6.96c-.33.4-.51.84-.51 1.31 0 .44.11.8.4 1.09s.66.44 1.13.44c.47 0 .91-.18 1.28-.58l5.43-6.81 5.72 6.81c.26.4.69.58 1.28.58.47 0 .87-.15 1.17-.44.28-.28.42-.65.42-1.09zM100.95 25.38c-1.49-.87-3.17-1.31-4.99-1.31-1.86 0-3.53.44-5.03 1.31-1.53.87-2.7 2.08-3.57 3.61-.87 1.53-1.28 3.21-1.28 5.06 0 1.86.4 3.57 1.2 5.06.8 1.53 1.89 2.7 3.32 3.57 1.38.87 2.95 1.28 4.7 1.28 1.38 0 2.7-.29 3.86-.87 1.2-.58 2.22-1.38 3.06-2.4v3.28h3.61v-9.91c0-1.86-.44-3.57-1.31-5.06-.87-1.54-2.07-2.74-3.57-3.62zm.51 12.1c-.55 1.02-1.31 1.82-2.3 2.4-.98.58-2.04.87-3.24.87s-2.3-.29-3.24-.87c-.98-.58-1.75-1.38-2.3-2.4s-.84-2.15-.84-3.42c0-1.28.29-2.4.84-3.46.55-1.02 1.31-1.82 2.3-2.44.98-.58 2.04-.87 3.24-.87s2.3.29 3.24.87c.98.58 1.71 1.38 2.3 2.44.55 1.02.84 2.19.84 3.46 0 1.23-.29 2.4-.84 3.42zM148.75 25.2c-1.35-.8-2.91-1.2-4.77-1.2s-3.53.44-4.99 1.28c-1.49.87-2.62 2.04-3.46 3.57-.84 1.49-1.24 3.21-1.24 5.14 0 1.93.44 3.64 1.31 5.14.87 1.49 2.08 2.7 3.64 3.53s3.32 1.28 5.28 1.28c1.09 0 2.26-.22 3.46-.62 1.2-.4 2.22-.91 3.02-1.57.4-.29.58-.66.58-1.09s-.22-.84-.66-1.2c-.29-.26-.66-.36-1.09-.36-.47 0-.87.15-1.2.4-.51.4-1.17.73-1.93.98-.8.26-1.53.4-2.26.4-1.82 0-3.39-.51-4.63-1.53-1.28-1.02-2.04-2.37-2.3-4.04h13.62c.51 0 .87-.15 1.2-.44s.47-.69.58-1.2c0-1.89-.36-3.57-1.09-5.03-.7-1.47-1.72-2.64-3.07-3.44zm-11.18 7.22c.29-1.6.98-2.88 2.08-3.83 1.09-.95 2.51-1.46 4.26-1.42 1.57 0 2.84.47 3.83 1.42.98.95 1.57 2.22 1.79 3.83h-11.96zM125.65 25.13c-1.31-.73-2.81-1.09-4.44-1.09-1.2 0-2.33.22-3.39.62s-1.97 1.02-2.73 1.79v-.4c0-.55-.18-.98-.51-1.31-.33-.33-.77-.51-1.31-.51-.51 0-.95.18-1.31.51-.36.33-.51.77-.51 1.31v17.92h3.68V31.94c0-.87.22-1.64.69-2.33.47-.69 1.13-1.24 1.93-1.64.84-.4 1.75-.62 2.73-.62 1.71 0 3.1.51 4.15 1.49 1.06.98 1.57 2.44 1.57 4.41V44h3.68V33.22c0-1.93-.36-3.61-1.13-4.95-.73-1.39-1.78-2.45-3.1-3.14zM27.11 39.77h-9.14c-.03 0-.07 0-.11.01-.01 0-.02-.01-.03-.01H12.03h-1.32c-.1 0-.21.01-.33.04h-.18c-.07-.02-.14-.04-.21-.04h-.62c-.1 0-.21.01-.33.04H8.8c-.08-.02-.15-.04-.23-.04h-.51c-.11 0-.21.01-.33.04h-.36c-.08-.02-.17-.04-.26-.04h-.4c-.04 0-.07 0-.11.01-.03 0-.05-.01-.07-.01h-.37c-.08 0-.17.01-.26.02-.07-.01-.14-.02-.22-.02H5.4c-.06 0-.12 0-.18.01-.05-.01-.1-.01-.15-.01h-.25c-.1 0-.2.01-.31.03-.09-.02-.18-.03-.28-.03h-.22c-.07 0-.13 0-.2.01-.07-.01-.13-.01-.2-.01h-.14c-.12 0-.23.01-.35.04-.11-.02-.23-.04-.34-.04h-.11c-.08 0-.17.01-.25.02-.06-.01-.12-.02-.19-.02h-.04c-.13 0-.27.02-.4.05-.97.06-1.79.86-1.79 1.88s.84 1.89 1.89 1.89c.07 0 .13 0 .2-.01.03 0 .06.01.09.01.04 0 .07-.01.11-.01.04 0 .07.01.11.01h.04c.02 0 .05-.01.07-.01.04 0 .08.01.11.01h.08c.04 0 .07 0 .11-.01.04 0 .07.01.11.01H24.47c.04 0 1.82.04 1.86 0h1.13v-3.78h-.29l-.06-.04zM29.15 32.05c-.05 0-.09.01-.15.01-.05 0-.1-.01-.15-.01h-.04c-.12 0-.24.01-.35.04h-.01c-.05 0-.09.01-.14.01-.05 0-.1-.01-.15-.01h-.07c-.03 0-.05.01-.08.01h-.08c-.12-.03-.25-.04-.38-.04h-.15c-.11 0-.23.01-.33.04h-.11-.01c-.12-.03-.25-.04-.38-.04H25.98c-.1 0-.2.01-.3.04h-.07-.01c-.12-.03-.24-.04-.35-.04h-.33c-.09 0-.19.01-.28.04h-.37c-.12-.02-.23-.04-.34-.04h-.43c-.08 0-.16.01-.23.03-.11-.02-.21-.03-.31-.03h-.87c-.06 0-.12.01-.18.02-.09-.01-.18-.02-.26-.02h-.62c-.07 0-.15.01-.21.04h-.15c-.12-.02-.23-.04-.33-.04h-.73c-.03 0-.06 0-.09.01-.06-.01-.11-.01-.16-.01h-2.22c-.04 0-.09.01-.13.03-.1-.01-.2-.03-.27-.03H3.65v3.82H28c.05 0 .09 0 .14-.01.03 0 .05.01.08.01h.07c.04 0 .08-.01.12-.01.04 0 .09.01.13.01h.04c.05 0 .09-.01.14-.01.05 0 .1.01.15.01.14 0 .27-.01.4-.04.99-.04 1.83-.86 1.83-1.89-.05-1.02-.89-1.9-1.95-1.9z"/></svg>