<svg xmlns="http://www.w3.org/2000/svg" fill="currentColor" viewBox="0 0 1763 640"><path d="M839.861 302.926c-7.468-14.938-17.925-26.886-31.741-35.103-13.818-8.215-29.876-12.323-48.922-12.323-19.044 0-36.223 4.481-51.16 13.071-15.313 8.96-26.89 20.913-35.478 36.597-8.587 15.311-12.696 32.864-12.696 52.654 0 19.792 4.481 37.343 13.444 52.654 8.961 15.314 21.286 27.637 37.342 36.225 16.061 8.585 33.985 13.068 54.149 13.068 11.205 0 23.153-2.243 35.478-6.348 12.324-4.108 22.782-9.336 30.997-16.056 4.108-2.989 5.973-6.724 5.973-11.205 0-4.48-2.239-8.588-6.722-12.323-2.988-2.614-6.722-3.734-11.205-3.734-4.851 0-8.959 1.493-12.321 4.107-5.227 4.108-11.951 7.47-19.793 10.081-8.214 2.617-15.685 4.11-23.152 4.11-18.671 0-34.731-5.229-47.43-15.685-13.066-10.455-20.911-24.273-23.523-41.447h139.665c5.228 0 8.964-1.498 12.324-4.483 2.989-2.99 4.854-7.098 5.976-12.324 0-19.42-3.735-36.6-11.205-51.536Zm-146.388 38.838c2.991-16.43 10.085-29.502 21.286-39.212 10.831-9.708 25.395-14.935 43.691-14.564 16.059 0 29.131 4.856 39.213 14.564 10.082 9.71 16.059 22.782 18.296 39.212H693.473ZM19.419 297.699c.485 0 1.009-.036 1.494-.075.259 0 .485.075.747.075.298 0 .597-.075.933-.112.336 0 .632.112.933.112.262 0 .486-.075.745-.075.265 0 .487.075.75.075h.373c.187 0 .373-.036.561-.075.187 0 .371.075.557.075h.749c.224 0 .483-.036.708-.036.264 0 .525.036.784.036h.749c.111 0 .224-.036.336-.036.148 0 .3.036.411.036h1.121c.072 0 .185-.036.259-.036.151 0 .338.036.488.036h1.12c.221 0 .409-.036.633-.036.15 0 .337.036.487.036h246.47V258.49H124.356c-.449 0-.934.037-1.496.108-.261-.035-.522-.108-.747-.108h-11.949c-.56 0-1.156.037-1.792.108a6.805 6.805 0 0 0-1.197-.108H96.347a13.5 13.5 0 0 0-2.391.223c-.559-.115-1.117-.223-1.718-.223h-9.706c-.973 0-1.981.108-3.027.295a8.682 8.682 0 0 0-2.205-.295h-8.588c-1.161 0-2.314.145-3.509.371h-.374c-.934-.226-1.868-.371-2.84-.371h-7.095c-1.155 0-2.352.145-3.546.371h-.783a14.29 14.29 0 0 0-3.138-.371h-2.241c-.412 0-.821.037-1.233.073-.334-.036-.672-.073-1.007-.073h-5.603c-.897 0-1.794.073-2.689.223-.822-.115-1.679-.223-2.537-.223h-1.121c-.709 0-1.419.037-2.092.145-.41-.037-.821-.145-1.269-.145h-.748a17.75 17.75 0 0 0-3.995.447c-.113 0-.186.036-.299.036-.298 0-.6-.112-.933-.112-.375 0-.747.076-1.12.112-.375-.036-.748-.112-1.121-.112C8.964 258.861 0 267.448 0 278.28c0 10.457 8.59 19.419 19.419 19.419Zm551.568-30.623c-13.445-7.095-28.757-11.202-45.562-11.202-12.32 0-23.899 2.24-34.729 6.349-10.828 4.108-20.165 10.453-28.006 18.298v-4.108c0-5.602-1.867-10.082-5.229-13.443-3.36-3.362-7.843-5.23-13.442-5.23-5.23 0-9.714 1.868-13.446 5.23-3.732 3.361-5.228 7.841-5.228 13.443v183.731h37.719V336.91c0-8.964 2.24-16.806 7.092-23.902 4.858-7.094 11.579-12.695 19.794-16.801 8.592-4.11 17.926-6.349 28.008-6.349 17.551 0 31.741 5.226 42.572 15.31 10.831 10.079 16.056 25.017 16.056 45.185v110.165h37.717V349.98c0-19.795-3.733-36.972-11.575-50.789-7.469-14.189-18.298-25.018-31.741-32.115ZM1763 443.341c0-4.853-1.493-8.965-5.228-13.073l-58.629-69.831 55.641-72.449c3.362-4.107 5.228-9.334 5.228-14.562 0-4.48-1.119-8.216-4.108-11.203-2.988-2.99-6.721-4.483-11.578-4.483-5.599 0-10.08 2.241-13.441 6.35l-54.15 72.072-60.869-72.072c-3.361-4.109-7.843-6.35-13.819-6.35-5.227 0-9.333 1.493-11.949 4.483-2.615 2.987-4.108 6.723-4.108 10.829 0 4.853 1.868 9.335 5.603 13.818l60.869 71.702-56.762 71.324c-3.361 4.109-5.229 8.592-5.229 13.445 0 4.477 1.122 8.213 4.109 11.202 2.985 2.983 6.721 4.484 11.575 4.484 4.855 0 9.337-1.871 13.072-5.979l55.64-69.832 58.63 69.832c2.615 4.108 7.094 5.979 13.071 5.979 4.857 0 8.963-1.501 11.95-4.484 2.989-2.989 4.482-6.725 4.482-11.202Zm-728.206-173.652c-15.308-8.961-32.488-13.44-51.159-13.44-19.046 0-36.223 4.479-51.536 13.44-15.682 8.965-27.632 21.288-36.596 36.971-8.963 15.685-13.07 32.863-13.07 51.912 0 19.042 4.107 36.593 12.325 51.904 8.213 15.684 19.419 27.637 33.982 36.594 14.19 8.966 30.25 13.074 48.175 13.074 14.188 0 27.631-2.988 39.584-8.963 12.321-5.977 22.779-14.19 31.368-24.648v33.611h36.968V358.572c0-19.049-4.478-36.601-13.442-51.912-8.964-15.683-21.286-28.006-36.599-36.971Zm5.231 123.983c-5.604 10.458-13.447 18.671-23.526 24.646-10.085 5.973-20.916 8.962-33.239 8.962-12.322 0-23.526-2.989-33.235-8.962-10.082-5.975-17.926-14.188-23.525-24.646-5.603-10.456-8.59-22.032-8.59-35.1 0-13.073 2.987-24.647 8.59-35.479 5.599-10.458 13.443-18.672 23.525-25.02 10.085-5.976 20.913-8.963 33.235-8.963 12.323 0 23.529 2.987 33.239 8.963 10.079 5.975 17.552 14.189 23.526 25.02 5.601 10.458 8.591 22.406 8.591 35.479 0 12.697-2.99 24.644-8.591 35.1Zm484.722-125.849c-13.818-8.215-29.878-12.323-48.924-12.323-19.042 0-36.221 4.481-51.157 13.071-15.311 8.96-26.888 20.913-35.478 36.597-8.59 15.311-12.697 32.864-12.697 52.654 0 19.792 4.48 37.343 13.443 52.654 8.964 15.314 21.285 27.637 37.347 36.225 16.054 8.585 33.98 13.068 54.146 13.068 11.204 0 23.153-2.243 35.476-6.348 12.326-4.108 22.78-9.336 30.997-16.056 4.107-2.989 5.974-6.724 5.974-11.205 0-4.48-2.24-8.588-6.72-12.323-2.989-2.614-6.723-3.734-11.203-3.734-4.857 0-8.963 1.493-12.323 4.107-5.231 4.108-11.953 7.47-19.795 10.081-8.215 2.617-15.682 4.11-23.152 4.11-18.674 0-34.729-5.229-47.427-15.685-13.068-10.455-20.914-24.273-23.525-41.447h139.664c5.229 0 8.962-1.498 12.322-4.483 3.361-2.99 4.856-7.098 5.977-12.324 0-19.42-3.736-36.6-11.204-51.536-7.468-14.938-17.925-26.886-31.741-35.103Zm-114.646 73.941c2.988-16.43 10.085-29.502 21.287-39.212 11.201-9.708 25.765-14.935 43.69-14.564 16.061 0 29.129 4.856 39.213 14.564 10.083 9.71 16.057 22.782 18.296 39.212h-122.486Zm-122.115-74.688c-13.442-7.468-28.754-11.202-45.56-11.202-12.324 0-23.902 2.24-34.727 6.349-10.83 4.108-20.166 10.453-28.01 18.298v-4.108c0-5.602-1.865-10.082-5.226-13.443-3.362-3.362-7.844-5.23-13.445-5.23-5.23 0-9.708 1.868-13.445 5.23-3.733 3.361-5.227 7.841-5.227 13.443v183.731h37.718V336.91c0-8.964 2.241-16.806 7.093-23.902 4.855-7.094 11.58-12.695 19.796-16.801 8.586-4.11 17.919-6.349 28.004-6.349 17.552 0 31.742 5.226 42.572 15.31 10.831 10.079 16.06 25.017 16.06 45.185v110.165h37.717V349.98c0-19.795-3.737-36.972-11.574-50.789-7.472-14.189-18.3-25.018-31.746-32.115ZM277.837 417.198h-93.732c-.297 0-.708.038-1.156.075a1.185 1.185 0 0 0-.336-.075H109.79c-1.007 0-2.165.149-3.362.374h-1.939c-.71-.225-1.418-.374-2.168-.374h-6.349c-1.009 0-2.166.149-3.36.374H90.11a8.555 8.555 0 0 0-2.353-.374h-5.225c-1.085 0-2.203.149-3.4.374h-3.624c-.858-.225-1.754-.374-2.689-.374h-4.107c-.375 0-.744.038-1.12.075-.263 0-.486-.075-.747-.075H63.11c-.858 0-1.719.075-2.613.226a11.025 11.025 0 0 0-2.24-.226H55.27c-.599 0-1.196.038-1.83.113a10.958 10.958 0 0 0-1.533-.113h-2.613c-1.047 0-2.091.113-3.138.301a14.233 14.233 0 0 0-2.836-.301h-2.241c-.71 0-1.382.038-2.092.149-.671-.074-1.343-.149-2.018-.149h-1.493c-1.194 0-2.391.113-3.584.374a17.979 17.979 0 0 0-3.511-.374h-1.12c-.858 0-1.719.075-2.538.187-.638-.074-1.273-.187-1.944-.187h-.374c-1.381 0-2.763.187-4.071.487C8.366 418.281 0 426.533 0 436.991c0 10.455 8.59 19.417 19.419 19.417.671 0 1.342-.037 2.017-.114.336 0 .633.114.969.114.374 0 .748-.114 1.121-.114.375.039.745.114 1.12.114h.375c.222 0 .482-.075.706-.075.376.038.785.075 1.16.075h.748c.375 0 .708-.037 1.082-.075.375.038.749.075 1.16.075h.745c.187 0 .374-.037.561-.037.299 0 .597.037.934.037h1.12c.149 0 .298-.037.446-.037.224 0 .448.037.674.037h1.493c.297 0 .596-.037.859-.037.223 0 .41.037.634.037h1.494c.15 0 .3 0 .409-.037.114 0 .228.037.337.037h1.869c.15 0 .3 0 .41-.037.114 0 .225.037.337.037h1.867c.15 0 .299 0 .448-.037.112 0 .186.037.299.037h205.39c.376 0 18.671.375 19.043 0h11.581v-38.836h-2.99v-.374Zm20.913-79.166c-.521 0-.972.11-1.496.146-.483-.036-1.006-.146-1.49-.146h-.377a19.02 19.02 0 0 0-3.62.372h-.111c-.486 0-.973.111-1.457.149-.523-.038-1.007-.149-1.532-.149h-.746c-.298 0-.56.075-.821.075-.3-.037-.558-.037-.859-.037a19.236 19.236 0 0 0-3.922-.41h-1.492c-1.16 0-2.317.146-3.401.372h-.333c-.301 0-.561.038-.822.038h-.15a19.156 19.156 0 0 0-3.887-.41h-2.238c-.188 0-.338.036-.524.036-.189 0-.411-.036-.598-.036h-2.611c-1.048 0-2.056.146-3.027.372h-.861a16.877 16.877 0 0 0-3.583-.372h-3.36c-.972 0-1.903.146-2.84.372h-3.733c-1.196-.226-2.39-.372-3.509-.372h-4.481c-.823 0-1.606.11-2.394.334a16.458 16.458 0 0 0-3.208-.334h-8.965c-.634 0-1.232.11-1.829.223a16.977 16.977 0 0 0-2.651-.223h-6.348c-.749 0-1.493.146-2.204.372h-1.532c-1.194-.226-2.352-.372-3.359-.372h-7.471a4.34 4.34 0 0 0-.97.11 13.596 13.596 0 0 0-1.643-.11h-11.949c-.113 0-.261.036-.374.036-.41-.036-.785-.036-1.121-.036h-9.335c-.448 0-.895.11-1.343.259a21.15 21.15 0 0 0-2.764-.259h-35.85c-.075 0-.151.036-.226.036-.374-.036-.67-.036-.894-.036H37.343v39.208h230.412c.113 0 .224-.037.337-.037.147 0 .297.037.412.037h2.611c.112 0 .222 0 .336-.037.151 0 .296.037.411.037h2.242c.186 0 .336-.037.483-.037.225 0 .41.037.637.037h1.869c.225 0 .447-.037.671-.037.261 0 .521.037.822.037h1.493c.299 0 .56-.037.82-.037.338.037.671.037 1.047.037h1.495c.296 0 .594-.037.86-.037.332 0 .669.037 1.007.037h1.119c.486 0 .973-.037 1.419-.075.261 0 .524.075.821.075h.748c.411 0 .822-.111 1.268-.149.45.038.899.149 1.344.149h.375c.485 0 .972-.111 1.454-.149.525.038 1.009.149 1.531.149 1.421 0 2.765-.149 4.074-.447 10.157-.375 18.708-8.775 18.708-19.345 0-10.456-8.589-19.416-19.419-19.416Z"/></svg>