<svg xmlns="http://www.w3.org/2000/svg" fill="currentColor" viewBox="0 0 1342 640"><path d="M231.766 191.658c0 19.279-8.336 26.57-23.96 26.57-13.526 0-23.429-5.736-23.429-26.04 0-18.752 8.846-26.572 23.429-26.572 15.114 0 23.96 5.738 23.96 26.042Zm-98.445 65.612c5.208 1.552 7.291 4.692 7.291 9.371 0 3.127-2.1 11.988-4.696 21.365-.513 3.636-3.638 5.719-6.765 5.719-3.123 0-7.291-.528-9.373-1.042-15.097-4.165-31.234-5.207-42.179-5.207-27.085 0-31.251 10.419-31.251 22.387 0 9.905 2.611 15.625 27.082 22.918l26.041 7.821c34.36 10.931 48.431 23.942 48.431 58.847 0 36.985-21.346 61.986-76.554 61.986-21.861 0-50.513-3.123-65.096-9.903C2.085 449.978 0 446.853 0 442.156c0-4.182 2.085-11.472 5.208-20.32 1.571-4.694 4.679-7.29 8.335-7.29 2.084 0 7.819 1.041 9.902 2.084 15.113 4.693 31.781 6.776 48.962 6.776 29.678 0 33.846-11.973 33.846-23.427 0-9.892-3.655-14.569-26.572-21.347l-28.655-8.334c-30.207-8.847-46.875-25.002-46.875-58.847 0-37.502 21.364-61.46 74.999-61.46 15.114 0 39.072 1.57 54.171 7.279Zm297.918 1.583c7.292 2.085 11.458 8.336 11.458 18.751v163.544c0 18.749-1.04 37.484-4.677 52.597-10.948 40.642-54.697 56.779-126.575 56.779-7.291 0-10.945-3.127-11.986-9.374-.528-5.21-1.043-13.03-1.043-16.669 0-7.29 3.655-11.472 9.905-11.985 59.889-2.598 77.596-10.929 85.419-24.472 4.679-7.822 6.247-17.71 6.247-29.168v-6.251c-9.903 6.764-26.554 8.847-44.792 8.847-54.695 0-81.25-22.917-81.25-101.571 0-86.459 28.655-109.89 89.584-109.89 25.001 0 48.447 2.085 67.71 8.862Zm575.006 6.765c9.889 10.415 13.011 26.042 13.011 53.123v103.623c0 7.309-1.04 13.541-4.165 18.239-2.594 3.654-5.72 7.292-11.973 9.375-14.583 6.249-46.873 11.457-72.916 11.457-57.805 0-69.263-30.207-69.263-64.583 0-23.958 6.251-39.054 20.833-48.958 11.972-7.805 34.375-11.971 59.377-11.971 11.459 0 26.569.512 36.459 1.553v-13.541c0-7.277-.531-16.139-2.084-21.346-3.126-8.335-9.903-13.542-34.905-13.542-11.986 0-26.571 2.099-39.584 4.694-5.207.529-12.501 2.083-15.094 2.083-3.639 0-6.252-2.083-7.294-6.249-1.569-6.249-3.125-16.139-3.125-19.792 0-5.738 2.612-8.864 7.293-10.417 19.278-6.248 43.237-9.375 63.029-9.375 32.275 0 49.471 4.169 60.401 15.627Zm-173.432-13.014c3.655 1.042 6.251 4.184 6.251 8.863 0 5.207-1.041 17.193-2.082 22.915-1.041 3.639-4.169 5.723-8.336 5.723-4.694 0-15.64-1.042-20.319-1.042-12.485 0-23.945 2.083-30.722 6.249-2.613 1.027-5.208 3.126-6.251 5.723-.528 2.081-1.571 5.737-1.571 11.457v133.334c0 6.251-3.108 10.417-8.847 10.417h-24.469c-6.25 0-8.848-3.638-8.848-10.417V293.741c0-13.54 2.598-18.75 10.415-25 11.462-8.861 44.78-18.75 72.392-18.75 10.93 0 17.708 1.044 22.387 2.613Zm-612.49 2.083c7.275 0 8.846 4.166 8.846 10.417v180.74c0 6.778-3.125 10.415-8.846 10.415h-24.486c-5.737 0-8.863-3.125-8.863-10.415V265.633c0-6.267 2.084-10.946 8.863-10.946h24.486Zm319.298.512c6.25 0 8.846 4.167 8.846 10.419v117.724c0 10.417.513 20.832 2.598 26.04 3.125 8.848 13.026 13.015 31.25 13.015 18.22 0 29.148-2.083 35.928-4.167 2.614-.528 5.722-2.611 7.293-4.696 1.553-2.083 2.595-6.248 2.595-11.457V265.618c0-5.738 2.598-10.419 8.849-10.419h24.487c5.72 0 8.845 3.654 8.845 10.419v157.806c0 13.54-5.193 20.833-13.015 25.001-22.915 10.415-57.29 12.498-82.29 12.498-42.709 0-58.335-10.418-64.072-26.557-3.637-10.942-4.679-27.08-4.679-44.791V265.618c0-5.738 2.067-10.419 8.846-10.419h24.519ZM317.167 358.325c0 45.322 8.863 64.586 41.154 64.586 13.03 0 26.571-1.027 35.946-5.722 2.612-1.553 5.209-3.655 6.25-6.25.531-1.557 1.041-5.208 1.041-8.334V304.16c0-7.277-2.082-10.419-5.721-11.972-6.25-2.613-19.26-3.655-29.166-3.655-42.71 0-50 19.263-49.504 69.792Zm591.707 16.137c-5.739 3.639-8.334 9.38-8.334 20.835 0 18.237 6.249 30.738 34.375 30.738 16.137 0 27.611-2.611 34.375-5.21 3.124-1.569 5.72-4.18 6.25-6.777 1.026-3.638 1.555-8.335 1.555-13.543v-31.249c-8.35-.511-21.362-1.553-31.782-1.553-18.749 0-30.207 2.081-36.439 6.759Zm310.401-14.87c14.072-2.085 53.64-11.459 109.379-43.752 1.553-.511 2.082.515 2.082 1.556-8.334 14.07-42.71 59.375-111.461 44.262-1.042.017-1.042-2.066 0-2.066Zm-71.363-73.959c17.711-2.596 93.753-18.75 184.906-74.999 1.557-.531 2.597 0 2.597.526l5.738 11.972c.528 2.085.528 4.167-.529 6.252-9.888 13.012-53.125 63.027-139.584 120.834-2.599 1.554-5.738 2.083-8.335 0-10.943-7.293-36.986-27.085-47.405-61.46-1.024 0 .547-2.082 2.612-3.125Zm138.034-119.81c2.594 1.571 5.733 2.595 8.331 4.169 2.083 1.554 2.083 3.653.529 5.208-41.667 39.071-96.875 79.183-151.043 101.57-2.084 1.058-4.167-.512-4.167-2.593 0-4.17-.527-8.336-.527-13.544 0-10.929 2.61-21.347 5.207-30.723.527-.526 1.554-2.082 2.082-2.082 33.864-9.903 84.376-28.638 137.503-61.458.528-1.044 2.085-1.044 2.085-.547Z"/></svg>