<svg xmlns="http://www.w3.org/2000/svg" fill="currentColor" viewBox="0 0 129 56"><path d="M20.01 15.01c-1.4 0-2.25.75-2.25 2.55 0 1.95.95 2.5 2.25 2.5 1.5 0 2.3-.7 2.3-2.55 0-1.95-.85-2.5-2.3-2.5zM7.65 23.12c-5.15 0-7.21 2.3-7.21 5.91 0 3.25 1.6 4.8 4.5 5.66l2.75.8c2.2.65 2.55 1.1 2.55 2.05 0 1.1-.4 2.25-3.25 2.25-1.65 0-3.25-.2-4.7-.65-.2-.1-.75-.2-.95-.2-.35 0-.65.25-.8.7-.3.85-.5 1.55-.5 1.95 0 .45.2.75.6.9 1.4.65 4.16.95 6.26.95 5.31 0 7.36-2.4 7.36-5.96 0-3.35-1.35-4.6-4.65-5.66l-2.5-.75c-2.35-.7-2.6-1.25-2.6-2.2 0-1.15.4-2.15 3-2.15 1.05 0 2.6.1 4.05.5.2.05.6.1.9.1.3 0 .6-.2.65-.55.25-.9.45-1.75.45-2.05 0-.45-.2-.75-.7-.9-1.46-.55-3.76-.7-5.21-.7zm27.33 0c-5.86 0-8.61 2.25-8.61 10.56 0 7.56 2.55 9.76 7.81 9.76 1.75 0 3.35-.2 4.3-.85v.6c0 1.1-.15 2.05-.6 2.8-.75 1.3-2.45 2.1-8.21 2.35-.6.05-.95.45-.95 1.15 0 .35.05 1.1.1 1.6.1.6.45.9 1.15.9 6.91 0 11.11-1.55 12.16-5.46.35-1.45.45-3.25.45-5.05V25.77c0-1-.4-1.6-1.1-1.8-1.85-.65-4.1-.85-6.5-.85zm55.96 0c-1.9 0-4.2.3-6.06.9-.45.15-.7.45-.7 1 0 .35.15 1.3.3 1.9.1.4.35.6.7.6.25 0 .95-.15 1.45-.2 1.25-.25 2.65-.45 3.8-.45 2.4 0 3.05.5 3.35 1.3.15.5.2 1.35.2 2.05v1.3c-.95-.1-2.4-.15-3.5-.15-2.4 0-4.56.4-5.71 1.15-1.4.95-2 2.4-2 4.7 0 3.3 1.1 6.21 6.66 6.21 2.5 0 5.61-.5 7.01-1.1.6-.2.9-.55 1.15-.9.3-.45.4-1.05.4-1.75v-9.96c0-2.6-.3-4.1-1.25-5.11-1.05-1.09-2.7-1.49-5.8-1.49zm-13.02 0c-2.65 0-5.86.95-6.96 1.8-.75.6-1 1.1-1 2.4v14.62c0 .65.25 1 .85 1h2.35c.55 0 .85-.4.85-1V29.13c0-.55.1-.9.15-1.1.1-.25.35-.45.6-.55.65-.4 1.75-.6 2.95-.6.45 0 1.5.1 1.95.1.4 0 .7-.2.8-.55.1-.55.2-1.7.2-2.2 0-.45-.25-.75-.6-.85-.44-.16-1.09-.26-2.14-.26zm-59.06.45c-.65 0-.85.45-.85 1.05v17.32c0 .7.3 1 .85 1h2.35c.55 0 .85-.35.85-1V24.57c0-.6-.15-1-.85-1h-2.35zm30.68.05c-.65 0-.85.45-.85 1v11.91c0 1.7.1 3.25.45 4.3.55 1.55 2.05 2.55 6.16 2.55 2.4 0 5.71-.2 7.91-1.2.75-.4 1.25-1.1 1.25-2.4V24.62c0-.65-.3-1-.85-1h-2.35c-.6 0-.85.45-.85 1v13.11c0 .5-.1.9-.25 1.1-.15.2-.45.4-.7.45-.65.2-1.7.4-3.45.4-1.75 0-2.7-.4-3-1.25-.2-.5-.25-1.5-.25-2.5V24.62c0-.6-.25-1-.85-1h-2.37zm-14.26 3.2c.95 0 2.2.1 2.8.35.35.15.55.45.55 1.15v9.46c0 .3-.05.65-.1.8-.1.25-.35.45-.6.6-.9.45-2.2.55-3.45.55-3.1 0-3.95-1.85-3.95-6.21-.06-4.85.64-6.7 4.75-6.7zm55.61 7.61c1 0 2.25.1 3.05.15v3c0 .5-.05.95-.15 1.3-.05.25-.3.5-.6.65-.65.25-1.75.5-3.3.5-2.7 0-3.3-1.2-3.3-2.95 0-1.1.25-1.65.8-2 .59-.45 1.69-.65 3.5-.65zM117.21 33.65c1.35-.2 5.15-1.1 10.51-4.2.15-.05.2.05.2.15-.8 1.35-4.1 5.71-10.71 4.25-.1 0-.1-.2 0-.2zM110.35 26.54c1.7-.25 9.01-1.8 17.77-7.21.15-.05.25 0 .25.05l.55 1.15c.05.2.05.4-.05.6-.95 1.25-5.11 6.06-13.41 11.61-.25.15-.55.2-.8 0-1.05-.7-3.55-2.6-4.56-5.91-.1.01.06-.19.25-.29zM123.42 15.08c-5.11 3.15-9.96 4.95-13.21 5.91-.05 0-.15.15-.2.2-.25.9-.5 1.9-.5 2.95 0 .5.05.9.05 1.3 0 .2.2.35.4.25 5.21-2.15 10.51-6.01 14.51-9.76.15-.15.15-.35-.05-.5-.25-.15-.55-.25-.8-.4 0-.05-.15-.05-.2.05z"/></svg>