<svg xmlns="http://www.w3.org/2000/svg" fill="currentColor" viewBox="0 0 2700 640"><path d="M946.229 228.319h-29.592c-18.445-.109-33.481 14.753-33.592 33.194v67.983h129.53v-39.51c-18.756-20.076-45.949-38.912-66.346-61.667Zm192.358.004h-29.395c-20.434 22.795-47.667 41.632-66.423 61.747v39.31H1172.1v-67.986c-.156-18.371-15.14-33.158-33.513-33.071Zm-25.634-71.389c-2.494-22.53-21.6-39.547-44.271-39.432a46.277 46.277 0 0 0-40.99 26.875v.201-.201a46.362 46.362 0 0 0-40.991-26.875c-22.764-.239-42.008 16.81-44.51 39.432 0 1.48-.199 2.959-.199 4.48 0 53.348 66.305 78.583 85.5 114.134 19.275-35.432 85.461-60.786 85.461-114.134v-4.48Zm-229.908 202.32v68.265c.111 18.442 15.147 33.305 33.592 33.191h95.976V359.254H883.045Zm159.724 0V460.71h95.978c18.419.09 33.426-14.771 33.512-33.191v-68.27h-129.49v.005Zm343.762-80.542-21.875 33.632a112.011 112.011 0 0 0-53.626-14.077c-13.277 0-24.236 4.279-24.236 13.676 0 11.359 14.077 16.837 34.034 23.077 34.031 10.558 69.623 23.994 69.623 63.984 0 39.112-31.673 62.987-85.26 62.987-31.714 0-61.427-6.28-83.982-24.275l15.996-37.952c20.756 14.477 47.351 19.196 65.347 19.196 17.995 0 28.952-4.719 28.952-15.676 0-10.958-17.197-16.396-37.95-22.276-29.835-8.916-65.825-22.914-65.825-62.025 0-39.11 31.272-62.866 81.18-62.866a137.35 137.35 0 0 1 77.622 22.595Zm225.709 5.396v169.445a82.337 82.337 0 0 1-32.471 8.238c-15.637 0-25.034-12.917-26.194-31.313a69.062 69.062 0 0 1-60.227 31.313c-43.99 0-69.264-27.393-69.264-74.343V264.115a82.598 82.598 0 0 1 32.472-7.998c17.996 0 27.995 11.757 27.995 28.192v92.181c0 23.076 9.798 37.191 28.194 37.191 24.235 0 38.712-14.115 38.712-54.788v-94.778a82.658 82.658 0 0 1 32.633-7.998c17.995 0 28.15 11.638 28.15 27.991Zm188.96-21.473-17.596 53.467a45.685 45.685 0 0 0-24.674-7.037c-25.035 0-40.67 16.796-40.67 65.705v83.102h-60.627V264.115a82.464 82.464 0 0 1 32.471-7.998c16.398 0 26.196 14.075 26.196 34.431 14.477-25.433 34.432-34.431 54.787-34.431a77.59 77.59 0 0 1 30.113 6.518Zm221.391 89.98c0 68.865-40.67 109.176-109.136 109.176-7.437 0-17.996-.401-29.353-.799v87.06h-60.627V264.115a82.602 82.602 0 0 1 32.473-7.998c15.637 0 25.034 12.517 26.193 31.312 16.837-23.472 40.714-31.312 64.548-31.312 45.789 0 75.902 35.991 75.902 96.498Zm-61.428 0c0-30.512-12.874-48.869-36.751-48.869-23.874 0-40.31 14.076-40.31 55.548v57.108c8.997.399 16.835.399 23.474.399 33.192 0 53.587-23.474 53.587-64.186Zm242.549-89.98-17.599 53.467a45.53 45.53 0 0 0-24.633-7.037c-25.075 0-40.71 16.796-40.71 65.705v83.102h-60.628V264.115a82.589 82.589 0 0 1 32.595-7.998c16.435 0 26.193 14.075 26.193 34.431 14.476-25.433 34.431-34.431 54.786-34.431a77.64 77.64 0 0 1 29.996 6.518Zm18.356-65.705c0-20.356 12.918-31.673 33.67-31.673 20.756 0 33.633 11.317 33.633 31.673 0 20.357-12.917 32.473-33.633 32.473-20.714 0-33.67-11.719-33.67-32.473Zm3.999 260.942h60.666V260.116h-60.749l.083 197.756Zm260.061-179.16-21.875 33.632a112.016 112.016 0 0 0-53.628-14.077c-13.277 0-24.235 4.279-24.235 13.676 0 11.359 14.079 16.837 34.034 23.077 34.031 10.558 69.624 23.994 69.624 63.984 0 39.112-31.674 62.987-85.261 62.987-31.715 0-61.427-6.28-83.982-24.275l15.995-37.952c20.757 14.477 47.351 19.196 65.347 19.196 17.996 0 28.954-4.719 28.954-15.676 0-10.958-17.198-16.396-37.952-22.276-29.714-8.598-65.706-22.713-65.706-61.824 0-39.113 31.153-63.067 81.224-63.067a137.326 137.326 0 0 1 77.461 22.595Zm189.358 122.053 23.996 37.951a152.298 152.298 0 0 1-83.983 23.075c-62.186 0-98.978-36.393-98.978-98.217 0-67.267 38.75-107.578 104.857-107.578 49.668 0 78.622 25.035 78.622 66.107 0 39.51-36.393 62.984-97.016 62.984-8.598 0-17.198-.758-25.797-1.557 4.28 20.753 17.199 32.872 42.633 32.872a99.258 99.258 0 0 0 55.666-15.637Zm-99.976-51.268c8.996.799 17.995 1.198 26.233 1.198 25.034 0 39.11-9.398 39.11-25.833 0-13.317-9.397-21.916-25.832-21.916-21.716 0-36.194 17.154-39.312 46.551h-.199ZM203.714 264.995l-76.702 213.991c-14.477 40.671-43.03 69.066-71.184 72.744l-24.634-38.711c17.194-2.719 38.709-20.714 46.55-45.79l3.998-11.997c-9.758-3.519-16.396-10.957-20.715-22.274L0 264.995a81.937 81.937 0 0 1 34.712-8.878c14.837 0 29.315 5.876 36.352 27.991l20.357 64.548 14.475 61.826 14.477-61.785 26.193-92.58 57.148 8.878Zm11.717 93.898c0-64.545 38.711-102.776 105.218-102.776 66.504 0 105.615 38.351 105.615 102.897 0 64.544-39.111 102.897-105.615 102.897-66.507 0-105.218-38.471-105.218-103.018Zm149.408 0c0-34.43-16.396-55.188-43.99-55.188s-43.71 20.758-43.71 55.188c0 34.434 16.436 54.746 43.989 54.746 27.555 0 43.711-20.312 43.711-54.746Zm284.776-74.785v169.445a83.012 83.012 0 0 1-32.552 8.238c-15.636 0-25.036-12.917-26.195-31.313a69.058 69.058 0 0 1-60.226 31.313c-43.991 0-69.263-27.393-69.263-74.343V264.115a83.194 83.194 0 0 1 32.552-7.998c17.997 0 27.993 11.716 27.993 27.991v92.382c0 23.076 9.797 37.149 28.195 37.149 24.233 0 38.712-14.073 38.712-54.746v-94.778a83.245 83.245 0 0 1 32.631-7.998c17.995 0 28.153 11.596 28.153 27.991Zm188.96-21.473-17.557 53.467a45.726 45.726 0 0 0-24.675-7.076c-25.035 0-40.671 16.835-40.671 65.744v83.102h-60.665V264.115a83.244 83.244 0 0 1 32.472-7.998c16.436 0 26.196 14.075 26.196 34.431 14.475-25.433 34.43-34.431 54.786-34.431a76.946 76.946 0 0 1 30.114 6.518Z"/></svg>