<svg xmlns="http://www.w3.org/2000/svg" fill="currentColor" viewBox="0 0 248.5 56"><path d="M87.088 21.199h-2.723a3.073 3.073 0 0 0-3.092 3.053v6.26h11.923v-3.637c-1.726-1.849-4.23-3.582-6.108-5.676Zm17.705.001h-2.706c-1.879 2.097-4.387 3.83-6.114 5.682v3.619h11.904v-6.257a3.068 3.068 0 0 0-3.084-3.044Zm-2.361-6.572A4.075 4.075 0 0 0 98.358 11a4.254 4.254 0 0 0-3.771 2.473v.02-.02A4.268 4.268 0 0 0 90.812 11a4.075 4.075 0 0 0-4.094 3.628c0 .137-.02.274-.02.413 0 4.909 6.102 7.231 7.871 10.505 1.774-3.261 7.863-5.596 7.863-10.505v-.413ZM81.273 33.249v6.282a3.074 3.074 0 0 0 3.092 3.056h8.834v-9.338H81.273Zm14.7 0v9.338h8.835a3.068 3.068 0 0 0 3.083-3.056v-6.282H95.973Zm31.64-7.412-2.013 3.095a10.286 10.286 0 0 0-4.937-1.296c-1.222 0-2.23.394-2.23 1.26 0 1.045 1.296 1.549 3.133 2.123 3.131.972 6.407 2.208 6.407 5.89 0 3.599-2.915 5.797-7.847 5.797-2.918 0-5.652-.579-7.729-2.235l1.473-3.494c1.909 1.333 4.357 1.769 6.014 1.769 1.655 0 2.665-.436 2.665-1.444 0-1.009-1.584-1.51-3.494-2.049-2.746-.822-6.058-2.109-6.058-5.709 0-3.6 2.878-5.786 7.472-5.786a12.65 12.65 0 0 1 7.144 2.079Zm20.773.495v15.597a7.582 7.582 0 0 1-2.988.759c-1.439 0-2.304-1.191-2.411-2.884a6.358 6.358 0 0 1-5.544 2.884c-4.049 0-6.375-2.522-6.375-6.843V24.492a7.6 7.6 0 0 1 2.99-.734c1.656 0 2.575 1.081 2.575 2.593v8.483c0 2.126.904 3.423 2.597 3.423 2.23 0 3.562-1.297 3.562-5.041v-8.724a7.602 7.602 0 0 1 3.003-.734c1.656 0 2.591 1.07 2.591 2.574Zm17.391-1.975-1.619 4.922a4.189 4.189 0 0 0-2.27-.649c-2.305 0-3.745 1.547-3.745 6.047v7.649h-5.579V24.492a7.596 7.596 0 0 1 2.989-.734c1.509 0 2.411 1.294 2.411 3.168 1.331-2.34 3.167-3.168 5.042-3.168.955.01 1.898.216 2.771.599Zm20.378 8.28c0 6.339-3.744 10.051-10.045 10.051-.686 0-1.658-.036-2.703-.075v8.014h-5.579V24.492a7.595 7.595 0 0 1 2.988-.734c1.44 0 2.305 1.151 2.411 2.882 1.549-2.161 3.747-2.882 5.941-2.882 4.214 0 6.987 3.311 6.987 8.879Zm-5.656 0c0-2.808-1.184-4.495-3.381-4.495-2.199 0-3.711 1.296-3.711 5.111v5.256c.828.037 1.55.037 2.161.037 3.056 0 4.931-2.161 4.931-5.909Zm22.326-8.28-1.622 4.922a4.177 4.177 0 0 0-2.266-.649c-2.308 0-3.747 1.547-3.747 6.047v7.649h-5.579V24.492a7.617 7.617 0 0 1 2.998-.734c1.513 0 2.411 1.294 2.411 3.168 1.332-2.34 3.169-3.168 5.043-3.168a7.13 7.13 0 0 1 2.762.599Zm1.687-6.048c0-1.873 1.191-2.914 3.099-2.914 1.911 0 3.097 1.041 3.097 2.914 0 1.874-1.19 2.989-3.097 2.989-1.905 0-3.099-1.079-3.099-2.989Zm.368 24.017h5.586V24.124h-5.593l.007 18.202Zm23.937-16.489-2.012 3.095a10.304 10.304 0 0 0-4.937-1.296c-1.223 0-2.231.394-2.231 1.26 0 1.045 1.296 1.549 3.132 2.123 3.131.972 6.407 2.208 6.407 5.89 0 3.599-2.916 5.797-7.845 5.797-2.919 0-5.656-.579-7.73-2.235l1.472-3.494c1.908 1.333 4.357 1.769 6.015 1.769 1.654 0 2.664-.436 2.664-1.444 0-1.009-1.582-1.51-3.494-2.049-2.733-.792-6.047-2.092-6.047-5.691 0-3.599 2.868-5.804 7.477-5.804 2.53-.036 5.013.687 7.129 2.079Zm17.427 11.234 2.21 3.492a14.046 14.046 0 0 1-7.731 2.125c-5.723 0-9.109-3.351-9.109-9.04 0-6.192 3.566-9.903 9.649-9.903 4.573 0 7.237 2.305 7.237 6.084 0 3.638-3.348 5.799-8.929 5.799-.791 0-1.582-.072-2.373-.144.393 1.909 1.582 3.025 3.922 3.025a9.143 9.143 0 0 0 5.124-1.438Zm-9.202-4.719c.829.074 1.658.11 2.415.11 2.304 0 3.6-.865 3.6-2.378 0-1.225-.864-2.016-2.377-2.016-2 0-3.331 1.579-3.617 4.284h-.021ZM18.748 24.575l-7.059 19.694c-1.331 3.743-3.96 6.358-6.55 6.698l-2.268-3.564c1.584-.252 3.563-1.908 4.285-4.216l.368-1.104c-.9-.324-1.511-1.01-1.908-2.051L0 24.575a7.48 7.48 0 0 1 3.195-.817c1.364 0 2.699.539 3.346 2.574l1.874 5.942 1.331 5.691 1.334-5.687 2.41-8.52 5.258.817Zm1.08 8.641c0-5.939 3.563-9.458 9.685-9.458 6.117 0 9.719 3.528 9.719 9.469 0 5.942-3.602 9.472-9.719 9.472-6.122 0-9.685-3.541-9.685-9.483Zm13.751 0c0-3.17-1.511-5.078-4.049-5.078-2.539 0-4.022 1.908-4.022 5.078 0 3.169 1.512 5.039 4.048 5.039 2.535 0 4.023-1.87 4.023-5.039Zm26.209-6.884v15.597a7.666 7.666 0 0 1-2.994.759c-1.439 0-2.306-1.191-2.412-2.884a6.353 6.353 0 0 1-5.542 2.884c-4.05 0-6.375-2.522-6.375-6.843V24.492a7.658 7.658 0 0 1 2.993-.734c1.659 0 2.579 1.078 2.579 2.574v8.502c0 2.126.9 3.421 2.594 3.421 2.231 0 3.564-1.295 3.564-5.039v-8.724a7.65 7.65 0 0 1 3.003-.734c1.656 0 2.59 1.067 2.59 2.574Zm17.391-1.975-1.615 4.922a4.177 4.177 0 0 0-2.27-.653c-2.306 0-3.745 1.551-3.745 6.051v7.649h-5.583V24.492a7.661 7.661 0 0 1 2.99-.734c1.511 0 2.41 1.294 2.41 3.168 1.333-2.34 3.17-3.168 5.042-3.168a7.016 7.016 0 0 1 2.771.599Z"/></svg>